<?xml version="1.0" encoding="utf-8"?>
<!-- Generator: Adobe Illustrator 16.0.0, SVG Export Plug-In . SVG Version: 6.00 Build 0)  -->
<!DOCTYPE svg PUBLIC "-//W3C//DTD SVG 1.1//EN" "http://www.w3.org/Graphics/SVG/1.1/DTD/svg11.dtd">
<svg version="1.1" id="Calque_1" xmlns="http://www.w3.org/2000/svg" xmlns:xlink="http://www.w3.org/1999/xlink" x="0px" y="0px"
	 width="169.333px" height="207.292px" viewBox="0 0 169.333 207.292" enable-background="new 0 0 169.333 207.292"
	 xml:space="preserve">
<g opacity="0.07">
	<path fill="#4271AA" d="M142.257,185.524H27.481v-24.146l41.216-41.665C80.9,107.211,88.874,98.544,92.618,93.715
		c3.743-4.829,6.438-9.302,8.086-13.42c1.646-4.117,2.471-8.384,2.471-12.803c0-6.587-1.816-11.492-5.447-14.712
		c-3.632-3.218-8.479-4.829-14.543-4.829c-6.365,0-12.542,1.46-18.53,4.38c-5.991,2.92-12.241,7.075-18.755,12.466L27.032,42.448
		c8.086-6.887,14.786-11.753,20.103-14.6c5.315-2.844,11.118-5.034,17.407-6.57c6.289-1.534,13.326-2.302,21.113-2.302
		c10.256,0,19.316,1.873,27.178,5.615c7.861,3.745,13.963,8.984,18.306,15.723c4.341,6.738,6.514,14.451,6.514,23.135
		c0,7.563-1.33,14.656-3.987,21.282c-2.658,6.626-6.776,13.42-12.354,20.383c-5.578,6.963-15.404,16.884-29.479,29.761
		l-21.113,19.878v1.572h71.538V185.524z"/>
</g>
<g>
</g>
<g>
</g>
<g>
</g>
<g>
</g>
<g>
</g>
<g>
</g>
</svg>
