<?xml version="1.0" encoding="utf-8"?>
<!-- Generator: Adobe Illustrator 16.0.0, SVG Export Plug-In . SVG Version: 6.00 Build 0)  -->
<!DOCTYPE svg PUBLIC "-//W3C//DTD SVG 1.1//EN" "http://www.w3.org/Graphics/SVG/1.1/DTD/svg11.dtd">
<svg version="1.1" id="Calque_1" xmlns="http://www.w3.org/2000/svg" xmlns:xlink="http://www.w3.org/1999/xlink" x="0px" y="0px"
	 width="169.333px" height="207.292px" viewBox="0 0 169.333 207.292" enable-background="new 0 0 169.333 207.292"
	 xml:space="preserve">
<g opacity="0.07">
	<path fill="#4271AA" d="M135.855,58.059c0,10.258-3.107,18.979-9.321,26.167c-6.216,7.188-14.937,12.129-26.167,14.824v0.674
		c13.252,1.648,23.284,5.671,30.098,12.073c6.812,6.401,10.22,15.031,10.22,25.886c0,15.798-5.728,28.096-17.183,36.892
		c-11.455,8.798-27.815,13.196-49.077,13.196c-17.82,0-33.618-2.957-47.393-8.872v-29.536c6.363,3.22,13.364,5.84,21.001,7.861
		s15.198,3.032,22.686,3.032c11.455,0,19.915-1.946,25.381-5.84c5.464-3.892,8.198-10.144,8.198-18.755
		c0-7.71-3.145-13.176-9.434-16.396c-6.289-3.218-16.323-4.829-30.098-4.829H52.301V87.819h12.69
		c12.727,0,22.029-1.665,27.908-4.998c5.876-3.331,8.816-9.041,8.816-17.126c0-12.427-7.788-18.643-23.359-18.643
		c-5.391,0-10.876,0.898-16.453,2.695c-5.579,1.797-11.774,4.905-18.586,9.321l-16.06-23.921
		c14.973-10.781,32.83-16.172,53.569-16.172c16.995,0,30.415,3.445,40.261,10.332C130.932,36.198,135.855,45.781,135.855,58.059z"/>
</g>
<g>
</g>
<g>
</g>
<g>
</g>
<g>
</g>
<g>
</g>
<g>
</g>
</svg>
