<?xml version="1.0" encoding="utf-8"?>
<!-- Generator: Adobe Illustrator 16.0.0, SVG Export Plug-In . SVG Version: 6.00 Build 0)  -->
<!DOCTYPE svg PUBLIC "-//W3C//DTD SVG 1.1//EN" "http://www.w3.org/Graphics/SVG/1.1/DTD/svg11.dtd">
<svg version="1.1" id="Calque_1" xmlns="http://www.w3.org/2000/svg" xmlns:xlink="http://www.w3.org/1999/xlink" x="0px" y="0px"
	 width="169.333px" height="207.292px" viewBox="0 0 169.333 207.292" enable-background="new 0 0 169.333 207.292"
	 xml:space="preserve">
<g opacity="0.07">
	<path fill="#4271AA" d="M87.228,80.632c15.872,0,28.506,4.456,37.902,13.364c9.396,8.911,14.095,21.113,14.095,36.611
		c0,18.344-5.654,32.456-16.958,42.339c-11.306,9.883-27.478,14.824-48.516,14.824c-18.269,0-33.018-2.957-44.248-8.872v-29.985
		c5.914,3.145,12.803,5.71,20.664,7.693c7.861,1.985,15.31,2.976,22.349,2.976c21.187,0,31.782-8.684,31.782-26.055
		c0-16.545-10.969-24.819-32.905-24.819c-3.969,0-8.349,0.393-13.14,1.179c-4.792,0.786-8.686,1.628-11.68,2.527l-13.813-7.412
		l6.177-83.667h89.058v29.424H69.371L66.339,82.99l3.931-0.786C74.835,81.157,80.489,80.632,87.228,80.632z"/>
</g>
<g>
</g>
<g>
</g>
<g>
</g>
<g>
</g>
<g>
</g>
<g>
</g>
</svg>
