<?xml version="1.0" encoding="utf-8"?>
<!-- Generator: Adobe Illustrator 16.0.0, SVG Export Plug-In . SVG Version: 6.00 Build 0)  -->
<!DOCTYPE svg PUBLIC "-//W3C//DTD SVG 1.1//EN" "http://www.w3.org/Graphics/SVG/1.1/DTD/svg11.dtd">
<svg version="1.1" id="Calque_1" xmlns="http://www.w3.org/2000/svg" xmlns:xlink="http://www.w3.org/1999/xlink" x="0px" y="0px"
	 width="169.333px" height="207.292px" viewBox="0 0 169.333 207.292" enable-background="new 0 0 169.333 207.292"
	 xml:space="preserve">
<g opacity="0.07">
	<path fill="#4271AA" d="M26.358,115.783c0-32.493,6.868-56.675,20.608-72.549c13.738-15.872,34.309-23.809,61.711-23.809
		c9.358,0,16.694,0.562,22.012,1.685V48.85c-6.665-1.497-13.252-2.246-19.766-2.246c-11.904,0-21.619,1.797-29.143,5.391
		s-13.159,8.911-16.902,15.947c-3.745,7.039-5.952,17.034-6.626,29.985h1.46C67.125,85.2,78.991,78.835,95.313,78.835
		c14.673,0,26.167,4.604,34.478,13.813s12.466,21.938,12.466,38.184c0,17.52-4.941,31.389-14.824,41.609s-23.584,15.33-41.104,15.33
		c-12.129,0-22.705-2.808-31.726-8.423c-9.023-5.615-15.986-13.813-20.889-24.595C28.81,143.972,26.358,130.983,26.358,115.783z
		 M85.655,160.031c7.412,0,13.101-2.488,17.07-7.468c3.968-4.978,5.952-12.073,5.952-21.282c0-8.01-1.853-14.319-5.56-18.923
		c-3.706-4.604-9.303-6.907-16.789-6.907c-7.039,0-13.047,2.285-18.025,6.851c-4.98,4.568-7.468,9.883-7.468,15.947
		c0,8.911,2.339,16.435,7.019,22.573C72.533,156.962,78.468,160.031,85.655,160.031z"/>
</g>
<g>
</g>
<g>
</g>
<g>
</g>
<g>
</g>
<g>
</g>
<g>
</g>
</svg>
