<?xml version="1.0" encoding="utf-8"?>
<!-- Generator: Adobe Illustrator 16.0.0, SVG Export Plug-In . SVG Version: 6.00 Build 0)  -->
<!DOCTYPE svg PUBLIC "-//W3C//DTD SVG 1.1//EN" "http://www.w3.org/Graphics/SVG/1.1/DTD/svg11.dtd">
<svg version="1.1" id="Layer_1" xmlns="http://www.w3.org/2000/svg" xmlns:xlink="http://www.w3.org/1999/xlink" x="0px" y="0px"
	 width="5000px" height="5000px" viewBox="0 0 5000 5000" enable-background="new 0 0 5000 5000" xml:space="preserve">
<g>
	<g>
		<g>
			<g>
				<g>
					<path opacity="0.75" fill="#e7f4ff" d="M1252.685,1735.69c-7.621,0-15.364-1.466-22.843-4.564l-283.805-117.557
						c-30.488-12.629-44.966-47.582-32.337-78.071c12.628-30.488,47.581-44.969,78.071-32.337l283.805,117.557
						c30.488,12.629,44.966,47.582,32.337,78.071C1298.381,1721.798,1276.131,1735.69,1252.685,1735.69z"/>
				</g>
			</g>
			<g>
				<g>
					<path opacity="0.75" fill="#e7f4ff" d="M4031.09,2886.542c-7.621,0-15.362-1.466-22.842-4.563l-283.807-117.549
						c-30.488-12.628-44.968-47.581-32.34-78.07s47.58-44.968,78.07-32.34l283.807,117.549c30.488,12.628,44.968,47.581,32.34,78.07
						C4076.788,2872.648,4054.536,2886.542,4031.09,2886.542z"/>
				</g>
			</g>
			<g>
				<g>
					<path opacity="0.75" fill="#e7f4ff" d="M3016.623,1005.05c-7.621,0-15.365-1.467-22.845-4.565c-30.488-12.629-44.965-47.583-32.336-78.072
						l117.566-283.808c12.631-30.489,47.582-44.965,78.072-32.336c30.488,12.629,44.965,47.583,32.336,78.072l-117.566,283.808
						C3062.318,991.159,3040.069,1005.05,3016.623,1005.05z"/>
				</g>
			</g>
			<g>
				<g>
					<path opacity="0.75" fill="#e7f4ff" d="M968.909,2886.532c-23.448,0-45.696-13.891-55.228-36.902c-12.628-30.488,1.85-65.442,32.338-78.07
						l283.809-117.557c30.486-12.631,65.441,1.848,78.071,32.338c12.628,30.488-1.85,65.442-32.338,78.07l-283.809,117.557
						C984.275,2885.065,976.528,2886.532,968.909,2886.532z"/>
				</g>
			</g>
			<g>
				<g>
					<path opacity="0.75" fill="#e7f4ff" d="M3747.312,1735.69c-23.448,0-45.696-13.891-55.228-36.902c-12.629-30.488,1.85-65.442,32.338-78.07
						l283.807-117.557c30.485-12.628,65.441,1.849,78.07,32.338c12.629,30.488-1.85,65.442-32.338,78.07l-283.807,117.557
						C3762.679,1734.223,3754.932,1735.69,3747.312,1735.69z"/>
				</g>
			</g>
			<g>
				<g>
					<path opacity="0.75" fill="#e7f4ff" d="M1983.382,1005.05c-23.448,0-45.696-13.891-55.228-36.902l-117.566-283.826
						c-12.629-30.488,1.849-65.442,32.337-78.071c30.486-12.629,65.441,1.849,78.071,32.337l117.566,283.826
						c12.629,30.488-1.849,65.442-32.337,78.071C1998.748,1003.583,1991.001,1005.05,1983.382,1005.05z"/>
				</g>
			</g>
		</g>
		<path opacity="0.75" fill="#e7f4ff" d="M3453.485,1775.794c-52.124-123.235-126.731-233.898-221.75-328.916c-95.019-95.017-205.682-169.624-328.916-221.747
			c-127.617-53.977-263.145-81.345-402.818-81.345c-139.675,0-275.203,27.369-402.818,81.346
			c-123.233,52.123-233.894,126.729-328.91,221.747s-169.621,205.681-221.743,328.917
			c-53.976,127.618-81.344,263.149-81.344,402.828c0,132.636,26.377,265.5,80.639,406.187
			c46.15,119.655,104.665,225.258,156.291,318.43c57.534,103.833,107.221,193.507,114.092,258.23
			c0.733,6.906,1.458,13.809,2.181,20.701c9.032,86.05,18.37,175.027,43.533,255.467c26.501,84.714,67.88,150.575,126.042,200.407
			v500.848c0,31.035,23.76,56.904,54.683,59.537l76.473,6.512l266.175,167.267c0.819,0.515,1.65,1.009,2.492,1.483l0.111,0.062
			c0.94,0.528,1.894,1.032,2.861,1.509c30.104,14.854,68.903,23.034,109.25,23.034c40.346,0,79.146-8.181,109.25-23.034
			c1.861-0.918,3.673-1.933,5.429-3.039l266.333-165.322l77.835-8.619c30.271-3.352,53.177-28.935,53.177-59.39v-500.847
			c58.165-49.833,99.546-115.694,126.048-200.411c25.164-80.439,34.502-169.42,43.531-255.47c0.724-6.891,1.447-13.791,2.181-20.691
			c6.874-64.723,56.562-154.393,114.097-258.221c51.629-93.173,110.146-198.777,156.3-318.435
			c54.266-140.689,80.645-273.557,80.645-406.195C3534.833,2038.944,3507.464,1903.413,3453.485,1775.794z M2892.526,4037.244
			h-785.058v-156.809h785.058V4037.244z M2892.526,3796.919h-785.058v-128.113h785.058V3796.919z M3163.059,2826.145
			c-61.048,110.168-113.771,205.314-122.793,290.261c-0.706,6.648-1.402,13.292-2.1,19.927
			c-8.422,80.253-16.377,156.056-37.041,222.112c-19.314,61.742-47.512,106.987-88.069,140.905h-826.114
			c-40.555-33.918-68.751-79.162-88.065-140.902c-20.664-66.057-28.619-141.858-37.042-222.111
			c-0.696-6.636-1.394-13.281-2.1-19.932c-9.018-84.946-61.74-180.096-122.788-290.271
			c-94.565-170.665-212.255-383.064-212.255-637.561c0-118.197,23.135-232.827,68.762-340.707
			c44.083-104.227,107.203-197.844,187.608-278.25c80.404-80.406,174.02-143.527,278.244-187.611
			c107.876-45.627,222.502-68.762,340.695-68.762c118.192,0,232.82,23.135,340.697,68.762
			c104.226,44.083,197.844,107.205,278.25,187.611c80.407,80.407,143.53,174.024,187.614,278.251
			c45.629,107.879,68.765,222.509,68.765,340.706C3375.327,2443.073,3257.631,2655.476,3163.059,2826.145z"/>
	</g>
</g>
</svg>
