<?xml version="1.0" encoding="utf-8"?>
<!-- Generator: Adobe Illustrator 16.0.0, SVG Export Plug-In . SVG Version: 6.00 Build 0)  -->
<!DOCTYPE svg PUBLIC "-//W3C//DTD SVG 1.1//EN" "http://www.w3.org/Graphics/SVG/1.1/DTD/svg11.dtd">
<svg version="1.1" id="Calque_1" xmlns="http://www.w3.org/2000/svg" xmlns:xlink="http://www.w3.org/1999/xlink" x="0px" y="0px"
	 width="150px" height="150px" viewBox="0 0 150 150" enable-background="new 0 0 150 150" xml:space="preserve">
<g opacity="0.1">
	<path fill-rule="evenodd" clip-rule="evenodd" fill="#4170A9" d="M93.624,123.312c11.09-1.504,8.553-6.233,12.136-16.503
		C101.312,106.597,91.931,115.113,93.624,123.312z"/>
	<path fill-rule="evenodd" clip-rule="evenodd" fill="#4170A9" d="M96.211,126.614c2.382,7.491,13.98,10.15,17.523,7.932
		C106.08,127.785,105.983,122.746,96.211,126.614z"/>
	<path fill-rule="evenodd" clip-rule="evenodd" fill="#4170A9" d="M106.458,121.815c3.888,7.03,16.045,7.372,19.151,4.438
		C116.583,121.012,115.477,115.981,106.458,121.815z"/>
	<path fill-rule="evenodd" clip-rule="evenodd" fill="#4170A9" d="M108.771,114.689c9.242-4.261,5.776-7.696,6.156-17.577
		C111.005,98.111,105.115,108.015,108.771,114.689z"/>
	<path fill-rule="evenodd" clip-rule="evenodd" fill="#4170A9" d="M115.419,114.899c5.149,5.472,16.246,2.969,18.383-0.409
		C124.409,111.828,122.242,107.524,115.419,114.899z"/>
	<path fill-rule="evenodd" clip-rule="evenodd" fill="#4170A9" d="M120.038,102.558c6.639-6.793,2.472-8.636-0.489-17.377
		C116.462,87.358,114.627,97.955,120.038,102.558z"/>
	<path fill-rule="evenodd" clip-rule="evenodd" fill="#4170A9" d="M122.035,105.902c5.149,5.472,16.246,2.969,18.383-0.408
		C131.025,102.831,128.859,98.528,122.035,105.902z"/>
	<path fill-rule="evenodd" clip-rule="evenodd" fill="#4170A9" d="M127.432,89.678c4.248-8.993-0.506-9.392-6.426-17.031
		C118.696,75.857,120.502,86.974,127.432,89.678z"/>
	<path fill-rule="evenodd" clip-rule="evenodd" fill="#4170A9" d="M128.16,97.528c6.188,4.265,16.507-0.521,17.884-4.272
		C136.302,92.633,133.276,88.883,128.16,97.528z"/>
	<path fill-rule="evenodd" clip-rule="evenodd" fill="#4170A9" d="M132.332,89.071c7.402,1.297,14.788-7.354,14.477-11.338
		C137.693,81.227,133.38,79.079,132.332,89.071z"/>
	<path fill-rule="evenodd" clip-rule="evenodd" fill="#4170A9" d="M122.504,60.835c-1.817,3.481,1.523,14.147,8.714,15.83
		C134.123,67.229,129.396,67.508,122.504,60.835z"/>
	<path fill-rule="evenodd" clip-rule="evenodd" fill="#4170A9" d="M135.234,77.666c7.067,0.037,12.554-9.147,11.638-12.792
		C138.97,69.549,134.633,68.236,135.234,77.666z"/>
	<path fill-rule="evenodd" clip-rule="evenodd" fill="#4170A9" d="M135.607,67.401c6.676-1.038,10.46-10.539,9.042-13.84
		C137.9,59.173,133.608,58.592,135.607,67.401z"/>
	<path fill-rule="evenodd" clip-rule="evenodd" fill="#4170A9" d="M121.679,51.195c-1.009,2.988,2.969,11.038,8.884,11.478
		C131.695,54.824,127.979,55.633,121.679,51.195z"/>
	<path fill-rule="evenodd" clip-rule="evenodd" fill="#4170A9" d="M134.213,57.277c6.121-2.148,8.031-11.782,6.114-14.65
		C134.938,49.107,130.783,49.311,134.213,57.277z"/>
	<path fill-rule="evenodd" clip-rule="evenodd" fill="#4170A9" d="M118.213,41.511c-0.673,3.082,4.17,10.642,10.098,10.426
		C128.568,44.011,124.965,45.225,118.213,41.511z"/>
	<path fill-rule="evenodd" clip-rule="evenodd" fill="#4170A9" d="M130.479,47.231c5.396-1.895,7.081-10.387,5.391-12.916
		C131.119,40.029,127.456,40.208,130.479,47.231z"/>
	<path fill-rule="evenodd" clip-rule="evenodd" fill="#4170A9" d="M127.255,24.809c-2.426,7.022-5.789,8.485-0.479,13.986
		C131.155,35.116,129.73,26.577,127.255,24.809z"/>
	<path fill-rule="evenodd" clip-rule="evenodd" fill="#4170A9" d="M111.277,32.981c-0.009,2.844,5.692,8.589,10.877,7.275
		C120.879,33.221,117.933,34.975,111.277,32.981z"/>
	<path fill-rule="evenodd" clip-rule="evenodd" fill="#4170A9" d="M104.852,24.97c0.264,2.831,6.49,8.003,11.523,6.197
		C114.431,24.287,111.667,26.315,104.852,24.97z"/>
	<path fill-rule="evenodd" clip-rule="evenodd" fill="#4170A9" d="M121.268,17.21c-2.328,6.737-5.554,8.139-0.46,13.416
		C125.008,27.098,123.641,18.907,121.268,17.21z"/>
	<path fill-rule="evenodd" clip-rule="evenodd" fill="#4170A9" d="M115.318,23.284c3.323-4.365,0.189-12.056-2.499-13.189
		C112.028,17.179,109.189,19.255,115.318,23.284z"/>
	<path fill-rule="evenodd" clip-rule="evenodd" fill="#4170A9" d="M57.199,123.312c1.693-8.198-7.69-16.715-12.137-16.503
		C48.646,117.078,46.108,121.808,57.199,123.312z"/>
	<path fill-rule="evenodd" clip-rule="evenodd" fill="#4170A9" d="M37.088,134.029c3.543,2.219,15.141-0.44,17.523-7.932
		C44.839,122.229,44.743,127.268,37.088,134.029z"/>
	<path fill-rule="evenodd" clip-rule="evenodd" fill="#4170A9" d="M44.882,121.04c-9.019-5.835-10.125-0.804-19.151,4.438
		C28.836,128.41,40.993,128.07,44.882,121.04z"/>
	<path fill-rule="evenodd" clip-rule="evenodd" fill="#4170A9" d="M42.31,114.432c3.656-6.676-2.232-16.579-6.155-17.578
		C36.534,106.734,33.069,110.17,42.31,114.432z"/>
	<path fill-rule="evenodd" clip-rule="evenodd" fill="#4170A9" d="M35.404,114.899c-6.824-7.375-8.991-3.071-18.383-0.409
		C19.157,117.868,30.253,120.371,35.404,114.899z"/>
	<path fill-rule="evenodd" clip-rule="evenodd" fill="#4170A9" d="M31.273,85.181c-2.961,8.741-7.127,10.584-0.489,17.377
		C36.196,97.955,34.36,87.358,31.273,85.181z"/>
	<path fill-rule="evenodd" clip-rule="evenodd" fill="#4170A9" d="M28.788,105.902c-6.824-7.374-8.99-3.071-18.383-0.408
		C12.542,108.871,23.637,111.374,28.788,105.902z"/>
	<path fill-rule="evenodd" clip-rule="evenodd" fill="#4170A9" d="M29.816,72.646c-5.919,7.64-10.672,8.038-6.425,17.031
		C30.32,86.974,32.126,75.857,29.816,72.646z"/>
	<path fill-rule="evenodd" clip-rule="evenodd" fill="#4170A9" d="M22.662,97.528c-5.116-8.646-8.141-4.896-17.884-4.272
		C6.155,97.007,16.475,101.793,22.662,97.528z"/>
	<path fill-rule="evenodd" clip-rule="evenodd" fill="#4170A9" d="M18.49,89.071c-1.048-9.992-5.36-7.845-14.477-11.338
		C3.702,81.718,11.088,90.368,18.49,89.071z"/>
	<path fill-rule="evenodd" clip-rule="evenodd" fill="#4170A9" d="M20.38,76.665c7.19-1.682,10.531-12.349,8.713-15.83
		C22.201,67.508,17.475,67.229,20.38,76.665z"/>
	<path fill-rule="evenodd" clip-rule="evenodd" fill="#4170A9" d="M15.587,77.666c0.602-9.43-3.735-8.117-11.637-12.792
		C3.034,68.519,8.521,77.703,15.587,77.666z"/>
	<path fill-rule="evenodd" clip-rule="evenodd" fill="#4170A9" d="M15.215,67.401c1.999-8.809-2.293-8.228-9.042-13.84
		C4.754,56.862,8.539,66.363,15.215,67.401z"/>
	<path fill-rule="evenodd" clip-rule="evenodd" fill="#4170A9" d="M20.26,62.673c5.915-0.44,9.893-8.49,8.883-11.478
		C22.843,55.633,19.127,54.824,20.26,62.673z"/>
	<path fill-rule="evenodd" clip-rule="evenodd" fill="#4170A9" d="M16.609,57.277c3.43-7.967-0.724-8.17-6.114-14.65
		C8.579,45.496,10.488,55.129,16.609,57.277z"/>
	<path fill-rule="evenodd" clip-rule="evenodd" fill="#4170A9" d="M33.126,41.511c-6.751,3.714-10.356,2.5-10.098,10.426
		C28.957,52.153,33.799,44.593,33.126,41.511z"/>
	<path fill-rule="evenodd" clip-rule="evenodd" fill="#4170A9" d="M20.342,47.231c3.024-7.023-0.639-7.203-5.39-12.916
		C13.262,36.845,14.946,45.337,20.342,47.231z"/>
	<path fill-rule="evenodd" clip-rule="evenodd" fill="#4170A9" d="M24.046,38.795c5.311-5.501,1.947-6.964-0.479-13.986
		C21.093,26.577,19.667,35.116,24.046,38.795z"/>
	<path fill-rule="evenodd" clip-rule="evenodd" fill="#4170A9" d="M39.545,32.981c-6.655,1.994-9.601,0.24-10.876,7.275
		C33.852,41.57,39.554,35.825,39.545,32.981z"/>
	<path fill-rule="evenodd" clip-rule="evenodd" fill="#4170A9" d="M47.005,24.711c-6.816,1.346-9.58-0.683-11.524,6.197
		C40.515,32.714,46.742,27.542,47.005,24.711z"/>
	<path fill-rule="evenodd" clip-rule="evenodd" fill="#4170A9" d="M30.015,30.626c5.094-5.277,1.868-6.679-0.459-13.416
		C27.182,18.907,25.814,27.098,30.015,30.626z"/>
	<path fill-rule="evenodd" clip-rule="evenodd" fill="#4170A9" d="M38.003,10.095c-2.688,1.133-5.822,8.824-2.499,13.189
		C41.633,19.255,38.794,17.179,38.003,10.095z"/>
	<path fill-rule="evenodd" clip-rule="evenodd" fill="#4170A9" d="M87.588,133.13c-1.576-0.677-3.152-1.613-4.919-2.204
		c-0.899-0.303-2.356-1.024-3.652-1.501c14.692-0.84,27.926-7.331,37.688-17.409c10.475-10.815,16.954-25.753,16.954-42.253
		c0-16.499-6.479-31.438-16.954-42.252c-2.225-2.296-4.638-4.396-7.198-6.295c-0.812-9.03-4.958-7.226-13.379-10.73
		c-0.388,3.642,5.923,11.582,12.712,11.181c2.608,1.917,5.064,4.041,7.323,6.372c10.341,10.677,16.737,25.429,16.737,41.726
		c0,16.297-6.396,31.05-16.737,41.727c-10.339,10.674-24.622,17.276-40.397,17.276c-15.776,0-30.059-6.603-40.397-17.276
		C25.026,100.812,18.63,86.06,18.63,69.763c0-16.296,6.396-31.049,16.738-41.726c2.244-2.317,4.685-4.428,7.275-6.335
		c6.533-0.124,12.428-7.693,12.052-11.217c-8.546,3.556-12.691,1.636-13.416,11.135c0.057,0.008,0.114,0.004,0.171,0.011
		c-2.35,1.788-4.564,3.753-6.624,5.879C24.351,38.325,17.872,53.264,17.872,69.763c0,16.499,6.479,31.438,16.954,42.253
		c9.711,10.025,22.86,16.498,37.462,17.392c-5.222,1.682-16.944,7.892-16.944,9.53c0,0.452,0.358,0.554,0.633,0.791h1.424
		c1.401-0.973,2.516-2.186,3.928-3.194c1.139-0.815,3.131-2.049,4.364-2.76c1.217-0.702,7.425-3.786,9.475-4.266
		c0.2,0.002,0.396,0.016,0.596,0.016c0.194,0,0.384-0.013,0.577-0.015c1.994,0.483,8.324,3.59,9.494,4.265
		c1.164,0.671,3.349,1.988,4.366,2.757c1.38,1.042,2.521,2.222,3.926,3.197h1.425c0.274-0.237,0.633-0.339,0.633-0.791
		C96.186,137.891,88.994,133.735,87.588,133.13z"/>
</g>
</svg>
