<?xml version="1.0" encoding="utf-8"?>
<!-- Generator: Adobe Illustrator 21.1.0, SVG Export Plug-In . SVG Version: 6.00 Build 0)  -->
<svg version="1.1" id="Calque_1" xmlns="http://www.w3.org/2000/svg" xmlns:xlink="http://www.w3.org/1999/xlink" x="0px" y="0px"
	 viewBox="0 0 245 243" style="enable-background:new 0 0 245 243;" xml:space="preserve">
<style type="text/css">
	.st0{fill:#DEE9F5;}
</style>
<g>
	<path class="st0" d="M230.2,218.6l-11.4-22.8c7-10.7,10.8-23.7,9.9-37.3c-1-19.3-10.8-36-25.2-46.6c0-1.3,0.1-2.7,0.1-3.9
		c0-49.8-40.4-90.2-90.2-90.2s-90.2,40.4-90.2,90.2c0,16.1,4.3,31.4,11.8,44.6l-13.6,41.3c-0.1,0.4-0.3,0.9-0.3,1.5
		c-0.7,1.9-0.7,4.1,0.3,6.1c1.9,3.7,6.4,5.2,10.1,3.3L68,185.8c13.3,7.8,28.9,12.3,45.5,12.3c0.7,0,1.5,0,2.4,0
		c12,16.7,32,27.2,54.1,26.1c10.1-0.6,19.5-3.6,27.7-8.3l24.4,11.3c3,1.3,6.4,0.1,7.9-2.8l0.1-0.3v-0.1
		C230.9,222.1,230.9,220.2,230.2,218.6z M66.9,169.5l-25.9,13.3L51,151.9c0.9-2.5,0.1-5.2-1.5-7.1c-6.4-10.8-9.9-23.5-9.9-37
		c0-40.7,33.2-73.9,73.9-73.9c39.2,0,71.5,30.8,73.7,69.6v9.2c-2.5,38.5-34.6,69-73.7,69c-13.6,0-26.5-3.7-37.5-10.2
		C73.8,168.8,70,167.9,66.9,169.5z M204.9,190.1c-0.7,1.5-0.7,3.4,0.1,5l7,13.9l-15.1-7c-1.5-0.7-3.1-0.7-4.6-0.1v-0.1
		c-6.7,4.3-14.5,7-23,7.4c-13.8,0.7-26.5-4.4-35.7-13.5c33.3-7.6,59.7-33.5,67.7-66.5c7.4,7.8,12.1,18.2,12.9,29.9
		C214.6,170.7,211.1,181.5,204.9,190.1L204.9,190.1z"/>
	<g>
		<path class="st0" d="M131.1,97.6c-0.9,1.9-2.1,3.6-3.3,4.9c-1.2,1.3-3.3,3.4-6.2,6.4c-0.7,0.7-1.5,1.5-1.9,2.1
			c-0.4,0.6-0.7,1-0.9,1.5c-0.1,0.4-0.3,0.9-0.4,1.3c-0.1,0.4-0.3,1.3-0.6,2.7c-0.6,3.4-2.5,5.3-5.5,5.3c-1.6,0-3-0.6-4-1.8
			c-1-1.2-1.6-2.8-1.6-5c0-2.4,0.3-4.6,1-6.4c0.7-1.8,1.6-3.4,2.8-4.7c1-1.3,2.5-2.8,4.3-4.6c1.5-1.5,2.7-2.7,3.3-3.4
			c0.6-0.7,1.2-1.5,1.5-2.2c0.4-0.7,0.6-1.5,0.6-2.4c0-1.8-0.6-3.3-1.8-4.4c-1.2-1.2-2.8-1.9-4.7-1.9c-2.4,0-4,0.6-5,1.8
			c-1.2,1.3-2.1,3.4-3,6.1c-1.2,4.4-3.9,5.5-5.9,5.5c-1.6,0-3.1-0.7-4.3-1.9c-1.2-1.3-1.8-2.8-1.8-4.4c0-2.8,0.7-5.6,2.4-8.4
			c1.6-2.8,3.9-5.2,7-7c3-1.8,6.5-2.8,10.5-2.8c3.7,0,7,0.7,9.9,2.2c2.8,1.5,5.2,3.7,6.7,6.4c1.6,2.7,2.4,5.6,2.4,8.7
			C132.5,93.4,132,95.6,131.1,97.6"/>
		<path class="st0" d="M117.8,141.7c-1.3,1.2-3,1.8-4.7,1.8c-1.8,0-3.4-0.6-4.7-1.8c-1.5-1.2-2.1-3-2.1-5c0-1.9,0.7-3.6,2.1-4.9
			c1.3-1.3,3-1.9,4.9-1.9c1.9,0,3.6,0.6,4.9,1.9c1.3,1.3,1.9,3,1.9,4.9C119.9,138.7,119.1,140.5,117.8,141.7"/>
	</g>
</g>
</svg>
