<?xml version="1.0" encoding="utf-8"?>
<!-- Generator: Adobe Illustrator 16.0.0, SVG Export Plug-In . SVG Version: 6.00 Build 0)  -->
<!DOCTYPE svg PUBLIC "-//W3C//DTD SVG 1.1//EN" "http://www.w3.org/Graphics/SVG/1.1/DTD/svg11.dtd">
<svg version="1.1" id="Calque_1" xmlns="http://www.w3.org/2000/svg" xmlns:xlink="http://www.w3.org/1999/xlink" x="0px" y="0px"
	 width="150px" height="150px" viewBox="0 0 150 150" enable-background="new 0 0 150 150" xml:space="preserve">
<g>
	<path opacity="0.75" fill="#e7f4ff" d="M146.197,140.494l-7.705-15.41c4.703-7.205,7.305-16.012,6.705-25.217c-0.701-13.01-7.305-24.316-17.012-31.521
		c0-0.901,0.1-1.801,0.1-2.602c0-33.622-27.318-60.94-60.94-60.94s-60.94,27.318-60.94,60.94c0,10.908,2.902,21.214,8.005,30.12
		l-9.206,27.92c-0.1,0.299-0.2,0.6-0.2,1c-0.5,1.301-0.5,2.802,0.2,4.103c1.301,2.502,4.303,3.503,6.804,2.202l24.617-12.709
		c9.006,5.304,19.513,8.306,30.72,8.306c0.5,0,1.001,0,1.601,0c8.105,11.308,21.615,18.412,36.525,17.612
		c6.805-0.4,13.209-2.402,18.712-5.604l16.511,7.604c2.002,0.901,4.303,0.101,5.305-1.9l0.1-0.2v-0.101
		C146.697,142.896,146.697,141.594,146.197,140.494z M25.117,95.563c0.601-1.701,0.1-3.502-1-4.803
		c-4.303-7.306-6.705-15.911-6.705-25.017c0-27.518,22.415-49.933,49.933-49.933c26.519,0,48.333,20.814,49.833,47.031v6.204
		c-1.701,26.018-23.415,46.632-49.833,46.632c-9.206,0-17.912-2.502-25.317-6.905c-1.501-1.802-4.103-2.501-6.304-1.301
		l-17.512,9.006L25.117,95.563z M123.683,129.387c-1.001-0.501-2.102-0.501-3.103-0.101v-0.101
		c-4.502,2.902-9.807,4.703-15.51,5.004c-9.307,0.5-17.912-3.002-24.116-9.105c22.515-5.104,40.327-22.615,45.73-44.931
		c5.003,5.304,8.206,12.308,8.706,20.214c0.4,7.805-1.902,15.01-6.205,20.813l0.101,0.101c-0.501,1-0.501,2.301,0.101,3.402
		l4.703,9.406L123.683,129.387z"/>
	<path opacity="0.75" fill="#e7f4ff" d="M67.345,102.869L67.345,102.869c-3.902,0-7.004-3.203-7.004-7.006V62.642c0-3.902,3.202-7.004,7.004-7.004l0,0
		c3.903,0,7.005,3.202,7.005,7.004v33.122C74.45,99.666,71.248,102.869,67.345,102.869z"/>
	<circle opacity="0.75" fill="#e7f4ff" cx="67.345" cy="40.427" r="8.005"/>
</g>
</svg>
