<?xml version="1.0" encoding="utf-8"?>
<!-- Generator: Adobe Illustrator 16.0.0, SVG Export Plug-In . SVG Version: 6.00 Build 0)  -->
<!DOCTYPE svg PUBLIC "-//W3C//DTD SVG 1.1//EN" "http://www.w3.org/Graphics/SVG/1.1/DTD/svg11.dtd">
<svg version="1.1" id="Calque_1" xmlns="http://www.w3.org/2000/svg" xmlns:xlink="http://www.w3.org/1999/xlink" x="0px" y="0px"
	 width="390.476px" height="339.456px" viewBox="0 0 390.476 339.456" enable-background="new 0 0 390.476 339.456"
	 xml:space="preserve">
<path opacity="0.1" fill="#FFFFFF" d="M172.291,334.554l-120.842,0.287L3.62,251.652l62.088-110.705
	c-1.547,5.639-2.372,11.578-2.372,17.707c0,36.889,29.905,66.793,66.793,66.793c23.41,0,44.002-11.708,55.928-29.938
	c-6.368-10.806-9.775-23.189-9.144-36.653c0.588-12.545,4.313-24.459,10.803-34.2c-11.676-19.444-33.256-32.795-57.587-32.795
	c-16.975,0-32.619,6.682-44.403,17.115L144.693,3.564h98.698l62.025,104.748c-3.43-3.115-6.848-5.398-11.016-7.82
	c-31.894-18.533-72.775-7.702-91.309,24.192c-11.763,20.241-11.984,43.927-2.215,63.398c12.542-0.076,24.962,3.2,36.286,10.51
	c10.55,6.811,18.981,16.019,24.142,26.526c22.678-0.33,45.064-12.279,57.289-33.317c8.95-15.403,11.805-31.6,7.992-47.666
	l62.393,106.924l-49.819,83.781l-121.604-0.023c4.283-1.455,7.625-3.393,11.674-5.783c31.765-18.757,42.309-59.712,23.551-91.476
	c-11.902-20.158-32.454-31.935-54.215-32.937c-6.067,10.979-14.999,20.209-26.912,26.512c-11.101,5.871-23.256,8.722-34.944,8.088
	c-10.804,19.939-11.328,45.311,1.044,66.261C145.935,319.339,158.264,329.445,172.291,334.554z"/>
</svg>
