<?xml version="1.0" encoding="utf-8"?>
<!-- Generator: Adobe Illustrator 21.1.0, SVG Export Plug-In . SVG Version: 6.00 Build 0)  -->
<svg version="1.1" id="assets" xmlns="http://www.w3.org/2000/svg" xmlns:xlink="http://www.w3.org/1999/xlink" x="0px" y="0px"
	 viewBox="0 0 320 67" style="enable-background:new 0 0 320 67;" xml:space="preserve">
<style type="text/css">
	.st0{fill:#164194;}
	.st1{fill:#E30613;}
</style>
<title>logo-cmne</title>
<g id="Calque_1-2">
	<path class="st0" d="M235.7,25.1V38c0,3,0.2,6.8-4.4,6.8s-4.4-3.8-4.4-6.8V25.1h-6.3v15.5c0,3.6,1.7,9.5,8.3,9.5
		c3.8,0,5.5-1.8,6.7-2.7l0.1-0.1l0.3,2.2h6V25.2L235.7,25.1"/>
	<path class="st0" d="M276.6,25.1V38c0,3,0.2,6.8-4.4,6.8s-4.4-3.8-4.4-6.8V25.1h-6.3v15.5c0,3.6,1.7,9.5,8.3,9.5
		c3.8,0,5.5-1.8,6.7-2.7v-0.1l0.3,2.2h5.9V25.2L276.6,25.1"/>
	<path class="st0" d="M292.5,34.6c0.3-3.2,3.1-5.6,6.3-5.3c2.8,0.2,5.1,2.5,5.3,5.3H292.5z M298.2,24.4c-6.2,0-12.2,4.7-12.2,12.9
		c0,6.5,4.9,13,12.3,13c8.8,0,10.9-5.9,11.8-8.1h-6.7c-0.3,0.2-0.9,2.9-5,2.9c-3.3,0-5.9-2.6-5.9-5.9c0,0,0,0,0,0l0,0h18V38
		C310.4,29.4,304.7,24.4,298.2,24.4"/>
	<path class="st0" d="M47.6,24.5h-0.9c-2.5-0.1-5,1-6.5,3l-0.2-2.4h-6v24.3h6.3v-13c0.1-3.8,1.7-6.5,7.3-6.5L47.6,24.5L47.6,24.5z"
		/>
	<path class="st0" d="M86.3,45.1c-2.7,0-5.8-2.1-5.8-7.9s3.1-7.8,5.8-7.8s5.8,2.1,5.8,7.8S88.9,45.1,86.3,45.1 M91.7,26.9
		c-1.9-1.7-4.4-2.7-7-2.7c-6.5,0-10.6,6.1-10.6,13s4.1,12.9,10.6,12.9c2.6,0,5.1-1.1,6.9-2.9l0.3,2.4H98V16.4h-6.3L91.7,26.9
		L91.7,26.9L91.7,26.9z"/>
	<rect x="313.7" y="16.3" class="st0" width="6.3" height="33.2"/>
	<rect x="102.2" y="25.1" class="st0" width="6.3" height="24.4"/>
	<rect x="102.2" y="16.3" class="st0" width="6.3" height="5.4"/>
	<path class="st0" d="M120.7,42V29.2h4.5v-4.1h-4.5v-8h-6.3v8h-3.6v4.1h3.6v12.1c0,4.1-0.2,8.3,6.5,8.3h4.3v-4.6h-1.3
		C120.9,44.9,120.7,43.6,120.7,42"/>
	<path class="st0" d="M254.1,42V29.2h4.5v-4.1h-4.5v-8h-6.3v8h-3.6v4.1h3.6v12.1c0,4.1-0.2,8.3,6.5,8.3h4.3v-4.6h-1.3
		C254.4,44.9,254.1,43.6,254.1,42"/>
	<polygon class="st0" points="199,39.8 192,16.3 182.2,16.3 182.2,49.5 188.5,49.5 188.5,25.2 195.7,49.5 202.4,49.5 209.4,25.2 
		209.4,49.5 215.6,49.5 215.6,16.3 205.9,16.3 	"/>
	<path class="st0" d="M54,34.6c0.3-3.2,3.1-5.6,6.3-5.3c2.8,0.2,5.1,2.5,5.3,5.3H54z M59.8,24.4c-6.2,0-12.3,4.7-12.3,12.9
		c0,6.5,4.9,13,12.4,13c8.8,0,10.9-6,11.8-8.1h-6.7c-0.3,0.2-0.9,2.9-5,2.9c-3.3,0-5.9-2.6-5.9-5.9c0,0,0,0,0,0l0,0h18V38
		C71.9,29.4,66.1,24.4,59.8,24.4"/>
	<polygon class="st0" points="66.6,15.6 59.1,15.6 56.8,22.1 62.1,22.1 	"/>
	<path class="st0" d="M16.6,44.6c-6,0-9.5-4.2-9.5-12.4C7,25.8,10,20,16.6,20c3.6-0.2,6.8,2.4,7.4,5.9h6.7
		c-1.2-6.8-7.2-11.7-14.1-11.5C4.5,14.5,0,24.8,0,32.3c0,7.8,4.8,18.1,16.6,18.1c10.4,0,14.4-8.5,14.4-11.5h-7
		C23.8,40,22.7,44.7,16.6,44.6"/>
	<path class="st1" d="M175.6,39.8l-7.3-12.8c0.4,1.9,0.1,3.9-0.9,5.7c-1.3,2.3-3.7,3.8-6.3,4c-1.7-2.8-4.7-4.5-7.9-4.6
		c-1.1-2.3-0.9-5,0.3-7.3c2.2-3.8,7.1-5.1,10.9-3c0.5,0.3,1,0.6,1.4,1L158.4,10h-11.2l-7.4,12.8c3.3-2.9,8.3-2.7,11.3,0.5
		c0.2,0.3,0.5,0.6,0.7,0.9c-1.5,2.9-1.5,6.3-0.1,9.2c-2.6,3.6-7.6,4.4-11.2,1.8c-2.1-1.5-3.3-3.9-3.3-6.4c0-0.6,0-1.1,0.2-1.7
		L130,39.9l5.6,9.7h14.7c-1.9-0.6-3.5-1.9-4.5-3.6c-1.3-2.3-1.4-5-0.3-7.4c3.2-0.1,6.2-1.8,8-4.5c2.6,0.2,4.9,1.7,6.2,3.9
		c2.2,3.8,0.9,8.7-2.9,10.9l0,0c-0.5,0.3-1,0.5-1.6,0.7H170L175.6,39.8z"/>
</g>
</svg>
