<svg id="assets" xmlns="http://www.w3.org/2000/svg" viewBox="0 0 480 194"><defs><style>.cls-1{fill:#fff;}.cls-2{fill:#164194;}.cls-3{fill:#e30613;}</style></defs><title>logo-expert</title><path class="cls-1" d="M479.89,73.44l-5.52-54.51a21,21,0,0,0-23-18.82L41.67,41.33,39,32.27a4.3,4.3,0,0,0-5.32-2.9l-30.59,9a4.28,4.28,0,0,0-2.91,5.3l2.93,10a20.92,20.92,0,0,0-3,13.09l5.51,54.51A21.05,21.05,0,0,0,28.67,140L461.06,96.5A21,21,0,0,0,479.89,73.44Z"/><polygon class="cls-2" points="10.98 50.84 7.94 40.66 3.55 41.96 7.63 55.64 16.41 53.03 15.37 49.53 10.98 50.84"/><path class="cls-2" d="M23.1,51.41a20.21,20.21,0,0,0,4.67-2.1L26.3,46.25a14.22,14.22,0,0,1-3.94,1.88l-.66.18-.68.14-.23-.77a20.16,20.16,0,0,0,3-1.12,6.19,6.19,0,0,0,1.8-1.24,2.71,2.71,0,0,0,.74-1.44,4.09,4.09,0,0,0-.17-1.73,6.4,6.4,0,0,0-.83-1.83,2.52,2.52,0,0,0-1.26-.93,4.19,4.19,0,0,0-1.85-.15,13.86,13.86,0,0,0-2.61.57q-3.06.9-4,2.75a6.27,6.27,0,0,0-.08,4.77,6.4,6.4,0,0,0,2.68,4C19.42,52,21.05,52,23.1,51.41Zm-3.2-8A3,3,0,0,1,21,42.87l.9-.26.26.89c.12.4.08.69-.13.87a3,3,0,0,1-1.11.51l-.9.27-.26-.9C19.65,43.85,19.69,43.56,19.9,43.38Z"/><path class="cls-2" d="M28.23,43.21a2.71,2.71,0,0,0,1.39.94,5.65,5.65,0,0,0,2.12.14,16.26,16.26,0,0,0,3-.65l.21.7c-.27.12-.56.23-.85.33l-.94.3a14,14,0,0,1-2.11.46,14.21,14.21,0,0,1-2,.15l.37,3.27A18.8,18.8,0,0,0,34.49,48c.52-.16,1-.31,1.43-.48s.84-.33,1.21-.5a4,4,0,0,0,1.11-.73,4.6,4.6,0,0,0,.7-.94,2.7,2.7,0,0,0,.29-1.31A6.2,6.2,0,0,0,39,42.41a3.43,3.43,0,0,0-1.16-1.85A3.67,3.67,0,0,0,36,39.87,7,7,0,0,0,34,40c-.72.15-1.42.32-2.09.52l-.21-.7c.3-.13.58-.24.83-.32l.62-.21a13.93,13.93,0,0,1,1.76-.4,11.75,11.75,0,0,1,1.81-.14L36.3,35.6a14.81,14.81,0,0,0-4.72.66A8.56,8.56,0,0,0,28,38.17a3.11,3.11,0,0,0-.57,3.31A5.27,5.27,0,0,0,28.23,43.21Z"/><polygon class="cls-2" points="43.75 105.08 42.96 97.19 63.82 95.1 62.31 80.02 41.44 82.11 40.56 73.35 62.99 71.11 63.92 54.2 18.02 58.79 24.56 123.81 70.98 119.17 69.31 102.52 43.75 105.08"/><polygon class="cls-2" points="129.82 47.61 107.22 49.87 101.75 67.93 100.7 68.03 91.74 51.42 68.1 53.78 85.49 84.44 74.64 118.81 96.72 116.6 102.57 97.1 103.53 97 113.24 114.94 136.36 112.63 118.55 80.44 129.82 47.61"/><path class="cls-2" d="M167.9,43.8,135,47.09l6.54,65L162.44,110l-1.57-15.69L174.43,93a22.07,22.07,0,0,0,9.67-3A17.79,17.79,0,0,0,190,83.93a21.79,21.79,0,0,0,2.71-8.37,44.94,44.94,0,0,0,.05-10Q190.33,41.56,167.9,43.8Zm1.52,32.08A14.48,14.48,0,0,1,164,77.21l-4.78.48-1.61-16,4.78-.48a14.11,14.11,0,0,1,5.6.23c1.18.4,1.87,1.53,2,3.38l.74,7.29C170.94,74,170.49,75.24,169.42,75.88Z"/><path class="cls-2" d="M241.78,88.52c-1.33.14-2.66.23-4,.29s-2.67.08-4,.07l-.46-4.63a114.62,114.62,0,0,0,18.53-3.13A36,36,0,0,0,263.49,76a15.49,15.49,0,0,0,5.78-7.42,23.12,23.12,0,0,0,.94-10.05,35.4,35.4,0,0,0-2.75-11.34,14.72,14.72,0,0,0-6.14-6.73,25.48,25.48,0,0,0-10.39-2.85,86.3,86.3,0,0,0-15.57.39q-18.44,1.85-25.91,11.32t-5.68,27.2q1.78,17.73,10.93,25.54t27.7,6a114.5,114.5,0,0,0,29-6.91l-5-19.06A83,83,0,0,1,241.78,88.52Zm-10.54-25c-.25-2.42.32-4,1.69-4.84s3.67-1.36,6.91-1.69l5.41-.54.54,5.4q.36,3.63-1.69,4.84t-6.91,1.69l-5.41.54Z"/><path class="cls-2" d="M348.4,48.78Q346.11,26,323.67,28.23l-32.86,3.28,6.54,65,20.86-2.09-1.94-19.33,4.52-.46,10.46,18.48,23-2.29L340.73,70.31Q350,64.38,348.4,48.78Zm-23.52,8.49a14.42,14.42,0,0,1-5.44,1.33l-4.78.48-1.31-13,4.78-.48a14.3,14.3,0,0,1,5.6.23c1.18.41,1.87,1.54,2,3.39l.44,4.33C326.41,55.39,326,56.63,324.88,57.27Z"/><polygon class="cls-2" points="401.4 20.45 350.28 25.57 351.95 42.21 367.08 40.7 371.94 89.08 392.81 86.99 387.94 38.61 403.07 37.1 401.4 20.45"/><path class="cls-2" d="M463.82,57.91a25.9,25.9,0,0,0-2-8,14.5,14.5,0,0,0-4.62-5.76,21.19,21.19,0,0,0-7.85-3.46,51.8,51.8,0,0,0-11.71-1.15l-7.55.05-.51-5.11a80.56,80.56,0,0,1,9.86-1.51,104,104,0,0,1,15.72,0L456.1,16a111.47,111.47,0,0,0-25.3-.1,52.86,52.86,0,0,0-11.67,2.3,17.61,17.61,0,0,0-7.48,4.65,15.81,15.81,0,0,0-3.71,7.64,38,38,0,0,0-.27,11.28,29.49,29.49,0,0,0,1.94,8.34,14.42,14.42,0,0,0,4.27,5.79,17.69,17.69,0,0,0,7.23,3.35,46.53,46.53,0,0,0,10.82,1l9.46-.16.53,5.2a53.4,53.4,0,0,1-5.3,1c-2,.28-4.29.56-6.9.82a74.31,74.31,0,0,1-17.54-.61L411,84a111.18,111.18,0,0,0,12.29.78,118.31,118.31,0,0,0,13.11-.61c1.79-.18,3.81-.42,6-.73A56.75,56.75,0,0,0,449,82.16a32.71,32.71,0,0,0,6.1-2.23,14.27,14.27,0,0,0,4.66-3.48,19,19,0,0,0,3.48-7.27A30.89,30.89,0,0,0,463.82,57.91Z"/><path class="cls-3" d="M325.69,177.23l-35.42-49.39A10.89,10.89,0,0,0,280,123.62l-2.89-4a59.24,59.24,0,1,0-7.75,5.38l2.93,4.08a10.55,10.55,0,0,0,.74,11.13l35.42,49.39a10.62,10.62,0,1,0,17.29-12.33Zm-93.61-58.7a45.27,45.27,0,1,1,52.23-37.24A45.33,45.33,0,0,1,232.08,118.53Z"/></svg>