<?xml version="1.0" encoding="utf-8"?>
<!-- Generator: Adobe Illustrator 23.0.6, SVG Export Plug-In . SVG Version: 6.00 Build 0)  -->
<svg version="1.1" id="assets" xmlns="http://www.w3.org/2000/svg" xmlns:xlink="http://www.w3.org/1999/xlink" x="0px" y="0px"
	 viewBox="0 0 584 234" style="enable-background:new 0 0 584 234;" xml:space="preserve">
<style type="text/css">
	.st0{fill:#F4C09D;}
	.st1{fill:#FFFFFF;}
	.st2{fill:#1A1A1A;}
	.st3{fill:#F15A24;}
	.st4{fill:#DB9261;}
	.st5{fill:#8CC63F;}
	.st6{fill:#FF7BAC;}
	.st7{fill:#00A99D;}
	.st8{fill:#FFC239;}
	.st9{fill:#2E3192;}
	.st10{fill:#331A0C;}
	.st11{fill:#42210B;}
	.st12{fill:#E2AB86;}
	.st13{fill:#FFDFCA;}
	.st14{fill:#CE926A;}
	.st15{opacity:0.8;fill:#93278F;enable-background:new    ;}
	.st16{fill:#042789;}
	.st17{fill:#CCCCCC;}
	.st18{fill:#0029BC;}
	.st19{fill:#8C3866;}
	.st20{fill:#BB4B88;}
	.st21{fill:#C96F9F;}
	.st22{fill:#461C33;}
	.st23{fill:#D4964E;}
	.st24{fill:#D6E1E4;}
	.st25{fill:#4D4D4D;}
	.st26{fill:#083046;}
	.st27{fill:#8D6321;}
	.st28{fill:#BC842C;}
	.st29{fill:#01293F;}
	.st30{fill:#DDAB71;}
	.st31{fill:#9F713B;}
	.st32{fill:#F6E7DE;}
	.st33{opacity:0.3;fill:#E26554;enable-background:new    ;}
	.st34{fill:#5D78A4;}
	.st35{fill:#003559;}
	.st36{fill:#A1A9AB;}
	.st37{fill:#A67C52;}
	.st38{fill:#3F220B;}
	.st39{fill:#025F93;}
	.st40{fill:#1A96C1;}
	.st41{fill:#99561F;}
	.st42{fill:#D19871;}
	.st43{fill:#179BC9;}
	.st44{fill:#999999;}
	.st45{fill:#1B1464;}
	.st46{fill:#0071BC;}
	.st47{fill:#F7931E;}
	.st48{fill:#ED1C24;}
	.st49{fill:#006837;}
	.st50{fill:#603813;}
	.st51{fill:#C69C6D;}
	.st52{fill:#29ABE2;}
	.st53{fill:#4EC7F2;}
	.st54{fill:#C67B47;}
	.st55{opacity:0.8;fill:#662D91;enable-background:new    ;}
	.st56{fill:#000077;}
	.st57{fill:#505CEA;}
</style>
<title>img-foule</title>
<path class="st0" d="M332.4,198h-13.8c-2,0-3.5-1.6-3.6-3.5c0-0.8,0.3-1.7,0.8-2.3l6-7.2l2.5,2.1l-6,7.2c-0.1,0.1-0.1,0.2,0,0.3
	c0,0.1,0.1,0.2,0.3,0.2h13.8L332.4,198z"/>
<polygon class="st1" points="332.5,198 329.8,194.9 324.4,194.8 327,198 "/>
<path class="st2" d="M337.2,198.9l-3.3-4h-4.1l4.9,6c0.3,0.4,0.8,0.6,1.2,0.6l0,0c0.9,0,1.6-0.7,1.6-1.6
	C337.6,199.5,337.5,199.1,337.2,198.9z"/>
<rect x="327.5" y="189.3" class="st0" width="3.3" height="20.8"/>
<rect x="327.5" y="205.8" class="st1" width="3.3" height="4.5"/>
<path class="st0" d="M350.9,190.9l2.7-1.7l1,1.7l-2.7,1.7c-0.5,0.3-1.1,0.2-1.4-0.3l0,0C350.3,191.8,350.4,191.2,350.9,190.9z"/>
<path class="st0" d="M354.9,194l-1.1-4l1.9-0.5l1.1,4c0.1,0.5-0.2,1-0.7,1.2l0,0C355.6,194.8,355,194.5,354.9,194z"/>
<path class="st0" d="M354.3,190.7l0.1,3.2c0,0.6-0.4,1-1,1l0,0c-0.6,0-1-0.4-1-1l-0.1-3.2l0,0H354.3L354.3,190.7z"/>
<path class="st3" d="M335.7,149.8h24.5l0,0v16.5c0,6.8-5.5,12.2-12.2,12.3l0,0c-6.8,0-12.3-5.5-12.3-12.3l0,0V149.8L335.7,149.8z"/>
<path class="st3" d="M335.7,166.3L335.7,166.3c0-6.8,5.5-12.2,12.2-12.2h11.4c6.8,0,12.2,5.5,12.2,12.2l0,0
	c0,6.8-5.5,12.2-12.2,12.2h-11.4C341.1,178.6,335.7,173.1,335.7,166.3z"/>
<path class="st0" d="M327.3,149.8h28l0,0v4.3c0,7.7-6.3,14-14,14l0,0c-7.7,0-14-6.3-14-14V149.8L327.3,149.8z"/>
<path class="st1" d="M332.4,147L332.4,147c2,0,3.6,1.6,3.6,3.6v0.7c0,2-1.6,3.6-3.6,3.6l0,0c-2,0-3.6-1.6-3.6-3.6v-0.7
	C328.9,148.6,330.5,147,332.4,147z"/>
<path class="st2" d="M330.9,147.1L330.9,147.1c1.2,0,2.1,0.9,2.1,2.1v2c0,1.1-0.9,2.1-2.1,2.1l0,0c-1.1,0-2.1-0.9-2.1-2.1v-2
	C328.9,148,329.8,147.1,330.9,147.1z"/>
<path class="st1" d="M344.9,147L344.9,147c2,0,3.6,1.6,3.6,3.6v0.7c0,2-1.6,3.6-3.6,3.6l0,0c-2,0-3.6-1.6-3.6-3.6v-0.7
	C341.3,148.6,342.9,147,344.9,147z"/>
<path class="st2" d="M343.4,147.1L343.4,147.1c1.2,0,2.1,0.9,2.1,2.1v2c0,1.1-0.9,2.1-2.1,2.1l0,0c-1.1,0-2.1-0.9-2.1-2.1v-2
	C341.3,148,342.3,147.1,343.4,147.1z"/>
<path class="st3" d="M336.2,138.3h12.6c6.4,0,11.5,5.2,11.5,11.5l0,0l0,0h-35.6l0,0l0,0C324.6,143.5,329.8,138.3,336.2,138.3
	L336.2,138.3z"/>
<path class="st1" d="M331.7,156h13.9l0,0l0,0c0,3.8-3.1,6.9-6.9,6.9l0,0l0,0C334.8,162.9,331.7,159.8,331.7,156L331.7,156L331.7,156
	L331.7,156z"/>
<path class="st0" d="M359.4,154.5L359.4,154.5c0,1.3-1.1,2.4-2.4,2.4l0,0h-2.6l0,0V152l0,0h2.5C358.2,152,359.4,153.1,359.4,154.5
	L359.4,154.5z"/>
<path class="st4" d="M338.3,151.4L338.3,151.4c0.6,0,1,0.4,1,1v2l0,0h-1.9l0,0v-2C337.4,151.9,337.8,151.5,338.3,151.4z"/>
<path class="st3" d="M351.9,147.9h3.4l0,0v7.5c0,0.9-0.8,1.7-1.7,1.7l0,0c-0.9,0-1.7-0.8-1.7-1.7L351.9,147.9L351.9,147.9z"/>
<polygon class="st5" points="336.1,181.7 324.4,181.7 334,170.1 345.6,170.1 "/>
<polygon class="st6" points="322.9,183.6 334.5,183.6 336.1,181.7 324.4,181.7 "/>
<path class="st0" d="M311,156.7l3-1.1l-0.7-1.9l-3,1.1c-0.5,0.2-0.8,0.7-0.6,1.3l0,0C309.9,156.6,310.5,156.8,311,156.7z"/>
<path class="st0" d="M311.1,151.6l2.5,3.3l1.6-1.2l-2.5-3.3c-0.3-0.4-0.9-0.5-1.4-0.2l0,0C310.8,150.6,310.7,151.2,311.1,151.6z"/>
<polygon class="st5" points="332.9,173.1 312.6,156 314.9,153.4 335.1,170.4 "/>
<path class="st5" d="M324.4,181.7l-5.2,6.5l14.6,8l2.5-5.3c1.3-2.9,1.3-6.2-0.2-9.1l0,0l6.5-8.1L324.4,181.7z"/>
<circle class="st4" cx="349.1" cy="155.9" r="0.5"/>
<circle class="st4" cx="347.6" cy="157.3" r="0.5"/>
<circle class="st4" cx="349.7" cy="157.8" r="0.5"/>
<path class="st0" d="M309.6,153.5l2.5,2.1l1.3-1.5l-2.5-2c-0.4-0.3-1-0.3-1.4,0.1l0,0C309.1,152.5,309.2,153.1,309.6,153.5z"/>
<path class="st0" d="M338.1,171.2h-0.8c-0.4,0-0.7-0.3-0.7-0.7c0-0.2,0.1-0.3,0.2-0.4l2.1-2.6l0,0h3.7l0,0l-2,2.5
	C340,170.8,339.1,171.2,338.1,171.2z"/>
<path class="st5" d="M355.8,189.9h-3.3v-10.4c0-3.4-2.7-6.1-6.1-6.1h-4.9v-3.3h4.9c5.2,0,9.4,4.2,9.4,9.4V189.9z"/>
<path class="st2" d="M324.3,213.4h6.5v-3.2h-6.5c-0.5,0-0.9,0.2-1.2,0.6l0,0c-0.6,0.7-0.5,1.7,0.2,2.2
	C323.6,213.2,323.9,213.4,324.3,213.4z"/>
<path class="st3" d="M283.4,156c2.8-5.9,6.6-10.2,9.6-11.4c-0.1-0.1-0.1-0.3-0.1-0.4c0.2-0.4,1.4-0.3,2.8,0.4
	c-7.8-3.7-17.1-0.3-20.8,7.4c-3.7,7.8-0.3,17.1,7.5,20.8C279.2,171.3,279.7,163.8,283.4,156z"/>
<path class="st7" d="M295.7,144.6c1.3,0.6,2.3,1.5,2.1,1.9c-0.1,0.1-0.2,0.2-0.4,0.2c1,3.1,0.1,8.8-2.7,14.7
	c-3.7,7.8-9.2,12.9-12.3,11.5c7.8,3.7,17.1,0.3,20.8-7.4C306.8,157.5,303.5,148.2,295.7,144.6L295.7,144.6z"/>
<path class="st8" d="M294.6,161.3c2.8-5.9,3.7-11.6,2.7-14.7c-0.8,0-1.6-0.2-2.4-0.6c-0.8-0.3-1.5-0.8-2-1.4
	c-3,1.2-6.9,5.5-9.6,11.4c-3.7,7.8-4.1,15.3-1,16.8S291,169.1,294.6,161.3z"/>
<path class="st1" d="M292.9,144.2c0,0.2,0,0.3,0.1,0.4c0.8-0.4,1.8-0.4,2.7-0.1C294.3,143.9,293.1,143.8,292.9,144.2z"/>
<path class="st1" d="M297.3,146.6c0.2,0,0.3-0.1,0.4-0.2c0.2-0.4-0.7-1.3-2.1-1.9C296.5,145,297.1,145.8,297.3,146.6z"/>
<path class="st1" d="M293,144.6c0.5,0.6,1.2,1.1,2,1.4c0.7,0.4,1.5,0.6,2.4,0.6c-0.4-1.6-2-2.6-3.6-2.3
	C293.5,144.4,293.3,144.5,293,144.6L293,144.6z"/>
<path class="st0" d="M204.8,167.1c0.1-0.1,0.2-0.3,0.3-0.4c0.3-0.6,0-1.4-0.6-1.6l0,0l-4.1-1.8c-0.6-0.3-1.4,0-1.7,0.6
	s0,1.4,0.6,1.6l0,0l4.1,1.8C203.9,167.5,204.4,167.4,204.8,167.1z"/>
<path class="st0" d="M201.8,173c0.3-0.3,0.5-0.7,0.4-1.1l-1.4-7.2c-0.1-0.7-0.8-1.1-1.5-1l0,0c-0.7,0.1-1.1,0.8-1,1.4l0,0l1.4,7.2
	c0.1,0.7,0.8,1.1,1.5,1C201.4,173.3,201.6,173.2,201.8,173z"/>
<path class="st0" d="M197.9,174.3c0.2-0.2,0.4-0.5,0.4-0.8l0.9-9.5c0.1-0.7-0.4-1.3-1.1-1.4c-0.7-0.1-1.3,0.5-1.4,1.1l-0.9,9.5
	c-0.1,0.7,0.4,1.3,1.1,1.4l0,0C197.3,174.6,197.6,174.5,197.9,174.3z"/>
<path class="st0" d="M194.3,172.2c0.1-0.1,0.2-0.2,0.3-0.4l3.8-7.5c0.3-0.6,0.1-1.4-0.6-1.7c-0.6-0.3-1.4-0.1-1.7,0.6l-3.8,7.5
	c-0.3,0.6-0.1,1.4,0.5,1.7C193.3,172.7,193.9,172.6,194.3,172.2L194.3,172.2z"/>
<path class="st9" d="M194.7,165.9l-2.9-9.8c-2.5-8.3,0.7-17.2,7.7-22.2L215,123l4.1,5.9l-15.5,10.9c-4.6,3.2-6.6,8.9-5,14.2l2.9,9.8
	L194.7,165.9z"/>
<path class="st10" d="M254.2,191.5l-6.8-2.4l8.2-23c0.5-1.5,0.3-3.1-0.6-4.4c-0.9-1.3-2.4-2.1-3.9-2.1l-18.4-0.1v-7.2l18.4,0.1
	c6.7,0,12,5.4,12,12.1c0,1.4-0.2,2.7-0.7,4L254.2,191.5z"/>
<path class="st0" d="M268,143c-0.1,0.1-0.3,0.2-0.5,0.2c-0.7,0.2-1.4-0.2-1.5-0.9l-1.2-4.3c-0.2-0.7,0.2-1.4,0.9-1.5
	c0.7-0.2,1.4,0.2,1.5,0.9l0,0l1.1,4.4C268.5,142.2,268.4,142.7,268,143z"/>
<path class="st0" d="M274.3,140.9c-0.3,0.3-0.8,0.3-1.2,0.2l-6.9-2.5c-0.6-0.2-1-1-0.8-1.6s1-1,1.6-0.8l6.9,2.5c0.7,0.2,1,1,0.8,1.6
	C274.6,140.6,274.5,140.8,274.3,140.9z"/>
<path class="st0" d="M276.2,137.3c-0.2,0.2-0.5,0.3-0.9,0.3l-9.5-0.6c-0.7,0-1.2-0.6-1.2-1.3s0.6-1.2,1.3-1.2h0.1l9.5,0.6
	c0.7,0,1.2,0.6,1.2,1.3C276.7,136.8,276.5,137.1,276.2,137.3z"/>
<path class="st0" d="M274.8,133.5c-0.1,0.1-0.2,0.2-0.4,0.2l-8.1,2.5c-0.7,0.2-1.4-0.2-1.6-0.8c-0.2-0.7,0.2-1.4,0.8-1.6l8.1-2.5
	c0.7-0.2,1.4,0.2,1.6,0.8l0,0C275.3,132.6,275.2,133.2,274.8,133.5z"/>
<path class="st9" d="M265.3,140.4c-15.1-0.8-29.8-5.3-42.7-13.3l3.8-6.1c11.8,7.3,25.4,11.6,39.3,12.3L265.3,140.4z"/>
<path class="st9" d="M223.2,159.5l-0.2-0.3l0,0c-6.9-9.8-10.2-21.7-9.5-33.7l15.6,1.1c-0.5,8.4,1.9,16.8,6.8,23.6L223.2,159.5z"/>
<path class="st11" d="M235.5,149.9l-12.7,9.7l0,0c2.4,3.2,7,3.8,10.1,1.3l1.2-0.9C237.4,157.5,238,153,235.5,149.9
	C235.6,149.9,235.6,149.9,235.5,149.9L235.5,149.9z"/>
<polygon class="st9" points="214.7,122.5 226.4,120.9 223.3,136 214.8,125.9 "/>
<path class="st12" d="M219.7,112.2L219.7,112.2c2.1-0.2,4,1.4,4.1,3.6l0.4,5.8c0.2,2.1-1.4,4-3.6,4.1l0,0c-2.1,0.2-4-1.4-4.1-3.6
	l-0.4-5.8C216,114.2,217.6,112.4,219.7,112.2z"/>
<path class="st3" d="M238.5,84.7L238.5,84.7c-4.6-1.4-9.5,1.2-10.9,5.8l0,0l-0.8,2.7c-1.4,4.6,1.2,9.5,5.8,10.9l0,0l6.2,1.9
	c2.7,0.8,5.5-0.7,6.4-3.4l1.1-3.5C248,93,244.6,86.5,238.5,84.7L238.5,84.7z"/>
<path class="st3" d="M224.7,80.5L224.7,80.5c4.6,1.4,7.2,6.3,5.9,10.9l0,0l-0.8,2.7c-1.4,4.6-6.3,7.2-10.9,5.8l-6.2-1.9
	c-2.7-0.8-4.2-3.6-3.4-6.3l1.1-3.5C212.1,82.1,218.6,78.7,224.7,80.5z"/>
<path class="st0" d="M207.9,104.9l2.5,0.8l1.4-4.4l-2.5-0.7c-1.2-0.4-2.5,0.3-2.9,1.5l0,0l0,0C205.9,103.2,206.6,104.5,207.9,104.9z
	"/>
<path class="st0" d="M240.2,109.8l-2.5-0.8l-1.4,4.4l2.5,0.7c1.2,0.4,2.5-0.3,2.9-1.5l0,0C242.1,111.5,241.4,110.2,240.2,109.8z"/>
<path class="st0" d="M215.6,119.1l9,2.7c5.9,1.8,12.2-1.5,14-7.4l0,0l4.1-13.5c2.5-8.4-2.2-17.2-10.6-19.8H232l0,0
	c-8.4-2.5-17.2,2.2-19.8,10.6l-4.1,13.5C206.3,111,209.6,117.3,215.6,119.1L215.6,119.1z"/>
<path class="st3" d="M242.1,94.8H242l-7.4-2.3c-0.2-0.1-0.4-0.3-0.3-0.6c0.1-0.2,0.3-0.4,0.6-0.3l7.4,2.3c0.2,0.1,0.4,0.3,0.3,0.6
	C242.5,94.6,242.3,94.8,242.1,94.8L242.1,94.8z"/>
<path class="st3" d="M225.6,90h-0.1l-8.4-2.9c-0.2-0.1-0.4-0.3-0.3-0.6l0,0c0.1-0.2,0.3-0.4,0.6-0.3l8.4,2.8
	c0.2,0.1,0.4,0.4,0.3,0.6C225.9,89.8,225.8,90,225.6,90L225.6,90z"/>
<path class="st2" d="M230.1,113.2l-14.3-4.3l0,0c-0.5,1.8,0.5,3.7,2.2,4.2l0,0l7.8,2.3C227.6,116,229.5,115,230.1,113.2L230.1,113.2
	z"/>
<path class="st3" d="M213,108.9l19.4,5.9l0,0c0.7-2.4-0.6-5-3.1-5.7l0,0l-10.5-3.2C216.3,105.1,213.7,106.5,213,108.9z"/>
<polygon class="st13" points="222.8,105.8 225.9,106.8 228.2,99.3 225.1,98.4 "/>
<polygon class="st14" points="222.8,105.8 225.9,106.8 226.3,105.5 223.2,104.6 "/>
<path class="st3" d="M220.5,75.1l15.6,4.7c5.4,1.6,8.5,7.4,6.9,12.8l0,0l0,0l-15.6-4.7C221.9,86.2,218.9,80.5,220.5,75.1L220.5,75.1
	z"/>
<path class="st15" d="M228,98.8c0.6-1.9,2.6-3,4.6-2.4l6.2,1.8c3.7,0.9,6,4.7,5.1,8.4s-4.7,6-8.4,5.1c-0.2-0.1-0.5-0.1-0.7-0.2l0,0
	C229.4,109.8,226.4,104.2,228,98.8C228,98.9,228,98.8,228,98.8"/>
<path class="st15" d="M225.5,98.1c0.6-1.9-0.5-4-2.4-4.6l0,0l-6.2-1.9c-3.7-1.1-7.5,1-8.6,4.6c-1.1,3.7,1,7.5,4.6,8.6l0,0l0,0
	C218.2,106.4,223.9,103.4,225.5,98.1"/>
<ellipse class="st11" cx="221.2" cy="100.2" rx="1.4" ry="1.4"/>
<ellipse class="st11" cx="237.3" cy="105.2" rx="1.4" ry="1.4"/>
<path class="st2" d="M259.6,200.3l-12.2-4.1c-1.1-0.4-1.7-1.6-1.3-2.7l0,0l1.6-4.8l11.1,3.8c2.7,0.9,4.2,3.9,3.3,6.6l0,0l0,0
	C261.7,200.1,260.6,200.6,259.6,200.3L259.6,200.3z"/>
<path class="st11" d="M218.8,211.1l-5.2-5l18.4-18.9c1.6-1.7,2.1-4.1,1.1-6.3l-8.7-19.8l6.6-2.9l8.7,19.8c2.1,4.8,1.1,10.4-2.6,14.2
	L218.8,211.1z"/>
<path class="st2" d="M228.3,213.3h-12.9c-1.2,0-2.1-1-2.1-2.1l0,0v-5l0,0H225c2.9,0,5.2,2.3,5.2,5.2l0,0l0,0
	C230.3,212.5,229.4,213.4,228.3,213.3z"/>
<path class="st16" d="M155.5,212.2l-1.6-4.1c3.7-1.4,6.9-4,9.1-7.2l1-1.5l3.6,2.5l-1,1.5C163.8,207.4,160,210.4,155.5,212.2z"/>
<path class="st17" d="M156.5,212.5l-2.6-4.4l-2.8,1.7l2.6,4.4c0.5,0.8,1.5,1,2.3,0.6l0,0l0,0C156.7,214.3,156.9,213.3,156.5,212.5
	L156.5,212.5z"/>
<path class="st7" d="M166.8,203.3h-2.6c-3.8,0-6.9-3.1-6.9-6.9v-10.8l0,0h16.2l0,0v11C173.5,200.3,170.5,203.3,166.8,203.3
	L166.8,203.3z"/>
<path class="st18" d="M166.8,203.3H164c-3.7,0-6.8-3-6.8-6.8l0,0l0,0h16.2l0,0v0.1C173.5,200.3,170.5,203.3,166.8,203.3L166.8,203.3
	z"/>
<path class="st7" d="M158.3,188.8c-7.3,0-13.2-5.9-13.2-13.2v-1h3.1v1c0,5.6,4.5,10.1,10.1,10.1L158.3,188.8L158.3,188.8z"/>
<path class="st7" d="M185.1,199.8c-7.3,0-13.2-5.9-13.2-13.2v-1h3.1v1c0,5.6,4.5,10.1,10.1,10.1L185.1,199.8z"/>
<path class="st3" d="M166.1,167.9c-0.8,0-1.5-0.6-1.5-1.4v-0.1c0-0.1,0-0.2,0-0.3c0-5.5,3.9-10.3,9.3-11.5c0.8-0.2,1.6,0.3,1.8,1.1
	s-0.3,1.6-1.1,1.8l0,0c-4,0.9-6.9,4.5-6.9,8.6c0,0.1,0,0.1,0,0.2v0.1C167.6,167.2,166.9,167.9,166.1,167.9L166.1,167.9L166.1,167.9z
	"/>
<path class="st3" d="M169.6,168.2c-0.8,0-1.5-0.6-1.5-1.4v-0.1c0-0.1,0-0.2,0-0.3c0-3.9,2.8-7.3,6.6-8.1c0.8-0.2,1.6,0.3,1.8,1.1
	s-0.3,1.6-1.1,1.8h-0.1c-2.5,0.5-4.2,2.7-4.2,5.2v0.2C171.2,167.4,170.5,168.1,169.6,168.2C169.7,168.2,169.7,168.2,169.6,168.2
	L169.6,168.2z"/>
<path class="st3" d="M173,168c-0.6,0-1-0.4-1.1-1c0-0.1,0-0.3,0-0.4c0-2.4,1.8-4.5,4.1-4.8c0.6-0.1,1.1,0.2,1.3,0.8
	s-0.2,1.1-0.8,1.3h-0.1c-1.3,0.2-2.3,1.4-2.3,2.7c0,0.1,0,0.1,0,0.2C174.1,167.4,173.7,167.9,173,168C173.1,168,173.1,168,173,168
	L173,168z"/>
<path class="st0" d="M175.9,185.6h-18.6l0,0v-12c0-4.7,3.8-8.5,8.5-8.5l0,0h10.1c5.7,0,10.2,4.6,10.2,10.2l0,0l0,0
	C186.2,181,181.6,185.6,175.9,185.6L175.9,185.6L175.9,185.6z"/>
<path class="st1" d="M178.4,177.1L178.4,177.1c-1.9,0-3.4-1.5-3.4-3.4v-0.6c0-1.9,1.5-3.4,3.4-3.4l0,0c1.9,0,3.4,1.5,3.4,3.4v0.6
	C181.7,175.6,180.2,177.1,178.4,177.1z"/>
<path class="st2" d="M179.8,177.4L179.8,177.4c-1.1,0-1.9-0.9-1.9-1.9v-1.9c0-1.1,0.9-1.9,1.9-1.9l0,0c1.1,0,1.9,0.9,1.9,1.9v1.9
	C181.7,176.5,180.9,177.4,179.8,177.4z"/>
<path class="st1" d="M166.6,177.1L166.6,177.1c-1.9,0-3.4-1.5-3.4-3.4v-0.6c0-1.9,1.5-3.4,3.4-3.4l0,0c1.9,0,3.4,1.5,3.4,3.4v0.6
	C170,175.6,168.5,177.1,166.6,177.1z"/>
<path class="st2" d="M168,177.4L168,177.4c-1.1,0-1.9-0.9-1.9-1.9v-1.9c0-1.1,0.9-1.9,1.9-1.9l0,0c1.1,0,1.9,0.9,1.9,1.9v1.9
	C170,176.5,169.1,177.4,168,177.4z"/>
<rect x="174.4" y="175.1" class="st0" width="8.2" height="2.6"/>
<rect x="162.8" y="175.1" class="st0" width="8.2" height="2.6"/>
<path class="st0" d="M155.9,172.5h5l0,0v3.2c0,1.3-1,2.3-2.3,2.3l0,0h-2.7c-1.5,0-2.8-1.2-2.8-2.8l0,0l0,0
	C153.1,173.8,154.4,172.5,155.9,172.5L155.9,172.5L155.9,172.5z"/>
<path class="st4" d="M172.5,171.9L172.5,171.9c0.6,0,1,0.4,1,1v2.1l0,0h-2l0,0v-2.1C171.5,172.4,172,171.9,172.5,171.9z"/>
<path class="st4" d="M166.4,180.5c-0.2,0-0.5-0.1-0.5-0.4c0-0.2,0.1-0.5,0.4-0.5h0.1c0.7,0,1.3-0.6,1.3-1.3s-0.6-1.3-1.3-1.3
	c-0.2,0-0.5-0.1-0.5-0.4c0-0.2,0.1-0.5,0.4-0.5h0.1c1.2,0,2.1,1,2.1,2.1C168.6,179.6,167.6,180.5,166.4,180.5
	C166.5,180.5,166.5,180.5,166.4,180.5z"/>
<path class="st4" d="M178.8,180.5c-1.2,0-2.1-1-2.1-2.1c0-1.2,1-2.1,2.1-2.1l0,0c0.2,0,0.4,0.3,0.4,0.5s-0.2,0.3-0.4,0.4
	c-0.7,0-1.3,0.6-1.3,1.3s0.6,1.3,1.3,1.3c0.2,0,0.4,0.3,0.4,0.5C179.1,180.3,179,180.5,178.8,180.5z"/>
<path class="st3" d="M164.1,169.4c-0.4,0-0.7-0.3-0.7-0.6s0.2-0.6,0.5-0.7l4.4-1.8c0.3-0.1,0.7,0,0.9,0.4s0,0.7-0.4,0.9l-4.4,1.8
	C164.3,169.4,164.2,169.4,164.1,169.4z"/>
<path class="st3" d="M181.2,169.4c-0.1,0-0.2,0-0.3-0.1l-4.4-1.8c-0.3-0.1-0.5-0.5-0.4-0.9s0.5-0.5,0.9-0.4l0,0l4.4,1.8
	c0.4,0.1,0.5,0.5,0.4,0.9C181.8,169.2,181.5,169.4,181.2,169.4L181.2,169.4z"/>
<ellipse class="st2" cx="172.6" cy="178.6" rx="1.8" ry="1.8"/>
<path class="st1" d="M170.8,178.6h3.7c0-1-0.8-1.8-1.8-1.8S170.8,177.5,170.8,178.6z"/>
<path class="st0" d="M190.2,198.6L190.2,198.6c0,1.5-1.2,2.7-2.7,2.7l0,0c-1.5,0-2.7-1.2-2.7-2.7v-2.2l0,0h3.2
	C189.2,196.4,190.2,197.4,190.2,198.6z"/>
<path class="st0" d="M184.7,196.4v-1c0-0.7,0.5-1.2,1.2-1.2l0,0c0.7,0,1.2,0.5,1.2,1.2l0,0c0,0.6-0.4,1-1,1H184.7L184.7,196.4
	L184.7,196.4z"/>
<path class="st18" d="M169.8,217.1l-4.3-0.7c0.6-3.9,0.1-7.9-1.5-11.5l-0.7-1.6l4-1.8l0.8,1.6C170,207.5,170.6,212.4,169.8,217.1z"
	/>
<path class="st1" d="M165.5,216.4h5.1c0.9,0,1.7,0.7,1.7,1.7l0,0l0,0c0,0.9-0.7,1.7-1.7,1.7l0,0h-5.1l0,0V216.4L165.5,216.4z"/>
<path class="st1" d="M146.4,170.8c-0.3,0-0.5-0.2-0.5-0.5l0,0V121c0-0.3,0.2-0.5,0.5-0.5s0.5,0.2,0.5,0.5v49.4
	C146.9,170.6,146.7,170.8,146.4,170.8L146.4,170.8z"/>
<path class="st0" d="M148.2,174.5h-2.3c-1.5,0-2.8-1.2-2.8-2.8l0,0c0-1.5,1.2-2.8,2.8-2.8l0,0c1.3,0,2.3,1,2.3,2.3l0,0V174.5
	L148.2,174.5z"/>
<path class="st0" d="M149.1,172.1L149.1,172.1c0.7,0,1.2,0.6,1.2,1.2l0,0c0,0.7-0.6,1.2-1.2,1.2h-1l0,0v-1.4
	C148.1,172.6,148.6,172.1,149.1,172.1L149.1,172.1z"/>
<path class="st1" d="M146.4,185c-0.3,0-0.5-0.2-0.5-0.5l0,0v-10.9c0-0.3,0.2-0.5,0.5-0.5s0.5,0.2,0.5,0.5v10.9
	C146.9,184.7,146.7,185,146.4,185C146.5,185,146.4,185,146.4,185z"/>
<path class="st8" d="M146.4,121L146.4,121c6.1,0,11.5-4.1,13-10l2-7.5c2.1-8.2-2.8-16.6-11-18.8c-1.3-0.3-2.6-0.5-3.9-0.5l0,0
	c-8.5,0-15.4,6.8-15.4,15.3c0,1.3,0.2,2.6,0.5,3.9l2,7.5C135.1,116.9,140.4,120.9,146.4,121z"/>
<polygon class="st8" points="143.7,124.9 149.1,124.9 147.3,120.3 145.5,120.3 "/>
<path class="st1" d="M148,121.5h-3.1c-0.3,0-0.5-0.2-0.5-0.5s0.2-0.5,0.5-0.5h3.1c0.3,0,0.5,0.2,0.5,0.5
	C148.5,121.2,148.3,121.5,148,121.5L148,121.5z"/>
<polygon class="st19" points="460.9,201.7 450.7,201.7 440.5,201.7 450.7,178.6 "/>
<path class="st19" d="M454.5,190.8h-2.4V159c0-6.2-5.1-11.3-11.3-11.3c-6.2,0-11.3,5.1-11.3,11.3v31.8h-2.4V159
	c0-7.5,6.1-13.6,13.6-13.6s13.6,6.1,13.6,13.6v31.8H454.5z"/>
<polygon class="st20" points="440.5,201.7 418.3,201.7 408.1,201.7 418.3,178.6 450.7,178.6 "/>
<polygon class="st21" points="450.7,171.6 418.5,171.6 418.3,178.6 450.7,178.6 "/>
<rect x="450.3" y="171.6" class="st22" width="0.8" height="30.2"/>
<path class="st20" d="M447.5,183h-2.4v-24c-0.2-6.2-5.4-11.1-11.6-10.9c-6,0.2-10.8,5-10.9,10.9v24h-2.4v-24
	c0.2-7.5,6.5-13.5,14-13.3c7.2,0.2,13.1,6,13.3,13.3V183z"/>
<path class="st23" d="M346.3,96.8c-0.5,0-1-0.2-1.4-0.5l-3.9-2.9c-1-0.8-1.2-2.2-0.5-3.2l0,0c0.8-1,2.2-1.2,3.3-0.5l3.9,2.9
	c1,0.8,1.2,2.2,0.5,3.2C347.8,96.5,347.1,96.8,346.3,96.8z"/>
<path d="M342.2,78l-4.8-0.6c-1.3-0.2-2.4,0.7-2.6,2l-2,15l0,0c-0.1,1.3,0.7,2.4,2,2.6l4.8,0.6c1.3,0.2,2.4-0.7,2.6-2l0,0l2-15
	C344.4,79.3,343.5,78.2,342.2,78z M335.2,79.8l8.7,1.2L342,95.1l-8.7-1.1L335.2,79.8z"/>
<polygon class="st24" points="335.2,79.8 333.3,94 342,95.1 343.8,81 "/>
<ellipse cx="337.5" cy="95.9" rx="0.9" ry="0.9"/>
<path class="st25" d="M337.5,95.4L337.5,95.4c0.4,0.1,0.6,0.3,0.5,0.6c0,0.3-0.3,0.5-0.5,0.5h-0.1c-0.3-0.1-0.5-0.3-0.5-0.7
	C337,95.6,337.2,95.4,337.5,95.4 M337.5,95c-0.5,0-0.9,0.3-0.9,0.8s0.3,1,0.8,1.1h0.1c0.5,0,1-0.4,1-0.9s-0.4-1-0.9-1l0,0H337.5z"/>
<path class="st25" d="M340.6,79.4l-1.9-0.3c-0.2,0-0.3-0.2-0.3-0.3l0,0l0,0c0-0.2,0.2-0.3,0.4-0.3l1.9,0.3c0.2,0,0.3,0.2,0.3,0.3
	l0,0l0,0C340.9,79.3,340.7,79.4,340.6,79.4z"/>
<path class="st25" d="M337.8,79L337.8,79c-0.2,0-0.3-0.2-0.3-0.4l0,0c0-0.2,0.2-0.3,0.4-0.3l0,0l0,0c0.2,0,0.3,0.2,0.3,0.4l0,0l0,0
	C338.1,78.9,337.9,79,337.8,79z"/>
<path class="st26" d="M335.7,80.9l-0.2,1.3c0,0.2,0.1,0.5,0.4,0.5l0,0l1.3,0.2c0.2,0,0.4-0.1,0.5-0.3l0,0l0.2-1.3
	c0-0.2-0.1-0.5-0.4-0.5l0,0l-1.3-0.2C335.9,80.5,335.7,80.7,335.7,80.9z"/>
<path class="st26" d="M338.4,81.3l-0.2,1.3c0,0.2,0.1,0.5,0.4,0.5l1.3,0.2c0.2,0,0.5-0.1,0.5-0.4l0.2-1.3c0-0.2-0.1-0.5-0.4-0.5
	l-1.3-0.2C338.6,80.9,338.4,81,338.4,81.3L338.4,81.3z"/>
<path class="st26" d="M341,81.6l-0.2,1.3c0,0.2,0.1,0.5,0.4,0.5l1.3,0.2c0.2,0,0.5-0.1,0.5-0.4l0,0l0.2-1.3c0-0.2-0.1-0.5-0.4-0.5
	l-1.3-0.2C341.3,81.2,341,81.4,341,81.6z"/>
<path class="st26" d="M335.3,83.6l-0.2,1.3c0,0.2,0.1,0.5,0.4,0.5l1.3,0.2c0.2,0,0.4-0.1,0.5-0.4l0.2-1.3c0-0.2-0.1-0.5-0.4-0.5
	l-1.3-0.2C335.6,83.2,335.3,83.4,335.3,83.6L335.3,83.6z"/>
<path class="st26" d="M338,84l-0.2,1.3c0,0.2,0.1,0.4,0.3,0.5l0,0l1.3,0.2c0.2,0,0.5-0.1,0.5-0.4l0.2-1.3c0-0.2-0.1-0.5-0.4-0.5l0,0
	l-1.3-0.2C338.3,83.6,338,83.8,338,84z"/>
<path class="st26" d="M340.7,84.3l-0.2,1.3c0,0.2,0.1,0.5,0.4,0.5l1.3,0.2c0.2,0,0.5-0.1,0.5-0.4l0,0l0.2-1.3c0-0.2-0.1-0.5-0.4-0.5
	l-1.3-0.1C340.9,84,340.7,84.1,340.7,84.3z"/>
<path class="st26" d="M335,86.3l-0.2,1.3c0,0.2,0.1,0.5,0.4,0.5l0,0l1.3,0.2c0.2,0,0.5-0.1,0.5-0.4l0.2-1.3c0-0.2-0.1-0.4-0.3-0.5
	l0,0l-1.3-0.1C335.2,86,335,86.1,335,86.3z"/>
<path class="st26" d="M337.6,86.7l-0.2,1.3c0,0.2,0.1,0.5,0.4,0.5l1.3,0.2c0.2,0,0.4-0.1,0.5-0.4l0,0l0.2-1.3c0-0.2-0.1-0.5-0.4-0.5
	l-1.3-0.2C337.9,86.3,337.7,86.5,337.6,86.7z"/>
<path class="st26" d="M340.3,87.1l-0.2,1.3c0,0.2,0.1,0.5,0.4,0.5l1.3,0.2c0.2,0,0.5-0.1,0.5-0.4l0.2-1.3c0-0.2-0.1-0.5-0.4-0.5
	l-1.3-0.2C340.6,86.6,340.4,86.8,340.3,87.1C340.3,87,340.3,87,340.3,87.1z"/>
<path class="st26" d="M334.6,89.1l-0.2,1.3c0,0.2,0.1,0.5,0.4,0.5l1.3,0.2c0.2,0,0.5-0.1,0.5-0.4l0.2-1.3c0-0.2-0.1-0.5-0.4-0.5l0,0
	l-1.3-0.2C334.9,88.6,334.6,88.8,334.6,89.1z"/>
<path class="st26" d="M337.3,89.4l-0.2,1.3c0,0.2,0.1,0.5,0.4,0.5l0,0l1.3,0.2c0.2,0,0.5-0.1,0.5-0.4l0.2-1.3c0-0.2-0.1-0.4-0.3-0.5
	l0,0l-1.3-0.2C337.5,89,337.3,89.1,337.3,89.4L337.3,89.4z"/>
<path class="st26" d="M340,89.8l-0.2,1.2c0,0.2,0.1,0.5,0.4,0.5l1.3,0.2c0.2,0,0.5-0.1,0.5-0.4l0,0l0.2-1.3c0-0.2-0.1-0.5-0.4-0.5
	l-1.3-0.2C340.2,89.3,340,89.5,340,89.8C340,89.7,340,89.8,340,89.8z"/>
<path class="st26" d="M334.3,91.8l-0.2,1.2c0,0.2,0.1,0.4,0.4,0.5l1.3,0.2c0.2,0,0.5-0.1,0.5-0.4l0,0l0.2-1.3c0-0.2-0.1-0.5-0.4-0.5
	l-1.3-0.2C334.5,91.3,334.3,91.5,334.3,91.8C334.3,91.7,334.3,91.7,334.3,91.8z"/>
<path class="st26" d="M336.9,92.1l-0.2,1.3c0,0.2,0.1,0.5,0.4,0.5l1.3,0.2c0.2,0,0.5-0.1,0.5-0.4l0,0l0.2-1.3c0-0.2-0.1-0.5-0.4-0.5
	l-1.3-0.2C337.2,91.7,337,91.9,336.9,92.1L336.9,92.1z"/>
<path class="st26" d="M339.6,92.5l-0.2,1.3c0,0.2,0.1,0.5,0.4,0.5l0,0l1.3,0.2c0.2,0,0.4-0.1,0.5-0.3l0,0l0.2-1.3
	c0-0.2-0.1-0.5-0.4-0.5l0,0l-1.3-0.2C339.9,92.1,339.7,92.2,339.6,92.5z"/>
<path class="st23" d="M333.3,89.1c-0.6,0-1.2-0.5-1.2-1.2c0-0.6,0.4-1,0.9-1.1l1.6-0.3c0.6-0.1,1.2,0.3,1.4,0.9
	c0.1,0.6-0.3,1.2-0.9,1.4l-1.6,0.3L333.3,89.1z"/>
<path class="st23" d="M333.6,86.4c-0.6,0-1.2-0.6-1.1-1.2c0-0.5,0.4-1,0.9-1.1l1.6-0.3c0.6-0.2,1.3,0.2,1.4,0.8
	c0.2,0.6-0.2,1.3-0.8,1.4c-0.1,0-0.1,0-0.2,0l-1.6,0.3C333.7,86.4,333.6,86.4,333.6,86.4z"/>
<path class="st23" d="M333.1,91.8c-0.6,0-1.1-0.6-1.1-1.2c0-0.5,0.4-1,1-1.1l1.7-0.2c0.6-0.1,1.2,0.4,1.3,1s-0.4,1.2-1,1.3l-1.7,0.2
	L333.1,91.8z"/>
<path class="st23" d="M343.2,94.8c-0.6,0-1.2-0.5-1.2-1.2c0-0.1,0-0.2,0-0.2l0.7-3c0.1-0.2,0-0.4-0.2-0.6c-0.1-0.1-0.4-0.2-0.5-0.2
	l-2.7,0.7c-0.6,0.2-1.3-0.2-1.4-0.8c-0.2-0.6,0.2-1.3,0.8-1.4h0.1l2.7-0.7c1.6-0.4,3.2,0.6,3.5,2.2c0.1,0.4,0.1,0.9,0,1.3l-0.7,3
	C344.2,94.4,343.7,94.8,343.2,94.8z"/>
<path class="st27" d="M389.9,128.8L345,96.2l3-4.2l36.6,26.6V89.8c0-4.2,3.4-7.6,7.6-7.6h9.1v5.2h-9.1c-1.3,0-2.4,1.1-2.4,2.4
	L389.9,128.8z"/>
<rect x="429.4" y="138.3" class="st23" width="4.1" height="7.6"/>
<path class="st23" d="M428.2,148.5c-0.2,0-0.3,0-0.5-0.1c-0.5-0.2-0.7-0.8-0.5-1.3V147l0.3-0.7c1.1-2.2,3.8-3.1,6-2
	c0.5,0.2,0.7,0.8,0.5,1.3v0.1c-0.3,0.5-0.9,0.7-1.4,0.5c-1.2-0.6-2.6-0.1-3.2,1.1l-0.3,0.7C429,148.3,428.6,148.5,428.2,148.5z"/>
<path class="st23" d="M434,149.4c-0.6,0-1-0.4-1-0.9c0,0,0,0,0-0.1v-0.7c0-1.3-1.1-2.4-2.4-2.4c-0.6,0-1-0.5-1-1s0.5-1,1-1l0,0
	c2.5,0,4.5,2,4.5,4.4v0.7C435.1,149,434.7,149.4,434,149.4C434.1,149.5,434.1,149.5,434,149.4L434,149.4z"/>
<path class="st23" d="M437.9,149.2c-0.6,0-1-0.4-1-1v-0.7c0-1.1-2.3-2.4-3.8-2.4H433l-2.1-0.2c-0.6-0.1-1-0.6-0.9-1.2
	c0.1-0.6,0.6-1,1.2-0.9l0,0l2,0.2c2.4,0,5.8,1.9,5.9,4.4v0.7C439,148.8,438.5,149.2,437.9,149.2L437.9,149.2z"/>
<path class="st28" d="M434.3,140.7H429V89.8c0-1.3-1.1-2.4-2.4-2.4h-9.1v-5.2h9.1c4.2,0,7.6,3.4,7.6,7.6L434.3,140.7z"/>
<path class="st29" d="M391.5,80c-11,0-19.9-8.9-19.9-19.9l0,0V19.9c0-11,8.9-19.9,19.9-19.9l0,0h36.8c11,0,19.9,8.9,19.9,19.9v40.2
	c0,11-8.9,19.9-19.9,19.9l0,0H391.5z"/>
<path class="st23" d="M387.1,51.3h-4.3c-2.1,0-3.8-1.7-3.8-3.8l0,0c0-2.1,1.7-3.8,3.8-3.8h4.3l0,0V51.3L387.1,51.3z"/>
<path class="st23" d="M431.8,43.7h4.2c2.1,0,3.8,1.7,3.8,3.8l0,0c0,2.1-1.7,3.8-3.8,3.8h-4.3l0,0L431.8,43.7L431.8,43.7z"/>
<path class="st8" d="M436.3,67.3c-5,0-9.1-4.1-9.1-9.1s4.1-9.1,9.1-9.1s9.1,4.1,9.1,9.1S441.3,67.3,436.3,67.3z M436.3,51.6
	c-3.6,0-6.6,2.9-6.5,6.6s2.9,6.6,6.6,6.5c3.6,0,6.5-2.9,6.5-6.6C442.8,54.6,439.9,51.6,436.3,51.6z"/>
<path class="st8" d="M382.9,67.3c-5,0-9.1-4.1-9-9.1s4.1-9.1,9.1-9c5,0,9.1,4.1,9,9.1C392,63.2,387.9,67.3,382.9,67.3L382.9,67.3z
	 M382.9,51.6c-3.6,0-6.6,3-6.5,6.6s3,6.6,6.6,6.5c3.6,0,6.5-2.9,6.5-6.6C389.4,54.6,386.5,51.6,382.9,51.6z"/>
<polygon class="st23" points="415.4,71.4 415.4,81.6 409.4,87.7 403.5,81.6 403.5,71.4 "/>
<path class="st23" d="M417.1,6.7h-15.4c-10.1,0-18.4,8.2-18.4,18.3l0,0v23.1c0,14.4,11.6,26,26,26h0.1l0,0c14.4,0,26.1-11.6,26.1-26
	l0,0V25C435.5,14.9,427.3,6.6,417.1,6.7L417.1,6.7z"/>
<path class="st2" d="M409.4,58.7L409.4,58.7c-4.3,0-7.7-3.5-7.7-7.7l0,0v-0.8l0,0h15.5l0,0V51C417.2,55.2,413.7,58.7,409.4,58.7
	L409.4,58.7z"/>
<rect x="401.1" y="49.6" class="st23" width="16.7" height="4.8"/>
<rect x="406.7" y="37.1" class="st30" width="5.4" height="12.8"/>
<rect x="406.7" y="47.7" class="st31" width="5.4" height="2.2"/>
<ellipse class="st32" cx="397" cy="39.8" rx="3.1" ry="3.1"/>
<path class="st29" d="M380.2,4.5H439l0,0l0,0c0,14.4-11.6,26-26,26h-32.8l0,0V4.5L380.2,4.5z"/>
<ellipse class="st33" cx="426.1" cy="48.7" rx="5.6" ry="5.6"/>
<ellipse class="st33" cx="392.6" cy="48.7" rx="5.6" ry="5.6"/>
<ellipse class="st32" cx="421.9" cy="39.8" rx="3.1" ry="3.1"/>
<path class="st34" d="M397,42.9c1.7,0,3.1-1.4,3.1-3.1s-1.4-3.1-3.1-3.1"/>
<path class="st34" d="M421.9,42.9c1.7,0,3.1-1.4,3.1-3.1s-1.4-3.1-3.1-3.1"/>
<polygon class="st35" points="406.9,130.7 405.3,225.8 399.8,225.8 398.2,130.7 "/>
<polygon class="st29" points="411.5,130.7 411.5,179.9 442.1,210.4 446,206.6 420.2,173.4 420.2,130.7 "/>
<rect x="398.2" y="111" class="st29" width="22" height="19.7"/>
<rect x="398.2" y="111" class="st35" width="11" height="19.7"/>
<rect x="398.2" y="82.1" class="st36" width="22" height="29"/>
<rect x="398.2" y="82.1" class="st24" width="11" height="29"/>
<polygon class="st27" points="401.5,82.1 392.2,82.1 394.7,113.2 404,113.2 404,113.2 "/>
<polygon class="st28" points="416.9,82.1 426.2,82.1 426.3,113.2 414.4,113.2 414.4,113.2 "/>
<path class="st2" d="M389.4,234h7.7c2.6,0,4.7-3.7,4.7-8.3l0,0l-10.5,4.2C390.2,230.3,389.4,232,389.4,234z"/>
<polygon class="st2" points="401.2,234 405.3,234 405.3,225.7 399.8,225.7 "/>
<path class="st2" d="M440.6,223.6l5.4-5.4c1.8-1.8,0.7-5.9-2.6-9.2l0,0l-4.5,10.4C438.5,220.5,439.2,222.2,440.6,223.6L440.6,223.6z
	"/>
<polygon class="st2" points="449,215.3 451.9,212.4 446,206.6 442.1,210.4 "/>
<polygon class="st27" points="404,113.2 394.7,113.2 389.3,168.8 403,168.8 "/>
<polygon class="st28" points="426.3,113.2 414.4,113.2 420.1,169.4 439,169.4 "/>
<path class="st37" d="M541.7,210.1h-11.2c-1.5,0.1-2.7-1-2.8-2.5s1-2.7,2.5-2.8c0.1,0,0.2,0,0.3,0h7.6l-0.7-2.4
	c-3-9.2-0.6-14.4,2-17.1c3.8-4.1,10.3-5.3,18.3-3.4c1.4,0.3,2.4,1.7,2.1,3.1c-0.3,1.4-1.7,2.4-3.1,2.1c-0.1,0-0.1,0-0.2,0
	c-6-1.4-10.8-0.7-13.2,1.9c-2.2,2.4-2.5,6.6-0.8,11.9l1.8,5.9c0.4,1.4-0.4,2.9-1.8,3.3C542.2,210.1,542,210.1,541.7,210.1
	L541.7,210.1z"/>
<path class="st17" d="M541.7,210.1h-13.2c-1.5,0.1-2.7-1-2.8-2.5s1-2.7,2.5-2.8c0.1,0,0.2,0,0.3,0h13.2c1.5-0.1,2.7,1,2.8,2.5
	s-1,2.7-2.5,2.8C541.9,210.1,541.8,210.1,541.7,210.1z"/>
<path class="st17" d="M541.7,210.1H533v-5.3h5.2l-1.4-4.6l5.1-1.5l2.4,8c0.4,1.4-0.4,2.9-1.8,3.3C542.2,210.1,542,210.1,541.7,210.1
	L541.7,210.1z"/>
<path class="st38" d="M534.1,197.9c-1.2-6.3,0.4-11.7,4.6-15.2c5.6-4.6,14.6-5.1,24.3-1.3l-3.4,8.6c-7.1-2.8-12.6-2.1-14.9-0.2
	c-1.5,1.3-2,3.4-1.5,6.3L534.1,197.9z"/>
<rect x="525.1" y="210.1" class="st39" width="17.4" height="1.9"/>
<path class="st40" d="M530.7,204h6c0.5,0,0.9,0.4,0.9,0.9l0,0v5.6l0,0h-7.8l0,0v-5.6C529.8,204.4,530.2,204,530.7,204L530.7,204z"/>
<path class="st38" d="M563.7,184.3c-0.1,3.6-3.2,6.5-6.9,6.3c-3.4-0.1-6.2-2.9-6.3-6.3"/>
<rect x="502.5" y="174.5" class="st2" width="5.1" height="36.4"/>
<path class="st41" d="M538.7,175.6h-67.3c-0.9,0-1.6-0.7-1.6-1.6l0,0c0-0.9,0.7-1.6,1.6-1.6h67.3c0.9,0,1.6,0.7,1.6,1.6l0,0l0,0
	C540.3,174.9,539.6,175.6,538.7,175.6z"/>
<path class="st2" d="M525.7,211.9h-41.3c-0.2,0-0.3-0.1-0.3-0.3c0-0.1,0.1-0.3,0.2-0.3l18.3-5h5l18.3,5c0.2,0,0.3,0.2,0.2,0.4
	S525.9,212,525.7,211.9L525.7,211.9z"/>
<path class="st42" d="M507.8,168.6c-1,0-1.8-0.8-1.8-1.8c0-0.5,0.2-1,0.6-1.3l4.3-3.6c0.3-0.3,0.8-0.4,1.2-0.4l18.3,0.5l16.7-6.3
	c0.9-0.4,1.9,0,2.3,0.8s0,1.9-0.8,2.3c-0.1,0-0.2,0.1-0.2,0.1l-17,6.4c-0.2,0.1-0.4,0.1-0.7,0.1l-18-0.4l-3.7,3.1
	C508.7,168.4,508.3,168.6,507.8,168.6z"/>
<path class="st42" d="M512.1,168c-0.5,0-0.8-0.4-0.8-0.8v-4c0-0.5,0.4-0.8,0.8-0.8c0.5,0,0.8,0.4,0.8,0.8v4
	C512.9,167.6,512.6,168,512.1,168z"/>
<path class="st43" d="M541.5,163.9l-2.9-7.1l6.1-2.5c2-0.8,4.2,0.2,5,2.1l0,0c0.8,2-0.2,4.2-2.1,5L541.5,163.9z"/>
<path class="st2" d="M527.4,172.4h-28.6c-1.1,0-2-0.9-2-2l0,0c0-1.1,0.9-2,2-2h28.6c1.1,0,2,0.9,2,2l0,0
	C529.4,171.6,528.5,172.4,527.4,172.4z"/>
<path class="st2" d="M497,168.3l-9.9-26.9c-0.4-1-1.5-1.5-2.4-1.1l0,0l0,0c-1,0.4-1.5,1.4-1.1,2.4l0,0l9.9,26.9
	c0.4,1,1.5,1.5,2.4,1.1l0,0l0,0C496.8,170.4,497.4,169.3,497,168.3L497,168.3z"/>
<path class="st44" d="M523.6,168.5h-2.7l0,0l0,0c0-0.3,0.2-0.5,0.5-0.5l0,0h1.7C523.4,168,523.6,168.2,523.6,168.5L523.6,168.5
	L523.6,168.5L523.6,168.5z"/>
<path class="st44" d="M520.1,168.5h-2.7l0,0l0,0c0-0.3,0.2-0.5,0.5-0.5l0,0h1.7C519.9,168,520.1,168.2,520.1,168.5L520.1,168.5
	L520.1,168.5L520.1,168.5z"/>
<path class="st44" d="M516.5,168.5h-2.7l0,0l0,0c0-0.3,0.2-0.5,0.5-0.5l0,0h1.7C516.3,168,516.5,168.2,516.5,168.5L516.5,168.5
	L516.5,168.5L516.5,168.5z"/>
<path class="st44" d="M513,168.5h-2.7l0,0l0,0c0-0.3,0.2-0.5,0.5-0.5l0,0h1.7C512.8,168,513,168.2,513,168.5L513,168.5L513,168.5z"
	/>
<path class="st44" d="M509.4,168.5h-2.7l0,0l0,0c0-0.3,0.2-0.5,0.5-0.5h1.7C509.2,168,509.4,168.2,509.4,168.5L509.4,168.5
	L509.4,168.5z"/>
<path class="st44" d="M505.9,168.5h-2.7l0,0l0,0c0-0.3,0.2-0.5,0.5-0.5h1.7C505.7,168,505.9,168.2,505.9,168.5L505.9,168.5
	L505.9,168.5z"/>
<path class="st45" d="M547.3,211.7v-6.2l0,0h20.2c1.7,0,3.1,1.4,3.1,3.1l0,0c0,1.7-1.4,3.1-3.1,3.1L547.3,211.7L547.3,211.7z"/>
<path class="st1" d="M567.1,210.6h-19.8l0,0v-4l0,0h19.8c1.1,0,2,0.9,2,2l0,0C569.1,209.7,568.2,210.6,567.1,210.6z"/>
<path class="st46" d="M548.2,205.5v-4.8l0,0h15.7c1.3,0,2.4,1.1,2.4,2.4l0,0c0,1.3-1.1,2.4-2.4,2.4L548.2,205.5L548.2,205.5z"/>
<path class="st1" d="M563.6,204.6h-15.4l0,0v-3.1l0,0h15.4c0.9,0,1.5,0.7,1.5,1.6l0,0C565.2,203.9,564.5,204.6,563.6,204.6z"/>
<path class="st47" d="M551.6,195.6v-4.8l0,0h15.7c1.3,0,2.4,1.1,2.4,2.4l0,0c0,1.3-1.1,2.4-2.4,2.4L551.6,195.6L551.6,195.6z"/>
<path class="st1" d="M567,194.8h-15.4l0,0v-3.1l0,0H567c0.9,0,1.5,0.7,1.5,1.6l0,0C568.6,194.1,567.9,194.8,567,194.8z"/>
<path class="st48" d="M566.3,195.7v4.8l0,0h-15.7c-1.3,0-2.4-1.1-2.4-2.4l0,0c0-1.3,1.1-2.4,2.4-2.4L566.3,195.7L566.3,195.7z"/>
<path class="st1" d="M550.9,196.6h15.4l0,0v3.1l0,0h-15.4c-0.9,0-1.5-0.7-1.5-1.6l0,0C549.4,197.3,550.1,196.6,550.9,196.6z"/>
<path class="st49" d="M566.5,201.9L566.5,201.9c-0.6,1.2,0,2.7,1.2,3.2l0,0l14.3,6.6l2-4.4l-14.3-6.6
	C568.5,200.2,567.1,200.7,566.5,201.9z"/>
<path class="st1" d="M582.3,210.9l-14-6.5c-0.8-0.4-1.1-1.3-0.8-2.1l0,0l0,0c0.4-0.8,1.3-1.1,2.1-0.8l0,0l14,6.5L582.3,210.9z"/>
<path class="st50" d="M560.9,190.9c-3.6,0-6.6-2.9-6.6-6.6c0-1.9-0.1-3.9-0.3-5.8c-0.3-2.1,13-1.7,13.4,1.3c0.2,1.5,0.2,3,0.2,4.5
	C567.5,187.9,564.6,190.9,560.9,190.9z"/>
<path class="st0" d="M547.9,159.8c-1,0-1.9-0.4-2.5-1.2l-6.2-7.3c-1.2-1.4-1-3.5,0.4-4.7s3.5-1,4.7,0.4l6.2,7.3
	c1.2,1.4,1,3.5-0.4,4.6C549.4,159.5,548.6,159.8,547.9,159.8L547.9,159.8z"/>
<path class="st51" d="M518.9,210.1h-11.2c-1.5,0.1-2.7-1-2.8-2.5c-0.1-1.5,1-2.7,2.5-2.8c0.1,0,0.2,0,0.3,0h9.4l1.8-4.2
	c6.1-14.4,21.7-22.3,36.9-18.7c1.4,0.3,2.4,1.7,2.1,3.1c-0.3,1.4-1.7,2.4-3.1,2.1c-0.1,0-0.1,0-0.2,0c-12.7-3-25.7,3.6-30.8,15.6
	l-2.5,5.8C520.9,209.5,520,210.1,518.9,210.1z"/>
<path class="st1" d="M518.9,210.1h-11.2c-1.5,0.1-2.7-1-2.8-2.5c-0.1-1.5,1-2.7,2.5-2.8c0.1,0,0.2,0,0.3,0h11.2
	c1.5-0.1,2.7,1,2.8,2.5s-1,2.7-2.5,2.8C519.1,210.1,519,210.1,518.9,210.1z"/>
<path class="st1" d="M518.9,210.1h-11.2v-5.3h9.4l1.8-4.2c0.3-0.7,0.7-1.4,1-2.1l4.7,2.4c-0.3,0.6-0.6,1.2-0.8,1.8l-2.5,5.8
	C520.9,209.5,519.9,210.1,518.9,210.1z"/>
<path class="st52" d="M566.7,176.1c-1.5-6.7-4.8-12.9-9.6-17.8c-1.3-1.3-7-5.8-8.4-6.7l-5.1,5.6c3.1,2.8,5.6,6.2,7.3,10
	c1.1,2.5,2,5.1,2.5,7.7c-1.2,1-2.1,2.8-0.7,5.8c0.5,0,1-0.2,1.5-0.4c0,0.1,0,0.3,0,0.4l13.2-0.9
	C567.3,179.7,569.4,178.3,566.7,176.1z"/>
<path class="st50" d="M527.7,199.6l-7.8-5c8.9-13.6,26.2-19.1,41.3-13.1l-3.4,8.5C546.8,185.7,534.2,189.6,527.7,199.6z"/>
<rect x="504.3" y="210.1" class="st46" width="17.4" height="1.9"/>
<path class="st52" d="M509.9,204h6c0.5,0,0.9,0.4,0.9,0.9l0,0v5.6l0,0H509l0,0v-5.6C509,204.4,509.4,204,509.9,204L509.9,204z"/>
<path class="st1" d="M525.5,198.1l-1.1-0.7c7.6-11.5,22.1-16.1,34.9-11.1c0.7,0.2,1.4,0.1,2-0.3c0.6-0.4,0.9-1.1,0.9-1.8l-0.3-4.1
	l1.3-0.1l0.3,4.1c0.1,1.9-1.3,3.5-3.2,3.7c-0.5,0-1,0-1.4-0.2C546.6,182.8,532.7,187.2,525.5,198.1z"/>
<path class="st1" d="M523.3,196.7l-1.1-0.7c8.1-12.1,23.3-17.3,37.1-12.4l-0.3-3.1l1.3-0.1l0.3,3.3c0,0.4-0.1,0.8-0.5,1.1
	c-0.3,0.3-0.8,0.3-1.2,0.2C545.8,180.1,531,185,523.3,196.7z"/>
<path class="st0" d="M538.3,172.2c-0.2,0-0.5-0.1-0.7-0.2l-15.4-6.9l-3,2.6c-0.7,0.6-1.8,0.6-2.5-0.2c-0.6-0.7-0.6-1.8,0.2-2.5
	l3.9-3.4c0.5-0.5,1.3-0.6,1.9-0.3l15.3,6.9l11.6-13.1c0.6-0.7,1.8-0.8,2.5-0.2s0.8,1.8,0.2,2.5l-12.5,14
	C539.4,172,538.9,172.2,538.3,172.2z"/>
<path class="st0" d="M521.8,168c-0.5,0-0.8-0.4-0.8-0.8v-4.8c0.1-0.5,0.5-0.8,0.9-0.8s0.7,0.4,0.8,0.8v4.8
	C522.6,167.6,522.2,168,521.8,168z"/>
<path class="st53" d="M547.8,165.1l-5.5-5.4l4.7-4.6c1.5-1.5,3.9-1.5,5.5,0l0,0c1.5,1.5,1.5,3.9,0,5.4l0,0L547.8,165.1z"/>
<path class="st1" d="M512.8,134.4L512.8,134.4c2.5-0.4,4.7,1.3,5.1,3.7l0,0c0.4,2.4-1.3,4.7-3.7,5l0,0c-2.4,0.4-4.7-1.3-5-3.7l0,0
	C508.7,137,510.4,134.8,512.8,134.4z"/>
<path class="st9" d="M510.8,139.4L510.8,139.4c0.7-0.1,1.3,0.4,1.4,1l0,0c0.1,0.7-0.4,1.3-1,1.4l0,0c-0.7,0.1-1.3-0.4-1.4-1l0,0
	C509.7,140.1,510.1,139.5,510.8,139.4z"/>
<path class="st54" d="M509.1,137.4c0.5-1.6,1.7-2.8,3.3-3.1l0,0c0.6-0.1,1.2-0.1,1.8,0l0.4,1.9L509.1,137.4z"/>
<path class="st38" d="M547.9,96.1c-2-1.1-4.4-0.4-5.5,1.6l0,0l-7.1,12.7l-2.9-13.3c-0.4-2.2-2.6-3.6-4.7-3.1h-0.1l0,0
	c-2.2,0.4-3.6,2.5-3.1,4.7v0.1l2.9,13.6l-7.9-5.3c-1.9-1.2-4.4-0.7-5.6,1.1l0,0c-1.2,1.8-0.8,4.3,1,5.6c0,0,0.1,0,0.1,0.1l15.3,10.1
	c0.6,0.7,1.4,1.3,2.3,1.5l2.7,1.8c1.9,1.2,4.4,0.7,5.6-1.1l0,0l0,0c1.2-1.8,0.8-4.3-1.1-5.6c0,0,0,0-0.1,0l-0.7-0.4l10.3-18.6
	C550.6,99.6,549.9,97.2,547.9,96.1L547.9,96.1z"/>
<path class="st0" d="M527.8,115.9l10.5-1.6c3.4-0.5,6.6,1.8,7.1,5.2l0,0l1.7,11.3c1.9,13.1-7.1,25.4-20.2,27.4l0,0
	c-5.4,0.8-10.4-2.9-11.2-8.2l-2.2-14.5C512.1,126,518.5,117.3,527.8,115.9L527.8,115.9z"/>
<path class="st0" d="M517,150.6L517,150.6c3.8-0.6,7.4,2.1,8,5.9l0.4,2.5l0,0l-7,1c-2.6,0.4-5-1.4-5.4-4l0,0l0,0
	C512.5,153.4,514.3,150.9,517,150.6C516.9,150.6,517,150.6,517,150.6z"/>
<path class="st1" d="M520.5,152.3l3-0.6c2-0.4,3.3-2.3,2.9-4.3l0,0l0,0l-10.3,2l0,0C516.6,151.3,518.5,152.7,520.5,152.3z"/>
<path class="st38" d="M571,126.4l-19.5-11l10.1-4.8c2-1,2.9-3.4,1.9-5.4s-3.4-2.9-5.4-1.9l-21.9,10.4c-0.7,0.3-3.1-1-3.5-0.4
	l-2.9,2.2c-2.3,0.2-4.1,2.2-3.9,4.6c0,0.1,0,0.2,0,0.3l0.1,0.6c0.4,2.3,2.5,3.9,4.9,3.6l4.4-0.7l-1.6,24c-0.1,2.3,1.6,4.2,3.8,4.4
	l0,0c2.3,0.1,4.2-1.6,4.4-3.8l0.9-13.3l4.2,17.2c0.6,2.4,3,3.9,5.4,3.3s3.9-3,3.3-5.4l-3.4-13.8l5.7,10.6c1.1,2.1,3.8,2.9,5.9,1.8
	l0,0c2.1-1.1,2.9-3.8,1.8-5.9l0,0l-8.6-16l10.4,5.9c1.8,1,4,0.4,5-1.4l0,0l0,0C573.4,129.6,572.8,127.4,571,126.4
	C571.1,126.4,571.1,126.4,571,126.4z"/>
<path class="st4" d="M516.3,136.4l1.5,10l-5.8,0.9c-0.3,0-0.6-0.2-0.7-0.5c0-0.1,0-0.2,0-0.3l3.7-10.2c0.1-0.3,0.5-0.5,0.8-0.4
	S516.2,136.2,516.3,136.4z"/>
<path class="st38" d="M510.7,132.6l3-1.6c0.6-0.3,0.8-1,0.5-1.6l0,0l0,0c-0.3-0.6-1-0.8-1.6-0.5l0,0l-3,1.6c-0.6,0.3-0.8,1-0.5,1.6
	l0,0l0,0C509.4,132.8,510.1,133,510.7,132.6C510.7,132.7,510.7,132.7,510.7,132.6z"/>
<path class="st1" d="M522.5,132.1L522.5,132.1c3.3-0.5,6.4,1.8,6.9,5.1l0,0c0.5,3.3-1.8,6.4-5.1,6.9l0,0c-3.3,0.5-6.4-1.8-6.9-5.1
	l0,0C516.9,135.7,519.1,132.6,522.5,132.1z"/>
<path class="st9" d="M519.9,137.9L519.9,137.9c0.9-0.1,1.7,0.5,1.9,1.4l0,0c0.1,0.9-0.5,1.7-1.4,1.9l0,0c-0.9,0.1-1.7-0.5-1.9-1.4
	l0,0C518.4,138.8,519,138,519.9,137.9z"/>
<path class="st4" d="M522.1,132L522.1,132c2.1-0.5,4.3,0.2,5.8,1.8l-10.3,2.2C518.3,134,520,132.5,522.1,132z"/>
<path class="st38" d="M518,127.6h9.8c0.8,0,1.5,0.7,1.5,1.5l0,0c0,0.8-0.7,1.5-1.5,1.5H518c-0.8,0-1.5-0.7-1.5-1.5l0,0
	C516.5,128.2,517.2,127.6,518,127.6z"/>
<rect x="93.5" y="201.7" class="st0" width="4.3" height="29.9"/>
<polygon class="st1" points="97.2,221.9 94,221.9 91.7,224.2 91.7,227.4 94,229.7 97.2,229.7 99.4,227.4 99.4,224.2 "/>
<ellipse class="st1" cx="99.4" cy="224.2" rx="2.4" ry="2.4"/>
<ellipse class="st1" cx="97.2" cy="229.7" rx="2.4" ry="2.4"/>
<ellipse class="st1" cx="99.4" cy="227.4" rx="2.4" ry="2.4"/>
<ellipse class="st1" cx="94" cy="229.7" rx="2.4" ry="2.4"/>
<ellipse class="st1" cx="94" cy="221.9" rx="2.4" ry="2.4"/>
<ellipse class="st1" cx="97.2" cy="221.9" rx="2.4" ry="2.4"/>
<ellipse class="st1" cx="91.7" cy="224.2" rx="2.4" ry="2.4"/>
<ellipse class="st1" cx="91.7" cy="227.4" rx="2.4" ry="2.4"/>
<rect x="84.9" y="201.7" class="st0" width="4.3" height="29.9"/>
<polygon class="st1" points="88.6,221.9 85.3,221.9 83.1,224.2 83.1,227.4 85.3,229.7 88.6,229.7 90.8,227.4 90.8,224.2 "/>
<ellipse class="st1" cx="90.8" cy="224.2" rx="2.4" ry="2.4"/>
<ellipse class="st1" cx="88.6" cy="229.7" rx="2.4" ry="2.4"/>
<ellipse class="st1" cx="90.8" cy="227.4" rx="2.4" ry="2.4"/>
<ellipse class="st1" cx="85.3" cy="229.7" rx="2.4" ry="2.4"/>
<ellipse class="st1" cx="85.3" cy="221.9" rx="2.4" ry="2.4"/>
<ellipse class="st1" cx="88.6" cy="221.9" rx="2.4" ry="2.4"/>
<ellipse class="st1" cx="83.1" cy="224.2" rx="2.4" ry="2.4"/>
<ellipse class="st1" cx="83.1" cy="227.4" rx="2.4" ry="2.4"/>
<rect x="70" y="201.7" class="st0" width="4.3" height="29.9"/>
<polygon class="st1" points="73.6,221.9 70.4,221.9 68.1,224.2 68.1,227.4 70.4,229.7 73.6,229.7 75.9,227.4 75.9,224.2 "/>
<ellipse class="st1" cx="75.9" cy="224.2" rx="2.4" ry="2.4"/>
<ellipse class="st1" cx="73.6" cy="229.7" rx="2.4" ry="2.4"/>
<ellipse class="st1" cx="75.9" cy="227.4" rx="2.4" ry="2.4"/>
<ellipse class="st1" cx="70.4" cy="229.7" rx="2.4" ry="2.4"/>
<ellipse class="st1" cx="70.4" cy="221.9" rx="2.4" ry="2.4"/>
<ellipse class="st1" cx="73.6" cy="221.9" rx="2.4" ry="2.4"/>
<ellipse class="st1" cx="68.1" cy="224.2" rx="2.4" ry="2.4"/>
<ellipse class="st1" cx="68.1" cy="227.4" rx="2.4" ry="2.4"/>
<rect x="61.4" y="201.7" class="st0" width="4.3" height="29.9"/>
<polygon class="st1" points="65,221.9 61.8,221.9 59.6,224.2 59.6,227.4 61.8,229.7 65,229.7 67.3,227.4 67.3,224.2 "/>
<ellipse class="st1" cx="67.3" cy="224.2" rx="2.4" ry="2.4"/>
<ellipse class="st1" cx="65" cy="229.7" rx="2.4" ry="2.4"/>
<ellipse class="st1" cx="67.3" cy="227.4" rx="2.4" ry="2.4"/>
<ellipse class="st1" cx="61.8" cy="229.7" rx="2.4" ry="2.4"/>
<ellipse class="st1" cx="61.8" cy="221.9" rx="2.4" ry="2.4"/>
<ellipse class="st1" cx="65" cy="221.9" rx="2.4" ry="2.4"/>
<ellipse class="st1" cx="59.6" cy="224.2" rx="2.4" ry="2.4"/>
<ellipse class="st1" cx="59.6" cy="227.4" rx="2.4" ry="2.4"/>
<path class="st1" d="M82.3,170.9h6.2l0,0v3.4c0,1.7-1.4,3.1-3.1,3.1l0,0l0,0c-1.7,0-3.1-1.4-3.1-3.1l0,0V170.9L82.3,170.9z"/>
<path class="st1" d="M88.5,170.9h6.2l0,0v3.4c0,1.7-1.4,3.1-3.1,3.1l0,0l0,0c-1.7,0-3.1-1.4-3.1-3.1l0,0
	C88.5,174.3,88.5,170.9,88.5,170.9z"/>
<path class="st1" d="M113.1,170.9v-7.2c0-8.4-6.8-15.2-15.2-15.2h-0.4c-8.4,0-15.2,6.8-15.2,15.2v7.2h12.3v3.4
	c0,1.7,1.4,3.1,3.1,3.1s3.1-1.4,3.1-3.1c0,1.7,1.4,3.1,3.1,3.1c1.7,0,3.1-1.4,3.1-3.1c0,1.7,1.4,3.1,3.1,3.1c1.7,0,3.1-1.4,3.1-3.1
	v-3.4H113.1z"/>
<path class="st0" d="M76.5,159.6h49.2l0,0l0,0c0,6.8-5.5,12.3-12.3,12.3l0,0H76.5l0,0V159.6L76.5,159.6z"/>
<rect x="76.5" y="142.4" class="st0" width="33.5" height="17.2"/>
<path d="M124.8,156.4L124.8,156.4c2.1,0,3.8,1.7,3.8,3.7l0,0c0,2.1-1.7,3.7-3.7,3.7l0,0c-2.1,0-3.7-1.7-3.7-3.7l0,0
	C121.1,158.1,122.7,156.4,124.8,156.4z"/>
<path d="M106.7,155.6L106.7,155.6c1.3,0,2.3,1,2.3,2.3l0,0c0,1.2-1,2.3-2.3,2.3l0,0c-1.2,0-2.3-1-2.3-2.3l0,0
	C104.5,156.6,105.5,155.6,106.7,155.6z"/>
<path d="M99.4,155.6L99.4,155.6c1.3,0,2.3,1,2.3,2.3l0,0c0,1.2-1,2.3-2.3,2.3l0,0c-1.2,0-2.3-1-2.3-2.3l0,0
	C97.2,156.6,98.2,155.6,99.4,155.6z"/>
<rect x="96.6" y="155" class="st0" width="12.7" height="2.5"/>
<path class="st1" d="M94,120.9h-0.5c-10.2,0-18.4,8.2-18.4,18.4v8.7l0.1,4.1c0,2,1.6,3.7,3.7,3.7c2,0,3.7-1.6,3.7-3.7V148l0,4.1
	c0,2,1.6,3.7,3.7,3.7c1.6,0,3.8-0.2,4.5-1.4c0.7,0.9,1.7,1.4,3,1.4c2,0,3.8-1.6,3.8-3.7c0,2,1.6,3.7,3.7,3.7c2,0,3.7-1.6,3.7-3.7
	c0,2,1.6,3.7,3.7,3.7c2,0,3.7-1.6,3.7-3.7V148v-8.7C112.4,129.1,104.2,120.9,94,120.9z"/>
<rect x="89.9" y="165.3" class="st0" width="7.3" height="27.6"/>
<path class="st1" d="M79.3,148.5h-0.4c-8.4,0-15.2,6.8-15.2,15.2v7.2v3.4c0,1.7,1.4,3.1,3.1,3.1c1.5,0,2.8-1.1,3.1-2.6
	c0.2,1.5,1.5,2.6,3,2.6c1.7,0,3.1-1.4,3.1-3.1c0,1.7,1.4,3.1,3.1,3.1c1.7,0,3.1-1.4,3.1-3.1c0,1.7,1.4,3.1,3.1,3.1
	c1.5,0,2.8-1.1,3.1-2.6c0.2,1.5,1.5,2.6,3,2.6c1.7,0,3.1-1.4,3.1-3.1v-3.4v-7.2C94.5,155.3,87.7,148.5,79.3,148.5z"/>
<path class="st0" d="M55.6,191.2h43.6l0,0v12.9l0,0H68.5C61.4,204.2,55.6,198.4,55.6,191.2L55.6,191.2L55.6,191.2L55.6,191.2z"/>
<rect x="55.7" y="176.1" class="st0" width="2.5" height="15.6"/>
<polygon class="st1" points="55.6,184.3 58.4,184.3 60.3,182.4 60.3,179.7 58.4,177.7 55.6,177.7 53.7,179.7 53.7,182.4 "/>
<ellipse class="st1" cx="53.7" cy="182.4" rx="2.1" ry="2.1"/>
<ellipse class="st1" cx="55.6" cy="177.7" rx="2.1" ry="2.1"/>
<ellipse class="st1" cx="53.7" cy="179.7" rx="2.1" ry="2.1"/>
<ellipse class="st1" cx="58.4" cy="177.7" rx="2.1" ry="2.1"/>
<ellipse class="st1" cx="58.4" cy="184.3" rx="2.1" ry="2.1"/>
<ellipse class="st1" cx="55.6" cy="184.3" rx="2.1" ry="2.1"/>
<ellipse class="st1" cx="60.3" cy="182.4" rx="2.1" ry="2.1"/>
<ellipse class="st1" cx="60.3" cy="179.7" rx="2.1" ry="2.1"/>
<polygon class="st1" points="97.9,189.9 91.7,189.9 87.3,194.3 87.3,200.5 91.7,204.9 97.9,204.9 102.3,200.5 102.3,194.3 "/>
<ellipse class="st1" cx="102.3" cy="194.3" rx="4.7" ry="4.7"/>
<ellipse class="st1" cx="97.9" cy="204.9" rx="4.7" ry="4.7"/>
<ellipse class="st1" cx="102.3" cy="200.5" rx="4.7" ry="4.7"/>
<ellipse class="st1" cx="91.7" cy="204.9" rx="4.7" ry="4.7"/>
<ellipse class="st1" cx="91.7" cy="189.9" rx="4.7" ry="4.7"/>
<ellipse class="st1" cx="97.9" cy="189.9" rx="4.7" ry="4.7"/>
<ellipse class="st1" cx="87.3" cy="194.3" rx="4.7" ry="4.7"/>
<ellipse class="st1" cx="87.3" cy="200.5" rx="4.7" ry="4.7"/>
<polygon class="st1" points="91.5,189.9 85.3,189.9 80.9,194.3 80.9,200.5 85.3,204.9 91.5,204.9 95.9,200.5 95.9,194.3 "/>
<ellipse class="st1" cx="95.9" cy="194.3" rx="4.7" ry="4.7"/>
<ellipse class="st1" cx="91.5" cy="204.9" rx="4.7" ry="4.7"/>
<ellipse class="st1" cx="95.9" cy="200.5" rx="4.7" ry="4.7"/>
<ellipse class="st1" cx="85.3" cy="204.9" rx="4.7" ry="4.7"/>
<ellipse class="st1" cx="85.3" cy="189.9" rx="4.7" ry="4.7"/>
<ellipse class="st1" cx="91.5" cy="189.9" rx="4.7" ry="4.7"/>
<ellipse class="st1" cx="80.9" cy="194.3" rx="4.7" ry="4.7"/>
<ellipse class="st1" cx="80.9" cy="200.5" rx="4.7" ry="4.7"/>
<path class="st42" d="M100.9,122.9c-0.5,0-1-0.2-1.3-0.5l-5.7-4.8l-23.3-2.2l-26.8-2.2c-1.1-0.1-2-1.1-1.9-2.2s1.1-2,2.2-1.9
	l26.8,2.2l24,2.3c0.4,0,0.8,0.2,1.1,0.5l6.2,5.3c0.9,0.7,1,1.9,0.4,2.8C102.2,122.7,101.6,123,100.9,122.9L100.9,122.9z"/>
<path class="st42" d="M94.3,121.8c-0.7,0-1.2-0.5-1.2-1.2l0,0v-5.8c0.1-0.7,0.7-1.2,1.3-1.1c0.6,0.1,1.1,0.5,1.1,1.1v5.8
	C95.5,121.2,94.9,121.7,94.3,121.8z"/>
<path class="st2" d="M20.2,232.5c-0.3,0-0.6-0.1-0.8-0.2c-1-0.4-1.5-1.6-1.1-2.6v-0.1l7.4-17.1c0.4-1,1.6-1.5,2.7-1.1
	c1,0.4,1.5,1.6,1.1,2.7l0,0l-7.4,17.1C21.8,232,21,232.5,20.2,232.5z"/>
<path class="st2" d="M33.3,231.9c-0.3,0-0.7-0.1-1-0.3l-10.1-5.4c-1-0.5-1.4-1.8-0.8-2.8c0.5-1,1.8-1.4,2.8-0.8l10.1,5.4
	c1,0.4,1.5,1.6,1.1,2.6C35,231.5,34.1,232,33.3,231.9L33.3,231.9z"/>
<path class="st2" d="M38.7,232.5c-1.1,0-2-0.8-2.1-1.9c0-0.3,0.1-0.6,0.2-0.9l7.3-17.1c0.4-1,1.7-1.5,2.7-1.1s1.5,1.7,1.1,2.7
	l-7.3,17.1C40.3,232,39.6,232.5,38.7,232.5z"/>
<path class="st2" d="M51.8,231.9c-0.3,0-0.7-0.1-1-0.3l-10.1-5.4c-1-0.5-1.4-1.8-0.8-2.8c0.5-1,1.8-1.4,2.8-0.8l10.1,5.4
	c1,0.4,1.5,1.6,1.1,2.6C53.5,231.5,52.6,232,51.8,231.9L51.8,231.9z"/>
<polygon class="st0" points="40.3,111 37.2,108.4 54.7,87.7 57.8,90.3 "/>
<polygon class="st1" points="32,29.8 19,29.8 9.8,38.9 9.8,51.9 19,61 32,61 41.1,51.9 41.1,38.9 "/>
<ellipse class="st1" cx="41.1" cy="38.9" rx="9.8" ry="9.7"/>
<ellipse class="st1" cx="32" cy="61" rx="9.8" ry="9.7"/>
<ellipse class="st1" cx="41.1" cy="51.9" rx="9.8" ry="9.7"/>
<ellipse class="st1" cx="19" cy="61" rx="9.8" ry="9.7"/>
<ellipse class="st1" cx="19" cy="29.8" rx="9.8" ry="9.7"/>
<ellipse class="st1" cx="32" cy="29.8" rx="9.8" ry="9.7"/>
<ellipse class="st1" cx="9.8" cy="38.9" rx="9.8" ry="9.7"/>
<ellipse class="st1" cx="9.8" cy="51.9" rx="9.8" ry="9.7"/>
<path class="st0" d="M110.6,87.9c-2-6.9-8.4-11.7-15.6-11.7h-8.4V53.7H42.8v22.5h3.5c-1.9,0-3.5,1.6-3.5,3.5v13c0,0.1,0,0.1,0,0.2
	c0.1,2,1.8,3.4,3.7,3.3l60.5-3.8l0.3-0.1c0.3,0,0.6,0,0.9-0.1C110,91.7,111.1,89.7,110.6,87.9z"/>
<path class="st1" d="M65.7,29.6h-0.6C51.8,29.7,41,40.4,41,53.7V57v5.3c0,0.1,0,0.1,0,0.1c0,2.6,2.2,4.8,4.9,4.8
	c2.5,0,4.6-1.9,4.8-4.4c0.3,2.5,2.3,4.4,4.8,4.4c2.7,0,4.9-2.2,4.9-4.9c0,2.7,2.2,4.9,4.9,4.9c2.5,0,4.6-1.9,4.8-4.4
	c0.3,2.5,2.3,4.4,4.8,4.4c2.7,0,4.9-2.2,4.9-4.9c0,0.1,0,0.1,0,0.1c0,2.6,2.2,4.8,4.9,4.8s4.9-2.2,4.9-4.9V57v-3.3
	C89.8,40.4,79,29.6,65.7,29.6z"/>
<path class="st1" d="M65.1,85h16.1l0,0l0,0c0,3.1-2.6,5.7-5.7,5.7h-4.7C67.7,90.7,65.1,88.1,65.1,85L65.1,85L65.1,85z"/>
<ellipse class="st55" cx="83.2" cy="73.4" rx="9.1" ry="9.1"/>
<ellipse class="st56" cx="86" cy="78.3" rx="1.9" ry="1.9"/>
<rect x="44.2" y="72.4" class="st56" width="30" height="2"/>
<path class="st1" d="M40.1,61c-11,0-19.9,8.9-19.9,19.9v9.4l0.1,4.4c0,2.2,1.8,4,4,4s4-1.8,4-4c0,2.2,1.8,4,4,4s4-1.8,4-4v-4.4
	l0.1,4.4c0,2.2,1.8,4,4,4c2.2,0,4-1.8,4-4v-4.4l0.1,4.4c0,2.2,1.8,4,4,4s4-1.8,4-4c0,2.2,1.8,4,4,4s4-1.8,4-4v-4.4V61H40.1z"/>
<path class="st9" d="M64.9,214.9H13.6v-66.5l0,0c0-10.5,4-20.5,11.2-28.2l13.3-14h7.4l3.8,10.4c1.2,3.2-0.4,6.8-3.7,8
	c-0.4,0.2-0.9,0.3-1.3,0.3l-6.5,0.9c-1.6,0.2-3,1.2-3.8,2.7l0,0c-0.8,1.5-0.8,3.4,0.1,4.9l14.6,25.7c3.3,5.9,5.8,12.2,7.4,18.7
	L64.9,214.9z"/>
<path class="st0" d="M59.7,125.2c-0.3,0-0.6-0.1-0.9-0.2l-21.3-10.3c-1-0.5-1.4-1.7-0.9-2.7s1.7-1.4,2.7-0.9l20.6,10l23.4-6.8
	c0.7-0.2,1.4,0,1.9,0.4l5.6,4.9c0.8,0.7,1,2,0.2,2.8c0,0,0,0,0,0.1c-0.7,0.9-2,0.9-2.9,0.2l-4.8-4.2l-23.1,6.7
	C60.1,125.2,59.9,125.2,59.7,125.2z"/>
<path class="st0" d="M83.7,124.1c-0.7,0-1.2-0.5-1.2-1.2l0,0V116c-0.1-0.7,0.4-1.3,1.1-1.3c0.7-0.1,1.3,0.4,1.3,1.1
	c0,0.1,0,0.1,0,0.2v6.9C84.9,123.5,84.4,124.1,83.7,124.1z"/>
<path class="st57" d="M35.5,105.8h4.8l0,0l0,0c0,1.3-1.1,2.4-2.4,2.4l0,0l0,0C36.6,108.2,35.5,107.1,35.5,105.8L35.5,105.8
	L35.5,105.8L35.5,105.8z"/>
<path class="st57" d="M39.5,105.8h4.8l0,0l0,0c0,1.3-1.1,2.4-2.4,2.4l0,0l0,0C40.6,108.2,39.5,107.1,39.5,105.8L39.5,105.8
	L39.5,105.8L39.5,105.8z"/>
<path class="st57" d="M43.5,105.8h4.8l0,0l0,0c0,1.3-1.1,2.4-2.4,2.4l0,0l0,0C44.6,108.2,43.5,107.1,43.5,105.8L43.5,105.8
	L43.5,105.8L43.5,105.8z"/>
</svg>
