<svg id="assets" xmlns="http://www.w3.org/2000/svg" viewBox="0 0 280 62"><defs><style>.cls-1{fill:#e30613;}.cls-2{fill:#fff;}</style></defs><title>btn-commencer</title><path class="cls-1" d="M249.09,62H30.91A31,31,0,0,1,0,31H0A31,31,0,0,1,30.91,0H249.09A31,31,0,0,1,280,31h0A31,31,0,0,1,249.09,62Z"/><path class="cls-2" d="M44.89,40a8.75,8.75,0,0,1-5.12-8.22,12.52,12.52,0,0,1,1.69-6.52,11.93,11.93,0,0,1,4.72-4.46,14.42,14.42,0,0,1,6.87-1.61,12.58,12.58,0,0,1,5.38,1.1,7.55,7.55,0,0,1,3.49,3.11l-5.11,4a4.57,4.57,0,0,0-4.21-2.46,5.34,5.34,0,0,0-5,3.08,7.4,7.4,0,0,0-.72,3.32,3.9,3.9,0,0,0,1.19,3,4.36,4.36,0,0,0,3.14,1.13A6,6,0,0,0,55.94,33l4.17,4A10.61,10.61,0,0,1,56,40.22a14.07,14.07,0,0,1-5.4,1A12.84,12.84,0,0,1,44.89,40Z"/><path class="cls-2" d="M65.22,40.05A7,7,0,0,1,61,33.4a9,9,0,0,1,1.33-4.83A9.31,9.31,0,0,1,66,25.19,11.11,11.11,0,0,1,71.26,24a10.84,10.84,0,0,1,4.72.95,7,7,0,0,1,4.21,6.65,9.05,9.05,0,0,1-1.32,4.83,9.33,9.33,0,0,1-3.66,3.38,12,12,0,0,1-10,.28Zm7.26-5.42a4.22,4.22,0,0,0,.83-2.74A2.7,2.7,0,0,0,72.66,30a2.31,2.31,0,0,0-1.79-.7,2.64,2.64,0,0,0-2.15,1,4.22,4.22,0,0,0-.82,2.74,2.65,2.65,0,0,0,.64,1.87,2.31,2.31,0,0,0,1.79.71A2.64,2.64,0,0,0,72.48,34.63Z"/><path class="cls-2" d="M109.36,25.42a5.38,5.38,0,0,1,1.57,4.16,10.09,10.09,0,0,1-.21,2l-1.8,9.08h-6.79l1.65-8.21a4.44,4.44,0,0,0,.12-1,2,2,0,0,0-.39-1.35,1.35,1.35,0,0,0-1.08-.45c-1.38,0-2.27,1-2.65,2.88L98.16,40.7H91.37L93,32.49a4.44,4.44,0,0,0,.12-1,2,2,0,0,0-.39-1.35,1.35,1.35,0,0,0-1.08-.45c-1.36,0-2.26,1-2.68,3l-1.59,8H80.61l3.27-16.44h6.41L90,25.85a7,7,0,0,1,2.22-1.43A6.75,6.75,0,0,1,94.64,24a6.11,6.11,0,0,1,2.83.66,4.72,4.72,0,0,1,2,1.95A7.39,7.39,0,0,1,105.25,24,5.79,5.79,0,0,1,109.36,25.42Z"/><path class="cls-2" d="M140.61,25.42a5.39,5.39,0,0,1,1.58,4.16,10.09,10.09,0,0,1-.21,2l-1.8,9.08h-6.8L135,32.49a4.44,4.44,0,0,0,.12-1,2,2,0,0,0-.39-1.35,1.35,1.35,0,0,0-1.08-.45c-1.39,0-2.27,1-2.65,2.88l-1.62,8.15h-6.79l1.65-8.21a4.44,4.44,0,0,0,.12-1,2,2,0,0,0-.39-1.35,1.35,1.35,0,0,0-1.08-.45c-1.37,0-2.26,1-2.68,3l-1.59,8h-6.79l3.27-16.44h6.4l-.33,1.59a7,7,0,0,1,2.23-1.43A6.75,6.75,0,0,1,125.9,24a6.14,6.14,0,0,1,2.83.66,4.72,4.72,0,0,1,2,1.95,7.53,7.53,0,0,1,2.55-1.94,7.67,7.67,0,0,1,3.22-.67A5.77,5.77,0,0,1,140.61,25.42Z"/><path class="cls-2" d="M158.68,24.8a6.75,6.75,0,0,1,3,2.49,7.18,7.18,0,0,1,1.08,4q0,.36-.06,1.14L151,34.6a2.05,2.05,0,0,0,1.08,1,5,5,0,0,0,2,.33,5.7,5.7,0,0,0,3.49-1.14L160.4,39a12.4,12.4,0,0,1-7.15,2,11.45,11.45,0,0,1-4.76-.93,7.28,7.28,0,0,1-3.19-2.65,7.14,7.14,0,0,1-1.12-4,9.33,9.33,0,0,1,1.27-4.86,8.88,8.88,0,0,1,3.61-3.36A11.3,11.3,0,0,1,154.42,24,10.35,10.35,0,0,1,158.68,24.8Zm-6.63,4.52a4.23,4.23,0,0,0-1.08,2l5.47-1a1.86,1.86,0,0,0-.8-1.25,3.13,3.13,0,0,0-3.59.3Z"/><path class="cls-2" d="M181.28,25.4a5.29,5.29,0,0,1,1.6,4.15,10.54,10.54,0,0,1-.21,2.07l-1.8,9.08h-6.79l1.65-8.27a7.25,7.25,0,0,0,.12-1,1.54,1.54,0,0,0-1.71-1.77c-1.6,0-2.62,1-3,3.12l-1.59,7.91h-6.79L166,24.26h6.41l-.34,1.65a7,7,0,0,1,2.33-1.47A7.38,7.38,0,0,1,177,24,6.18,6.18,0,0,1,181.28,25.4Z"/><path class="cls-2" d="M189.09,40.05A7.28,7.28,0,0,1,186,37.39a7.16,7.16,0,0,1-1.11-4,9,9,0,0,1,1.32-4.83,9.18,9.18,0,0,1,3.7-3.38A11.43,11.43,0,0,1,195.21,24a9.8,9.8,0,0,1,5.09,1.29,7,7,0,0,1,3,3.52l-5.77,2.64a2.77,2.77,0,0,0-2.7-2.1,2.87,2.87,0,0,0-2.27,1,3.89,3.89,0,0,0-.89,2.64,2.75,2.75,0,0,0,.68,1.94,2.45,2.45,0,0,0,1.9.74,3.06,3.06,0,0,0,1.76-.5,4.17,4.17,0,0,0,1.31-1.6l5,2.88a8.48,8.48,0,0,1-3.44,3.38,10.61,10.61,0,0,1-5.1,1.19A11,11,0,0,1,189.09,40.05Z"/><path class="cls-2" d="M217.67,24.8a6.75,6.75,0,0,1,3,2.49,7.18,7.18,0,0,1,1.08,4q0,.36-.06,1.14L210,34.6a2,2,0,0,0,1.09,1,5,5,0,0,0,2,.33,5.67,5.67,0,0,0,3.48-1.14L219.4,39a12.42,12.42,0,0,1-7.15,2,11.5,11.5,0,0,1-4.77-.93,7.25,7.25,0,0,1-3.18-2.65,7.15,7.15,0,0,1-1.13-4,9.33,9.33,0,0,1,1.28-4.86,8.86,8.86,0,0,1,3.6-3.36A11.34,11.34,0,0,1,213.42,24,10.3,10.3,0,0,1,217.67,24.8ZM211,29.32a4.23,4.23,0,0,0-1.08,2l5.47-1a1.84,1.84,0,0,0-.79-1.25,3.14,3.14,0,0,0-3.6.3Z"/><path class="cls-2" d="M236.83,24l-1.2,6a9.3,9.3,0,0,0-1.47-.12,4.36,4.36,0,0,0-2.75.77A4,4,0,0,0,230,33.09l-1.53,7.61h-6.8L225,24.26h6.4l-.33,1.68A7.89,7.89,0,0,1,236.83,24Z"/></svg>