<?xml version="1.0" encoding="utf-8"?>
<!-- Generator: Adobe Illustrator 24.3.0, SVG Export Plug-In . SVG Version: 6.00 Build 0)  -->
<svg version="1.1" id="Calque_1" xmlns="http://www.w3.org/2000/svg" xmlns:xlink="http://www.w3.org/1999/xlink" x="0px" y="0px"
	 viewBox="0 0 354.2 63.4" style="enable-background:new 0 0 354.2 63.4;" xml:space="preserve">
<style type="text/css">
	.st0{fill:#000;}
</style>
<g>
	<path class="st0" d="M47.6,48.1c-1.8,1.1-4,1.6-6.3,1.6c-3.5,0-6.4-1.2-8.7-3.5s-3.5-5.3-3.5-8.9s1.2-6.6,3.5-9
		c2.3-2.3,5.2-3.5,8.7-3.5c2.3,0,4.4,0.5,6.2,1.6s3.2,2.6,4.1,4.5L61.7,25c-1.9-3.6-4.6-6.4-8.3-8.5c-3.6-2.1-7.7-3.2-12.1-3.2
		c-6.8,0-12.6,2.3-17.1,6.9c-3.6,3.6-5.7,7.9-6.5,12.8H7v9.1h10.8c0.8,4.7,3,8.8,6.4,12.3c4.6,4.6,10.3,6.9,17.1,6.9
		c4.4,0,8.5-1.1,12.1-3.2c3.6-2.2,6.5-5,8.5-8.6l-10.2-5.8C50.8,45.6,49.4,47,47.6,48.1z"/>
	<path class="st0" d="M87.6,13.3c-6.7,0-12.4,2.3-17,7c-4.6,4.6-7,10.3-7,17s2.3,12.4,7,17c4.6,4.6,10.3,7,17,7s12.4-2.3,17.1-7
		c4.7-4.6,7-10.3,7-17s-2.3-12.4-7-17C100,15.6,94.3,13.3,87.6,13.3z M96.4,46.3c-2.4,2.4-5.3,3.5-8.8,3.5s-6.4-1.2-8.8-3.5
		c-2.3-2.4-3.5-5.4-3.5-9s1.2-6.6,3.5-9s5.3-3.5,8.8-3.5s6.5,1.2,8.8,3.5c2.4,2.4,3.5,5.4,3.5,9S98.8,43.9,96.4,46.3z"/>
	<path class="st0" d="M141.2,13.3c-6.2,0-10.7,2.1-13.5,6.4v-5.1H116v45.5h11.7V35.5c0-3.8,0.9-6.6,2.7-8.5s4.2-2.8,7.3-2.8
		c2.7,0,4.9,0.8,6.5,2.4c1.6,1.6,2.5,3.9,2.5,7v26.5h11.7v-28c0-5.9-1.6-10.5-4.9-13.8C150.3,15,146.2,13.3,141.2,13.3z"/>
	<path class="st0" d="M193.7,13.3c-6.2,0-10.7,2.1-13.5,6.4v-5.1h-11.7v45.5h11.7V35.5c0-3.8,0.9-6.6,2.7-8.5s4.2-2.8,7.3-2.8
		c2.7,0,4.9,0.8,6.5,2.4c1.6,1.6,2.5,3.9,2.5,7v26.5h11.7v-28c0-5.9-1.6-10.5-4.9-13.8C202.7,15,198.6,13.3,193.7,13.3z"/>
	<path class="st0" d="M239.8,13.3c-7,0-12.8,2.3-17.3,6.9s-6.7,10.3-6.7,17.1c0,6.9,2.3,12.6,6.8,17.2c4.5,4.5,10.6,6.8,18.1,6.8
		c8.7,0,15.3-3.2,19.8-9.7l-9.5-5.5c-2.3,3-5.7,4.5-10.2,4.5c-7,0-11.2-2.8-12.8-8.5h34.3c0.3-1.7,0.5-3.3,0.5-4.8
		c0-6.8-2.2-12.5-6.5-17.1C251.9,15.6,246.4,13.3,239.8,13.3z M227.9,33c0.7-2.9,2-5.2,4.1-6.8s4.7-2.4,7.8-2.4c2.7,0,5,0.8,7.1,2.3
		s3.5,3.8,4.1,6.9H227.9z"/>
	<path class="st0" d="M297.1,48.1c-1.8,1.1-4,1.6-6.3,1.6c-3.5,0-6.4-1.2-8.7-3.5c-2.3-2.3-3.5-5.3-3.5-8.9s1.2-6.6,3.5-9
		c2.3-2.3,5.2-3.5,8.7-3.5c2.3,0,4.4,0.5,6.2,1.6c1.8,1.1,3.2,2.6,4.1,4.5l10.1-5.9c-1.9-3.6-4.6-6.4-8.3-8.5
		c-3.6-2.1-7.7-3.2-12.1-3.2c-6.8,0-12.6,2.3-17.1,6.9c-4.6,4.6-6.9,10.3-6.9,17.1s2.3,12.5,6.9,17.1s10.3,6.9,17.1,6.9
		c4.4,0,8.5-1.1,12.1-3.2c3.6-2.2,6.5-5,8.5-8.6l-10.2-5.8C300.3,45.6,298.9,47,297.1,48.1z"/>
	<path class="st0" d="M345.9,25.9V14.6h-10.3V1.9l-11.7,3.5v9.2H316v11.3h7.9v18.9c0,6.2,1.7,10.6,5,13s9,3.2,17,2.3V49.4
		c-2.2,0.1-4.1,0.1-5.6,0s-2.7-0.5-3.5-1.2s-1.2-1.9-1.2-3.5V25.9H345.9z"/>
</g>
</svg>
