<svg id="Calque_1" data-name="Calque 1" xmlns="http://www.w3.org/2000/svg" viewBox="0 0 196 196"><path d="M184.49,60.86a4.12,4.12,0,0,0-1-1.3,4.19,4.19,0,0,0-1.4-.9,4.53,4.53,0,0,0-1.6-.3,3.17,3.17,0,0,0-1.6.4,4.64,4.64,0,0,0-1.8,1.6,5.94,5.94,0,0,0-.4.8,4.53,4.53,0,0,0-.3,1.6,3.17,3.17,0,0,0,.4,1.6,86.24,86.24,0,0,1-110.1,115.2A85.23,85.23,0,0,1,19,134.06a66.22,66.22,0,0,1-2.4-6.2A86.1,86.1,0,0,1,63,20.46a87.51,87.51,0,0,1,85.8,8.7l.7.5h-15.8a4.23,4.23,0,0,0-4.2,4.2v.2a4.23,4.23,0,0,0,4.2,4.2h27.6a4.13,4.13,0,0,0,3.3-1.5,3.81,3.81,0,0,0,.8-1.7,4.08,4.08,0,0,0,.1-1.9l-4.6-27.6a4.33,4.33,0,0,0-5-3.5,4.37,4.37,0,0,0-3.5,4.2,2.77,2.77,0,0,0,.1.9l2.9,15.7-.8-.6A97.29,97.29,0,0,0,98.09,4a94.88,94.88,0,0,0-94.7,103.2c.2,2,.4,3.9.7,5.9a95.1,95.1,0,0,0,108,79.9,94.35,94.35,0,0,0,62.3-37.5A93.47,93.47,0,0,0,193,99.16,90,90,0,0,0,184.49,60.86Z" fill="#d33d51"/><path d="M102.89,113.36l.2.2,31,31a4.11,4.11,0,0,0,2.9,1.3h.2a4,4,0,0,0,2.9-1.2l.1-.1a4.39,4.39,0,0,0,1.3-3.1,4,4,0,0,0-1.2-2.8L109,107.46l.1-.2a13,13,0,0,0,1.3-5.8,13.39,13.39,0,0,0-8.9-12.6l-.3-.1V60.16a4.2,4.2,0,0,0-8.4,0v28.6l-.3.1a13.58,13.58,0,0,0-7.7,6.8,13.34,13.34,0,0,0,12.1,19.2,13.72,13.72,0,0,0,5.8-1.3Zm-1.1-6.5-.1.1a7.54,7.54,0,0,1-4.7,1.7,7.3,7.3,0,1,1,7.3-7.3,7.55,7.55,0,0,1-1.8,4.8A1.58,1.58,0,0,1,101.79,106.86Z" fill="#d33d51"/><circle cx="96.99" cy="32.66" r="4.2" fill="#d33d51"/><circle cx="96.99" cy="170.26" r="4.2" fill="#d33d51"/><circle cx="165.79" cy="101.46" r="4.2" fill="#d33d51"/><circle cx="28.19" cy="101.46" r="4.2" fill="#d33d51"/><path d="M53,53.26a4.16,4.16,0,0,0-4.2-4.2,4.23,4.23,0,0,0-4.2,4.2v.1a4.2,4.2,0,0,0,8.4,0Z" fill="#d33d51"/><path d="M145.09,153.86a4.2,4.2,0,1,0-4.2-4.2A4.29,4.29,0,0,0,145.09,153.86Z" fill="#d33d51"/><path d="M149.29,53.26a4.16,4.16,0,0,0-4.2-4.2,4.23,4.23,0,0,0-4.2,4.2v.1a4.23,4.23,0,0,0,4.2,4.2,4.16,4.16,0,0,0,4.2-4.2Z" fill="#d33d51"/><path d="M48.79,145.46a4.2,4.2,0,1,0,4.2,4.2A4.23,4.23,0,0,0,48.79,145.46Z" fill="#d33d51"/></svg>