<svg id="Calque_1" data-name="Calque 1" xmlns="http://www.w3.org/2000/svg" viewBox="0 0 196 196"><path d="M196,41c0-20.1-16.9-37-37-37H37C16.9,4,0,20.9,0,41v76c0,20.1,16.9,37,37,37h6a4,4,0,0,0,0-8H37A29.41,29.41,0,0,1,8,117V41A29.41,29.41,0,0,1,37,12H159a29.41,29.41,0,0,1,29,29v76a29.41,29.41,0,0,1-29,29H147a4,4,0,0,0-4,4v28.1l-30.1-30.9a3.93,3.93,0,0,0-2.9-1.3H66a4,4,0,0,0,0,8h42.3l35.8,36.8a4,4,0,0,0,6.9-2.8v-34h8c20.1,0,37-16.9,37-37Z" fill="#000"/><path d="M96.85,105.3h0a9.37,9.37,0,1,0,0,18.73h0a9.37,9.37,0,0,0,0-18.73Z" fill="#000"/><path d="M112.86,78.88c7-5,15.68-11.19,15.67-22.15,0-17.91-16.74-24.26-31.09-24.26h0a32.86,32.86,0,0,0-20,6.86c-5.48,4.31-8.62,10-8.61,15.56a6.36,6.36,0,0,0,2.11,5A7.79,7.79,0,0,0,76,61.6h0c5.07,0,6.48-3.06,8.27-6.91,2.13-4.59,4.55-9.8,13.83-9.81h0c8.09,0,13.12,4.55,13.12,11.86,0,6.39-5.4,10.57-10.63,14.62C95,75.71,89.21,80.22,89.22,87.62c0,3.71,2.44,7.46,7.09,7.46h0c5.26,0,6.2-2.49,7.5-5.92a19.32,19.32,0,0,1,2-4.27C107.17,83,109.81,81.06,112.86,78.88Z" fill="#000"/></svg>