<svg id="Calque_1" data-name="Calque 1" xmlns="http://www.w3.org/2000/svg" viewBox="0 0 196 196"><path d="M68.79,66a13,13,0,1,0,13,13A13,13,0,0,0,68.79,66Zm0,18a5,5,0,1,1,5-5A5,5,0,0,1,68.79,84Z" fill="#000"/><path d="M141.79,79a13,13,0,1,0-13,13A13,13,0,0,0,141.79,79Zm-18,0a5,5,0,1,1,5,5A5,5,0,0,1,123.79,79Z" fill="#000"/><path d="M84.79,146c-5.51,0-10-4.93-10-11a4,4,0,0,0-8,0c0,10.48,8.07,19,18,19a17.73,17.73,0,0,0,14-7.08,17.76,17.76,0,0,0,14,7.08c9.92,0,18-8.52,18-19a4,4,0,1,0-8,0c0,6.07-4.49,11-10,11s-10-4.93-10-11v-3.87a9.63,9.63,0,0,0,3.33-2.88l8-12a8.2,8.2,0,0,0,.46-8.61,8.67,8.67,0,0,0-7.79-4.54h-16A8.68,8.68,0,0,0,83,107.62a8.46,8.46,0,0,0,.45,8.63l8,12a8.6,8.6,0,0,0,3.32,2.9V135C94.79,141.07,90.29,146,84.79,146Zm5.31-34.22c-.13-.26-.1-.36,0-.47a.89.89,0,0,1,.74-.41h16a.78.78,0,0,1,.65.22l.12.24a1.13,1.13,0,0,1-.1.39l-8,12a.86.86,0,0,1-.69.38.89.89,0,0,1-.67-.35Z" fill="#000"/><path d="M44.17,132.35a4,4,0,0,0-2.23,5.23C52.94,164.4,72.06,178,98.79,178c31,0,53.91-21.11,61.78-56.61a12.16,12.16,0,0,0,6.25,4.77,9.75,9.75,0,0,0,2.67.44,11.16,11.16,0,0,0,6.7-2.4c4.26-3.2,5.53-9.16,6.55-14v-.15c.24-1.21.56-2.75.87-3.9,1.44-4.6,3.13-8.85,5.18-13.92.9-2.21,1.8-4.51,2.7-6.82,8-20.61,0-45.88-18.43-58.73C160.4,18,146.36,18,132.79,18h-69c-13.57,0-27.61,0-40.27,8.68C5.06,39.53-2.88,64.8,5.07,85.5c.9,2.29,1.8,4.58,2.69,6.77l1,2.45c1.57,3.92,3.05,7.62,4.19,11.44.25.93.52,2.15.88,4l.05.22c1,4.81,2.3,10.8,6.54,13.88a11.23,11.23,0,0,0,6.69,2.39,9.77,9.77,0,0,0,2.69-.44c6.61-2,9.67-10.71,11.69-16.47l.17-.46c3.7-10.73,4.63-22,5.52-33v-.34c1.59-18.94,3.11-36.75,18.19-50h67.42c12.9,0,25.09,0,35.73,7.32C184,44,190.7,65.15,184.06,82.52c-.45,1.1-.9,2.23-1.35,3.36l-1.35,3.35-.52,1.3c-1.74,4.27-3.53,8.7-4.91,13.28-.26.84-.47,1.79-.7,2.78-.13.58-.26,1.17-.42,1.8l-.13.61c-.71,3.33-1.6,7.48-3.4,8.71-.9.7-1.68,1-2.2.83-2.75-.83-5.53-8.71-6.58-11.68l-.06-.18c-3.33-9.78-4.24-20.54-5.13-30.94v-.32c-.72-9.13-1.61-20.49-4.85-30.62a3.87,3.87,0,0,0-2-2.34,4.13,4.13,0,0,0-3.05-.21,3.87,3.87,0,0,0-2.34,2,4.1,4.1,0,0,0-.21,3c2.92,9.19,3.7,19.2,4.45,28.88v.42c.89,10.57,1.81,21.49,5.24,31.9-3.59,29.82-20.14,61.6-55.88,61.6-23.24,0-39.82-11.93-49.27-35.47A4,4,0,0,0,44.17,132.35Zm-5-57.12v.5c-.89,10.4-1.8,21.16-5.12,30.94l-.17.48c-1,2.89-3.72,10.58-6.51,11.4-.52.16-1.31-.14-2.21-.85v0c-1.82-1.38-2.81-6-3.53-9.28a42.42,42.42,0,0,0-1.12-4.61A155.55,155.55,0,0,0,15.1,89.17c-.89-2.17-1.81-4.35-2.68-6.63C5.78,65.15,12.46,44,28,33.22c8.07-5.56,17.19-6.85,26-7.16C42.15,40.54,40.66,58.16,39.21,75.23Z" fill="#000"/></svg>