<svg id="Calque_1" data-name="Calque 1" xmlns="http://www.w3.org/2000/svg" viewBox="0 0 196 196"><path d="M38,35.3H8.25A4.25,4.25,0,0,0,4,39.56V69.32a4.25,4.25,0,1,0,8.5,0V43.81H38a4.26,4.26,0,0,0,0-8.51Z" fill="#d33d51"/><path d="M192,39.56a4.25,4.25,0,0,0-4.25-4.26H158a4.26,4.26,0,0,0,0,8.51H183.5V69.32a4.25,4.25,0,1,0,8.5,0Z" fill="#d33d51"/><path d="M187.75,122.92a4.25,4.25,0,0,0-4.25,4.26v25.51H158a4.26,4.26,0,0,0,0,8.51h29.77a4.25,4.25,0,0,0,4.25-4.26V127.18A4.25,4.25,0,0,0,187.75,122.92Z" fill="#d33d51"/><path d="M4,156.94a4.25,4.25,0,0,0,4.25,4.26H38a4.26,4.26,0,0,0,0-8.51H12.5V127.18a4.25,4.25,0,1,0-8.5,0Z" fill="#d33d51"/><path d="M99.12,69.77A13.88,13.88,0,1,0,85.24,83.65,13.88,13.88,0,0,0,99.12,69.77Zm-19.25,0a5.37,5.37,0,0,1,10.74,0,5.37,5.37,0,0,1-10.74,0Z" fill="#d33d51"/><path d="M30.75,136.35A4.25,4.25,0,0,0,35,140.61H161.23a4.26,4.26,0,0,0,0-8.51H144.78L123,84.43a4.3,4.3,0,0,0-7.6-.34L97.55,115.2,86.47,100.88A4.33,4.33,0,0,0,83,99.2,4.38,4.38,0,0,0,79.65,101L63.76,122.7a4,4,0,0,0-.79,3.13,4.15,4.15,0,0,0,1.68,2.8,4,4,0,0,0,3.14.79,4.15,4.15,0,0,0,2.79-1.68l12.54-17.12,11.52,14.77a4.22,4.22,0,0,0,7-.45l16.9-29.43,16.67,36.59H35A4.25,4.25,0,0,0,30.75,136.35Z" fill="#d33d51"/></svg>