<svg id="Calque_1" data-name="Calque 1" xmlns="http://www.w3.org/2000/svg" viewBox="0 0 196 196"><path d="M67.94,44a7.83,7.83,0,0,0-8,7.66V62a7.82,7.82,0,0,0,7.69,8H75a36,36,0,0,0,2,4.32l-4.88,4.87a8.23,8.23,0,0,0,0,11.62l7,7a8.17,8.17,0,0,0,5.78,2.39,7.94,7.94,0,0,0,5.81-2.39l4.87-4.87a36,36,0,0,0,4.32,2V102a7.82,7.82,0,0,0,7.65,8h10.35a7.83,7.83,0,0,0,8-7.65V94.9a41,41,0,0,0,4.31-2l4.88,4.88a8.25,8.25,0,0,0,11.62,0l7-7A8.16,8.16,0,0,0,156.14,85a7.94,7.94,0,0,0-2.39-5.81l-4.88-4.87a36,36,0,0,0,2-4.32h7.07a7.83,7.83,0,0,0,8-7.65V52a7.84,7.84,0,0,0-7.66-8h-7.44a36.7,36.7,0,0,0-2-4.32l4.88-4.87a8.07,8.07,0,0,0,.21-11.41l-.21-.21-7-7A8.09,8.09,0,0,0,135.28,16l-.18.18-4.84,4.94a36.7,36.7,0,0,0-4.32-2V12a7.84,7.84,0,0,0-7.66-8H107.94a7.83,7.83,0,0,0-8,7.66V19.1a40.09,40.09,0,0,0-4.31,2l-4.88-4.88a8.23,8.23,0,0,0-11.62,0l-7,7a8.23,8.23,0,0,0,0,11.62L77,39.71A36.7,36.7,0,0,0,75,44Zm16.81-7.84-7-7a.74.74,0,0,1,0-.21.6.6,0,0,1,0-.19l7-7a.9.9,0,0,1,.4,0l7,7a3.94,3.94,0,0,0,4.83.64,30.61,30.61,0,0,1,7.9-3.58A4,4,0,0,0,107.94,22V12h10V22a3.9,3.9,0,0,0,3,3.87,31.78,31.78,0,0,1,8,3.59,3.87,3.87,0,0,0,4.81-.65l7-7c.09-.09.15-.13.16-.15l.19.13.09.07,6.94,7a1.29,1.29,0,0,1,.16.17.65.65,0,0,1-.16.21l-7,7a3.94,3.94,0,0,0-.65,4.82A31.23,31.23,0,0,1,144.06,49a4,4,0,0,0,3.88,3h10V62h-10a3.92,3.92,0,0,0-3.88,3.1c-.44,2-1.48,4.33-3.58,7.91a3.87,3.87,0,0,0,.65,4.81l7,7a.74.74,0,0,1,0,.21v.19l-7,7a.9.9,0,0,1-.4,0l-7-7a4,4,0,0,0-4.83-.65,30.3,30.3,0,0,1-7.9,3.59A4,4,0,0,0,117.94,92v10h-10V92a3.93,3.93,0,0,0-3-3.9,31,31,0,0,1-8-3.56,3.83,3.83,0,0,0-2-.54,3.9,3.9,0,0,0-2.81,1.19l-7,7a.9.9,0,0,1-.4,0l-7-7a.74.74,0,0,1,0-.21.6.6,0,0,1,0-.19l7-7A3.94,3.94,0,0,0,85.38,73a31,31,0,0,1-3.56-7.87A3.92,3.92,0,0,0,77.94,62h-10V52h10a3.92,3.92,0,0,0,3.88-3.09c.44-2,1.48-4.33,3.58-7.91A3.87,3.87,0,0,0,84.75,36.19Z" fill="#d33d51"/><path d="M112.94,77a20,20,0,1,0-20-20A20,20,0,0,0,112.94,77Zm0-32a12,12,0,1,1-12,12A12,12,0,0,1,112.94,45Z" fill="#d33d51"/><path d="M184.92,129a7,7,0,0,1-1,.63l-65,36c-5.37,2.93-10.25,4.48-14.12,4.48H46.94a4,4,0,0,0-2.39.79l-19,14A4,4,0,0,0,24,187.48a3.84,3.84,0,0,0,.75,3,4,4,0,0,0,3.18,1.62,4.31,4.31,0,0,0,2.4-.8L48.27,178h56.67c5.31,0,11.36-1.86,18-5.52l65-36a15.5,15.5,0,0,0,7.58-9.63,15.21,15.21,0,0,0-2.24-12,16.31,16.31,0,0,0-21.34-5.32l-34,19a4,4,0,1,0,3.89,7l34-19a8.35,8.35,0,0,1,10.67,2.65A7,7,0,0,1,184.92,129Z" fill="#d33d51"/><path d="M32.53,125.81l-31,24a4,4,0,0,0-.69,5.59,4,4,0,0,0,5.6.8h0l31-24A25.33,25.33,0,0,1,52.94,127h63a7,7,0,0,1,0,14h-37a4,4,0,0,0,0,8h37a15,15,0,0,0,0-30h-63A33.68,33.68,0,0,0,32.53,125.81Z" fill="#d33d51"/></svg>