<svg id="Calque_1" data-name="Calque 1" xmlns="http://www.w3.org/2000/svg" viewBox="0 0 196 196"><path d="M144.13,132.75a3.9,3.9,0,0,0,3.1.28,3.74,3.74,0,0,0,2.25-2,3.9,3.9,0,0,0,.28-3.1,3.85,3.85,0,0,0-2-2.26l-127-65a4,4,0,0,0-3.88.1A3.85,3.85,0,0,0,15,64.21v24c.1,32.11,15.28,62.46,40.6,81.2l31,23a18.58,18.58,0,0,0,22.8,0l31-23c25.33-18.74,40.51-49.09,40.61-81.2v-62a13.31,13.31,0,0,0-8.55-12.73,212.4,212.4,0,0,0-148.91,0A13.34,13.34,0,0,0,15,26.21v11a4,4,0,0,0,2.14,3.59l138,71a3.9,3.9,0,0,0,3.1.28,3.76,3.76,0,0,0,2.28-2,3.92,3.92,0,0,0-1.7-5.28l0,0L23,34.8V26.21A5.34,5.34,0,0,1,26.45,21a203.9,203.9,0,0,1,143.19,0,5.34,5.34,0,0,1,3.46,5.27v62C173,117.86,159,145.83,135.7,163l-31,23a10.67,10.67,0,0,1-13.2,0l-31-23C37.11,145.84,23.1,117.88,23,88.21V70.75Z" fill="#d33d51"/></svg>