<svg id="Calque_1" data-name="Calque 1" xmlns="http://www.w3.org/2000/svg" viewBox="0 0 196 196"><path d="M19,51.21a4,4,0,0,0-4,4v33c.1,32.11,15.28,62.46,40.6,81.2l31,23a18.58,18.58,0,0,0,22.8,0l31-23c25.33-18.74,40.51-49.09,40.61-81.2v-62a13.31,13.31,0,0,0-8.55-12.73,212.4,212.4,0,0,0-148.91,0A13.34,13.34,0,0,0,15,26.21v11a4,4,0,0,0,8,0v-11A5.34,5.34,0,0,1,26.45,21a203.9,203.9,0,0,1,143.19,0,5.34,5.34,0,0,1,3.46,5.27v62C173,117.86,159,145.83,135.7,163l-31,23a10.67,10.67,0,0,1-13.2,0l-31-23C37.11,145.84,23.1,117.88,23,88.21v-33A4,4,0,0,0,19,51.21Z" fill="#565656"/><path d="M134.08,60.68a26.47,26.47,0,0,0-16.63-9.25L117,45a3.15,3.15,0,0,0-2.8-2.8,3,3,0,0,0-3.2,2.41l-1.36,6.9A24.79,24.79,0,0,0,97.37,57.2l-.44.44A27,27,0,0,0,80,51.21a27,27,0,0,0-20.07,9.46C51.16,71.22,52.16,87.19,62.19,97l28,28A9.42,9.42,0,0,0,97,127.81a9.73,9.73,0,0,0,6.92-2.81l25-26a4,4,0,0,0-.16-5.62A4.12,4.12,0,0,0,126,92.3a3.84,3.84,0,0,0-2.77,1.22l-25,26a1.82,1.82,0,0,1-1.17.35,1.61,1.61,0,0,1-1.21-.35l-28-28C60.78,84.52,60,73.31,66.11,66A18.56,18.56,0,0,1,80,59.31a19.26,19.26,0,0,1,13.21,5.8,5.41,5.41,0,0,0,7.6,0,1.49,1.49,0,0,0,.23-.27l.21-.21,1.29-1.26a18.65,18.65,0,0,1,5.34-3.1L100.4,97.11,96.84,85.46a3,3,0,0,0-2.84-2H80a3,3,0,0,0,0,6H91.76l6.4,21a3.07,3.07,0,0,0,2.94,2,3,3,0,0,0,2.88-2.4l8.65-42.63L114,86.61a3,3,0,0,0,3,2.8h23.9a3,3,0,0,0,0-6h-2.16A24.76,24.76,0,0,0,134.08,60.68Zm-3.5,22.53H119.93L118.1,59.64a18,18,0,0,1,9.82,6.09A17.32,17.32,0,0,1,130.58,83.21Z" fill="#565656"/></svg>