<svg id="Calque_1" data-name="Calque 1" xmlns="http://www.w3.org/2000/svg" viewBox="0 0 196 196"><path d="M84.56,90.16a3.94,3.94,0,0,0-4-.69C68.26,94,53.9,104.74,53.9,120.21v7a4,4,0,0,0,4,4h80a4,4,0,0,0,4-4v-7c0-15.28-14.21-26.09-26.4-30.72a4.15,4.15,0,0,1-2.51-3A26.86,26.86,0,0,0,124.9,64.11a27.71,27.71,0,0,0-1.07-6.82l-.06-.22a3.86,3.86,0,0,0-1.88-2.43,4.12,4.12,0,0,0-3-.4,3.85,3.85,0,0,0-2.46,1.87,4.16,4.16,0,0,0-.39,3.07,17.66,17.66,0,0,1,.86,4.93,19,19,0,1,1-19-19,17.17,17.17,0,0,1,12.19,4.81A4.08,4.08,0,0,0,113,51.11a3.71,3.71,0,0,0,2.69-1.19A4,4,0,0,0,116.88,47a3.73,3.73,0,0,0-1.19-2.69A24.49,24.49,0,0,0,98,37.21a27,27,0,1,0,7.84,52.9,10.85,10.85,0,0,0,1.35,2.54A26.38,26.38,0,0,1,98,94.21C92.58,94.21,87.43,92.66,84.56,90.16Zm30.05,7.53a43.5,43.5,0,0,1,12.21,7.8c4.76,4.48,7.18,9.42,7.18,14.67v3H62v-3c0-5.25,2.42-10.19,7.18-14.67a43.79,43.79,0,0,1,12.21-7.8A30.89,30.89,0,0,0,98,102.21v0A30.93,30.93,0,0,0,114.61,97.69Z" fill="#565656"/><path d="M172.46,13.48a212.4,212.4,0,0,0-148.91,0A13.34,13.34,0,0,0,15,26.21v11a4,4,0,0,0,8,0v-11A5.34,5.34,0,0,1,26.45,21a203.9,203.9,0,0,1,143.19,0,5.34,5.34,0,0,1,3.46,5.27v62C173,117.86,159,145.83,135.7,163l-31,23a10.67,10.67,0,0,1-13.2,0l-31-23C37.11,145.84,23.1,117.88,23,88.21v-33a4,4,0,0,0-8,0v33c.1,32.11,15.28,62.46,40.6,81.2l31,23a18.58,18.58,0,0,0,22.8,0l31-23c25.33-18.74,40.51-49.09,40.61-81.2v-62A13.31,13.31,0,0,0,172.46,13.48Z" fill="#565656"/></svg>