<svg id="Calque_1" data-name="Calque 1" xmlns="http://www.w3.org/2000/svg" viewBox="0 0 196 196"><path d="M135.44,104.82H60.56a9.38,9.38,0,0,0-8.12,4.59,9.85,9.85,0,0,0-.11,9.81,33.09,33.09,0,0,0,28.39,16.32h34.56a32.76,32.76,0,0,0,28.3-16.32,9.83,9.83,0,0,0-.1-9.76A9,9,0,0,0,135.44,104.82Zm1.48,10.55a25.06,25.06,0,0,1-21.64,12.49H80.72a25.07,25.07,0,0,1-21.64-12.48,2,2,0,0,1,0-2.09,1.61,1.61,0,0,1,1.48-.79h74.88a1.6,1.6,0,0,1,1.48.78A2,2,0,0,1,136.92,115.37Z" fill="#000"/><path d="M194,76.06v-1a13.67,13.67,0,0,0-13.44-13.48H167.9c-2.21-6.25-4.16-11.15-6-15a24.37,24.37,0,0,0-17.11-13.69c-27.48-5.41-66-5.41-93.69,0A24.38,24.38,0,0,0,34,46.64C32,51,30.07,56.39,28.2,61.62H15.44A13.63,13.63,0,0,0,2,75.06v1a3.84,3.84,0,0,0,3.31,3.84c3.62.54,7.39,1.09,11,1.43l-3,2.22-.11.1a.3.3,0,0,1-.14.11l-.13.07-.12.1c-10.95,11-9.31,31.75-7.86,50.1A16.61,16.61,0,0,0,11.6,146.1V150a17.28,17.28,0,0,0,17.28,17.28h8.64A17.23,17.23,0,0,0,54.62,152a734.92,734.92,0,0,0,86.67-.1,17.28,17.28,0,0,0,17.19,15.36h8.64A17.28,17.28,0,0,0,184.4,150v-3.65A17.87,17.87,0,0,0,191.12,134c1.45-17.35,3.26-39-7.86-50.1a2.56,2.56,0,0,0-.56-.42l-3-2.22c3.49-.36,7.24-.83,11-1.39A3.84,3.84,0,0,0,194,76.06ZM10.19,72.75a5.88,5.88,0,0,1,5.25-3.45H25.5c-.16.48-.33,1-.46,1.42-.4,1.17-.81,2.31-1.2,3.36A122.45,122.45,0,0,1,10.19,72.75ZM13.27,98.2a124.09,124.09,0,0,1,14.9,1.63c1.26,1.14,2,3.22,2.66,5.1,0,.26.1.62.15.95H11.88A45.31,45.31,0,0,1,13.27,98.2Zm24.25,61.34H28.88a9.6,9.6,0,0,1-9.6-9.6v-1c9.82,1.08,18.9,1.86,27.73,2.4A9.59,9.59,0,0,1,37.52,159.54Zm146-26c-.25,3-2.27,6.28-4.56,7.48a3.82,3.82,0,0,0-2.21,3.38v5.76a9.6,9.6,0,0,1-9.6,9.6h-8.64a9.59,9.59,0,0,1-9.5-8.22c5.94-.39,11.84-1,17.58-1.48a3.92,3.92,0,0,0,2.6-1.38,3.71,3.71,0,0,0,.83-2.88,3.84,3.84,0,0,0-4.2-3.44h0a737,737,0,0,1-146.11-1c-3.74-.44-6.87-4-7.12-8.06-.59-6.94-1.09-13.67-1.07-19.89H33.12a6.49,6.49,0,0,0,4.41-2.49c1.86-2.57,1.35-6,.85-7.91a1.47,1.47,0,0,0-.2-.61c-1.29-3.65-3-7.32-6.28-9.45a4.25,4.25,0,0,0-1.41-.62c-4.49-.8-9-1.37-13.58-1.72.34-.4.7-.79,1.07-1.16L28.22,82a3.29,3.29,0,0,0,1.35-1.7c1.38-3.35,2.88-7.68,4.34-11.86,1.92-5.57,4.6-13.2,7.08-18.74a16.31,16.31,0,0,1,11.59-9.34c26.41-5.17,64.52-5.17,90.65,0a16.67,16.67,0,0,1,11.69,9.35c2.48,5.41,5,12.6,7.25,18.95l.5,1.41c.6,1.75,1.22,3.54,1.86,5.26-29.42,2.32-80.41,2.57-122.06.57a3.74,3.74,0,0,0-4,3.48,1,1,0,0,0,0,.17,3.73,3.73,0,0,0,1,2.82,3.63,3.63,0,0,0,2.68,1.17c19.06.88,39.53,1.34,59.18,1.34,27.64,0,51.59-.8,67.51-2.27L178,89.3l.46.6.62.85a128.29,128.29,0,0,0-13.67,1.73,2.94,2.94,0,0,0-1.43.66c-3.34,2.29-5,5.94-6.25,9.6v.11a1.33,1.33,0,0,0-.1.34c-.73,3.27-.46,5.92.84,7.9a5.9,5.9,0,0,0,4.53,2.53h21.51C184.55,120.12,184,127,183.49,133.51Zm-.84-35.42a41,41,0,0,1,1.46,7.68H165a7.6,7.6,0,0,1,.13-1,13.44,13.44,0,0,1,2.67-5.1A126.39,126.39,0,0,1,182.65,98.09Zm-10.36-24c-.4-1.06-.79-2.2-1.21-3.38l-.48-1.4h10a5.93,5.93,0,0,1,5.25,3.43C181.11,73.37,176.3,74,172.29,74.08Z" fill="#000"/></svg>