<svg id="Calque_1" data-name="Calque 1" xmlns="http://www.w3.org/2000/svg" viewBox="0 0 196 196"><path d="M106.37,134.14a7.65,7.65,0,0,0,8.17-1.13l35-29a7.79,7.79,0,0,0,1.3-10.94,7.57,7.57,0,0,0-1.19-1.21l-35-29a7.65,7.65,0,0,0-8.15-1.13,7.74,7.74,0,0,0-4.4,7.21v9.42L77.26,61.61A8,8,0,0,0,69,61.06a7.72,7.72,0,0,0-4,6.88v60a7.69,7.69,0,0,0,7.56,7.8h0a8.08,8.08,0,0,0,4.66-1.47L102,117.52v9.42A7.86,7.86,0,0,0,106.37,134.14ZM73,127.44V68.35l30.75,20.82a4.07,4.07,0,0,0,4.1.26A3.87,3.87,0,0,0,110,85.84V69.46l34.38,28.48L110,126.42V109.94a4.15,4.15,0,0,0-2.15-3.59,3.87,3.87,0,0,0-4.11.26Z" fill="#000"/><path d="M7.64,135.59l.1.1a4.09,4.09,0,0,0,2.38,1.89,3.52,3.52,0,0,0,3-.4A4,4,0,0,0,15,132.61v-.1A89.67,89.67,0,1,1,132.2,181,89.12,89.12,0,0,1,28.43,154.59a3.94,3.94,0,0,0-5.47-.7.1.1,0,0,0-.1.1,4.07,4.07,0,0,0-.7,5.57,96.85,96.85,0,0,0,65.57,35.6,93.72,93.72,0,0,0,10.45.59,97,97,0,0,0,61.08-21.67C201.05,140.17,207.52,78.61,173.69,37A97.5,97.5,0,0,0,.37,98.3,96.21,96.21,0,0,0,7.64,135.59Z" fill="#000"/></svg>