<svg id="Calque_1" data-name="Calque 1" xmlns="http://www.w3.org/2000/svg" viewBox="0 0 196 196"><path d="M196,54V37A29.68,29.68,0,0,0,166.65,7H30A29.68,29.68,0,0,0,0,36.36V37a4,4,0,0,0,8,0A21.76,21.76,0,0,1,29.52,15H166a21.76,21.76,0,0,1,22,21.52V50H8a7.91,7.91,0,0,0-8,7.82V159a29.68,29.68,0,0,0,29.36,30H166a30,30,0,0,0,30-30V72a4,4,0,0,0-8,0v87a22,22,0,0,1-22,22H30A21.76,21.76,0,0,1,8,159.48V58H192A4,4,0,0,0,196,54Z" fill="#565656"/><path d="M145,45h.22a11,11,0,0,0,7.69-3.41A11.45,11.45,0,0,0,156,33.78a10.87,10.87,0,0,0-3.38-7.7A11.08,11.08,0,0,0,144.78,23,10.89,10.89,0,0,0,134.1,34.09v.15a11,11,0,0,0,3.39,7.67A10.58,10.58,0,0,0,145,45Zm-3.6-14.52A4.7,4.7,0,0,1,144.8,29h.2a5.08,5.08,0,0,1,5,4.9,4.85,4.85,0,0,1-1.44,3.62,5.11,5.11,0,0,1-3.46,1.58,4.84,4.84,0,0,1-3.56-1.38h0A5.2,5.2,0,0,1,140,34.1,5,5,0,0,1,141.4,30.48Z" fill="#565656"/><path d="M62,34A11,11,0,1,0,51,45,11,11,0,0,0,62,34ZM46,34a5,5,0,1,1,5,5A5,5,0,0,1,46,34Z" fill="#565656"/><path d="M106,81H90a4,4,0,0,0,0,8h16a4,4,0,0,0,0-8Z" fill="#565656"/><path d="M59,81H43a4,4,0,0,0,0,8H59a4,4,0,0,0,0-8Z" fill="#565656"/><path d="M153,81H137a4,4,0,0,0,0,8h16a4,4,0,0,0,0-8Z" fill="#565656"/><path d="M59,112H43a4,4,0,0,0,0,8H59a4,4,0,0,0,0-8Z" fill="#565656"/><path d="M106,112H90a4,4,0,0,0,0,8h16a4,4,0,0,0,0-8Z" fill="#565656"/><path d="M153,112H137a4,4,0,0,0,0,8h16a4,4,0,0,0,0-8Z" fill="#565656"/><path d="M59,143H43a4,4,0,0,0,0,8H59a4,4,0,0,0,0-8Z" fill="#565656"/><path d="M106,143H90a4,4,0,0,0,0,8h16a4,4,0,0,0,0-8Z" fill="#565656"/><path d="M153,143H137a4,4,0,0,0,0,8h16a4,4,0,0,0,0-8Z" fill="#565656"/></svg>