<svg id="Calque_1" data-name="Calque 1" xmlns="http://www.w3.org/2000/svg" viewBox="0 0 196 196"><path d="M196,56a28,28,0,0,0-28-28H141a4,4,0,0,0,0,8h27a20.06,20.06,0,0,1,20,20v84a20.06,20.06,0,0,1-20,20H28A20.06,20.06,0,0,1,8,140V56A20.06,20.06,0,0,1,28,36h81a4,4,0,0,0,0-8H28A28,28,0,0,0,0,56v84a28,28,0,0,0,28,28H168a28,28,0,0,0,28-28Z" fill="#565656"/><path d="M56,68H38A15,15,0,0,0,23,83v1A15,15,0,0,0,38,99H56A15,15,0,0,0,71,84V83A15,15,0,0,0,56,68Zm9,16a9,9,0,0,1-9,9H38a9,9,0,0,1-9-9V83a9,9,0,0,1,9-9H56a9,9,0,0,1,9,9Z" fill="#565656"/><path d="M26,135a3,3,0,0,0,0,6H37a3,3,0,0,0,0-6Z" fill="#565656"/><path d="M48.3,141h64a3,3,0,1,0,0-6h-64a3,3,0,0,0,0,6Z" fill="#565656"/><path d="M56,120a3,3,0,0,0-3-3H26a3,3,0,0,0,0,6H53A3,3,0,0,0,56,120Z" fill="#565656"/><path d="M61.2,120a3,3,0,0,0,3,3h27a3,3,0,0,0,0-6h-27A3,3,0,0,0,61.2,120Z" fill="#565656"/><path d="M132.2,120a3,3,0,0,0-3-3h-27a3,3,0,0,0-3,3,3,3,0,0,0,3,3h27A3,3,0,0,0,132.2,120Z" fill="#565656"/><path d="M167.3,123a3,3,0,0,0,0-6h-27a3,3,0,0,0,0,6Z" fill="#565656"/></svg>