<svg id="Calque_1" data-name="Calque 1" xmlns="http://www.w3.org/2000/svg" viewBox="0 0 196 196"><path d="M195.2,36A20.39,20.39,0,0,0,175,16H128a20,20,0,0,0-20,20h-7a4,4,0,0,0,0,8h33c13.42,0,17,13.83,17,22a24.61,24.61,0,0,1-.32,3.93C148.85,62,139.7,62,134,62H83a4,4,0,0,0-4,4v6.37L56.82,53,79.1,33.54V40a4,4,0,0,0,8,0V33a7.94,7.94,0,0,0-4.57-7.2A7.4,7.4,0,0,0,74.44,27l-24,21a6.65,6.65,0,0,0-2.24,5,6.77,6.77,0,0,0,2.24,5l24,21a7.42,7.42,0,0,0,8.07,1.15A8,8,0,0,0,87.1,73V70h47c9,0,9,1.26,9,3v7a6,6,0,0,0,4.7,5.78H148a6.54,6.54,0,0,0,1.39.18,6,6,0,0,0,5.28-3A35.7,35.7,0,0,0,159.2,66.1c0-14.45-7.82-30-25-30h-18a12,12,0,0,1,12-12h47a12,12,0,0,1,12,12v47a12,12,0,0,1-12,12h-47a12,12,0,0,1-12-12,4,4,0,0,0-8,0,20,20,0,0,0,20,20h47a20,20,0,0,0,20-20Z" fill="#d33d51"/><path d="M1,113v47a20,20,0,0,0,20,20H68a20,20,0,0,0,20-20h7a4,4,0,0,0,0-8H62c-13.42,0-17-13.83-17-22a24.61,24.61,0,0,1,.32-3.93C47.15,134,56.3,134,62,134h51a4,4,0,0,0,4-4v-6.37L139.18,143,116.9,162.46V156a4,4,0,0,0-8,0v7a7.92,7.92,0,0,0,4.59,7.21,7.62,7.62,0,0,0,3.11.69,8,8,0,0,0,5-1.85l24-21a6.93,6.93,0,0,0,.45-9.79c-.1-.11-.2-.22-.31-.32l-24.09-21a7.42,7.42,0,0,0-8.07-1.15A7.94,7.94,0,0,0,109,123v3H62c-9,0-9-1.26-9-3v-7a6.15,6.15,0,0,0-11.48-2.88A35.81,35.81,0,0,0,37,130c0,14.45,7.82,30,25,30H80a12,12,0,0,1-12,12H21A12,12,0,0,1,9,160V113a12,12,0,0,1,12-12H68a12,12,0,0,1,12,12,4,4,0,0,0,8,0A20,20,0,0,0,68,93H21A20,20,0,0,0,1,113Z" fill="#d33d51"/></svg>