<svg id="Calque_1" data-name="Calque 1" xmlns="http://www.w3.org/2000/svg" viewBox="0 0 196 196"><path d="M7.2,135.5l.1.1a4.15,4.15,0,0,0,2.4,1.9,4.45,4.45,0,0,0,3-.4,4,4,0,0,0,1.9-4.6v-.1A90.13,90.13,0,0,1,181.1,63.3c19,45.9-2.8,98.8-48.7,117.8A88.06,88.06,0,0,1,98,188a89.23,89.23,0,0,1-69.9-33.5,3.53,3.53,0,0,0-2.6-1.5,4.14,4.14,0,0,0-2.9.8l-.1.1a3.91,3.91,0,0,0-.7,5.6,97.89,97.89,0,0,0,65.9,35.8,92.4,92.4,0,0,0,10.5.6A98,98,0,0,0,98,0C44,0,.1,44,0,98A98.5,98.5,0,0,0,7.2,135.5Z" fill="#d33d51"/><path d="M85,135.7c3.3,0,6.6-1.6,9.8-4.8l47-47a13.55,13.55,0,0,0,4.2-9.8,13.9,13.9,0,0,0-23.6-10L85,101.4,73.8,90.2a13.76,13.76,0,0,0-9.8-4,14.39,14.39,0,0,0-9.8,4.2,13.82,13.82,0,0,0,0,19.4l21,21C78.4,134.1,81.7,135.7,85,135.7ZM59.8,95.8a6.28,6.28,0,0,1,8.4,0l14,14a4,4,0,0,0,2.7,1.2,4.3,4.3,0,0,0,2.8-1.1l40.1-40.1a6,6,0,0,1,8.4.1,6,6,0,0,1,0,8.3l-47,47c-3.3,3.3-5,3.3-8.4,0l-21-20.9A6.77,6.77,0,0,1,59.8,95.8Z" fill="#d33d51"/></svg>