<svg id="Calque_1" data-name="Calque 1" xmlns="http://www.w3.org/2000/svg" viewBox="0 0 196 196"><path d="M7.2,135.6l.1.1a4.15,4.15,0,0,0,2.4,1.9,4.45,4.45,0,0,0,3-.4,4,4,0,0,0,1.9-4.6v-.1A90.13,90.13,0,0,1,181.1,63.4c19,45.9-2.8,98.9-48.7,117.9A88.06,88.06,0,0,1,98,188.2a89.23,89.23,0,0,1-69.9-33.5,3.53,3.53,0,0,0-2.6-1.5,4.14,4.14,0,0,0-2.9.8l-.1.1a3.91,3.91,0,0,0-.7,5.6,97.89,97.89,0,0,0,65.9,35.8,92.4,92.4,0,0,0,10.5.6,97.73,97.73,0,0,0,97.1-87.6,96.58,96.58,0,0,0-21.1-72.1A97.51,97.51,0,0,0,98.1,0C44,0,.1,44,0,98.1A98.5,98.5,0,0,0,7.2,135.6Z" fill="#d33d51"/><path d="M85.1,130.3c1.9,0,3.8-1.1,5.9-3.2l47-47a8.75,8.75,0,0,0-.1-11.8,8.45,8.45,0,0,0-11.9-.1l-40,40a1.5,1.5,0,0,1-1.1.4,1.65,1.65,0,0,1-.9-.5l-14-14-.1-.1a8.73,8.73,0,0,0-11.7,0l-.3.3a9.46,9.46,0,0,0,0,11.7l21.2,21.1C81.3,129.2,83.2,130.3,85.1,130.3Z" fill="#d33d51"/></svg>