<svg id="Calque_1" data-name="Calque 1" xmlns="http://www.w3.org/2000/svg" viewBox="0 0 196 196"><path d="M51,22a4,4,0,0,0-4,4V47H26a4,4,0,0,0,0,8H47V76a4,4,0,0,0,8,0V55H76a4,4,0,0,0,0-8H55V26A4,4,0,0,0,51,22Z" fill="#565656"/><path d="M170,47H120a4,4,0,0,0,0,8h50a4,4,0,0,0,0-8Z" fill="#565656"/><path d="M170,132H120a4,4,0,0,0,0,8h50a4,4,0,0,0,0-8Z" fill="#565656"/><path d="M170,150H120a4,4,0,0,0,0,8h50a4,4,0,0,0,0-8Z" fill="#565656"/><path d="M196,165V31A31.29,31.29,0,0,0,165,0H31A31.29,31.29,0,0,0,0,31V76a4,4,0,0,0,8,0V31A23.13,23.13,0,0,1,31,8H94V94H4a4,4,0,0,0,0,8H94v86H31A23.13,23.13,0,0,1,8,165V120a4,4,0,0,0-8,0v45a31.29,31.29,0,0,0,31,31H165A31.29,31.29,0,0,0,196,165ZM102,8h63a23.13,23.13,0,0,1,23,23V94H102Zm63,180H102V102h86v63A23.13,23.13,0,0,1,165,188Z" fill="#565656"/><path d="M23.1,172.7l.1.1a4,4,0,0,0,2.7,1.2,4.3,4.3,0,0,0,2.8-1.1L51,150.6l22.2,22.2A4,4,0,0,0,76,174a3.86,3.86,0,0,0,2.7-1.1l.1-.1a4,4,0,0,0,1.2-2.7,4.11,4.11,0,0,0-1.1-2.8L56.6,145l22.2-22.2.1-.1a3.66,3.66,0,0,0,.8-3,4,4,0,0,0-1.6-2.6,3.9,3.9,0,0,0-4.8,0L51,139.4,28.8,117.2l-.1-.1a4,4,0,0,0-5.6.8,3.9,3.9,0,0,0,0,4.8L45.4,145,23.2,167.2A3.92,3.92,0,0,0,23.1,172.7Z" fill="#565656"/></svg>