<svg id="Calque_1" data-name="Calque 1" xmlns="http://www.w3.org/2000/svg" viewBox="0 0 196 196"><path d="M98.11,0a31,31,0,0,0-31,31V64h-29a4,4,0,0,0-4,3.72l-8,98a28.74,28.74,0,0,0,7.27,21.76A26.45,26.45,0,0,0,53,196h90a26.3,26.3,0,0,0,19.52-8.51,28.21,28.21,0,0,0,7.58-21.77l-8-98a4,4,0,0,0-4-3.72h-29V31A31,31,0,0,0,98.11,0Zm56.28,72,7.72,94.28a21.07,21.07,0,0,1-5.34,15.84A18.53,18.53,0,0,1,143.11,188h-90a18.26,18.26,0,0,1-13.77-6,20.68,20.68,0,0,1-5.23-15.72L41.83,72H67.11v8a4,4,0,0,0,8,0V31a23,23,0,0,1,46,0V64h-25a4,4,0,0,0,0,8h25v8a4,4,0,0,0,8,0V72Z" fill="#d33d51"/><path d="M98.11,114c5.07,0,10.45,4.27,13.39,10.62a4,4,0,0,0,7.42-.27,3.87,3.87,0,0,0-.1-3.06c-4.26-9.35-12.35-15.39-20.61-15.39-10.39,0-19.16,8.81-22,22h-3.1a4,4,0,1,0,0,8h2v3h-2a4,4,0,1,0,0,8h3.21c3,12.18,11.52,20,21.79,20,8.37,0,16.46-6,20.61-15.38a3.9,3.9,0,0,0,.1-3.07,4,4,0,0,0-2.09-2.26,3.9,3.9,0,0,0-3.07-.1,4,4,0,0,0-2.26,2.09c-2.94,6.35-8.32,10.62-13.39,10.62-5.75,0-10.92-4.67-13.44-12H99.11a4,4,0,1,0,0-8h-16v-3h16a4,4,0,0,0,0-8H84.31C86.69,119.49,92.11,114,98.11,114Z" fill="#d33d51"/></svg>