<svg id="Calque_1" data-name="Calque 1" xmlns="http://www.w3.org/2000/svg" viewBox="0 0 196 196"><path d="M195,191.1a65.37,65.37,0,0,0-47.4-62.9c11.7-6.5,18.9-18.3,18.9-31.2a34.78,34.78,0,0,0-11.3-25.7,4,4,0,1,0-5.4,5.8A27.1,27.1,0,0,1,158.7,97c0,15.6-13.7,28.3-30.4,28.3S97.7,112.6,97.7,97s13.7-28.3,30.4-28.3a31.5,31.5,0,0,1,7.2.9,3.52,3.52,0,0,0,3-.5,4,4,0,0,0,1.7-2.4,3.52,3.52,0,0,0-.5-3A3.94,3.94,0,0,0,137,62a38,38,0,0,0-8.9-1C107,61,89.8,77.3,89.8,97.2a35.74,35.74,0,0,0,19.9,31.7,65.53,65.53,0,0,0-45.5,62.2,4,4,0,0,0,4,4H191A4,4,0,0,0,195,191.1Zm-122.6-4a57.43,57.43,0,0,1,114.6,0Z" fill="#000"/><path d="M44.6,76.4h8.3L69.6,93.1a4.49,4.49,0,0,0,2.7,1,3.93,3.93,0,0,0,1.4-.3h.1a4,4,0,0,0,2.4-3.6V76.3h3.9A19.85,19.85,0,0,0,99.9,56.5V20.8A19.85,19.85,0,0,0,80.1,1H20.8A19.85,19.85,0,0,0,1,20.8V56.4A19.85,19.85,0,0,0,20.8,76.2h4a4,4,0,0,0,0-8h-4a11.71,11.71,0,0,1-8.4-3.4,11.48,11.48,0,0,1-3.5-8.4V20.8A11.86,11.86,0,0,1,20.8,8.9H80.2A11.86,11.86,0,0,1,92.1,20.8V56.4A11.86,11.86,0,0,1,80.2,68.3H72.3a4,4,0,0,0-4,4v8.2L57.2,69.4a3.94,3.94,0,0,0-2.7-1H44.6a4,4,0,1,0,0,8Z" fill="#000"/><path d="M28.7,27.7H72.2a3,3,0,0,0,0-6H28.7a3,3,0,0,0-3,3A3,3,0,0,0,28.7,27.7Z" fill="#000"/><path d="M28.7,41.6H72.2a3,3,0,0,0,0-6H28.7a3,3,0,0,0-3,3A3,3,0,0,0,28.7,41.6Z" fill="#000"/><path d="M28.7,55.6H72.2a3,3,0,0,0,0-6H28.7a3,3,0,0,0-3,3A3,3,0,0,0,28.7,55.6Z" fill="#000"/></svg>