<svg id="Calque_1" data-name="Calque 1" xmlns="http://www.w3.org/2000/svg" viewBox="0 0 196 196"><path d="M113.94,34c5.58,0,10.58,3.63,13.39,9.72a4,4,0,0,0,7.42-.27,3.9,3.9,0,0,0-.1-3.07C130.49,31.44,122.78,26.1,114,26.1c-10.58,0-20,9-23,22h-3.1a4,4,0,0,0,0,8h2v1c0,1.37.06,2.71.18,4H88a3.87,3.87,0,0,0-2.83,1A4,4,0,0,0,87.94,69h4c3.74,11,12.32,18,22,18,8.75,0,16.45-5.34,20.61-14.28a4,4,0,0,0,.12-3.11,3.93,3.93,0,0,0-2.11-2.22,4,4,0,0,0-3.11-.12,3.92,3.92,0,0,0-2.22,2.12c-2.73,6-7.7,9.61-13.29,9.61s-10.62-3.79-13.49-10h14.49a4,4,0,0,0,0-8H98.19a28.09,28.09,0,0,1-.25-4V56h17a4,4,0,0,0,0-8H99.26C101.85,39.57,107.64,34,113.94,34Z" fill="#000"/><path d="M193.28,111.85a16.31,16.31,0,0,0-21.34-5.32l-34,19a4,4,0,1,0,3.89,7l34-19a8.35,8.35,0,0,1,10.67,2.65,7,7,0,0,1-1.58,9.78,6.16,6.16,0,0,1-1,.62l-65,36c-5.37,2.93-10.25,4.48-14.12,4.48H46.94a4.11,4.11,0,0,0-2.39.8l-19,14A4,4,0,0,0,24,184.49a3.83,3.83,0,0,0,.75,3,4,4,0,0,0,3.2,1.6,4.16,4.16,0,0,0,2.4-.8L48.27,175h56.67c5.31,0,11.37-1.86,18-5.53l65-36a15.5,15.5,0,0,0,7.58-9.63A15.2,15.2,0,0,0,193.28,111.85Z" fill="#000"/><path d="M115.94,138h-37a4,4,0,0,0,0,8h37a15,15,0,0,0,0-30h-63a33.68,33.68,0,0,0-20.41,6.81l-31,24a4,4,0,0,0-.69,5.59,4,4,0,0,0,5.6.8h0l31-24A25.33,25.33,0,0,1,52.94,124h63a7,7,0,0,1,0,14Z" fill="#000"/><path d="M112.94,7a47.92,47.92,0,0,0-20.72,4.39,4,4,0,0,0-2.09,2.26,3.9,3.9,0,0,0,.1,3.07,4,4,0,0,0,2.26,2.09,3.84,3.84,0,0,0,3.08-.11,40.32,40.32,0,0,1,17.27-3.6,41,41,0,1,1-41,41A40.4,40.4,0,0,1,82.78,27.88a4,4,0,0,0,1.07-2.83,3.8,3.8,0,0,0-1.23-2.79,4,4,0,0,0-5.6.15A48,48,0,0,0,63.94,56a49,49,0,1,0,49-49Z" fill="#000"/></svg>