<svg id="Calque_1" data-name="Calque 1" xmlns="http://www.w3.org/2000/svg" viewBox="0 0 196 196"><path d="M80.58,160.83h34.85A33,33,0,0,0,144,144.37a10,10,0,0,0-.09-9.88,9.73,9.73,0,0,0-8.13-4.64H60.25A9.54,9.54,0,0,0,52,134.49a9.76,9.76,0,0,0-.1,9.88A33.53,33.53,0,0,0,80.58,160.83ZM58.8,138.37a1.52,1.52,0,0,1,1.45-.78h75.51a1.69,1.69,0,0,1,1.45.78,2.08,2.08,0,0,1,0,2.13,25.08,25.08,0,0,1-21.78,12.58H80.58A25.17,25.17,0,0,1,58.8,140.5,2.09,2.09,0,0,1,58.8,138.37Z" fill="#d33d51"/><path d="M50.86,59.38A24.36,24.36,0,0,0,33.53,73.22c-1.93,4.35-3.87,9.87-5.81,15.1h-13A13.72,13.72,0,0,0,1.2,101.87v1a3.94,3.94,0,0,0,3.29,3.87c3.68.58,7.46,1.07,11,1.45l-3,2.23-.1.1-.1.09-.09.1-.1.1c-11,11-9.39,31.94-7.94,50.43A16.71,16.71,0,0,0,11,173.41v4A17.47,17.47,0,0,0,28.4,194.8h8.71a17.62,17.62,0,0,0,17.33-15.39c13.65.78,28.17,1.16,43.08,1.16,14.23,0,29.14-.38,44.34-1.26a17.4,17.4,0,0,0,17.32,15.49h8.72a17.47,17.47,0,0,0,17.42-17.42V173.7a18,18,0,0,0,6.78-12.39c1.45-17.52,3.29-39.3-7.94-50.53a2.11,2.11,0,0,0-.58-.39l-3-2.23c3.48-.38,7.35-.87,11-1.35a4,4,0,0,0,3.39-3.87v-1a14.2,14.2,0,0,0-13.84-13.65H168.38c-1.74-4.94-4.07-10.65-5.81-14.71A41.66,41.66,0,0,0,134.4,1.2a40.64,40.64,0,0,0-16.94,3.58,3.88,3.88,0,1,0,3.2,7.07,34,34,0,0,1,29.13,61.37,31.63,31.63,0,0,1-8.52,2.9,31.11,31.11,0,0,1-6.77.68,33.58,33.58,0,0,1-19.36-6.1l-6.68-6.19a49.82,49.82,0,0,1-3.2-4.55,35.37,35.37,0,0,1-2.32-4.65,33.32,33.32,0,0,1-2.42-12.49,33.67,33.67,0,0,1,8.71-22.65A3.84,3.84,0,0,0,103.52,15,41.53,41.53,0,0,0,92.87,42.82a41,41,0,0,0,1.94,12.49A240,240,0,0,0,50.86,59.38ZM9.43,99.55a5.82,5.82,0,0,1,5.32-3.49H24.92a8.35,8.35,0,0,0-.49,1.46c-.38,1.16-.77,2.32-1.16,3.38C18.62,100.61,14,100.23,9.43,99.55Zm3.1,25.55a131.79,131.79,0,0,1,15,1.65c1.26,1.16,2,3.2,2.71,5.13a2.9,2.9,0,0,1,.1,1H11.17A43,43,0,0,1,12.53,125.1ZM37,187H28.3a9.71,9.71,0,0,1-9.68-9.68v-1c9.88,1.17,19.07,1.94,28,2.42A9.75,9.75,0,0,1,37,187ZM183.38,125a51.55,51.55,0,0,1,1.46,7.74H165.57c0-.29.1-.58.1-1a13.17,13.17,0,0,1,2.71-5.13C173.32,125.88,178.35,125.3,183.38,125Zm-2.13-29a5.82,5.82,0,0,1,5.33,3.48,126.76,126.76,0,0,1-13.75,1.36c-.39-1.07-.77-2.23-1.16-3.39-.19-.48-.29-1-.48-1.45ZM92.58,63.05h.1c1.84,0,3.68-.09,5.52-.09a41.76,41.76,0,0,0,36.59,21.68,41.93,41.93,0,0,0,21.78-6.19c.77,1.74,1.45,3.48,2.13,5.42,1.45,3.77,2.9,7.84,4.16,11.52l.49,1.45c.58,1.74,1.25,3.58,1.83,5.32-29.62,2.33-81,2.62-123,.58a3.78,3.78,0,0,0-4,3.49v.19a3.34,3.34,0,0,0,1.06,2.81A3.54,3.54,0,0,0,42,110.39c19.27.87,39.89,1.36,59.63,1.36,27.88,0,52-.78,68.06-2.33l9.29,6.78c.39.48.68.87,1.07,1.35a109,109,0,0,0-13.75,1.75,2.84,2.84,0,0,0-1.45.67c-3.39,2.33-5,6-6.29,9.59v.09c0,.1-.1.2-.1.3-.78,3.29-.49,6,.87,7.93a6.06,6.06,0,0,0,4.45,2.52h21.4c0,6.78-.49,13.75-1.07,20.23-.29,3-2.32,6.39-4.55,7.55a3.88,3.88,0,0,0-2.13,3.49v5.81a9.71,9.71,0,0,1-9.68,9.68H159a9.61,9.61,0,0,1-9.58-8.33c6-.39,12-.87,17.71-1.35a3.89,3.89,0,0,0-.77-7.75,740.74,740.74,0,0,1-147.24-1A8.59,8.59,0,0,1,12,160.63c-.49-6-1.07-13.45-1.07-20.13H32.66A6.39,6.39,0,0,0,37.11,138c1.84-2.61,1.36-6.1.88-7.94a1.34,1.34,0,0,0-.2-.58c-1.26-3.68-3-7.36-6.29-9.49a3.33,3.33,0,0,0-1.45-.58q-6.82-1.15-13.65-1.74a13.13,13.13,0,0,1,1.06-1.26l10.36-7.55a3.1,3.1,0,0,0,1.36-1.74c1.35-3.39,2.9-7.74,4.35-11.91l.58-1.64c2-5.81,4.36-12.39,6.59-17.23a16.28,16.28,0,0,1,11.71-9.39,238.32,238.32,0,0,1,34.65-3.68C88.9,63.15,90.74,63.15,92.58,63.05Z" fill="#d33d51"/><path d="M111.56,48.73a3.88,3.88,0,0,0,3.87,3.87h2.71c3.19,8.23,10.07,13.55,17.62,13.55,7,0,12.77-4,16.07-10.94A3.88,3.88,0,1,0,144.76,52c-1.94,4.26-5.13,6.48-9.1,6.48-3.49,0-6.87-2.22-9-5.8h10a3.88,3.88,0,0,0,0-7.75H124.14a15.61,15.61,0,0,1-.1-3.87h12.59a3.87,3.87,0,1,0,0-7.74H125.5c2.12-5.33,6.09-6.78,10.16-6.78,3.87,0,7.16,2.32,9.1,6.49A3.94,3.94,0,0,0,149.89,35a3.82,3.82,0,0,0,2-2.23,3.62,3.62,0,0,0-.09-3c-3.2-7.06-9.1-11.13-16.07-11.13-8.14,0-15.59,4.84-18.3,14.52h-2a3.88,3.88,0,0,0,0,7.75h1c0,.67,0,3.19.09,3.87h-1.06A4,4,0,0,0,111.56,48.73Z" fill="#d33d51"/></svg>