<svg id="Calque_1" data-name="Calque 1" xmlns="http://www.w3.org/2000/svg" viewBox="0 0 196 196"><path d="M67.58,33.7h.1a4,4,0,0,0,1.5-5.4,4,4,0,0,0-4.6-1.9h-.1a89.71,89.71,0,0,0-39.1,32.2c-27.4,39.8-17.2,94.6,22.7,122A86.85,86.85,0,0,0,97.68,196h.6A87.75,87.75,0,0,0,186,108.6V108a88.1,88.1,0,0,0-54.4-81.7,3.91,3.91,0,0,0-3-.3,4.15,4.15,0,0,0-2.4,1.9,3.93,3.93,0,0,0,1.5,5.4,6.89,6.89,0,0,0,.8.3A80.27,80.27,0,0,1,98.18,188h-.3A80,80,0,0,1,18,108.2V108C18,76,37.88,46.2,67.58,33.7Z" fill="#000"/><path d="M102,88V4a4,4,0,0,0-8,0V88a4,4,0,0,0,8,0Z" fill="#000"/></svg>