<svg id="Calque_1" data-name="Calque 1" xmlns="http://www.w3.org/2000/svg" viewBox="0 0 196 196"><path d="M39.3,113h18a3,3,0,1,0,0-6h-18a3,3,0,0,0,0,6Z" fill="#000"/><path d="M98.3,172a3,3,0,0,0,3-3V151a3,3,0,0,0-6,0v18A3,3,0,0,0,98.3,172Z" fill="#000"/><path d="M119.2,26.3a4,4,0,0,0-4.7,3.2,3.79,3.79,0,0,0,.6,2.9,3.69,3.69,0,0,0,2.5,1.6c15.7,2.8,28.8,13.9,35.2,20.2,10.8,10.6,18.1,22.9,20.6,34.7a4,4,0,0,0,3.8,3.2h.2a3.08,3.08,0,0,0,.9-.1,3.87,3.87,0,0,0,3-4.5v-.1c-2.5-12-9.1-24.1-19.3-35.2l3.9-3.9,3.7,3.7a9,9,0,0,0,12.6.1,8.86,8.86,0,0,0,2.7-6.3,9,9,0,0,0-2.6-6.4L169.2,26.3a8.86,8.86,0,0,0-6.2-2.5h-.1A9,9,0,0,0,156.6,39l3.7,3.7-3.9,3.9C147.8,38.7,134.6,29.1,119.2,26.3ZM162,31.9l.1-.1a.91.91,0,0,1,.7-.3.71.71,0,0,1,.6.3l13,13,.1.1a1.08,1.08,0,0,1,.2,1.4,1,1,0,0,1-.7.4,1,1,0,0,1-.7-.2l-.2-.2L162,33.2A1,1,0,0,1,162,31.9Z" fill="#000"/><path d="M42.7,32.6a9,9,0,0,0-15.2-6.3l-13,13A9.1,9.1,0,0,0,12,45.6a9.29,9.29,0,0,0,2.7,6.3,8.93,8.93,0,0,0,12.5,0l3.7-3.7,4,4A85.76,85.76,0,0,0,98.3,195.8h.1A86,86,0,0,0,184.3,110a4,4,0,0,0-4-4H143.1c-1.9-21.2-19.6-38.9-40.8-40.8V29.7a12.1,12.1,0,0,0-.1-1.9,2.49,2.49,0,0,0,.1-.8V18h5a9,9,0,0,0,0-18h-18a9,9,0,0,0,0,18h5v6.1A85.72,85.72,0,0,0,40.5,46.6l-4-4,3.7-3.7A9.1,9.1,0,0,0,42.7,32.6Zm-8,.6L21.6,46.3a1.08,1.08,0,0,1-.7.3.91.91,0,0,1-.7-.3l-.1-.1a1,1,0,0,1,0-1.4l13-13,.1-.1a.91.91,0,0,1,.8-.4,1.33,1.33,0,0,1,.7.3,1.08,1.08,0,0,1,.2,1.4ZM89.3,10a.94.94,0,0,1-1-1,.94.94,0,0,1,1-1h18a.94.94,0,0,1,1,1,.94.94,0,0,1-1,1Zm-46,45a76.52,76.52,0,0,1,51-22.9V69a4.1,4.1,0,0,0,4,4c20.1,0,37,16.9,37,37a4,4,0,0,0,4,4h36.9a77,77,0,0,1-22.9,51A77.78,77.78,0,0,1,43.3,55Z" fill="#000"/><path d="M138.2,154.1a2.72,2.72,0,0,0,2.1.9,3,3,0,0,0,2-.8l.1-.1a2.87,2.87,0,0,0,.1-4.1l-13.1-13.1a2.87,2.87,0,0,0-4.1-.1l-.1.1a2.9,2.9,0,0,0,0,4.2Z" fill="#000"/><path d="M69.9,135.9a2.86,2.86,0,0,0-2.2.6c-.3.1-.4.3-.6.5L54.2,149.9a2.87,2.87,0,0,0-.1,4.1l.1.1a2.72,2.72,0,0,0,2.1.9,3.44,3.44,0,0,0,2.1-.8l13-13a2.9,2.9,0,0,0,.5-4.1A2.84,2.84,0,0,0,69.9,135.9Z" fill="#000"/><path d="M67.2,83.1a2.72,2.72,0,0,0,2.1.9,3,3,0,0,0,2-.8l.1-.1a2.87,2.87,0,0,0,.1-4.1L58.4,65.9l-.1-.1A3,3,0,0,0,54.1,70Z" fill="#000"/></svg>