<svg id="Calque_1" data-name="Calque 1" xmlns="http://www.w3.org/2000/svg" viewBox="0 0 196 196"><path d="M76,58.4h33a3,3,0,0,0,0-6H76a3,3,0,0,0,0,6Z" fill="#000"/><path d="M142,74.4H76a3,3,0,0,0,0,6h66a3,3,0,0,0,0-6Z" fill="#000"/><path d="M142,96.4H76a3,3,0,0,0,0,6h66a3,3,0,0,0,0-6Z" fill="#000"/><path d="M142,118.4H76a3,3,0,0,0,0,6h66a3,3,0,0,0,0-6Z" fill="#000"/><path d="M142,140.4H76a3,3,0,0,0,0,6h66a3,3,0,0,0,0-6Z" fill="#000"/><path d="M109,.4H55a12,12,0,0,0-12,12v9H33a12,12,0,0,0-12,12v151a12,12,0,0,0,12,12H141a12,12,0,0,0,12-12v-9h10a12,12,0,0,0,12-12V48.4a20.16,20.16,0,0,0-5-13.7l-28-31a10.57,10.57,0,0,0-11.8-3,11,11,0,0,0-7.1,10.6v27a14,14,0,0,0,14,14h16a4,4,0,0,0,0-8h-16a6,6,0,0,1-6-6v-27a3.12,3.12,0,0,1,2.1-3.1,2.7,2.7,0,0,1,3,.8l28,31a12.72,12.72,0,0,1,3,8.4v115a4,4,0,0,1-4,4H55a4,4,0,0,1-4-4V12.4a4,4,0,0,1,4-4h54a4,4,0,0,0,0-8Zm-54,175h90v9a4,4,0,0,1-4,4H33a4,4,0,0,1-4-4V33.4a4,4,0,0,1,4-4H43v134A12,12,0,0,0,55,175.4Z" fill="#000"/></svg>