<svg id="Calque_1" data-name="Calque 1" xmlns="http://www.w3.org/2000/svg" viewBox="0 0 196 196"><path d="M3,195.35H68a4,4,0,1,0,0-8H3a4,4,0,0,0,0,8Z" fill="#000"/><path d="M188.7,33.85l4.5-9.9c3.8-8.5-.1-18.3-9-22.3s-18.4-.5-22.3,8l-6,13a4.16,4.16,0,0,0-.1,3.1,3.79,3.79,0,0,0,2.1,2.2l20.5,9.4L125.6,155l-9.4-4.3a4,4,0,0,0-5.3,2,3.73,3.73,0,0,0-.1,3.1,4.29,4.29,0,0,0,2.1,2.3l8,3.6-17,18.1,3.5-29.3,49.3-109.1,9.4,4.3a4,4,0,0,0,5.3-2,3.73,3.73,0,0,0,.1-3.1,3.79,3.79,0,0,0-2.1-2.2l-13-6a4.16,4.16,0,0,0-3.1-.1,3.79,3.79,0,0,0-2.2,2.1L99.9,147.75v.1a5.16,5.16,0,0,0-.2,1.1L95,187.45H85.6a4,4,0,1,0,0,8h13a5.85,5.85,0,0,0,1.3-.2h.2l.2-.1c.1-.1.2-.1.3-.2l.1-.1a2.09,2.09,0,0,0,.6-.4l29.2-31.2a2.59,2.59,0,0,0,.7-1.1l54.5-121.3c3.2,1.4,2.9,5.2,2,7.2l-18,40a4,4,0,0,0,2,5.3,4.16,4.16,0,0,0,3.1.1,4.29,4.29,0,0,0,2.3-2.1l18-40C197.7,45.25,194.6,36.85,188.7,33.85Zm-2.8-13.1-4.2,9.4-16.9-7.8,4.4-9.4a8.1,8.1,0,0,1,4.5-4.4,9.49,9.49,0,0,1,7.2.4C185.7,11.15,187.9,16.35,185.9,20.75Z" fill="#000"/></svg>