<svg id="Calque_1" data-name="Calque 1" xmlns="http://www.w3.org/2000/svg" viewBox="0 0 196 196"><path d="M136,178.91h12a12,12,0,0,0,12-12V144.64a64.72,64.72,0,0,0,12.4-15.73H187a4.09,4.09,0,0,0,3.33-1.75A37.26,37.26,0,0,0,196,107.91a32.53,32.53,0,0,0-5.77-18.5l-.07-.09A4.12,4.12,0,0,0,187,87.81h-8.56c-2.38-13.48-7.3-27.51-25.56-39.36-.21-7.76,3.35-16.44,6.93-19.83A4,4,0,0,0,161,25.3a3.87,3.87,0,0,0-2-2.95,31.43,31.43,0,0,0-24.36-3.21,32.81,32.81,0,0,0-18.5,13.17c-8.68-1.54-17.29-1.11-24.75-.54a19.73,19.73,0,0,0-16.29-8A21.1,21.1,0,0,0,54.41,41.15l-.18.08C33.41,52.3,19.84,70.9,17,92.29a4.12,4.12,0,0,0,.78,3,3.91,3.91,0,0,0,2.69,1.53H21a4,4,0,0,0,4-3.47C27.39,75.69,38.28,60,55,50c.17.44.36.87.55,1.31a.23.23,0,0,0,.07.16l-.33.23c-.33.23-.66.45-1,.73a3,3,0,0,0-.57,4.21h0a3.08,3.08,0,0,0,4.18.58,58.26,58.26,0,0,1,39-11.4,3,3,0,1,0,.38-6c-.86-.07-1.72-.09-2.56-.1v-.08c7.14-.43,14.77-.53,22.46,1.15a4,4,0,0,0,4.39-2,24.79,24.79,0,0,1,15.19-11.92,24,24,0,0,1,14,.43A39,39,0,0,0,145,51.22a4.13,4.13,0,0,0,1.87,3c14.85,9,21.38,19.33,24.13,38.19a4,4,0,0,0,4,3.47h9.81a24.89,24.89,0,0,1,3.19,12,29.31,29.31,0,0,1-3.3,13H170a4,4,0,0,0-3.6,2.27c-3.4,7.09-8.59,12.4-13.21,16.82a4.05,4.05,0,0,0-1.19,2.94v24a4,4,0,0,1-4,4H136a4,4,0,0,1-4-4,4,4,0,1,0-8,0A12,12,0,0,0,136,178.91ZM60.62,48.19A8.32,8.32,0,0,1,60,44.81a15,15,0,0,1,15-15c5.36,0,9.79,2.37,12.13,6.5a15.53,15.53,0,0,1,1,2.15c.21.47.36.95.49,1.32A65.2,65.2,0,0,0,60.62,48.19Z" fill="#d33d51"/><path d="M46,178.81H58a12,12,0,0,0,12-12v-8.32a91.72,91.72,0,0,0,28,4.32c12.66,0,23.4-3.35,31.3-6.25a3.84,3.84,0,0,0,2.32-2,3.91,3.91,0,0,0,.11-3.09,4,4,0,0,0-2.16-2.31,3.77,3.77,0,0,0-2.91-.07c-11,4-19.56,5.74-28.66,5.74a86.63,86.63,0,0,1-30.49-5.71,4,4,0,0,0-5.21,2.2,3.91,3.91,0,0,0-.3,1.51v14a4,4,0,0,1-4,4H46a4,4,0,0,1-4-4v-25A3.66,3.66,0,0,0,40.81,139c-8.18-8.18-13.69-17.55-15.94-27.11A4,4,0,0,0,21,108.81c-7.17,0-13-5.38-13-12a4,4,0,0,0-8,0c0,10,7.66,18.37,17.93,19.81A68.88,68.88,0,0,0,34,143.51v23.3A12,12,0,0,0,46,178.81Z" fill="#d33d51"/><path d="M154,87.81a7,7,0,1,0-7,7A7,7,0,0,0,154,87.81Zm-8,0a1,1,0,1,1,1,1A1,1,0,0,1,146,87.81Z" fill="#d33d51"/></svg>