<svg id="Calque_1" data-name="Calque 1" xmlns="http://www.w3.org/2000/svg" viewBox="0 0 196 196"><path d="M195.52,128.13a15.16,15.16,0,0,0-2.24-12,16.31,16.31,0,0,0-21.34-5.32l-34,19a4,4,0,1,0,3.89,7l34-19a8.35,8.35,0,0,1,10.67,2.65,7.33,7.33,0,0,1,1.08,5.84,7.25,7.25,0,0,1-3.71,4.55l-65,36c-5.37,2.93-10.25,4.48-14.12,4.48H46.94a4,4,0,0,0-2.39.8l-19,14A4,4,0,0,0,24,188.78a3.84,3.84,0,0,0,.75,3,4,4,0,0,0,3.2,1.6,4.31,4.31,0,0,0,2.4-.8l17.93-13.3h56.65c5.31,0,11.37-1.86,18-5.52l65-36A15.47,15.47,0,0,0,195.52,128.13Z" fill="#d33d51"/><path d="M1.53,151.11a4,4,0,0,0-.69,5.59,4,4,0,0,0,5.6.8h0l31-24a25.27,25.27,0,0,1,15.49-5.19h63a7,7,0,0,1,0,14h-37a4,4,0,0,0,0,8h37a15,15,0,0,0,0-30h-63a33.61,33.61,0,0,0-20.41,6.81Z" fill="#d33d51"/><path d="M146.57,33.51a8.22,8.22,0,0,0-5.63-2.31H118.35L105.53,6.45a8.7,8.7,0,0,0-15.18,0L77.53,31.3H54.94a8,8,0,0,0-7.53,5.12,8.17,8.17,0,0,0,1.72,8.79L70.41,66.48,62.08,94.23a8.76,8.76,0,0,0,3,9.06A7.7,7.7,0,0,0,69.82,105a8.27,8.27,0,0,0,4.27-1.25l26-17a4,4,0,0,0,1.24-5.52l0-.06a4,4,0,0,0-5.52-1.25l-.07,0-25.76,17s-.24-.24-.2-.38l9-30a4,4,0,0,0-1-4l-23-22.93c.17-.23.21-.23.29-.23h25a4.19,4.19,0,0,0,3.59-2.14l14-26.95a.88.88,0,0,1,.45-.11,2.9,2.9,0,0,1,.41.06l14,27a3.88,3.88,0,0,0,3.55,2.1h25c.07,0,.11,0,.15.12v.09l-23,23a4,4,0,0,0-1,4l9,30a.61.61,0,0,1-.17.37L112.09,88a3.93,3.93,0,0,0-3-.55,4,4,0,0,0-2.49,1.75,3.92,3.92,0,0,0-.55,3,4,4,0,0,0,1.75,2.49l14,9a7.46,7.46,0,0,0,4.14,1.12,8.3,8.3,0,0,0,8.21-8.39,8.55,8.55,0,0,0-.35-2.3l-8.33-27.73,21.28-21.27A8.21,8.21,0,0,0,146.57,33.51Z" fill="#d33d51"/></svg>