<svg id="Calque_1" data-name="Calque 1" xmlns="http://www.w3.org/2000/svg" viewBox="0 0 196 196"><path d="M174.2,36.4A98,98,0,0,0,0,98.1a96.73,96.73,0,0,0,7.3,37.5l.1.1a4.15,4.15,0,0,0,2.4,1.9,3.54,3.54,0,0,0,3-.4,4,4,0,0,0,1.9-4.6v-.1a90.13,90.13,0,1,1,117.8,48.8A89.54,89.54,0,0,1,28.2,154.7a4,4,0,0,0-5.5-.7.1.1,0,0,0-.1.1,4.09,4.09,0,0,0-.7,5.6,97.28,97.28,0,0,0,65.9,35.8,92.4,92.4,0,0,0,10.5.6,97.43,97.43,0,0,0,61.4-21.8C201.7,140.2,208.2,78.3,174.2,36.4Z" fill="#000"/><path d="M107.9,72h10.2V59h-15c-13.4,0-16,9.6-16,16v7H77V96H87v41h17V96h13l2-14H104V76A4.06,4.06,0,0,1,107.9,72Z" fill="#000"/></svg>