<svg id="Calque_1" data-name="Calque 1" xmlns="http://www.w3.org/2000/svg" viewBox="0 0 196 196"><path d="M196,173.94c0-5-1.9-21.8-26-32.8a29.7,29.7,0,0,0,6.1-18.1A30,30,0,0,0,160,96.44a3.82,3.82,0,0,0-5.3,1.5.35.35,0,0,1-.1.2,4,4,0,0,0,1.7,5.3,21.83,21.83,0,0,1-4,40.1,21.33,21.33,0,0,1-16.6-1.6A21.63,21.63,0,0,1,125.1,129a21.33,21.33,0,0,1,1.6-16.6,22,22,0,0,1,19.4-11.5,4,4,0,0,0,4-4,8,8,0,0,1,8-8,4,4,0,0,0,0-8,16,16,0,0,0-15.5,12.2,30.09,30.09,0,0,0-18.9,9.8A94.15,94.15,0,0,0,107.4,95a4,4,0,0,0-4.9,1.9l-18,35a8,8,0,0,1-7.5,4.3,8.37,8.37,0,0,1-7.4-4.3l-18-35A3.92,3.92,0,0,0,46.7,95c-6.7,2.4-19.3,7.9-29.8,17.3C5.7,122.64,0,134.24,0,146.94v12a4,4,0,0,0,4,4H98.3a27.81,27.81,0,0,0-2.3,11v7a4,4,0,0,0,4,4h92a4,4,0,0,0,4-4Zm-188-19v-8c0-10.4,4.8-20,14.2-28.4A84.26,84.26,0,0,1,46.1,104l16.5,31.7a16.37,16.37,0,0,0,14.3,8.5h.3a16.33,16.33,0,0,0,14.4-8.5l16.4-31.8a78.6,78.6,0,0,1,11.2,5.7,29.94,29.94,0,0,0,3,31.5A54.9,54.9,0,0,0,103.4,155Zm180,22H104v-3c0-15.5,18-24.3,24.3-26.9a29.65,29.65,0,0,0,17.7,5.9h.1a29.65,29.65,0,0,0,17.7-5.9c6.3,2.7,24.2,11.4,24.2,26.9Z" fill="#000"/><path d="M118.9,86.94a4,4,0,0,0,0,8A14.92,14.92,0,0,0,131.3,88a15.41,15.41,0,0,0,1.3-14.7l-12.3-29.2a44.93,44.93,0,0,0-75.1-20A3.82,3.82,0,0,0,44.1,28C49,46.84,67.5,59.94,89,59.94c9.5,0,18-4.8,24.6-9.4a49,49,0,0,1,.4,5.4,37,37,0,0,1-74,0,29.79,29.79,0,0,1,1.9-10.7v-.1a4,4,0,0,0-3.1-4.7,4,4,0,0,0-4.4,2.1l-13,30.9a15.41,15.41,0,0,0,1.3,14.7A14.26,14.26,0,0,0,35,95a4,4,0,0,0,0-8,6.8,6.8,0,0,1-5.8-3.3,7.6,7.6,0,0,1-.6-7.3L33,65.94a45.1,45.1,0,0,0,43.9,35.2,48.25,48.25,0,0,0,6.5-.4,45.34,45.34,0,0,0,37.5-34.8l4.4,10.6a7.41,7.41,0,0,1-.6,7.2A6.84,6.84,0,0,1,118.9,86.94ZM89,51.94c-17.1,0-31.6-9.5-36.4-23.8A37.07,37.07,0,0,1,104.4,31a35.7,35.7,0,0,1,7,11.3C104.4,47.44,96.8,51.94,89,51.94Z" fill="#000"/></svg>