<svg id="Calque_1" data-name="Calque 1" xmlns="http://www.w3.org/2000/svg" viewBox="0 0 196 196"><path d="M4,54H46c3.78,0,6.83-1.11,8.81-3.19l7-7A11.51,11.51,0,0,1,70,40h6a4,4,0,0,0,0-8H70A19.16,19.16,0,0,0,56.19,38.2l-7,7A4.76,4.76,0,0,1,46,46H4a4,4,0,0,0,0,8Z" fill="#000"/><path d="M93.91,40.8c.57-.64.68-.76,2-.76h31a13.66,13.66,0,0,1,9.19,3.81l12,12c1.26,1.26,4.64,4.19,8.81,4.19h35a4,4,0,0,0,0-8H157a6.07,6.07,0,0,1-3.19-1.81l-12-12A21.79,21.79,0,0,0,127,32H96a10.09,10.09,0,0,0-7.93,3.21l-19.88,21a13.57,13.57,0,0,0-.43,19.19c.14.15.28.29.43.43a14.77,14.77,0,0,0,20.62,0l13-13A2.46,2.46,0,0,1,104,62h17a2.75,2.75,0,0,1,2.19.81l39,39a6.63,6.63,0,0,1-9.38,9.38l-23-23A4,4,0,0,0,126.88,87a3.81,3.81,0,0,0-2.69,1.19A4,4,0,0,0,123,91.13a3.69,3.69,0,0,0,1.19,2.69l29,29a6.63,6.63,0,0,1-9.38,9.38l-29-29A4.11,4.11,0,0,0,112,102h-.08a3.81,3.81,0,0,0-2.69,1.19,4,4,0,0,0-1.19,2.93,3.69,3.69,0,0,0,1.19,2.69l24,24a6.63,6.63,0,0,1-9.38,9.38l-24-24A4.11,4.11,0,0,0,96.92,117a3.81,3.81,0,0,0-2.69,1.19A4.05,4.05,0,0,0,93,121.13a3.69,3.69,0,0,0,1.19,2.69l20,20a6.8,6.8,0,0,1,0,9.38,6.71,6.71,0,0,1-9.38,0,4.11,4.11,0,0,0-2.93-1.19,3.81,3.81,0,0,0-2.69,1.19A4,4,0,0,0,98,156.13a3.69,3.69,0,0,0,1.19,2.69,14.56,14.56,0,0,0,24.62-7.52,14.67,14.67,0,0,0,15-3.48,14.37,14.37,0,0,0,3.83-6.94,14.61,14.61,0,0,0,18.72-20.27,13.9,13.9,0,0,0,6.45-3.76,14.58,14.58,0,0,0,0-20.61h0l-39-39A10.43,10.43,0,0,0,121,54H104a10.43,10.43,0,0,0-7.81,3.19l-13,13A6.69,6.69,0,0,1,78.5,72a6.8,6.8,0,0,1-4.69-1.81A5.8,5.8,0,0,1,72,66.06a6.17,6.17,0,0,1,1.91-4.26Z" fill="#000"/><path d="M179,113h13a4,4,0,0,0,0-8H179a4,4,0,0,0,0,8Z" fill="#000"/><path d="M4,113.12H20.41a4.46,4.46,0,0,0,.83.85,14.56,14.56,0,0,0,10.26,4,14.36,14.36,0,0,0,2.45-.18,14.56,14.56,0,0,0,4.24,9.09,14.27,14.27,0,0,0,10.31,4.29,10.61,10.61,0,0,0,1.59-.1A13.83,13.83,0,0,0,63.84,145h.56a15.74,15.74,0,0,0,4.77-.74A14.31,14.31,0,0,0,93.62,152l2-2a15,15,0,0,0,0-20.58h0a11.78,11.78,0,0,0-7.47-4.08,15.4,15.4,0,0,0-3.27-15.16,14.32,14.32,0,0,0-9.81-4,11.87,11.87,0,0,0,.1-1.58,14.52,14.52,0,0,0-4.29-10.31,14.34,14.34,0,0,0-9.1-4.24,14.52,14.52,0,0,0-3.9-12.76c-5.4-5.39-15.22-5.39-20.62,0l-16,16a15,15,0,0,0-4,11.81H4a4,4,0,0,0,0,8Zm81.5,20a7,7,0,0,1,4.69,1.71,7.56,7.56,0,0,1,0,9.38l-2,2a7.18,7.18,0,0,1-9.38,0c-2.38-2.32-2.32-7,0-9.38l2-2A6.59,6.59,0,0,1,85.5,133.11Zm-11-19a7,7,0,0,1,4.69,1.71c2.31,2.32,2.3,7,0,9.38l-10,10a7,7,0,0,1-9.36,0,7.18,7.18,0,0,1,0-9.38l10-10A6.59,6.59,0,0,1,74.52,114.11ZM65.19,99.82a6.56,6.56,0,0,1,1.91,4.69,6.71,6.71,0,0,1-1.91,4.69l-12,12a6.63,6.63,0,0,1-9.38,0h0a6.53,6.53,0,0,1-1.91-4.69,6.75,6.75,0,0,1,1.91-4.69l12-12A6.73,6.73,0,0,1,65.19,99.82Zm-38.38-1,16-16a6.63,6.63,0,0,1,4.69-1.71,5.92,5.92,0,0,1,6.4,5.38,5.79,5.79,0,0,1,0,1,6.57,6.57,0,0,1-1.71,4.69l-16,16a6.54,6.54,0,0,1-4.69,1.71,6.54,6.54,0,0,1-4.69-1.71A7.29,7.29,0,0,1,26.81,98.82Z" fill="#000"/></svg>