<svg id="Calque_1" data-name="Calque 1" xmlns="http://www.w3.org/2000/svg" viewBox="0 0 196 196"><path d="M1.23,151c.27,17.34,14.33,30.86,32.05,30.86H89.15a3.66,3.66,0,1,0,0-7.31H33.28A24.41,24.41,0,0,1,8.53,150.68C8.35,142.47,12,134.52,18,130a5,5,0,0,0,2.1-5.94,17.28,17.28,0,0,1,2.55-16.52,17,17,0,0,1,14.89-6.85A5.49,5.49,0,0,0,43,97.54,35.21,35.21,0,0,1,75.37,76.18c1.18,0,2.37.09,3.65.18a35,35,0,0,1,5.2.91,36.57,36.57,0,0,1,11.6,5.39,39.26,39.26,0,0,1,4.66,3.93l.18.18.36.36a34.14,34.14,0,0,1,9.32,19.64,6,6,0,0,0,5,4.93,29.65,29.65,0,0,1,9.77,3,31.83,31.83,0,0,1,10.22,8.22,38.86,38.86,0,0,1,3,4.47,32.06,32.06,0,0,1,4,16.16c-.36,16.89-15.06,31.14-32,31.14h-.92a3.65,3.65,0,0,0,0,7.3h.92c20.81,0,38.89-17.44,39.35-38.17a39.77,39.77,0,0,0-4.38-18.9,44.71,44.71,0,0,0-23.65-82.72,44.45,44.45,0,0,0-19,4,3.46,3.46,0,0,0-1.92,2,3.8,3.8,0,0,0,.09,2.83,4,4,0,0,0,2.1,1.92,3.85,3.85,0,0,0,2.83-.09,36.64,36.64,0,0,1,15.8-3.29,37.34,37.34,0,0,1,19.63,69.21,37.38,37.38,0,0,0-7.49-7.22,24.31,24.31,0,0,0,7.76-9.49,3.38,3.38,0,0,0,.09-2.83,3.43,3.43,0,0,0-1.92-2,3.38,3.38,0,0,0-2.83-.09,3.41,3.41,0,0,0-2,1.92c-1.92,4.1-4.93,7-8.59,8.21a37.78,37.78,0,0,0-8.85-2.55A33.46,33.46,0,0,0,116,98.82h7.58a3.65,3.65,0,1,0,0-7.3H113A33.79,33.79,0,0,0,110.15,87h13.33a3.65,3.65,0,1,0,0-7.3H109.15c2.37-7.67,7.67-12.78,13.42-12.78,5.11,0,9.68,3.28,12.24,8.85a3.67,3.67,0,0,0,4.83,1.83,3.63,3.63,0,0,0,1.83-4.84c-3.83-8.13-10.86-13.06-18.9-13.06-9.4,0-17.53,7.4-20.63,18.63A43.82,43.82,0,0,0,87.51,70.7,34.24,34.24,0,0,1,94,61.2a3.61,3.61,0,0,0-.18-5.11,3.69,3.69,0,0,0-5.11.09,41.41,41.41,0,0,0-8.49,13,45.07,45.07,0,0,0-4.84-.28A42.54,42.54,0,0,0,36.93,93.43a24.46,24.46,0,0,0-20,9.77,25.08,25.08,0,0,0-4.11,21.73C5.52,130.87,1,140.82,1.23,151Z" fill="#d33d51"/><path d="M125.31,33.36V17.65a3.65,3.65,0,0,0-7.3,0V33.36a3.65,3.65,0,0,0,7.3,0Z" fill="#d33d51"/><path d="M191.23,90.51a3.65,3.65,0,1,0,0-7.3H175.44a3.65,3.65,0,1,0,0,7.3Z" fill="#d33d51"/><path d="M168.22,35.37,157.08,46.5A3.61,3.61,0,0,0,156,49.06a3.46,3.46,0,0,0,1.09,2.56,3.61,3.61,0,0,0,2.56,1.09,3.33,3.33,0,0,0,2.56-1.09l11.23-11.14a3.61,3.61,0,0,0,1.09-2.56,3.43,3.43,0,0,0-1.09-2.55A3.63,3.63,0,0,0,168.22,35.37Z" fill="#d33d51"/><path d="M83.68,52.71a3.31,3.31,0,0,0,2.55-1.09,3.62,3.62,0,0,0,1.1-2.56,3.47,3.47,0,0,0-1.1-2.56L75.09,35.37a3.8,3.8,0,0,0-5.2,0,3.6,3.6,0,0,0-1.1,2.55,3.47,3.47,0,0,0,1.1,2.56L81.12,51.62A3.6,3.6,0,0,0,83.68,52.71Z" fill="#d33d51"/><path d="M157.08,122.1a3.61,3.61,0,0,0-1.09,2.56,3.46,3.46,0,0,0,1.09,2.56l11.14,11.14a3.61,3.61,0,0,0,2.56,1.09,3.33,3.33,0,0,0,2.56-1.09,3.61,3.61,0,0,0,1.09-2.56,3.33,3.33,0,0,0-1.09-2.56L162.29,122.1A3.82,3.82,0,0,0,157.08,122.1Z" fill="#d33d51"/></svg>