<svg id="Calque_1" data-name="Calque 1" xmlns="http://www.w3.org/2000/svg" viewBox="0 0 196 196"><path d="M20,44A16,16,0,1,0,36,28,16,16,0,0,0,20,44Zm24,0a8,8,0,1,1-8-8A8,8,0,0,1,44,44Z" fill="#0075e3"/><path d="M58,44A16,16,0,1,0,74,28,16,16,0,0,0,58,44Zm24,0a8,8,0,1,1-8-8A8,8,0,0,1,82,44Z" fill="#0075e3"/><path d="M36,81h67v68a4,4,0,0,0,8,0V59c0-3.37,1.88-7,6-7s6,3.63,6,7v50a4,4,0,0,0,8,0v-7c0-3.79,2.75-7,6-7s6,3.21,6,7v13a4,4,0,0,0,8,0v-7c0-3.39,2.1-7,6-7s6,3.61,6,7v13.1a4,4,0,1,0,8,0v-8.44a6.28,6.28,0,0,1,1.56-3.61,5.85,5.85,0,0,1,4.44-2c3.9,0,6,3.61,6,7v31a7,7,0,0,1-.55,2,3.62,3.62,0,0,1-.13.35c-.06.14-.11.28-.18.48l-8,26A9.65,9.65,0,0,1,165,180.1H115a10.23,10.23,0,0,1-7.19-2.81l-32-32c-2.63-2.62-3.67-7.54-1-10.38a7,7,0,0,1,5-2.11,7.6,7.6,0,0,1,5.29,2.11l6,6A4,4,0,0,0,94,142.1a3.73,3.73,0,0,0,2.69-1.19A4,4,0,0,0,97.88,138a3.77,3.77,0,0,0-1.19-2.69l-6-6a15.45,15.45,0,0,0-11-4.49,14.49,14.49,0,0,0-10.62,4.51c-5.42,5.63-5,15.52,1,21.6l32,32a18,18,0,0,0,12.81,5.19h50c7.68,0,14.61-4.85,16.86-11.81l8-25.92a3.35,3.35,0,0,0,.26-.87,14.38,14.38,0,0,0,.91-4.4v-31A15.35,15.35,0,0,0,186.63,103,13.41,13.41,0,0,0,177,99a13.94,13.94,0,0,0-7.45,2.17,13.65,13.65,0,0,0-20-5.91A13.81,13.81,0,0,0,137,87a13.32,13.32,0,0,0-6,1.43V59c0-8.55-6-15-14-15s-14,6.45-14,15V73H36a29,29,0,0,1,0-58H160a29,29,0,0,1,0,58H147a4,4,0,0,0,0,8h13a37,37,0,0,0,0-74H36a37,37,0,0,0,0,74Z" fill="#0075e3"/></svg>