<svg id="Calque_1" data-name="Calque 1" xmlns="http://www.w3.org/2000/svg" viewBox="0 0 196 196"><path d="M125.33,158.69v-17a3,3,0,0,0-6,0v17a3,3,0,0,0,6,0Z" fill="#000"/><path d="M192.88,75.63l-81-68a20.69,20.69,0,0,0-26.08,0l-82,68a7.52,7.52,0,0,0-2.32,8.5,8.3,8.3,0,0,0,7.85,5.56h5a4,4,0,0,0,0-8h-5a.44.44,0,0,1-.24-.11L90.87,13.76a12.75,12.75,0,0,1,15.92,0l80.78,67.82a.29.29,0,0,1-.24.11h-159a4,4,0,0,0-4,4v92a16,16,0,0,0,16,16h116a16,16,0,0,0,16-16v-78a4,4,0,1,0-8,0v78a8,8,0,0,1-8,8h-19v-70a4,4,0,0,0-4-4h-40a4,4,0,0,0-4,4v59a4,4,0,0,0,8,0v-55h32v66h-89a8,8,0,0,1-8-8v-88h155a8.34,8.34,0,0,0,7.84-5.46A7.62,7.62,0,0,0,192.88,75.63Z" fill="#000"/></svg>