<svg id="Calque_1" data-name="Calque 1" xmlns="http://www.w3.org/2000/svg" viewBox="0 0 196 196"><path d="M17,89.06c.31,19,15.68,33.88,35,33.88H81.15l3.67,6H75a7.86,7.86,0,0,0-7.31,4.88,8.22,8.22,0,0,0,1.38,8.9l49,53a4.23,4.23,0,0,0,2.93,1.34,4.13,4.13,0,0,0,2.15-.67,4,4,0,0,0,1.47-4.91L109,154h11a6.11,6.11,0,0,0,5-2.39,6.52,6.52,0,0,0,.87-5.79l-14-48A4,4,0,0,0,110,95.42a3.83,3.83,0,0,0-3-.29,3.92,3.92,0,0,0-2.69,4.85l0,.08L117.74,146H103a4.1,4.1,0,0,0-3.3,1.7,3.8,3.8,0,0,0-.42,3.79l9.23,22.1L75,137.33v-.22a.65.65,0,0,1,.1-.15H92a4,4,0,0,0,3.47-2,3.93,3.93,0,0,0-.12-4l-21-34a4,4,0,0,0-6.8,4.1L76.21,115H52A26.65,26.65,0,0,1,25,88.84c-.19-9,3.8-17.73,10.4-22.78,3.27-2.45,2.73-5.37,2.34-6.54a19.11,19.11,0,0,1,2.76-18.16,18.57,18.57,0,0,1,16.26-7.5,5.88,5.88,0,0,0,6-3.41,38.28,38.28,0,0,1,73.29,10,6.63,6.63,0,0,0,5.45,5.45,34.35,34.35,0,0,1,29.54,35c-.39,18.49-16.42,34.12-35,34.12h-1a4,4,0,0,0,0,8h1c22.8,0,42.49-19.18,43-41.88.36-21.22-14.73-39.57-35.25-42.95A46.29,46.29,0,0,0,56,25.94a26.72,26.72,0,0,0-21.9,10.72A27.32,27.32,0,0,0,29.66,60.5C21.64,67.06,16.81,77.92,17,89.06Z" fill="#000"/></svg>