<svg id="Calque_1" data-name="Calque 1" xmlns="http://www.w3.org/2000/svg" viewBox="0 0 196 196"><path d="M28.43,153.81a3.92,3.92,0,0,0-5.47-.69.09.09,0,0,0-.1.09,4.07,4.07,0,0,0-.7,5.57,96.78,96.78,0,0,0,65.57,35.6,91.4,91.4,0,0,0,10.45.6,97,97,0,0,0,61.08-21.68c41.79-33.91,48.26-95.46,14.43-137.13A97.51,97.51,0,0,0,.37,97.53a96.21,96.21,0,0,0,7.27,37.29l.1.1a4.13,4.13,0,0,0,2.38,1.89,3.52,3.52,0,0,0,3-.4A4,4,0,0,0,15,131.84v-.1a89.67,89.67,0,1,1,117.2,48.52A87.86,87.86,0,0,1,98,187.12,88.8,88.8,0,0,1,28.43,153.81Z" fill="#000"/><circle cx="97.83" cy="59.53" r="8.68" fill="#000"/><path d="M89.53,84.75v51.34c0,5.59,2.71,8.3,8.3,8.3s8.29-2.71,8.29-8.3V84.75c0-5.58-2.71-8.3-8.29-8.3S89.53,79.17,89.53,84.75Z" fill="#000"/></svg>