<svg id="Calque_1" data-name="Calque 1" xmlns="http://www.w3.org/2000/svg" viewBox="0 0 196 196"><path d="M9.67,80.18H9.61A4,4,0,0,0,5,83.44,91,91,0,0,0,4,98.1,94.36,94.36,0,0,0,98,192a93,93,0,0,0,66.31-27.69,93.24,93.24,0,0,0,.76-131.86l-.76-.76A93,93,0,0,0,98,4,94.27,94.27,0,0,0,27,36.35a3.93,3.93,0,0,0-1,2.89,4,4,0,0,0,4.3,3.67A4,4,0,0,0,33,41.55,84.68,84.68,0,0,1,46.33,29.06l26.79,12.4a166.92,166.92,0,0,0-19.87,31L14.73,54.39a4,4,0,0,0-3-.16,3.94,3.94,0,0,0-2.28,2.05,4,4,0,0,0-.16,3,3.88,3.88,0,0,0,2,2.28L49.8,79.69a161,161,0,0,0-11.15,35.66l-26.57-12.3c-.09-1.67-.17-3.38-.17-5a77.15,77.15,0,0,1,1-13.32A4,4,0,0,0,9.67,80.18Zm55.84,96.48L81,143.73,109.6,157a111.63,111.63,0,0,1-10.49,9.19C86.76,175.45,74.89,179.19,65.51,176.66ZM135.66,120a144.81,144.81,0,0,1-20.31,30.91l-31-14.41L100,103.23ZM103.34,96l15.55-33.19L149.7,77.17a151.75,151.75,0,0,1-10.79,35.67ZM98,184a87.21,87.21,0,0,1-12.92-1,69,69,0,0,0,18.72-10.3,106.91,106.91,0,0,0,13.43-12L141.59,172A85.69,85.69,0,0,1,98,184Zm60.66-25.31a79.8,79.8,0,0,1-9.27,8.06l-26.58-12.31a159.26,159.26,0,0,0,20.05-31L174,138.06A87.35,87.35,0,0,1,158.67,158.69ZM184,98a83.51,83.51,0,0,1-6.61,32.86l-31.18-14.65a162.06,162.06,0,0,0,11-35.56L183.84,93C183.93,94.61,184,96.31,184,98ZM158.6,37.31a85.52,85.52,0,0,1,24.23,46.3L158.49,72.4a107.51,107.51,0,0,0,.62-17.85,71.49,71.49,0,0,0-3.85-20.43C156.4,35.12,157.52,36.22,158.6,37.31Zm-7.39,17.52a87.75,87.75,0,0,1-.35,13.85l-28.52-13.2,15.48-32.93C145.72,28.19,150.46,39.55,151.21,54.83ZM130.5,19.25,115,52.18,86.52,39c13.18-13.17,26.67-20.4,38.09-20.4A24.85,24.85,0,0,1,130.5,19.25ZM54.23,24A85.48,85.48,0,0,1,98,12a83,83,0,0,1,13.16,1C100.39,16.74,89,24.55,78.78,35.39ZM80.77,45.12l30.91,14.36L96.13,92.67,60.46,75.93A147.89,147.89,0,0,1,80.77,45.12Zm-23.65,38L92.68,99.88,77,133.17,46.12,118.81A152.57,152.57,0,0,1,57.12,83.14Zm-12,44.06,28.52,13.28L58.2,173.42c-7.9-5.64-12.64-17-13.39-32.28A86.53,86.53,0,0,1,45.16,127.2Zm-7.73-3.6a105.39,105.39,0,0,0-.62,17.85,69.59,69.59,0,0,0,3.83,20.3c-1.14-1-2.25-2.09-3.32-3.16a85.22,85.22,0,0,1-24.13-46.2Z" fill="#d33d51"/></svg>