<svg id="Calque_1" data-name="Calque 1" xmlns="http://www.w3.org/2000/svg" viewBox="0 0 196 196"><path d="M0,69.82V147a29.68,29.68,0,0,0,29.36,30H166a30,30,0,0,0,30-30V84a4,4,0,0,0-8,0v63a22,22,0,0,1-22,22H30A21.76,21.76,0,0,1,8,147.48V70H192a4,4,0,0,0,4-4V49a29.68,29.68,0,0,0-29.35-30H30A29.68,29.68,0,0,0,0,48.36V49a4,4,0,0,0,8,0A21.76,21.76,0,0,1,29.52,27H166a21.76,21.76,0,0,1,22,21.52V62H8A7.91,7.91,0,0,0,0,69.82Z" fill="#565656"/><path d="M98,106a14,14,0,0,0,0,28,13.59,13.59,0,0,0,9.58-3.84A12.08,12.08,0,0,0,116,134a12.46,12.46,0,0,0,12-12v-2a30,30,0,1,0-30,30,31.41,31.41,0,0,0,17.24-5.66,4,4,0,1,0-4.51-6.66A22.86,22.86,0,0,1,98,142a22,22,0,1,1,22-22v2a4.75,4.75,0,0,1-4,4,4.75,4.75,0,0,1-4-4v-2A14,14,0,0,0,98,106Zm.12,20H98a6,6,0,1,1,6-6A5.93,5.93,0,0,1,98.12,126Z" fill="#565656"/><path d="M34,45a7,7,0,1,0-7,7A7,7,0,0,0,34,45Zm-8,0a1,1,0,1,1,1,1A1,1,0,0,1,26,45Z" fill="#565656"/><path d="M58,45a7,7,0,1,0-7,7A7,7,0,0,0,58,45Zm-8,0a1,1,0,1,1,1,1A1,1,0,0,1,50,45Z" fill="#565656"/><path d="M82,45a7,7,0,1,0-7,7A7,7,0,0,0,82,45Zm-8,0a1,1,0,1,1,1,1A1,1,0,0,1,74,45Z" fill="#565656"/></svg>