<svg id="Calque_1" data-name="Calque 1" xmlns="http://www.w3.org/2000/svg" viewBox="0 0 196 196"><path d="M28.2,154.7a4,4,0,0,0-5.5-.7.1.1,0,0,0-.1.1,4.09,4.09,0,0,0-.7,5.6,97.28,97.28,0,0,0,65.9,35.8,92.4,92.4,0,0,0,10.5.6,97.43,97.43,0,0,0,61.4-21.8c42-34.1,48.5-96,14.5-137.9A98,98,0,0,0,0,98.1a96.73,96.73,0,0,0,7.3,37.5l.1.1a4.15,4.15,0,0,0,2.4,1.9,3.54,3.54,0,0,0,3-.4,4,4,0,0,0,1.9-4.6v-.1a90.13,90.13,0,1,1,117.8,48.8A89.54,89.54,0,0,1,28.2,154.7Z" fill="#000"/><rect x="63" y="88" width="16" height="45" fill="#000"/><path d="M89,88v45h16V107a6,6,0,0,1,12,0v26h16V108c0-13.1-6.7-19-16-19a18.69,18.69,0,0,0-12,4V88Z" fill="#000"/><circle cx="71" cy="71" r="8" fill="#000"/></svg>