<svg id="Calque_1" data-name="Calque 1" xmlns="http://www.w3.org/2000/svg" viewBox="0 0 196 196"><path d="M80.74,160.35h34.52a32.73,32.73,0,0,0,28.28-16.3,9.87,9.87,0,0,0-.11-9.77,9.3,9.3,0,0,0-8-4.61H60.6a9.33,9.33,0,0,0-8.11,4.59,9.81,9.81,0,0,0-.11,9.79A33.08,33.08,0,0,0,80.74,160.35Zm-21.61-22.2a1.61,1.61,0,0,1,1.48-.79h74.8a1.59,1.59,0,0,1,1.48.79,2,2,0,0,1,0,2v0a25.05,25.05,0,0,1-21.61,12.47H80.75a25,25,0,0,1-21.62-12.47A2,2,0,0,1,59.13,138.15Z" fill="#d33d51"/><path d="M51.2,57.84A24.36,24.36,0,0,0,34,71.55c-1.92,4.36-3.84,9.74-5.76,15H15.53A13.6,13.6,0,0,0,2.1,99.94v1a3.84,3.84,0,0,0,3.31,3.84c3.61.53,7.39,1.08,10.94,1.43l-3,2.21-.11.1c-.07.07-.08.08-.14.1l-.13.08-.12.11c-10.94,10.93-9.3,31.71-7.85,50a16.63,16.63,0,0,0,6.71,12.11v3.92A17.26,17.26,0,0,0,29,192.1h8.63a17.39,17.39,0,0,0,17.17-15.28c13.55.78,27.9,1.19,42.68,1.19,14.1,0,28.87-.44,43.9-1.3a17.31,17.31,0,0,0,17.19,15.39h8.63a17.26,17.26,0,0,0,17.26-17.26v-3.63a17.88,17.88,0,0,0,6.71-12.31c1.45-17.34,3.26-38.93-7.85-50.05a2.56,2.56,0,0,0-.56-.42l-3-2.22c3.5-.36,7.25-.83,11-1.39A3.83,3.83,0,0,0,194,101v-1a13.83,13.83,0,0,0-13.52-13.51H167.83c-2.15-6.08-4.15-11.16-6-15.11-.07-.14-.14-.28-.2-.43a.94.94,0,0,0-.12-.3A37.64,37.64,0,0,0,122.23,7.29a3.86,3.86,0,1,0,3.22,7,29.2,29.2,0,0,1,12.83-2.59,29.73,29.73,0,1,1-29.73,29.73c0-8.15,2.63-15.18,7.62-20.35a3.93,3.93,0,0,0,1-2.71A3.64,3.64,0,0,0,116,15.7a3.83,3.83,0,0,0-5.38.15c-6.32,6.72-9.65,15.6-9.65,25.69A37,37,0,0,0,103,53.88C84.67,53.51,65.87,55,51.2,57.84ZM10.28,97.63a5.85,5.85,0,0,1,5.25-3.44h10c-.17.48-.37,1-.5,1.41-.4,1.18-.81,2.31-1.2,3.36A121.79,121.79,0,0,1,10.28,97.63Zm3.09,25.42a125.66,125.66,0,0,1,14.87,1.63c1.26,1.15,2,3.22,2.66,5.1.07.26.07.62.14.95H12A44.53,44.53,0,0,1,13.37,123.05Zm24.21,61.29H29a9.6,9.6,0,0,1-9.59-9.59v-1c9.79,1.11,18.87,1.89,27.71,2.43A9.6,9.6,0,0,1,37.58,184.34ZM182.64,123a55.45,55.45,0,0,1,1.45,7.67H165a9.22,9.22,0,0,1,.12-1,13.48,13.48,0,0,1,2.68-5.09A125.73,125.73,0,0,1,182.64,123Zm-2.16-28.76a5.89,5.89,0,0,1,5.24,3.42c-4.71.64-9.5,1.22-13.5,1.35-.39-1-.79-2.17-1.2-3.34-.16-.47-.32-1-.5-1.43ZM106.67,61.46a37.36,37.36,0,0,0,48.26,13.31c2.46,5.4,5,12.47,7.17,18.79l.5,1.43c.62,1.75,1.24,3.55,1.86,5.24-29.38,2.31-80.33,2.56-121.93.57a3.74,3.74,0,0,0-4,3.48c0,.06,0,.13,0,.2a3.74,3.74,0,0,0,1.06,2.83,3.66,3.66,0,0,0,2.67,1.17c19,.88,39.5,1.34,59.13,1.34,27.61,0,51.53-.81,67.44-2.27l9.18,6.71c.36.44.7.88,1,1.34a127.92,127.92,0,0,0-13.65,1.73A3.08,3.08,0,0,0,164,118c-3.34,2.29-5,5.94-6.24,9.54v.12a1.39,1.39,0,0,0-.1.33c-.73,3.27-.46,5.92.84,7.9a5.88,5.88,0,0,0,4.44,2.52h21.48c0,6.51-.51,13.37-1.06,19.86-.25,3-2.27,6.29-4.56,7.48a3.83,3.83,0,0,0-2.16,3.44v5.76a9.59,9.59,0,0,1-9.59,9.59h-8.63a9.58,9.58,0,0,1-9.49-8.22c6-.38,11.87-.85,17.58-1.38a3.85,3.85,0,0,0-.78-7.67,736.86,736.86,0,0,1-145.95-1c-3.74-.44-6.87-4-7.12-8.05-.49-6-1.09-13.29-1.06-20h21.6a6.47,6.47,0,0,0,4.4-2.49c1.86-2.57,1.36-6,.86-7.9a1.47,1.47,0,0,0-.2-.61c-1.3-3.65-3-7.31-6.28-9.44a4.48,4.48,0,0,0-1.41-.63A134.51,134.51,0,0,0,17,115.5a14,14,0,0,1,1.08-1.22L28.3,106.8a3.33,3.33,0,0,0,1.34-1.71C31,101.75,32.52,97.42,34,93.25l.56-1.6c2-5.76,4.33-12.24,6.51-17.12A16.25,16.25,0,0,1,52.63,65.2C68.1,62.2,87.76,60.84,106.67,61.46Z" fill="#d33d51"/><path d="M115.36,46.53a3.73,3.73,0,0,0,1.3,2.54L130,60.72a5.25,5.25,0,0,0,7.27-.36l23-24.93a3.81,3.81,0,1,0-5.63-5.14L133.31,53.34l-11.67-10a3.93,3.93,0,0,0-2.88-1,3.78,3.78,0,0,0-2.53,1.31A3.85,3.85,0,0,0,115.36,46.53Z" fill="#d33d51"/></svg>