<svg id="Calque_1" data-name="Calque 1" xmlns="http://www.w3.org/2000/svg" viewBox="0 0 196 196"><path d="M28,164H168a28,28,0,0,0,28-28V59a28,28,0,0,0-28-28H28A28,28,0,0,0,0,59v77A28,28,0,0,0,28,164ZM28,39H168a19.91,19.91,0,0,1,17.22,9.85l-74.75,60c-7.62,6.1-17.41,6.1-24.94,0l-74.75-60A19.91,19.91,0,0,1,28,39ZM8,59a19,19,0,0,1,.1-2l58.2,46.64L20.59,139.81a3.93,3.93,0,0,0-1.5,2.66,4.06,4.06,0,0,0,.85,3,4.22,4.22,0,0,0,3.16,1.45,4.29,4.29,0,0,0,2.52-.82L72.8,108.8l7.87,6.3a27.45,27.45,0,0,0,35.05,0l7.88-6.3,47.24,37.35a4.32,4.32,0,0,0,2.46.77,4.23,4.23,0,0,0,3.19-1.49,4,4,0,0,0,.82-2.94,3.93,3.93,0,0,0-1.49-2.65L130.1,103.59,188.26,57a16.66,16.66,0,0,1,.14,2v76H188v1a20,20,0,0,1-20,20H28A20,20,0,0,1,8,136Z" fill="#000"/></svg>