<svg id="Calque_1" data-name="Calque 1" xmlns="http://www.w3.org/2000/svg" viewBox="0 0 196 196"><path d="M101,82V65a3,3,0,0,0-6,0V82a3,3,0,0,0,6,0Z" fill="#000"/><path d="M75.27,88.93A3,3,0,0,0,76.94,85v0l-6-15.07a3,3,0,0,0-5.56,2.24l6,15A3,3,0,0,0,74.2,89.1,2.61,2.61,0,0,0,75.27,88.93Z" fill="#000"/><path d="M54,102a3,3,0,0,0,2.11-.89,3,3,0,0,0,0-4.22l-11-11a3,3,0,0,0-4.22,4.22l11,11A3,3,0,0,0,54,102Z" fill="#000"/><path d="M27.07,110.17a3,3,0,0,0-2.48,5.46l.24.1,14.92,6a2.66,2.66,0,0,0,1.15.2A3.16,3.16,0,0,0,43.73,120a3,3,0,0,0-1.66-3.9v0Z" fill="#000"/><path d="M98,44A98.11,98.11,0,0,0,0,142a4,4,0,0,0,4,4H67a4,4,0,0,0,0-8H8a90.07,90.07,0,0,1,180,0h-6a82.85,82.85,0,0,0-24-54.78A3.8,3.8,0,0,0,155.2,82a4.08,4.08,0,0,0-2.84,1.08l-18,17a3.9,3.9,0,0,0-1.19,2.81,4.07,4.07,0,0,0,1.19,2.91,51.53,51.53,0,0,1,7.5,9.59L111.2,131a17,17,0,0,0-30,11,4,4,0,0,0,8,0,9,9,0,0,1,18,0,4,4,0,0,0,4,4h38v2a4,4,0,0,0,8,0v-6a59.42,59.42,0,0,0-4.61-23.13l8.48-4.29a4.16,4.16,0,0,0,2-2.48,3.65,3.65,0,0,0-.32-2.87,4.16,4.16,0,0,0-2.48-2,3.64,3.64,0,0,0-2.85.31L149,111.81a58.21,58.21,0,0,0-6.1-8.52L155.2,91.63A75.15,75.15,0,0,1,174.3,142v6a4,4,0,0,0,8,0v-2h10a4,4,0,0,0,4-4A98.53,98.53,0,0,0,98,44Zm47.29,78.48A50.65,50.65,0,0,1,148.94,138h-34Z" fill="#000"/><circle cx="98" cy="142" r="6" fill="#000"/><path d="M122,89a3.16,3.16,0,0,0,2.83-1.93l6-15a3,3,0,0,0-5.56-2.24l-6,15a3,3,0,0,0,1.51,3.83A2,2,0,0,0,122,89Z" fill="#000"/></svg>