<svg id="Calque_1" data-name="Calque 1" xmlns="http://www.w3.org/2000/svg" viewBox="0 0 196 196"><path d="M.23,107.59v.13c2.62,6.55,17.26,39.86,48.26,52.16a82,82,0,0,0,29.14,5.41c1.55,0,3.09,0,4.6-.14a97.54,97.54,0,0,0,13.13-2.32c.92-.18,1.77-.37,2.6-.56.83.19,1.67.38,2.58.56a97.83,97.83,0,0,0,13.15,2.32c1.54.1,3.06.1,4.67.1a82.76,82.76,0,0,0,29.07-5.37c29.77-11.81,44.46-43,48.26-52.25l.09-.32a4.6,4.6,0,0,0,.18-1.16c0-2.94-1.7-3.63-8.19-6.23a105.3,105.3,0,0,0-14.83-4.64,4,4,0,0,0-2.61,7.56,3.71,3.71,0,0,0,.73.18,111.26,111.26,0,0,1,15.7,5.15c-4.2,9.06-17.91,34.64-42.23,44.25a72,72,0,0,1-30.27,4.73,18.62,18.62,0,0,1-2.3-.23,93.27,93.27,0,0,0,10-5.41c10.82-6.52,25.44-17.83,33.58-34.73a68.43,68.43,0,0,0,5.28-15.94c2.31-11.65,1.22-22.87,0-31.32a109.47,109.47,0,0,0-6.26-24.94,3.94,3.94,0,0,0-5-2.28A154.14,154.14,0,0,0,132,50.57,3.91,3.91,0,0,0,130.05,53a4,4,0,0,0,.34,3.06,3.9,3.9,0,0,0,2.39,2,4.05,4.05,0,0,0,3.07-.34c5.22-2.84,9.81-4.91,12.72-6.22A117.17,117.17,0,0,1,153,70.59c1.18,8.46,2.11,18.48,0,28.66a60.68,60.68,0,0,1-4.72,14.07c-7.28,15.12-20.53,25.33-30.4,31.33q-2.89,1.78-5.79,3.25c8.38-11.08,19.81-30.17,19.81-51.9,0-14.68-5.07-29.8-15.06-44.95a125.63,125.63,0,0,0-16.13-19.86l-.1-.1a4,4,0,0,0-5.49,0C93.84,32.2,63.8,60.35,63.8,96c0,21.58,11.35,40.6,19.73,51.69-1.82-.94-3.7-2-5.62-3.15-8-4.7-22.64-15-30.31-31.07a61.24,61.24,0,0,1-4.72-14.06c-2-10-1.09-20.08,0-28.67A120.08,120.08,0,0,1,47.3,51.42c2.91,1.3,7.5,3.38,12.7,6.23a4,4,0,1,0,3.85-7.06,155.24,155.24,0,0,0-17.51-8.25,4,4,0,0,0-5.1,2.26A118.23,118.23,0,0,0,35,69.65C33.71,79.4,32.82,90,35,101a72.65,72.65,0,0,0,5.28,15.93C48.3,133.65,63,145,73.89,151.65c3.27,1.95,6.65,3.76,10.08,5.4q-1.27.18-2.34.24a71.84,71.84,0,0,1-30.26-4.73c-23.6-9.33-37.13-33.36-42.23-44.25a110,110,0,0,1,15.7-5.15A4,4,0,0,0,26,95.85a3.86,3.86,0,0,0-3-.47A105.84,105.84,0,0,0,8.16,100C1.72,102.52,0,103.2,0,106.15A5.85,5.85,0,0,0,.23,107.59ZM72,96.15c0-26,19-48.78,26-56.25a116.68,116.68,0,0,1,12.26,15.75C119.38,69.47,124,83.11,124,96.15c0,26.48-19,49-26,56.36C91,145.15,72,122.65,72,96.15Z" fill="#565656"/></svg>