<svg id="Calque_1" data-name="Calque 1" xmlns="http://www.w3.org/2000/svg" viewBox="0 0 196 196"><path d="M61,81h44a3,3,0,0,0,0-6H61a3,3,0,0,0,0,6Z" fill="#000"/><path d="M61,95h44a3,3,0,0,0,0-6H61a3,3,0,0,0,0,6Z" fill="#000"/><path d="M61,109.1h44a3,3,0,0,0,0-6H61a3,3,0,0,0,0,6Z" fill="#000"/><circle cx="108" cy="177.1" r="7" fill="#000"/><path d="M110,21a3,3,0,0,0,0-6H92a3,3,0,0,0,0,6Z" fill="#000"/><path d="M124,21a3,3,0,0,0,0-6h-4a3,3,0,0,0,0,6Z" fill="#000"/><path d="M159,35a4,4,0,0,0,4-4V18c0-9.6-7.5-18-16-18H69A15.74,15.74,0,0,0,56.9,5.4a4.06,4.06,0,0,0-1,3A3.76,3.76,0,0,0,57.3,11a4.06,4.06,0,0,0,3,1A4.2,4.2,0,0,0,63,10.6a8,8,0,0,1,6-2.7h78c4.6,0,8,5.3,8,10v9H57a4,4,0,0,0-4,4v23a20.06,20.06,0,0,0-20,20v36a20,20,0,0,0,20,20V174c0,14.6,6.6,22,16,22h78c9.4,0,16-7.4,16-18V46a4,4,0,0,0-8,0V158.1H61v-32a4,4,0,0,0-4-4H53a12,12,0,0,1-12-12V74A12,12,0,0,1,53,62h60a12,12,0,0,1,12,12v36a12,12,0,0,1-12,12h-8a4,4,0,0,0-4,4v8.4L89.8,123.2A3.63,3.63,0,0,0,87,122H77a4,4,0,0,0,0,8h8.4l16.8,16.8a4,4,0,0,0,4.3.9h.1a4.31,4.31,0,0,0,2.5-3.7V130h4a20.06,20.06,0,0,0,20-20V74a20,20,0,0,0-20-20H61V35ZM61,166.1h94v12c0,4.6-2.1,10-8,10H69c-5.9,0-8-5.4-8-10Z" fill="#000"/></svg>