<svg id="Calque_1" data-name="Calque 1" xmlns="http://www.w3.org/2000/svg" viewBox="0 0 196 196"><path d="M95,65V82a3,3,0,0,0,6,0V65a3,3,0,0,0-6,0Z" fill="#d33d51"/><path d="M121.94,88.92A3.17,3.17,0,0,0,124.73,87l6-15a2.5,2.5,0,0,0,.13-2,3.18,3.18,0,0,0-1.75-1.86,3,3,0,0,0-3.9,1.66l-6,15a3,3,0,0,0,1.58,3.86A2.53,2.53,0,0,0,121.94,88.92Z" fill="#d33d51"/><path d="M154.67,85.89a3,3,0,0,0-3.78,0l-11,11a3,3,0,0,0,0,4.22,2.94,2.94,0,0,0,4.17,0l.05,0,11-11A3,3,0,0,0,154.67,85.89Z" fill="#d33d51"/><path d="M152.21,117.82a2.9,2.9,0,0,0,0,2.24A3,3,0,0,0,155,122a2.46,2.46,0,0,0,1.07-.17l15-6a3,3,0,0,0-2.24-5.56l-15,6A3,3,0,0,0,152.21,117.82Z" fill="#d33d51"/><path d="M196,142A98,98,0,0,0,0,142a4,4,0,0,0,4,4H14v2a4,4,0,0,0,8,0v-6A75.17,75.17,0,0,1,41.16,91.63l12.26,11.54a63.18,63.18,0,0,0-6.11,8.51l-8.44-4.26a3.9,3.9,0,0,0-3.1-.28,3.8,3.8,0,0,0-2.25,2,3.9,3.9,0,0,0-.28,3.1,3.82,3.82,0,0,0,2,2.26l8.46,4.28a59.37,59.37,0,0,0-4.6,23.12v6a4,4,0,0,0,8,0v-2h38a4,4,0,0,0,4-4,9,9,0,0,1,18,0,4,4,0,0,0,8,0,17,17,0,0,0-30-11L54.4,115.39a48,48,0,0,1,7.51-9.58,4.07,4.07,0,0,0,1.19-2.91,4.18,4.18,0,0,0-1.21-2.83l-18-17a4,4,0,0,0-5.59.14,82.8,82.8,0,0,0-24,54.8H8a90.1,90.1,0,0,1,180,0H129a4,4,0,0,0,0,8h63A4,4,0,0,0,196,142ZM81.19,138h-34a50.65,50.65,0,0,1,3.65-15.52Z" fill="#d33d51"/><path d="M104,142a5.94,5.94,0,0,0-5.88-6H98a6,6,0,1,0,6,6Z" fill="#d33d51"/><path d="M67,68.13l-.1,0a3,3,0,0,0-1.66,3.9l6,15a3,3,0,0,0,2.84,2,2.46,2.46,0,0,0,1.07-.17A3,3,0,0,0,76.84,85l-6-15A3,3,0,0,0,67,68.13Z" fill="#d33d51"/></svg>