<svg id="Calque_1" data-name="Calque 1" xmlns="http://www.w3.org/2000/svg" viewBox="0 0 196 196"><circle cx="98" cy="177.1" r="7" fill="#d33d51"/><path d="M100,21a3,3,0,0,0,0-6H82a3,3,0,0,0,0,6Z" fill="#d33d51"/><path d="M114,21a3,3,0,0,0,0-6h-4a3,3,0,0,0,0,6Z" fill="#d33d51"/><path d="M43,32V174c0,14.6,6.6,22,16,22h78c9.4,0,16-7.4,16-22V45c0-2-1.8-3-4-3a4,4,0,0,0-4,4V158.1H51V35h98a4,4,0,0,0,4-4V18c0-9.6-7.5-18-16-18H59A15.74,15.74,0,0,0,46.9,5.4a4.06,4.06,0,0,0-1,3,4.2,4.2,0,0,0,1.4,2.7,4.06,4.06,0,0,0,3,1A4.2,4.2,0,0,0,53,10.7,7.82,7.82,0,0,1,58.9,8h78c4.6,0,8,5.3,8,10v9H48C44,27,43,29,43,32Zm8,134.1h94v12c0,4.6-2.1,10-8,10H59c-5.9,0-8-5.4-8-10Z" fill="#d33d51"/></svg>