<svg id="Calque_1" data-name="Calque 1" xmlns="http://www.w3.org/2000/svg" viewBox="0 0 196 196"><path d="M61.1,106a4,4,0,0,0,4,4h6c4.5,15.2,15.8,25,29,25,10.7,0,20.9-7.8,26.6-20.4a3.73,3.73,0,0,0,.1-3.1,3.93,3.93,0,0,0-5.1-2.4,4,4,0,0,0-2.3,2.1c-4.3,9.5-11.9,15.6-19.4,15.6-8.9,0-16.7-6.5-20.6-17H101a4,4,0,0,0,0-8H77.5a30.27,30.27,0,0,1-.4-6c0-1.4.1-2.7.2-4h23.8a4,4,0,0,0,0-8H78.7c3.4-13,12.1-22,21.4-22,7.8,0,15.3,5.6,19.4,14.6a4,4,0,0,0,2.3,2.1,4.16,4.16,0,0,0,3.1-.1,4,4,0,0,0,2-5.3C121.3,61.3,111.1,54,100.1,54,86.6,54,74.5,66.3,70.5,84H65.1a4,4,0,1,0,0,8h4.1c-.1,1.3-.1,2.7-.1,4a40.32,40.32,0,0,0,.4,6H65.1A4,4,0,0,0,61.1,106Z" fill="#d33d51"/><path d="M39,54a4,4,0,0,0-4,4V191a4,4,0,0,0,4,4c6.4,0,9.1-6.7,11.2-12,.8-2,2.7-6.7,3.8-7,1.1.4,2.8,4.8,3.7,7,2.1,5.4,4.7,12,11.1,12s9-6.7,11.1-12c.8-2.1,2.6-6.6,3.7-7,1.1.4,2.8,4.8,3.7,7,2.1,5.4,4.7,12,11.1,12s9-6.7,11-12c.8-2.2,2.6-6.6,3.7-7,1.1.4,2.8,4.8,3.6,6.9,2.1,5.4,4.7,12.1,11.1,12.1s9-6.7,11-12c.8-2.2,2.6-6.6,3.7-7,1.1.4,2.8,4.8,3.6,6.9,2.1,5.4,4.7,12.1,11.1,12.1a4,4,0,0,0,4-4V5a4,4,0,0,0-4-4c-6.4,0-9,6.7-11.1,12-.8,2.1-2.6,6.6-3.7,7-1.1-.4-2.8-4.8-3.7-7C136.6,7.7,134,1,127.6,1s-9,6.7-11.1,12c-.8,2.1-2.6,6.6-3.7,7-1.1-.4-2.8-4.8-3.7-7C107,7.7,104.4,1,98,1S89,7.6,86.9,13c-.7,1.7-2.7,7-3.8,7-1.1-.4-2.8-4.8-3.6-6.9C77.5,7.7,74.9,1,68.4,1s-9,6.7-11,12c-.8,2.2-2.6,6.6-3.7,7-1.1-.4-2.8-4.8-3.6-6.9C48.1,7.7,45.5,1,39,1a4,4,0,0,0-4,4V32a4,4,0,0,0,8,0V16.8C45,22,47.6,28,53.7,28c6.5,0,9.1-6.7,11.1-12.1.8-2.1,2.5-6.5,3.6-6.9,1.1.4,2.8,4.8,3.7,7,2.1,5.4,4.6,12,11,12s9.1-6.7,11.2-12.1c.8-2.1,2.6-6.6,3.7-6.9,1.1.4,2.8,4.8,3.7,7,2.1,5.4,4.7,12,11.1,12s9-6.7,11.1-12c.8-2.1,2.6-6.6,3.7-7,1.1.4,2.8,4.8,3.7,7,2.1,5.4,4.7,12,11.1,12,6.1,0,8.8-6,10.8-11.2V179.2c-2-5.2-4.6-11.2-10.7-11.2-6.5,0-9.1,6.7-11.1,12.1-.8,2.1-2.5,6.5-3.6,6.9-1.1-.4-2.8-4.8-3.7-7-2.1-5.3-4.6-12-11-12s-9,6.7-11.1,12.1c-.8,2.1-2.5,6.5-3.6,6.9-1.1-.4-2.8-4.8-3.7-7-2.1-5.4-4.7-12-11.1-12s-9,6.7-11.1,12c-.8,2.1-2.6,6.6-3.7,7-1.1-.4-2.8-4.8-3.7-7-2.1-5.4-4.7-12-11.1-12-6.2,0-8.9,6.2-11,11.5V58A4,4,0,0,0,39,54Z" fill="#d33d51"/></svg>