<svg id="Calque_1" data-name="Calque 1" xmlns="http://www.w3.org/2000/svg" viewBox="0 0 196 196"><path d="M196,136.9a29.7,29.7,0,0,0-29.4-30,1.27,1.27,0,0,1-.6.1,30,30,0,0,0,0,60,31,31,0,0,0,17.2-5.7,4,4,0,0,0-4.5-6.7,22.55,22.55,0,0,1-12.7,4.3,22,22,0,1,1,22-22v2a4,4,0,0,1-8,0v-2a14,14,0,1,0-4.4,10.2,12.18,12.18,0,0,0,8.4,3.8,12.45,12.45,0,0,0,12-12ZM166.1,143H166a6,6,0,1,1,6-6A5.93,5.93,0,0,1,166.1,143Z" fill="#000"/><path d="M49.3,104.1a3.33,3.33,0,0,0,3.3,3.3H74.4a3.3,3.3,0,0,0,0-6.6H52.6A3.33,3.33,0,0,0,49.3,104.1Z" fill="#000"/><path d="M46.9,104.1a3.33,3.33,0,0,0-3.3-3.3H21.8a3.3,3.3,0,1,0,0,6.6H43.6A3.33,3.33,0,0,0,46.9,104.1Z" fill="#000"/><path d="M39.8,121.9H91.5a3.3,3.3,0,0,0,0-6.6H39.8a3.3,3.3,0,1,0,0,6.6Z" fill="#000"/><path d="M108.5,104.1a3.33,3.33,0,0,0-3.3-3.3H83.4a3.3,3.3,0,0,0,0,6.6h21.8A3.33,3.33,0,0,0,108.5,104.1Z" fill="#000"/><path d="M21.8,115.3a3.3,3.3,0,1,0,0,6.6h8.9a3.3,3.3,0,0,0,0-6.6Z" fill="#000"/><path d="M46,61.2H31.5a13,13,0,0,0-13,13V75a13.1,13.1,0,0,0,13,13H46A13,13,0,0,0,59,75v-.8A13,13,0,0,0,46,61.2ZM52.4,75A6.44,6.44,0,0,1,46,81.4H31.5A6.44,6.44,0,0,1,25.1,75v-.8a6.44,6.44,0,0,1,6.4-6.4H46a6.44,6.44,0,0,1,6.4,6.4Z" fill="#000"/><path d="M139.2,104.1a3.33,3.33,0,0,0-3.3-3.3H114.1a3.3,3.3,0,1,0,0,6.6h21.8A3.33,3.33,0,0,0,139.2,104.1Z" fill="#000"/><path d="M0,120.3a23.52,23.52,0,0,0,23.4,23.5l99.7-.1a4.1,4.1,0,1,0,0-8.2H23.5A15.36,15.36,0,0,1,8.2,120.2V52.5A15.22,15.22,0,0,1,23.4,37.2h113a15.36,15.36,0,0,1,15.3,15.3V93a4.1,4.1,0,1,0,8.2,0V52.5A23.52,23.52,0,0,0,136.5,29H23.5A23.47,23.47,0,0,0,0,52.5Z" fill="#000"/></svg>