<svg id="Calque_1" data-name="Calque 1" xmlns="http://www.w3.org/2000/svg" viewBox="0 0 196 196"><path d="M98,120A22,22,0,1,0,76,98,22,22,0,0,0,98,120Zm0-36A14,14,0,1,1,84,98,14,14,0,0,1,98,84Z" fill="#000"/><path d="M7.46,81.85a26.64,26.64,0,0,0,5,37.34C21.87,126.87,55.82,152,98,152s76.13-25.13,85.51-32.83a26.64,26.64,0,0,0,0-42.36C174.13,69.13,140.16,44,98,44S21.9,69.1,12.48,76.82h0A26.33,26.33,0,0,0,7.46,81.85Zm171,1.22.15.13v0a18.52,18.52,0,0,1,0,29.6l-.18.16a152.93,152.93,0,0,1-43.55,24.43c.87-.82,1.72-1.66,2.53-2.53a54,54,0,0,0-2.53-76.33A151.11,151.11,0,0,1,178.46,83.07Zm-161.07.09.18-.16A149.21,149.21,0,0,1,61.16,58.56,53.53,53.53,0,0,0,44,98a4,4,0,0,0,8,0,46,46,0,1,1,46,46C58.53,144,26.42,120.24,17.53,113l-.14-.13v-.06a18.52,18.52,0,0,1,0-29.6Z" fill="#000"/></svg>