<svg id="Calque_1" data-name="Calque 1" xmlns="http://www.w3.org/2000/svg" viewBox="0 0 196 196"><path d="M196,156V146a4,4,0,0,0-4-4H25a4,4,0,0,0,0,8H188v6a3.8,3.8,0,0,1-3.6,4H12a3.82,3.82,0,0,1-4-3.7V150h4a4,4,0,0,0,4-4V47A12,12,0,0,1,28,35H168a12,12,0,0,1,12,12v85a4,4,0,0,0,8,0V47a20.06,20.06,0,0,0-20-20H28A20.06,20.06,0,0,0,8,47v95H4a4,4,0,0,0-4,4v10a11.84,11.84,0,0,0,11.7,12H184a11.84,11.84,0,0,0,12-11.7Z" fill="#0075e3"/><path d="M25,62v62a12,12,0,0,0,12,12H159a12,12,0,0,0,12-12V62a12,12,0,0,0-12-12H37A12,12,0,0,0,25,62Zm138,0v62a4,4,0,0,1-4,4H37a4,4,0,0,1-4-4V62a4,4,0,0,1,4-4H159A4,4,0,0,1,163,62Z" fill="#0075e3"/><circle cx="98" cy="43" r="4" fill="#0075e3"/></svg>