<svg id="Calque_1" data-name="Calque 1" xmlns="http://www.w3.org/2000/svg" viewBox="0 0 196 196"><path d="M168,37H28A28,28,0,0,0,0,65v66a28,28,0,0,0,28,28H141a4,4,0,0,0,3.2-1.6l6-8a3.89,3.89,0,0,0,.76-3,4,4,0,0,0-1.54-2.63,3.89,3.89,0,0,0-3-.76,4,4,0,0,0-2.64,1.55L139,151H126l1.19-1.59a3.89,3.89,0,0,0,.76-3,4,4,0,0,0-1.54-2.63,3.89,3.89,0,0,0-3-.76,4,4,0,0,0-2.64,1.55L116,151H103l1.19-1.59a3.89,3.89,0,0,0,.76-3,4,4,0,0,0-1.54-2.63,3.89,3.89,0,0,0-3-.76,4,4,0,0,0-2.64,1.55L93,151H80l1.19-1.59a3.89,3.89,0,0,0,.76-3,4,4,0,0,0-1.54-2.63,3.89,3.89,0,0,0-3-.76,4,4,0,0,0-2.64,1.55L70,151H57l1.19-1.59a3.89,3.89,0,0,0,.76-3,4,4,0,0,0-1.54-2.63,3.89,3.89,0,0,0-3-.76,4,4,0,0,0-2.64,1.55L47,151H34l1.17-1.69a3.89,3.89,0,0,0,.76-2.93,4.07,4.07,0,0,0-1.64-2.67,3.89,3.89,0,0,0-2.93-.76,4.08,4.08,0,0,0-2.7,1.67l-4.24,6A19.94,19.94,0,0,1,8,131V65A20,20,0,0,1,23.63,45.48l-.82,1.11A4,4,0,1,0,29.2,51.4L34,45H47l-1.19,1.59a3.89,3.89,0,0,0-.76,3A4,4,0,0,0,52.2,51.4L57,45H70l-1.19,1.59a3.89,3.89,0,0,0-.76,3A4,4,0,0,0,75.2,51.4L80,45H93l-1.19,1.59a3.89,3.89,0,0,0-.76,3,4,4,0,0,0,7.15,1.84L103,45h13l-1.19,1.59a4,4,0,1,0,6.28,4.95.76.76,0,0,0,.11-.14L126,45h13l-1.19,1.59a4,4,0,1,0,6.28,4.95.76.76,0,0,0,.11-.14L149,45h13l-1.17,1.69a3.87,3.87,0,0,0-.76,2.92,4,4,0,0,0,1.62,2.67,3.81,3.81,0,0,0,5.36-.64,3.3,3.3,0,0,0,.22-.3l4.21-6A20,20,0,0,1,188,65v66a19.86,19.86,0,0,1-15.65,19.54l.84-1.13a3.89,3.89,0,0,0,.76-3,4,4,0,0,0-1.54-2.63,3.89,3.89,0,0,0-3-.76,4,4,0,0,0-2.64,1.55l-6,8a3.88,3.88,0,0,0-.4,4.16A4,4,0,0,0,164,159h4a28,28,0,0,0,28-28V65A28,28,0,0,0,168,37Z" fill="#d33d51"/><path d="M21,126a4,4,0,0,0,4,4H77a4,4,0,0,0,4-4A30.13,30.13,0,0,0,63,98.51,18,18,0,0,0,69,85a15,15,0,0,0-1.39-6.62,4,4,0,0,0-7.33,3.3,8.18,8.18,0,0,1,.62,3.42,10,10,0,1,1-10-10,6.49,6.49,0,0,1,2.28.61,4,4,0,0,0,3.67-7A11.42,11.42,0,0,0,51,67,18,18,0,0,0,39,98.51,30.13,30.13,0,0,0,21,126Zm30-22a22.41,22.41,0,0,1,21.62,18H29.38A22.41,22.41,0,0,1,51,104Z" fill="#d33d51"/><path d="M141,88a4,4,0,0,0,0-8H124a4,4,0,0,0-4,4v30a4,4,0,0,0,8,0V101h9a4,4,0,0,0,0-8h-9V88Z" fill="#d33d51"/><circle cx="163" cy="98" r="4" fill="#d33d51"/><circle cx="99" cy="98" r="4" fill="#d33d51"/><circle cx="131" cy="130" r="4" fill="#d33d51"/><circle cx="131" cy="66" r="4" fill="#d33d51"/><circle cx="154" cy="121" r="4" fill="#d33d51"/><circle cx="108" cy="75" r="4" fill="#d33d51"/><circle cx="108" cy="121" r="4" fill="#d33d51"/><circle cx="154" cy="75" r="4" fill="#d33d51"/></svg>