<svg id="Calque_1" data-name="Calque 1" xmlns="http://www.w3.org/2000/svg" viewBox="0 0 196 196"><path d="M98,50A12,12,0,0,0,86,62V86H62a12,12,0,0,0,0,24H86v24a12,12,0,0,0,24,0V110h24a12,12,0,0,0,0-24H110V62A12,12,0,0,0,98,50Zm36,44a4,4,0,0,1,0,8H106a4,4,0,0,0-4,4v28a4,4,0,0,1-8,0V106a4,4,0,0,0-4-4H62a4,4,0,0,1,0-8H90a4,4,0,0,0,4-4V62a4,4,0,0,1,8,0V90a4,4,0,0,0,4,4Z" fill="#d33d51"/><path d="M98,0A98.29,98.29,0,0,0,0,98a96.73,96.73,0,0,0,7.3,37.5l.1.1a4.15,4.15,0,0,0,2.4,1.9,3.54,3.54,0,0,0,3-.4,4,4,0,0,0,1.9-4.6v-.1a90.13,90.13,0,1,1,117.8,48.7A89.54,89.54,0,0,1,28.2,154.5a4,4,0,0,0-5.5-.7.1.1,0,0,0-.1.1,4.09,4.09,0,0,0-.7,5.6,97.28,97.28,0,0,0,65.9,35.8,92.4,92.4,0,0,0,10.5.6A98,98,0,0,0,98,0Z" fill="#d33d51"/></svg>