<svg id="Calque_1" data-name="Calque 1" xmlns="http://www.w3.org/2000/svg" viewBox="0 0 196 196"><path d="M24.1,135.8A91.37,91.37,0,0,0,6,190.8a4.12,4.12,0,0,0,4.1,4.1H186.2a4.12,4.12,0,0,0,4.1-4.1,92.07,92.07,0,0,0-65.4-88.2l-3.4-1,3.1-1.8a52.28,52.28,0,0,0,10.6-82.3,4.23,4.23,0,0,0-3-1.2h-.1a4,4,0,0,0-2.7,1.2,4.39,4.39,0,0,0-1.3,3.1,4,4,0,0,0,1.2,2.7A44.12,44.12,0,1,1,54,54.5,44.21,44.21,0,0,1,98.2,10.4h.1a40.61,40.61,0,0,1,10.4,1.3h.1a4.17,4.17,0,0,0,2.7-7.9c-.2-.1-.5-.1-.8-.2h-.2A56.81,56.81,0,0,0,98.2,2,52.42,52.42,0,0,0,71.7,99.7l3.1,1.8-3.4,1A91.68,91.68,0,0,0,24.1,135.8Zm80.2-28.3A83.93,83.93,0,0,1,181.7,185l.1,1.7H14.3l.1-1.7a83.87,83.87,0,0,1,89.9-77.5Z" fill="#000"/></svg>