<svg id="Calque_1" data-name="Calque 1" xmlns="http://www.w3.org/2000/svg" viewBox="0 0 196 196"><path d="M19,89.2a4,4,0,0,0-2.9,1.2A4.56,4.56,0,0,0,15,93.3a100.75,100.75,0,0,0,40.6,76.1l31,23a18.61,18.61,0,0,0,22.8,0l31-23c25.8-19.1,40.6-48.7,40.6-81.2v-62a13.35,13.35,0,0,0-8.5-12.7,212,212,0,0,0-148.9,0,13.08,13.08,0,0,0-8.5,12.7v35a4,4,0,0,0,8,0v-35A5.28,5.28,0,0,1,26.6,21,201.2,201.2,0,0,1,94,8V89.2Zm75,98.2a7.64,7.64,0,0,1-2.6-1.5L60.4,163A92.17,92.17,0,0,1,23.3,97.2H94Zm8-90.2h56a4,4,0,0,0,0-8H102V8a202.14,202.14,0,0,1,67.5,12.9,5.33,5.33,0,0,1,3.5,5.3v62A92.6,92.6,0,0,1,135.6,163l-31,23a13.5,13.5,0,0,1-2.6,1.5Z" fill="#000"/></svg>