<svg id="Calque_1" data-name="Calque 1" xmlns="http://www.w3.org/2000/svg" viewBox="0 0 196 196"><path d="M43.9,90.1H61.5a3.9,3.9,0,0,0,0-7.8H43.9a3.9,3.9,0,0,0,0,7.8Z" fill="#000"/><path d="M0,117.4a4,4,0,0,0,3.9,3.9H61.6a3.82,3.82,0,0,0,3.8-3.9,4,4,0,0,0-3.9-3.9H3.9A4,4,0,0,0,0,117.4Z" fill="#000"/><path d="M76.2,121.3H84a3.9,3.9,0,1,0,0-7.8H76.2a3.9,3.9,0,0,0,0,7.8Z" fill="#000"/><path d="M19.5,101.8a3.9,3.9,0,0,0,3.9,3.9H61.5a3.9,3.9,0,1,0,0-7.8H23.4A4,4,0,0,0,19.5,101.8Z" fill="#000"/><path d="M76.2,105.7H84a3.9,3.9,0,1,0,0-7.8H76.2a3.9,3.9,0,1,0,0,7.8Z" fill="#000"/><path d="M76.2,90H84a3.9,3.9,0,1,0,0-7.8H76.2a3.9,3.9,0,1,0,0,7.8Z" fill="#000"/><path d="M113.3,84.2V69.5a2.84,2.84,0,0,0-2.9-2.9,2.9,2.9,0,0,0-2.9,2.9V84.2a2.9,2.9,0,1,0,5.8,0Z" fill="#000"/><path d="M25.4,136a4,4,0,0,0,3.9,3.9H84a3.9,3.9,0,0,0,0-7.8H29.3A4,4,0,0,0,25.4,136Z" fill="#000"/><path d="M110.4,51A84.63,84.63,0,0,0,59.2,68.4a4,4,0,0,0-1.6,2.5,3.36,3.36,0,0,0,.8,2.9,4,4,0,0,0,2.5,1.6,3.7,3.7,0,0,0,2.9-.8A76.93,76.93,0,0,1,171.6,89a75.93,75.93,0,0,1,15.7,43.1h-3.9a70.8,70.8,0,0,0-20.5-46.7,3.92,3.92,0,0,0-5.5-.1L141.8,100a3.73,3.73,0,0,0-1.2,2.7,3.63,3.63,0,0,0,1.2,2.8,40.47,40.47,0,0,1,6.9,9.1l-26.2,11.9a15.55,15.55,0,0,0-21-3.6,15.14,15.14,0,0,0-6.8,13,3.9,3.9,0,0,0,7.8,0,7.8,7.8,0,1,1,15.6,0,4,4,0,0,0,3.9,3.9h32.2v1a3.9,3.9,0,1,0,7.8,0v-4.9a54.89,54.89,0,0,0-2.9-17.5l9.6-4.3a3.89,3.89,0,0,0,2.2-3.2,63.92,63.92,0,0,1,4.9,24.9v4.9a3.9,3.9,0,0,0,7.8,0v-1h7.8a4,4,0,0,0,3.9-3.9C195.3,89.2,157.2,51.1,110.4,51Zm18.9,81.1,22.6-10.3a40.28,40.28,0,0,1,2.2,10.3Zm36.2-25-9.6,4.3A48.86,48.86,0,0,0,150,103l10-9.3a66.85,66.85,0,0,1,9.3,13.8A3.73,3.73,0,0,0,165.5,107.1Z" fill="#000"/><path d="M116.3,136a5.9,5.9,0,1,0-5.9,5.9A5.9,5.9,0,0,0,116.3,136Z" fill="#000"/><path d="M129.9,90.9h.4c.2,0,.4.1.6.1a2.8,2.8,0,0,0,2.6-1.8l5.9-13.7a2.87,2.87,0,1,0-5.3-2.2L128.2,87a2.9,2.9,0,0,0,1.5,3.8Z" fill="#000"/></svg>