<svg id="Calque_1" data-name="Calque 1" xmlns="http://www.w3.org/2000/svg" viewBox="0 0 196 196"><path d="M178,68.8A37,37,0,1,0,122.07,37a36.13,36.13,0,0,0,1.86,11.61L67.61,77.23a37,37,0,1,0,0,41.59l56.31,29.08A32.86,32.86,0,0,0,122.07,159a37,37,0,1,0,37-37,36,36,0,0,0-15.72,3.39,4,4,0,0,0,.49,7.37,4,4,0,0,0,3.07-.26,28.48,28.48,0,0,1,12.26-2.6,29,29,0,1,1-29,29,24.78,24.78,0,0,1,2.61-11.28,4.21,4.21,0,0,0,.22-3,3.7,3.7,0,0,0-2-2.29l-59.46-30.7A37.61,37.61,0,0,0,74.07,98a36.83,36.83,0,0,0-2.62-13.73l55.83-28.35A37,37,0,0,0,178,68.8ZM159.07,8a29,29,0,1,1-29,29A29,29,0,0,1,159.07,8Zm-122,119a29,29,0,1,1,29-29A29,29,0,0,1,37.07,127Z" fill="#000"/></svg>