<svg id="Calque_1" data-name="Calque 1" xmlns="http://www.w3.org/2000/svg" viewBox="0 0 196 196"><path d="M163.81,139.6v-.1a4.09,4.09,0,0,0-2.2-5.11,4,4,0,0,0-5.3,2l0,0a65.09,65.09,0,0,1-24.82,28.17L115.32,127H124a4,4,0,0,0,0-8H111.86L99,89h25a4,4,0,0,0,0-8H95.56L77.77,39.78C87.25,29,98.68,23,110,23c17.68,0,36.33,14.72,46.39,36.61a3.95,3.95,0,0,0,7.32-.26,3.88,3.88,0,0,0-.1-3.06C152.24,31.21,131.19,15,110,15c-12.68,0-25,5.77-35.68,16.72L61.71,2.38A4.08,4.08,0,0,0,56.48.29a4.09,4.09,0,0,0-2.1,5.21l81,188a4.05,4.05,0,0,0,3.72,2.4,5.41,5.41,0,0,0,1.44-.23l.18-.06a4.08,4.08,0,0,0,2.1-5.21l-7.95-18.5A72.54,72.54,0,0,0,163.81,139.6Z" fill="#d33d51"/><path d="M32,123.12a4,4,0,0,0,4,4H52.82c8.35,32.33,31.26,54,57.18,54a27.54,27.54,0,0,0,10.72-2.39,3.88,3.88,0,0,0,1.88-5.15l-.09-.18a4,4,0,0,0-2.27-2.16,3.86,3.86,0,0,0-3,.18A20,20,0,0,1,110,173c-21.93,0-41-18-48.89-46H96a4,4,0,0,0,0-8H59.22A101,101,0,0,1,57,99c0-3.56.13-6.69.41-10H80a4,4,0,0,0,0-8H58.48a88.59,88.59,0,0,1,10-28.1,4,4,0,0,0,.34-3.06,3.91,3.91,0,0,0-1.95-2.39,4,4,0,0,0-3.06-.34,3.9,3.9,0,0,0-2.39,2,97.83,97.83,0,0,0-11,32H36a4,4,0,0,0,0,8H49.41c-.28,3.31-.41,6.44-.41,10a109.12,109.12,0,0,0,2.09,20H36A4,4,0,0,0,32,123.12Z" fill="#d33d51"/></svg>