<svg id="Calque_1" data-name="Calque 1" xmlns="http://www.w3.org/2000/svg" viewBox="0 0 196 196"><path d="M86.83,103.43A3.49,3.49,0,0,0,83.5,101h-30a3.5,3.5,0,0,0,0,7H81l16.22,50.57A3.5,3.5,0,0,0,100.5,161h.19a3.51,3.51,0,0,0,3.24-2.8L130.57,26.7,139,98.91A3.5,3.5,0,0,0,142.5,102h49a3.5,3.5,0,0,0,0-7h-7.9l.62-2.09a51.65,51.65,0,0,0-9.7-47.4,55.35,55.35,0,0,0-34.9-19.4l-2.1-.32L135,4.09a3.5,3.5,0,0,0-6.91-.29l-4.53,22.36-.32.05a51.94,51.94,0,0,0-25.5,11.7L93.62,42l-3.5-3a57.07,57.07,0,0,0-35.5-13.5,56.55,56.55,0,0,0-42.1,19.9c-18.4,22.1-16.3,55.7,4.9,76.4l64.1,64.1a16.62,16.62,0,0,0,12,4.9,17.72,17.72,0,0,0,12.4-5l57.2-59.5a4.2,4.2,0,0,0-.2-5.8,4.36,4.36,0,0,0-2.9-1.1,3.57,3.57,0,0,0-2.7,1.2l-57.6,59.9-.4.3a9.7,9.7,0,0,1-5.4,1.8,8.9,8.9,0,0,1-6.1-1.9l-.4-.4-64.1-64.1c-18.2-17.6-20.1-46.2-4.5-65a47.12,47.12,0,0,1,35.6-17h.2A48.91,48.91,0,0,1,88.32,49a7.36,7.36,0,0,0,10.3,0l.1-.1.1-.1a11,11,0,0,1,1-1.1l3.1-3a48.29,48.29,0,0,1,13.7-8l5.17-1.91L99.73,143.65Zm55.89-68.32a46.49,46.49,0,0,1,25.2,15.6c8.86,10.72,13.91,23.87,8.35,44.29H145.61l-7.1-60.71Z" fill="#d33d51"/></svg>