<svg id="Calque_1" data-name="Calque 1" xmlns="http://www.w3.org/2000/svg" viewBox="0 0 196 196"><path d="M110.3,126.4a16.42,16.42,0,0,0,3.8-10.4,16,16,0,0,0-32,0,15.88,15.88,0,0,0,3.8,10.4l-3.8,26.1a4.17,4.17,0,0,0,.9,3.2,3.7,3.7,0,0,0,3.1,1.3h24a4.1,4.1,0,0,0,3.1-1.4,3.61,3.61,0,0,0,.9-3.1Zm-8.1-.9,3.2,23.5H90.8l3.3-23.5a3.91,3.91,0,0,0-1.3-3.5,8.25,8.25,0,0,1-2.7-6.1,8,8,0,1,1,16,.2,7.82,7.82,0,0,1-2.7,5.9A4.12,4.12,0,0,0,102.2,125.5Z" fill="#d33d51"/><path d="M98.1,0c-25.4,0-46,21.1-46,47V84.1a65.05,65.05,0,1,0,92,.1V47C144.1,21.1,123.5,0,98.1,0Zm49.6,158.2A57,57,0,1,1,84.4,74.7a70.23,70.23,0,0,1,9.4-1.5c1.4-.1,2.8-.2,4.3-.2a4,4,0,0,0,0-8,64.44,64.44,0,0,0-26,5.4,58.88,58.88,0,0,0-8,4.2,46.85,46.85,0,0,0-4,2.7V47c0-21.5,17-39,38-39s38,17.5,38,39V77.4c-1.3-.9-2.5-1.7-3.5-2.3-.2-.1-.3-.2-.5-.3-1.6-.9-2.6-1.5-2.6-1.5a4,4,0,0,0-3.6,7.2l3,1.8A57,57,0,0,1,147.7,158.2Z" fill="#d33d51"/></svg>