<svg id="Calque_1" data-name="Calque 1" xmlns="http://www.w3.org/2000/svg" viewBox="0 0 196 196"><path d="M146.7,105.77a14,14,0,0,0-7.45,2.17,13.62,13.62,0,0,0-20-5.91,13.85,13.85,0,0,0-12.55-8.26,13.29,13.29,0,0,0-6,1.43V65.77c0-8.55-6-15-14-15s-14,6.45-14,15V82.68a38.08,38.08,0,1,1,51-35.91A37.21,37.21,0,0,1,111,74.83a4,4,0,0,0-1.28,2.75,3.93,3.93,0,0,0,3.66,4.19h.11a3.86,3.86,0,0,0,2.86-1,45.13,45.13,0,0,0,15.33-34,46,46,0,1,0-59,44.35v64.65a4,4,0,0,0,8,0v-90c0-3.37,1.88-7,6-7s6,3.63,6,7v50a4,4,0,0,0,8,0v-7c0-3.79,2.75-7,6-7s6,3.21,6,7v13a4,4,0,0,0,8,0v-7c0-3.39,2.1-7,6-7s6,3.61,6,7v13.1a4,4,0,0,0,8,0v-8.44a6.25,6.25,0,0,1,1.56-3.61,5.85,5.85,0,0,1,4.44-2c3.9,0,6,3.61,6,7v31a7.24,7.24,0,0,1-.55,2,1.09,1.09,0,0,1-.13.34c0,.11-.11.28-.18.48l-8,26a9.64,9.64,0,0,1-9.15,6.21h-50A10.18,10.18,0,0,1,77.5,184l-32-32c-2.63-2.62-3.67-7.54-1-10.38a7.06,7.06,0,0,1,5-2.11,7.63,7.63,0,0,1,5.3,2.13l6,6a3.94,3.94,0,0,0,2.93,1.19,3.73,3.73,0,0,0,2.69-1.19,4.06,4.06,0,0,0,1.18-2.91,3.81,3.81,0,0,0-1.19-2.69l-6-6a15.62,15.62,0,0,0-10.91-4.51h-.1a14.52,14.52,0,0,0-10.6,4.51c-5.42,5.63-5,15.52,1,21.6l32,32a17.92,17.92,0,0,0,12.8,5.19h50c7.68,0,14.61-4.85,16.86-11.81l8-25.93a2.86,2.86,0,0,0,.26-.86,14.32,14.32,0,0,0,.91-4.4v-31a15.34,15.34,0,0,0-4.31-11.1A13.48,13.48,0,0,0,146.7,105.77Z" fill="#d33d51"/></svg>