<svg id="Calque_1" data-name="Calque 1" xmlns="http://www.w3.org/2000/svg" viewBox="0 0 196 196"><path d="M120.81,100.85a53,53,0,0,0,27.13-30.08C159.54,69.4,167,61.32,167,50c0-12.26-8.52-20.44-21.77-21a52.93,52.93,0,0,0-94.46,0C37.52,29.6,29,37.78,29,50c0,11.58,7.47,19.5,19.54,20.85,5.57,7.93,16.75,13,29.36,13.15h7.34A7,7,0,0,0,91,87h14a7,7,0,0,0,0-14H91a7,7,0,0,0-5.76,3H78.12C64,75.75,53,68.72,53,60V53A45,45,0,1,1,68.45,87a3.93,3.93,0,0,0-2.89-1,4,4,0,0,0-2.32,7,52.71,52.71,0,0,0,12,7.85A93.21,93.21,0,0,0,5,191a4,4,0,0,0,4,4H187a4,4,0,0,0,4-4,93.21,93.21,0,0,0-70.19-90.19ZM159,50c0,6.29-3,10.37-8.82,12.14a52.2,52.2,0,0,0-1.52-24.64C153.7,38.54,159,41.7,159,50ZM45.09,61.93C41.12,60.54,37,57.32,37,50c0-8.34,5.3-11.5,10.34-12.5A53.18,53.18,0,0,0,45,53v7Q45,61,45.09,61.93ZM13.14,187a85,85,0,0,1,169.72,0Z" fill="#d33d51"/></svg>