<svg id="Calque_1" data-name="Calque 1" xmlns="http://www.w3.org/2000/svg" viewBox="0 0 196 196"><path d="M102,178a7,7,0,1,0-7,7A7,7,0,0,0,102,178Zm-8,0a1,1,0,1,1,1,1A1,1,0,0,1,94,178Z" fill="#000"/><path d="M31,14a3,3,0,0,0,0,6H88a3,3,0,0,0,0-6Z" fill="#000"/><path d="M186.12,23H176a4,4,0,0,0-4,4V42a4,4,0,0,1-4,4H22a4,4,0,0,1-4-4V13a4,4,0,0,1,4-4H168a4,4,0,0,1,4,4,4,4,0,0,0,8,0A12,12,0,0,0,168,1H22A12,12,0,0,0,10,13V23H7a4,4,0,0,0,0,8h3V42A12,12,0,0,0,22,54H168a12,12,0,0,0,12-12V31h4V58.6L95.28,78.1a1.37,1.37,0,0,0-.65.2c-1.7.6-3.63,2.06-3.63,5.6V93H77a6.77,6.77,0,0,0-7,6.53,3.69,3.69,0,0,0,0,.47c0,1,0,2.94,8,17.06V153a4,4,0,0,0,8,0V116a3.82,3.82,0,0,0-.53-2c-2.75-4.81-5.61-10.24-6.87-13h32.9c-1.26,2.76-4.12,8.19-6.86,13a3.8,3.8,0,0,0-.54,2v70H86V174a4,4,0,0,0-8,0v14a5.94,5.94,0,0,0,5.88,6H106a5.94,5.94,0,0,0,6-5.88V117.06c8-14.12,8-16,8-17.06a6.77,6.77,0,0,0-6.53-7,3.69,3.69,0,0,0-.47,0H99V85.4l88.82-19.53c1.56-.36,4.18-1.6,4.18-5.87V29A5.94,5.94,0,0,0,186.12,23Z" fill="#000"/></svg>