<svg id="Calque_1" data-name="Calque 1" xmlns="http://www.w3.org/2000/svg" viewBox="0 0 196 196"><path d="M189,31H166V11a7,7,0,0,0-7-7H69a4,4,0,0,0,0,8h89V77c0,33.6-26.9,61-60,61S38,110.6,38,77V12h2a4,4,0,0,0,0-8H37a7,7,0,0,0-7,7V31H7a8,8,0,0,0-8,8v.1c-.1,10.1-.4,37.1,13.5,51,5.5,5.5,12.6,8.5,21.1,8.9A68.38,68.38,0,0,0,85,144.8V183H61a4,4,0,0,0,0,8h74a4,4,0,0,0,0-8H93V145.8a55.67,55.67,0,0,0,10,0V171a4,4,0,0,0,8,0V144.7a67.87,67.87,0,0,0,51.4-45.8c8.5-.3,15.6-3.3,21.1-8.9,13.9-13.9,13.6-40.8,13.5-50.9A8.18,8.18,0,0,0,189,31ZM18.12,84.5C6.72,72.9,6.92,48.3,7,39H30V77a71.79,71.79,0,0,0,1.4,13.8A21.87,21.87,0,0,1,18.12,84.5Zm159.8,0a21.35,21.35,0,0,1-13.2,6.3A70.9,70.9,0,0,0,166,77V39h23l.1.1C189.12,48.3,189.42,72.8,177.92,84.5Z" fill="#000"/></svg>