<svg id="Calque_1" data-name="Calque 1" xmlns="http://www.w3.org/2000/svg" viewBox="0 0 196 196"><path d="M51.1,127a53.45,53.45,0,0,0,29,9c35,0,54-28.89,54-54V79c3.7-2.69,8.4-5.19,11-9-3.4,1.5-6,1.5-9,0,4-2,4.2-4.29,5-8-3.7,2.21-7.7,3.11-12,4a19.4,19.4,0,0,0-14-6,19,19,0,0,0-19,19,27.34,27.34,0,0,0,1,5,56.06,56.06,0,0,1-40-20c-1.6,2.81-2,5.5-2,9,0,6.61,2.9,12.61,8,16-3.1-.09-5,0-8-2a19.18,19.18,0,0,0,15,19c-2.8.81-6.1.5-9,0a19.13,19.13,0,0,0,18,13A37.67,37.67,0,0,1,51.1,127Z" fill="#000"/><path d="M98,.09A97.8,97.8,0,0,0,.37,97.64a96.2,96.2,0,0,0,7.27,37.28l.1.1a4.05,4.05,0,0,0,2.38,1.89,3.55,3.55,0,0,0,3-.39A4,4,0,0,0,15,131.94v-.1a89.67,89.67,0,1,1,117.2,48.53A89.12,89.12,0,0,1,28.43,153.92a3.94,3.94,0,0,0-5.47-.7.1.1,0,0,0-.1.1,4.07,4.07,0,0,0-.7,5.57,96.81,96.81,0,0,0,65.57,35.6,91.4,91.4,0,0,0,10.45.6,97,97,0,0,0,61.08-21.68C201.05,139.5,207.52,78,173.69,36.28A97,97,0,0,0,98,.09Z" fill="#000"/></svg>