<svg id="Calque_1" data-name="Calque 1" xmlns="http://www.w3.org/2000/svg" viewBox="0 0 196 196"><path d="M159.15,84a4,4,0,0,0,0,8A28.8,28.8,0,1,1,142,97.5l4.41,15.55a17.31,17.31,0,0,0,11.55,11.67,4,4,0,1,0,3.68-7.1,3.85,3.85,0,0,0-1.14-.39c-3.43-1.19-5.61-3.32-6.47-6.33L136.15,47.5a2.88,2.88,0,0,1,3-2.52h16a2.65,2.65,0,0,1,3,2.27,3,3,0,0,1,0,.73,3.1,3.1,0,0,1-3.1,3,3.9,3.9,0,0,0-3.9,3.89,1.47,1.47,0,0,0,0,.21,4,4,0,0,0,4.1,3.9h0a11,11,0,0,0,10.87-11c0-6.48-4.52-11-11-11H139a11,11,0,0,0-10.87,11,3,3,0,0,0,.14,1.07l2.27,8-37.1,52.32a11.58,11.58,0,0,0-3.31-.49,11.32,11.32,0,0,0-1.43.1L60.15,52h9a4,4,0,0,0,0-8h-24a4,4,0,0,0,0,8h6l6,12h-45a4,4,0,0,0,0,8h49L64,77.8,55.7,89.07A37,37,0,1,0,73.86,125h5A12,12,0,1,0,100,114.09L133.4,67l6.32,22.36A37.22,37.22,0,1,0,159.15,84Zm-103,41h9.67A29,29,0,1,1,37.15,92,28.34,28.34,0,0,1,51,95.5L34,118.59a3.89,3.89,0,0,0-.76,3,4,4,0,0,0,4,3.44,3.94,3.94,0,0,0,3.2-1.61l17-23.09A28.55,28.55,0,0,1,65.84,117H56.15a4,4,0,0,0,0,8Zm22.68-8h-5A36.63,36.63,0,0,0,62.15,93.77l6-8L81.53,112.7A12.23,12.23,0,0,0,78.83,117Zm11.32,8a4,4,0,1,1,4-4A4,4,0,0,1,90.15,125Z" fill="#d33d51"/></svg>