<svg xmlns="http://www.w3.org/2000/svg" viewBox="0 0 156 478"><defs><style>.a{fill:#e30613;}.b{fill:#e9c4a2;}.c{fill:#164194;}.d{fill:#032e72;}.e{fill:#f4c09d;}.f{fill:#ffdfca;}.g{fill:#fff;}.h{fill:#ce926a;}.i{fill:#e26554;opacity:0.3;}.j{opacity:0.8;}.k{fill:#001e49;}.l{fill:#e8e8df;}.m{fill:#d4d4cc;}.n{fill:#d8a700;}.o{fill:#f9f9f7;}.p{fill:#1a1a1a;}</style></defs><title>femme</title><path class="a" d="M40.14,31.46h29.7A23.28,23.28,0,0,1,93.12,54.74V155a53,53,0,0,1-53,53h0A40.14,40.14,0,0,1,0,167.87V71.6A40.14,40.14,0,0,1,40.14,31.46Z"/><path class="a" d="M103,31.13h0a53,53,0,0,1,53,53V185.05a23.28,23.28,0,0,1-23.28,23.28H103a40.14,40.14,0,0,1-40.14-40.14V71.27A40.14,40.14,0,0,1,103,31.13Z" transform="translate(218.88 239.47) rotate(180)"/><path class="a" d="M40.14,114.83h29.7a23.28,23.28,0,0,1,23.28,23.28v17.13a53,53,0,0,1-53,53h0A40.14,40.14,0,0,1,0,168.09V155a40.14,40.14,0,0,1,40.14-40.14Z"/><path class="a" d="M103,114.83h0a53,53,0,0,1,53,53V185a23.28,23.28,0,0,1-23.28,23.28H103a40.14,40.14,0,0,1-40.14-40.14V155A40.14,40.14,0,0,1,103,114.83Z" transform="translate(218.88 323.07) rotate(-180)"/><rect class="b" x="29.72" y="284.23" width="8.21" height="15.44"/><path class="b" d="M40.21,304.83a2.11,2.11,0,0,1-1.89-1.18l-.66-1.32a4.82,4.82,0,0,0-6.47-2.18,2.11,2.11,0,0,1-1.87-3.79,9,9,0,0,1,12.12,4.08l.66,1.33a2.12,2.12,0,0,1-1,2.84A2.09,2.09,0,0,1,40.21,304.83Z"/><path class="b" d="M28.53,306.73h0a2.11,2.11,0,0,1-2.09-2.14v-1.48a9,9,0,0,1,2.7-6.39,8.82,8.82,0,0,1,6.42-2.6,2.11,2.11,0,0,1,2.09,2.13,2.13,2.13,0,0,1-2.13,2.1,4.75,4.75,0,0,0-3.42,1.39,4.8,4.8,0,0,0-1.44,3.41l0,1.48A2.11,2.11,0,0,1,28.53,306.73Z"/><path class="b" d="M20.76,306.26h0a2.11,2.11,0,0,1-2.09-2.13l0-1.48c0-5.23,7-9,11.78-9l4-.45a2.11,2.11,0,0,1,.47,4.2l-4.29.48H30.5c-3,0-7.6,2.55-7.62,4.8v1.48A2.11,2.11,0,0,1,20.76,306.26Z"/><path class="c" d="M39.06,288.93H27.71V186A15.78,15.78,0,0,1,43.45,170.2H61.68v11.39H43.45a4.4,4.4,0,0,0-4.39,4.4Z"/><rect class="b" x="117.17" y="284.23" width="8.21" height="15.44"/><path class="b" d="M114.89,304.83a2.11,2.11,0,0,1-1.89-3.06l.66-1.33a9.06,9.06,0,0,1,12.13-4.08,2.12,2.12,0,0,1-1.88,3.79,4.82,4.82,0,0,0-6.47,2.18l-.66,1.32A2.1,2.1,0,0,1,114.89,304.83Z"/><path class="b" d="M126.58,306.73a2.11,2.11,0,0,1-2.11-2.1v-1.48a4.85,4.85,0,0,0-1.45-3.41,4.78,4.78,0,0,0-3.42-1.39,2.12,2.12,0,0,1,0-4.23h.08a9,9,0,0,1,9,9v1.48a2.11,2.11,0,0,1-2.09,2.14Z"/><path class="b" d="M134.34,306.26a2.11,2.11,0,0,1-2.11-2.09v-1.48c0-2.26-4.64-4.86-7.67-4.8h-.12l-4.29-.48a2.11,2.11,0,0,1,.47-4.2l4,.45c4.77,0,11.74,3.76,11.79,9v1.48a2.11,2.11,0,0,1-2.09,2.13Z"/><path class="d" d="M127.4,288.93H116V186a4.4,4.4,0,0,0-4.38-4.4H93.42V170.2h18.24A15.79,15.79,0,0,1,127.4,186Z"/><path class="a" d="M40.14,31.23h29.7A23.28,23.28,0,0,1,93.12,54.51V71.65a53,53,0,0,1-53,53h0A40.14,40.14,0,0,1,0,84.49V71.37A40.14,40.14,0,0,1,40.14,31.23Z"/><path class="a" d="M103,31.23h0a53,53,0,0,1,53,53v17.13a23.28,23.28,0,0,1-23.28,23.28H103A40.14,40.14,0,0,1,62.88,84.49V71.37A40.14,40.14,0,0,1,103,31.23Z" transform="translate(218.88 155.86) rotate(180)"/><path class="a" d="M103.58,0h0a43.75,43.75,0,0,1,43.75,43.75V57.9a19.23,19.23,0,0,1-19.23,19.23H103.58A33.15,33.15,0,0,1,70.43,44V33.15A33.15,33.15,0,0,1,103.58,0Z"/><path class="a" d="M42.28,0H66.81A19.23,19.23,0,0,1,86,19.23V33.37A43.75,43.75,0,0,1,42.28,77.13h0A33.15,33.15,0,0,1,9.13,44V33.15A33.15,33.15,0,0,1,42.28,0Z" transform="translate(95.17 77.13) rotate(180)"/><path class="e" d="M16.78,92.61H25.3A7.69,7.69,0,0,1,33,100.29v0A7.69,7.69,0,0,1,25.3,108H16.78a0,0,0,0,1,0,0V92.61a0,0,0,0,1,0,0Z" transform="translate(49.77 200.61) rotate(180)"/><path class="e" d="M123,92.61h8.52a7.69,7.69,0,0,1,7.69,7.69v0a7.69,7.69,0,0,1-7.69,7.69H123a0,0,0,0,1,0,0V92.61a0,0,0,0,1,0,0Z"/><polygon class="e" points="90.03 149.56 90.03 170.37 78 182.56 65.97 170.37 65.97 149.56 90.03 149.56"/><path class="e" d="M93.49,17.5h-31a37.1,37.1,0,0,0-37,37.15v46.81A52.62,52.62,0,0,0,78,154.16h0a52.62,52.62,0,0,0,52.54-52.7V54.65A37.1,37.1,0,0,0,93.49,17.5Z"/><rect class="f" x="72.61" y="79.27" width="10.78" height="25.86" transform="translate(156 184.4) rotate(-180)"/><rect x="115.79" y="83.68" width="16.05" height="1.89"/><rect x="23.81" y="83.68" width="17.13" height="1.89"/><ellipse class="c" cx="56.81" cy="84.63" rx="6.32" ry="6.34"/><ellipse class="c" cx="99.91" cy="84.63" rx="6.32" ry="6.34"/><path class="g" d="M56.81,78.29a6.34,6.34,0,0,0,0,12.68Z"/><path class="g" d="M99.91,78.29a6.34,6.34,0,0,0,0,12.68Z"/><rect class="h" x="72.61" y="100.65" width="10.78" height="4.48" transform="translate(156 205.78) rotate(-180)"/><path class="a" d="M19.21,17.19H80.84a0,0,0,0,1,0,0v.08A52.54,52.54,0,0,1,28.29,69.81H19.21a0,0,0,0,1,0,0V17.19A0,0,0,0,1,19.21,17.19Z"/><path class="a" d="M75.45,17.19h9.09a52.54,52.54,0,0,1,52.54,52.54v.08a0,0,0,0,1,0,0H75.45a0,0,0,0,1,0,0V17.19A0,0,0,0,1,75.45,17.19Z" transform="translate(212.53 86.99) rotate(-180)"/><ellipse class="i" cx="111.49" cy="102.7" rx="11.24" ry="11.28"/><ellipse class="i" cx="44.04" cy="102.7" rx="11.24" ry="11.28"/><path class="j" d="M99.91,101.5a16.87,16.87,0,1,1,16.83-16.92A16.84,16.84,0,0,1,99.91,101.5Zm0-31.85a15,15,0,1,0,14.93,15A15,15,0,0,0,99.91,69.65Z"/><path class="j" d="M56.81,101.5A16.87,16.87,0,1,1,73.64,84.58,16.84,16.84,0,0,1,56.81,101.5Zm0-31.85a15,15,0,1,0,14.94,15A15,15,0,0,0,56.81,69.65Z"/><rect class="d" x="55.37" y="258.68" width="17.51" height="202.74"/><rect class="k" x="82.22" y="258.68" width="17.51" height="202.74"/><polygon class="c" points="87.55 233.36 58.84 233.36 48.05 268.82 75.69 268.82 77.55 252.02 79.87 251.56 87.55 233.36"/><polygon class="d" points="96.26 233.36 77.55 233.36 77.55 252.02 79.41 268.82 107.05 268.82 96.26 233.36"/><polygon class="l" points="77.55 233.36 66.83 190.02 61.96 170.31 82.25 170.31 77.55 233.36"/><polygon class="m" points="77.46 233.36 88.18 190.02 93.06 170.31 77.51 170.31 77.46 233.36"/><polygon class="c" points="61.96 170.31 43.25 170.31 58.84 234.36 77.55 234.36 77.55 233.36 66.83 190.02 61.96 170.31"/><polygon class="d" points="93.06 170.31 111.77 170.31 96.18 234.36 77.46 234.36 77.46 233.36 88.18 190.02 93.06 170.31"/><ellipse class="n" cx="82.8" cy="246.84" rx="2.63" ry="2.64"/><ellipse class="n" cx="82.8" cy="237.16" rx="2.63" ry="2.64"/><polygon class="o" points="66.83 190.02 61.96 170.31 77.51 170.31 66.83 190.02"/><polyline class="l" points="77.51 170.31 88.18 190.02 93.06 170.31"/><path class="p" d="M117.12,478H101.65c-5.21,0-9.44-7.51-9.44-16.76h0l21.16,8.44c2.19.87,3.75,4.33,3.75,8.32Z"/><polygon class="p" points="93.39 478 85.19 478 85.19 461.24 96.22 461.24 93.39 478"/><path class="p" d="M37.66,478H53.13c5.2,0,9.43-7.51,9.43-16.76h0L41.4,469.68c-2.19.87-3.74,4.33-3.74,8.32Z"/><polygon class="p" points="61.38 478 69.59 478 69.59 461.24 58.56 461.24 61.38 478"/><path class="p" d="M78,120.93a15.58,15.58,0,0,0,14-8.81H64A15.58,15.58,0,0,0,78,120.93Z"/></svg>