<svg xmlns="http://www.w3.org/2000/svg" xmlns:xlink="http://www.w3.org/1999/xlink" viewBox="0 0 330 490"><defs><style>.a{fill:none;}.b{fill:#79452c;}.c{fill:#d89c73;}.d{fill:#032e72;}.e{fill:#001e49;}.f{fill:#164194;}.g{fill:#c6906b;}.h{fill:#1a1a1a;}.i{fill:#fff;}.j{fill:#f4b387;}.k{fill:#ad7147;}.l{fill:#e8e8df;}.m{fill:#d4d4cc;}.n{fill:#e30613;}.o{clip-path:url(#a);}.p{fill:#ae0613;}.q{clip-path:url(#b);}.r{fill:#f9f9f7;}</style><clipPath id="a"><polygon class="a" points="95.99 269.55 73.89 209.96 63.84 182.86 95.9 182.86 95.99 269.55"/></clipPath><clipPath id="b"><polygon class="a" points="95.81 269.55 117.91 209.96 127.96 182.86 95.9 182.86 95.81 269.55"/></clipPath></defs><title>homme</title><path class="b" d="M118.73,90.54h0a54.36,54.36,0,0,1,54.36,54.36v17.48a23.89,23.89,0,0,1-23.89,23.89H118.73a41.18,41.18,0,0,1-41.18-41.18V131.73a41.18,41.18,0,0,1,41.18-41.18Z"/><path class="b" d="M60.73,90.54H91.21a23.89,23.89,0,0,1,23.89,23.89v17.48a54.36,54.36,0,0,1-54.36,54.36h0a41.18,41.18,0,0,1-41.18-41.18V131.73A41.18,41.18,0,0,1,60.73,90.54Z" transform="translate(134.64 276.82) rotate(-180)"/><rect class="c" x="84.32" y="164.58" width="23.99" height="20.73"/><path class="c" d="M226.51,157.72a6.6,6.6,0,0,1-6.58-6.61v-29a6.58,6.58,0,1,1,13.16,0v29A6.6,6.6,0,0,1,226.51,157.72Z"/><path class="c" d="M225.38,123.17a14.27,14.27,0,0,1-12-6.56,4.46,4.46,0,0,1,1.31-6.14,4.39,4.39,0,0,1,6.1,1.31,5.51,5.51,0,1,0,.26-6.36,4.42,4.42,0,1,1-7-5.42,14.18,14.18,0,0,1,11.33-5.6,14.39,14.39,0,0,1,0,28.77Z"/><path class="c" d="M235.29,111.53a4.42,4.42,0,0,1-4.42-4.43V80.77a4.42,4.42,0,1,1,8.84,0V107.1A4.42,4.42,0,0,1,235.29,111.53Z"/><path class="c" d="M233.64,106a4.43,4.43,0,0,1-4-2.5l-9.38-19.4a4.42,4.42,0,1,1,7.95-3.88l9.38,19.41a4.44,4.44,0,0,1-2.05,5.92A4.26,4.26,0,0,1,233.64,106Z"/><path class="d" d="M159.24,211H132.39V182.94h26.85a53,53,0,0,0,52.82-53.06H240C240,174.62,203.77,211,159.24,211Z"/><path d="M48.69,475.67h0a31,31,0,0,0,18-5.77l.85-.6H83.65V490h-35a7.16,7.16,0,0,1-7.15-7.16h0A7.16,7.16,0,0,1,48.69,475.67Z"/><rect x="41.54" y="483.31" width="42.11" height="6.69"/><path d="M143.94,475.67h0a31,31,0,0,1-18-5.77l-.84-.6H109V490h35a7.16,7.16,0,0,0,7.15-7.16h0A7.16,7.16,0,0,0,143.94,475.67Z"/><rect x="108.98" y="483.31" width="42.11" height="6.69" transform="translate(260.07 973.31) rotate(-180)"/><rect class="d" x="77.96" y="283.4" width="34.56" height="17.81"/><rect class="e" x="95.59" y="283.4" width="16.94" height="17.81"/><polygon class="e" points="106.06 469.89 128.91 469.89 130.35 291.73 99.53 291.73 106.06 469.89"/><polygon class="d" points="63.14 469.89 85.99 469.89 92.53 291.73 61.7 291.73 63.14 469.89"/><rect class="f" x="50.11" y="182.94" width="89.14" height="110.25" transform="translate(189.36 476.14) rotate(-180)"/><rect class="d" x="95.66" y="182.94" width="46.87" height="110.25" transform="translate(238.19 476.14) rotate(-180)"/><path class="b" d="M115,12h0a45.37,45.37,0,0,1,45.37,45.37V72A19.94,19.94,0,0,1,140.46,91.9H115A34.37,34.37,0,0,1,80.65,57.53V46.37A34.37,34.37,0,0,1,115,12Z"/><path class="b" d="M66.61,12H92.05A19.94,19.94,0,0,1,112,31.94V46.53A45.37,45.37,0,0,1,66.62,91.9h0A34.37,34.37,0,0,1,32.24,57.53V46.37A34.37,34.37,0,0,1,66.61,12Z" transform="translate(144.23 103.9) rotate(180)"/><path class="b" d="M62,55.79h0a39.58,39.58,0,0,1,39.58,39.58v12.73a17.39,17.39,0,0,1-17.39,17.39H62a30,30,0,0,1-30-30V85.77a30,30,0,0,1,30-30Z" transform="translate(133.55 181.27) rotate(180)"/><path class="b" d="M120.74,55.79h22.19a17.39,17.39,0,0,1,17.39,17.39V85.9a39.58,39.58,0,0,1-39.58,39.58h0a30,30,0,0,1-30-30V85.77a30,30,0,0,1,30-30Z"/><path class="g" d="M35.28,107.45h8.5a7.66,7.66,0,0,1,7.66,7.66v0a7.66,7.66,0,0,1-7.66,7.66h-8.5a0,0,0,0,1,0,0V107.45A0,0,0,0,1,35.28,107.45Z" transform="translate(86.72 230.23) rotate(180)"/><path class="g" d="M141.2,107.45h8.5a7.66,7.66,0,0,1,7.66,7.66v0a7.66,7.66,0,0,1-7.66,7.66h-8.5a0,0,0,0,1,0,0V107.45A0,0,0,0,1,141.2,107.45Z"/><path class="c" d="M80.87,170.16h30.89a37,37,0,0,0,36.94-37V86.53A52.43,52.43,0,0,0,96.32,34.05h0A52.44,52.44,0,0,0,43.93,86.53v46.62A37,37,0,0,0,80.87,170.16Z"/><path class="b" d="M43.73,29.08H146.06a0,0,0,0,1,0,0v.05A49.35,49.35,0,0,1,96.71,78.48h-53a0,0,0,0,1,0,0V29.08a0,0,0,0,1,0,0Z"/><path class="h" d="M96.32,122.4h0a20.91,20.91,0,0,1,20.91,20.91v2.37a0,0,0,0,1,0,0H75.41a0,0,0,0,1,0,0v-2.37A20.91,20.91,0,0,1,96.32,122.4Z" transform="translate(192.63 268.07) rotate(-180)"/><path class="i" d="M78.55,122.4h35.53a3.15,3.15,0,0,1,3.15,3.15V130a0,0,0,0,1,0,0H75.41a0,0,0,0,1,0,0v-4.44A3.15,3.15,0,0,1,78.55,122.4Z" transform="translate(192.63 252.38) rotate(-180)"/><rect class="j" x="86.78" y="91.66" width="19.07" height="21.25" transform="translate(192.63 204.56) rotate(-180)"/><rect class="b" x="106.3" y="88.49" width="21.59" height="6.5" rx="3.25"/><rect class="b" x="64.75" y="88.49" width="21.59" height="6.5" rx="3.25"/><rect class="k" x="86.78" y="108.44" width="19.07" height="4.46" transform="translate(192.63 221.35) rotate(-180)"/><ellipse class="h" cx="76" cy="101.15" rx="4.48" ry="4.49"/><ellipse class="h" cx="117.2" cy="101.15" rx="4.48" ry="4.49"/><polygon class="l" points="95.99 269.55 73.89 209.96 63.84 182.86 95.9 182.86 95.99 269.55"/><polygon class="m" points="95.81 269.55 117.91 209.96 127.96 182.86 95.9 182.86 95.81 269.55"/><polyline class="n" points="73.75 182.86 96.04 209.96 96.04 182.86"/><g class="o"><polyline class="n" points="73.4 270.1 96.05 204.38 96.05 270.1"/></g><polyline class="p" points="118 182.86 95.71 209.96 95.71 182.86"/><g class="q"><polyline class="p" points="118.4 270.1 95.64 204.38 90.88 270.1"/></g><polygon class="r" points="73.89 209.96 63.84 182.86 95.9 182.86 73.89 209.96"/><polyline class="l" points="95.9 182.86 117.91 209.96 127.96 182.86"/><rect class="c" x="18.84" y="309.64" width="13.19" height="24.79"/><path class="c" d="M35.7,343.76a4.43,4.43,0,0,1-4-2.46l-1.06-2.13a6.72,6.72,0,0,0-9-3,4.44,4.44,0,0,1-3.94-7.95,15.58,15.58,0,0,1,20.88,7l1.06,2.13a4.44,4.44,0,0,1-2,5.95A4.34,4.34,0,0,1,35.7,343.76Z"/><path class="c" d="M16.91,346.81h0a4.43,4.43,0,0,1-4.39-4.47l0-2.38a15.63,15.63,0,0,1,15.71-15.47,4.44,4.44,0,0,1,0,8.87h-.1A6.73,6.73,0,0,0,21.36,340l0,2.39A4.43,4.43,0,0,1,16.91,346.81Z"/><path class="c" d="M4.43,346.07h0A4.43,4.43,0,0,1,0,341.6l0-2.39C.1,329.92,12,323.82,20,323.74l6.44-.72a4.44,4.44,0,0,1,1,8.82l-6.95.78h-.26c-4.64,0-11.26,3.89-11.28,6.67l0,2.38A4.44,4.44,0,0,1,4.43,346.07Z"/><path class="f" d="M39.11,319.29h-28V223a40.06,40.06,0,0,1,40-40.05V211a12,12,0,0,0-12,12Z"/><path class="i" d="M317.36,27.67h-3a14.57,14.57,0,0,0,.23-2.48h0a14.9,14.9,0,0,0-14.9-14.9h-.06A14.79,14.79,0,0,0,291.06,13,19.68,19.68,0,0,0,272.55,0h-.08a19.67,19.67,0,0,0-18,27.67h-1.41a12.64,12.64,0,0,0-12.64,12.64h0a12.63,12.63,0,0,0,12.64,12.63h64.29A12.63,12.63,0,0,0,330,40.31h0A12.64,12.64,0,0,0,317.36,27.67Z"/></svg>