<svg id="assets" xmlns="http://www.w3.org/2000/svg" viewBox="0 0 108 64"><defs><style>.cls-1{fill:#fff;}</style></defs><title>img-nuage</title><path class="cls-1" d="M92.73,33.45H91.09a23.67,23.67,0,0,0,2-9.57v-.17A23.72,23.72,0,0,0,69.39,0h-.14A23.73,23.73,0,0,0,46.92,15.72a17.86,17.86,0,0,0-10.33-3.28h-.11A17.94,17.94,0,0,0,18.54,30.38v.13a17.85,17.85,0,0,0,.26,2.94H15.27A15.27,15.27,0,0,0,0,48.72H0A15.27,15.27,0,0,0,15.27,64H92.73A15.27,15.27,0,0,0,108,48.73h0A15.27,15.27,0,0,0,92.73,33.45Z"/></svg>