<?xml version="1.0" encoding="UTF-8"?>
<svg enable-background="new 0 0 90 90" version="1.1" viewBox="0 0 90 112.5" xml:space="preserve" xmlns="http://www.w3.org/2000/svg" xmlns:cc="http://creativecommons.org/ns#" xmlns:dc="http://purl.org/dc/elements/1.1/" xmlns:rdf="http://www.w3.org/1999/02/22-rdf-syntax-ns#"><metadata><rdf:RDF><cc:Work rdf:about=""><dc:format>image/svg+xml</dc:format><dc:type rdf:resource="http://purl.org/dc/dcmitype/StillImage"/></cc:Work></rdf:RDF></metadata><path d="m71.545 48.145h-31.98v-27.402c0-2.627-2.138-4.765-4.765-4.765h-16.344c-2.628 0-4.767 2.138-4.767 4.765v42.789c0 2.628 2.138 4.766 4.767 4.766h5.535v0.959c0 2.628 2.138 4.765 4.766 4.765h42.788c2.628 0 4.766-2.137 4.766-4.765v-16.343c0-2.63-2.138-4.769-4.766-4.769zm-53.09-31.21h16.344c2.1 0 3.808 1.708 3.808 3.808v27.401h-1.357v-25.508c0-0.264-0.215-0.478-0.479-0.478h-20.289c-0.264 0-0.479 0.214-0.479 0.478v36.585c0 0.264 0.215 0.478 0.479 0.478h7.507v7.644h-5.534c-2.101 0-3.81-1.709-3.81-3.81v-42.79c0-2.1 1.709-3.808 3.81-3.808zm-1.495 6.181h19.331v25.031h-7.535c-2.628 0-4.766 2.139-4.766 4.768v5.828h-7.03v-35.627zm54.585 49.948h-42.788c-2.101 0-3.81-1.708-3.81-3.808v-16.342c0-2.102 1.709-3.812 3.81-3.812h42.788c2.1 0 3.809 1.71 3.809 3.812v16.343c0 2.099-1.709 3.807-3.809 3.807z"/><path d="m28.919 58.424c-1.466 0-2.659 1.193-2.659 2.66 0 1.466 1.193 2.658 2.659 2.658 1.468 0 2.662-1.192 2.662-2.658 0-1.467-1.194-2.66-2.662-2.66zm0 4.362c-0.939 0-1.703-0.764-1.703-1.702 0-0.939 0.764-1.704 1.703-1.704 0.94 0 1.705 0.765 1.705 1.704-1e-3 0.938-0.766 1.702-1.705 1.702z"/><path d="m69.654 50.461h-36.585c-0.264 0-0.479 0.215-0.479 0.479v20.288c0 0.264 0.215 0.478 0.479 0.478h36.585c0.263 0 0.477-0.214 0.477-0.478v-20.289c0-0.263-0.214-0.478-0.477-0.478zm-0.48 0.956v19.333h-35.626v-19.333h35.626z"/><path d="m45.201 30.296c6.651 0 12.233 5.351 12.551 11.977l-3.033-2.638c-0.193-0.165-0.507-0.142-0.675 0.048-0.174 0.198-0.153 0.501 0.045 0.676l3.883 3.375c0.09 0.075 0.198 0.115 0.312 0.115 0.141 0 0.273-0.061 0.362-0.166l3.371-3.877c0.173-0.2 0.151-0.502-0.047-0.675-0.194-0.166-0.508-0.144-0.676 0.048l-2.592 2.979c-0.18-3.417-1.629-6.605-4.099-9.001-2.538-2.461-5.877-3.817-9.404-3.817-0.264 0-0.479 0.215-0.479 0.479s0.216 0.477 0.481 0.477z"/><path d="m71.545 48.145h-31.98v-27.402c0-2.627-2.138-4.765-4.765-4.765h-16.344c-2.628 0-4.767 2.138-4.767 4.765v42.789c0 2.628 2.138 4.766 4.767 4.766h5.535v0.959c0 2.628 2.138 4.765 4.766 4.765h42.788c2.628 0 4.766-2.137 4.766-4.765v-16.343c0-2.63-2.138-4.769-4.766-4.769zm-53.09-31.21h16.344c2.1 0 3.808 1.708 3.808 3.808v27.401h-1.357v-25.508c0-0.264-0.215-0.478-0.479-0.478h-20.289c-0.264 0-0.479 0.214-0.479 0.478v36.585c0 0.264 0.215 0.478 0.479 0.478h7.507v7.644h-5.534c-2.101 0-3.81-1.709-3.81-3.81v-42.79c0-2.1 1.709-3.808 3.81-3.808zm-1.495 6.181h19.331v25.031h-7.535c-2.628 0-4.766 2.139-4.766 4.768v5.828h-7.03v-35.627zm54.585 49.948h-42.788c-2.101 0-3.81-1.708-3.81-3.808v-16.342c0-2.102 1.709-3.812 3.81-3.812h42.788c2.1 0 3.809 1.71 3.809 3.812v16.343c0 2.099-1.709 3.807-3.809 3.807z"/><path d="m28.919 58.424c-1.466 0-2.659 1.193-2.659 2.66 0 1.466 1.193 2.658 2.659 2.658 1.468 0 2.662-1.192 2.662-2.658 0-1.467-1.194-2.66-2.662-2.66zm0 4.362c-0.939 0-1.703-0.764-1.703-1.702 0-0.939 0.764-1.704 1.703-1.704 0.94 0 1.705 0.765 1.705 1.704-1e-3 0.938-0.766 1.702-1.705 1.702z"/><path d="m69.654 50.461h-36.585c-0.264 0-0.479 0.215-0.479 0.479v20.288c0 0.264 0.215 0.478 0.479 0.478h36.585c0.263 0 0.477-0.214 0.477-0.478v-20.289c0-0.263-0.214-0.478-0.477-0.478zm-0.48 0.956v19.333h-35.626v-19.333h35.626z"/><path d="m45.201 30.296c6.651 0 12.233 5.351 12.551 11.977l-3.033-2.638c-0.193-0.165-0.507-0.142-0.675 0.048-0.174 0.198-0.153 0.501 0.045 0.676l3.883 3.375c0.09 0.075 0.198 0.115 0.312 0.115 0.141 0 0.273-0.061 0.362-0.166l3.371-3.877c0.173-0.2 0.151-0.502-0.047-0.675-0.194-0.166-0.508-0.144-0.676 0.048l-2.592 2.979c-0.18-3.417-1.629-6.605-4.099-9.001-2.538-2.461-5.877-3.817-9.404-3.817-0.264 0-0.479 0.215-0.479 0.479s0.216 0.477 0.481 0.477z"/></svg>
