<?xml version="1.0" encoding="utf-8"?>
<!-- Generator: Adobe Illustrator 23.0.6, SVG Export Plug-In . SVG Version: 6.00 Build 0)  -->
<svg version="1.1" id="Calque_1" xmlns="http://www.w3.org/2000/svg" xmlns:xlink="http://www.w3.org/1999/xlink" x="0px" y="0px"
	 viewBox="0 0 200 200" style="enable-background:new 0 0 200 200;" xml:space="preserve">
<style type="text/css">
	.st0{fill:#3F8BD1;}
</style>
<g>
	<path class="st0" d="M45,91h18c1.7,0,3-1.3,3-3s-1.3-3-3-3H45c-1.7,0-3,1.3-3,3S43.3,91,45,91z"/>
	<path class="st0" d="M66,120c0-1.7-1.3-3-3-3H4c-1.7,0-3,1.3-3,3s1.3,3,3,3h59C64.7,123,66,121.7,66,120z"/>
	<path class="st0" d="M86,117h-8c-1.7,0-3,1.3-3,3s1.3,3,3,3h8c1.7,0,3-1.3,3-3S87.7,117,86,117z"/>
	<path class="st0" d="M24,107h39c1.7,0,3-1.3,3-3s-1.3-3-3-3H24c-1.7,0-3,1.3-3,3S22.3,107,24,107z"/>
	<path class="st0" d="M86,101h-8c-1.7,0-3,1.3-3,3s1.3,3,3,3h8c1.7,0,3-1.3,3-3S87.7,101,86,101z"/>
	<path class="st0" d="M86,85h-8c-1.7,0-3,1.3-3,3s1.3,3,3,3h8c1.7,0,3-1.3,3-3S87.7,85,86,85z"/>
	<path class="st0" d="M115,86V71c0-1.1-0.9-2-2-2s-2,0.9-2,2v15c0,1.1,0.9,2,2,2S115,87.1,115,86z"/>
	<path class="st0" d="M86,136H30c-1.7,0-3,1.3-3,3s1.3,3,3,3h56c1.7,0,3-1.3,3-3S87.7,136,86,136z"/>
	<path class="st0" d="M113,53c-18.7,0-36.6,6.1-51.8,17.6c-1.3,1-1.6,2.9-0.6,4.2c1,1.3,2.9,1.6,4.2,0.6C79,64.7,95.7,59,113,59
		c43.1,0,78.4,34.3,79.9,77h-6c-0.7-18.3-8-35.3-20.8-48.1c-1.1-1.2-3-1.2-4.2-0.1l-16,15c-0.6,0.6-0.9,1.3-0.9,2.1
		c0,0.8,0.3,1.6,0.9,2.2c3.2,3.2,5.8,6.7,7.8,10.5l-28.5,13c-2.8-3.9-7.3-6.6-12.2-6.6c-8,0-15,7-15,15c0,1.7,1.3,3,3,3s3-1.3,3-3
		c0-4.7,4.3-9,9-9s9,4.3,9,9c0,1.7,1.3,3,3,3h34v2c0,1.7,1.3,3,3,3s3-1.3,3-3v-5c0-6.5-1.1-12.7-3.3-18.4l10.6-4.8
		c1.5-0.7,2.2-2.5,1.5-4s-2.5-2.2-4-1.5l-10.6,4.8c-1.9-3.5-4.2-6.9-6.9-10l11.6-10.9c11.2,12.3,17.1,27.7,17.1,44.8v5
		c0,1.7,1.3,3,3,3s3-1.3,3-3v-2h9c1.7,0,3-1.3,3-3C199,91.6,160.4,53,113,53z M158.9,136h-31.1l28.3-12.9
		C157.7,127.2,158.6,131.5,158.9,136z"/>
	<path class="st0" d="M113,134c-2.8,0-5,2.2-5,5s2.2,5,5,5s5-2.2,5-5S115.8,134,113,134z M113,140c-0.6,0-1-0.4-1-1s0.4-1,1-1
		s1,0.4,1,1S113.6,140,113,140z"/>
	<path class="st0" d="M134,92c0.8,0,1.5-0.5,1.8-1.2l6-14c0.4-1,0-2.2-1-2.6s-2.2,0-2.6,1.1l-6,14c-0.4,1,0,2.2,1,2.6
		C133.5,91.9,133.7,92,134,92z"/>
</g>
</svg>
