<?xml version="1.0" encoding="utf-8"?>
<!-- Generator: Adobe Illustrator 23.0.4, SVG Export Plug-In . SVG Version: 6.00 Build 0)  -->
<svg version="1.1" id="Calque_1" xmlns="http://www.w3.org/2000/svg" xmlns:xlink="http://www.w3.org/1999/xlink" x="0px" y="0px"
	 viewBox="0 0 200 200" style="enable-background:new 0 0 200 200;" xml:space="preserve">
<style type="text/css">
	.st0{fill:#3F8BD1;}
</style>
<g>
	<path class="st0" d="M87,67c0,1.7,1.3,3,3,3h4.7c3.4,10.7,11.5,18,21.3,18c8.3,0,15.7-5.1,19.7-13.7c0.7-1.5,0.1-3.3-1.5-4
		c-1.5-0.7-3.3-0.1-4,1.5C127.3,78.2,122,82,116,82c-6.6,0-12.2-4.8-15-12h16c1.7,0,3-1.3,3-3s-1.3-3-3-3H99.4
		c-0.3-1.6-0.4-3.3-0.4-5c0-0.7,0-1.3,0.1-2H117c1.7,0,3-1.3,3-3s-1.3-3-3-3h-17c2.4-9.2,8.7-16,16-16c5.9,0,11.3,3.8,14.3,10.3
		c0.7,1.5,2.5,2.2,4,1.5c1.5-0.7,2.2-2.5,1.5-4c-4-8.6-11.4-13.7-19.7-13.7c-10.6,0-19.5,9.3-22.2,22H90c-1.7,0-3,1.3-3,3s1.3,3,3,3
		h3.1c0,0.7-0.1,1.3-0.1,2c0,1.7,0.1,3.4,0.3,5H90C88.4,64,87,65.3,87,67z"/>
	<path class="st0" d="M194.5,114.4c-4.2-6.5-13.2-8.8-20-5l-34,19c-1.4,0.8-2,2.6-1.2,4.1c0.8,1.4,2.6,2,4.1,1.2l34-19
		c4-2.2,9.5-0.8,12,3c1.3,2.1,1.8,4.4,1.2,6.6c-0.5,2.1-2,4-4.2,5.2l-65,36c-5.5,3-10.5,4.6-14.6,4.6H49c-0.6,0-1.3,0.2-1.8,0.6
		l-19,14c-1.3,1-1.6,2.9-0.6,4.2c0.6,0.8,1.5,1.2,2.4,1.2c0.6,0,1.2-0.2,1.8-0.6L50,176h57c5.1,0,11-1.8,17.5-5.4l65-36
		c3.6-2,6.1-5.2,7.1-9C197.5,121.9,196.8,117.9,194.5,114.4z"/>
	<path class="st0" d="M55,125h63c4.6,0,8,3.4,8,8s-3.4,8-8,8H81c-1.7,0-3,1.3-3,3s1.3,3,3,3h37c7.9,0,14-6.1,14-14s-6.1-14-14-14H55
		c-7.1,0-14.2,2.3-19.8,6.6l-31,24c-1.3,1-1.5,2.9-0.5,4.2c0.6,0.8,1.5,1.2,2.4,1.2c0.6,0,1.3-0.2,1.8-0.6l31-24
		C43.4,126.9,49.2,125,55,125z"/>
	<path class="st0" d="M115,106c26.5,0,48-21.5,48-48s-21.5-48-48-48c-7.4,0-14.2,1.4-20.3,4.3c-1.5,0.7-2.2,2.5-1.5,4
		c0.7,1.5,2.5,2.2,4,1.5c5.3-2.5,11.3-3.7,17.7-3.7c23.2,0,42,18.8,42,42s-18.8,42-42,42c-23.2,0-42-18.8-42-42
		c0-11.1,4-21.4,11.2-28.9c1.1-1.2,1.1-3.1-0.1-4.2c-1.2-1.1-3.1-1.1-4.2,0.1C71.6,33.6,67,45.4,67,58C67,84.5,88.6,106,115,106z"/>
</g>
</svg>
