<?xml version="1.0" encoding="utf-8"?>
<!-- Generator: Adobe Illustrator 24.2.2, SVG Export Plug-In . SVG Version: 6.00 Build 0)  -->
<svg version="1.1" id="Calque_1" xmlns="http://www.w3.org/2000/svg" xmlns:xlink="http://www.w3.org/1999/xlink" x="0px" y="0px"
	 viewBox="0 0 200 200" style="enable-background:new 0 0 200 200;" xml:space="preserve">
<style type="text/css">
	.st0{fill:#3F8BD1;}
</style>
<g>
	<path class="st0" d="M100,187c3.3,0,6-2.7,6-6s-2.7-6-6-6s-6,2.7-6,6S96.7,187,100,187z M100,179c1.1,0,2,0.9,2,2s-0.9,2-2,2
		s-2-0.9-2-2S98.9,179,100,179z"/>
	<path class="st0" d="M102,20c1.1,0,2-0.9,2-2s-0.9-2-2-2H84c-1.1,0-2,0.9-2,2s0.9,2,2,2H102z"/>
	<path class="st0" d="M116,20c1.1,0,2-0.9,2-2s-0.9-2-2-2h-4c-1.1,0-2,0.9-2,2s0.9,2,2,2H116z"/>
	<path class="st0" d="M151,32c1.7,0,3-1.3,3-3v-9c0-9.1-7-17-15-17H61c-4.5,0-8.5,1.8-11.3,5c-1.1,1.3-0.9,3.2,0.3,4.2
		c1.3,1.1,3.2,0.9,4.2-0.3c1.7-1.9,4-3,6.7-3h78c5.2,0,9,5.8,9,11v6H49c-1.7,0-3,1.3-3,3v151c0,10,6.2,17,15,17h78c8.8,0,15-7,15-17
		V44c0-1.7-1.3-3-3-3s-3,1.3-3,3v121H52V32H151z M148,171v9c0,5.1-2.4,11-9,11H61c-6.6,0-9-5.9-9-11v-9H148z"/>
</g>
<path  class="st0" d="M93.8,121.3c-0.5,0-2.1-0.4-3.5-1.6l-15.1-15.1c-0.5-0.5-0.9-1.4-0.9-2.4s0.3-1.8,0.9-2.4c0.6-0.6,1.4-0.9,2.4-0.9
	s1.8,0.3,2.4,0.9l10.9,10.8c0.8,0.8,1.9,1.3,3,1.3c1.2,0,2.3-0.5,3.1-1.3l30.9-30.9c0.5-0.5,1.4-0.9,2.4-0.9c1,0,1.9,0.3,2.4,0.9
	c1.1,1.1,1.1,3.6,0,4.8l-35.4,35.4C95.9,120.9,95,121.3,93.8,121.3z"/>
</svg>
