<?xml version="1.0" encoding="utf-8"?>
<!-- Generator: Adobe Illustrator 24.2.2, SVG Export Plug-In . SVG Version: 6.00 Build 0)  -->
<svg version="1.1" id="Calque_1" xmlns="http://www.w3.org/2000/svg" xmlns:xlink="http://www.w3.org/1999/xlink" x="0px" y="0px"
	 viewBox="0 0 200 200" style="enable-background:new 0 0 200 200;" xml:space="preserve">
<style type="text/css">
	.st0{fill:#3F8BD1;}
</style>
<g>
	<path class="st0" d="M194,145.5h-74c-1.7,0-3,1.3-3,3v5H83v-5c0-1.7-1.3-3-3-3H27c-1.7,0-3,1.3-3,3s1.3,3,3,3h50v5c0,1.7,1.3,3,3,3
		h40c1.7,0,3-1.3,3-3v-5h68v7c0,2.9-2.1,5-5,5H14c-2.9,0-5-2.1-5-5v-7h5c1.7,0,3-1.3,3-3v-99c0-7.2,5.8-13,13-13h140
		c7.2,0,13,5.8,13,13v85c0,1.7,1.3,3,3,3s3-1.3,3-3v-85c0-10.5-8.5-19-19-19H30c-10.5,0-19,8.5-19,19v96H6c-1.7,0-3,1.3-3,3v10
		c0,6.2,4.8,11,11,11h172c6.2,0,11-4.8,11-11v-10C197,146.8,195.7,145.5,194,145.5z"/>
	<path class="st0" d="M24,60.5v66c0,6.1,4.9,11,11,11h130c6.1,0,11-4.9,11-11v-66c0-6.1-4.9-11-11-11H35C28.9,49.5,24,54.4,24,60.5z
		 M170,60.5v66c0,2.8-2.2,5-5,5H35c-2.8,0-5-2.2-5-5v-66c0-2.8,2.2-5,5-5h130C167.8,55.5,170,57.7,170,60.5z"/>
	<circle class="st0" cx="100" cy="43.5" r="3"/>
</g>
<path class="st0" d="M95.1,114.4c-0.5,0-2.1-0.4-3.5-1.6L76.4,97.6c-0.5-0.5-0.9-1.4-0.9-2.4s0.3-1.8,0.9-2.4c0.6-0.6,1.4-0.9,2.4-0.9
	s1.8,0.3,2.4,0.9l10.9,10.8c0.8,0.8,1.9,1.3,3,1.3c1.2,0,2.3-0.5,3.1-1.3l30.9-30.9c0.5-0.5,1.4-0.9,2.4-0.9c1,0,1.9,0.3,2.4,0.9
	c1.1,1.1,1.1,3.6,0,4.8l-35.4,35.4C97.2,114,96.3,114.4,95.1,114.4z"/>
</svg>
