<svg id="Calque_1" data-name="Calque 1" xmlns="http://www.w3.org/2000/svg" viewBox="0 0 196 196"><path d="M172.41,13.5a212,212,0,0,0-148.9,0A13.08,13.08,0,0,0,15,26.2v62c.1,32.1,15.3,62.5,40.6,81.2l31,23a18.61,18.61,0,0,0,22.8,0l31-23c25.3-18.7,40.5-49.1,40.6-81.2v-62A13.59,13.59,0,0,0,172.41,13.5Zm.6,74.7c-.1,29.6-14.1,57.6-37.4,74.8l-31,23a10.8,10.8,0,0,1-13.2,0l-31-23C37,145.8,23,117.9,22.91,88.2v-62a5.5,5.5,0,0,1,3.5-5.3,204,204,0,0,1,143.2,0,5.33,5.33,0,0,1,3.5,5.3v62Z" fill="#000"/><path d="M95.71,65c5.1,0,10.4,4.3,13.4,10.6a4,4,0,0,0,2.3,2.1,4.16,4.16,0,0,0,3.1-.1,4,4,0,0,0,2.1-2.3,3.73,3.73,0,0,0-.1-3.1c-4.3-9.3-12.3-15.4-20.6-15.4-10.4,0-19.2,8.8-22,22h-3.1a4,4,0,0,0,0,8h2v1c0,1.4.1,2.7.2,4h-2.2a4,4,0,0,0,0,8h3.8c3.5,11.1,11.6,18,21.2,18,8.4,0,16.5-6,20.6-15.4a3.73,3.73,0,0,0,.1-3.1,3.89,3.89,0,0,0-5.1-2.4,4.14,4.14,0,0,0-2.3,2.2c-2.8,6.5-8.1,10.8-13.3,10.8s-9.8-3.7-12.6-10h13.6a4,4,0,0,0,0-8H81a26.93,26.93,0,0,1-.3-4v-1h16a4,4,0,1,0,0-8H81.91C84.21,70.5,89.71,65,95.71,65Z" fill="#000"/><path d="M146.91,87a49,49,0,1,0-49,49A49,49,0,0,0,146.91,87Zm-49,41a41,41,0,1,1,41-41A41.06,41.06,0,0,1,97.91,128Z" fill="#000"/></svg>