<svg id="Calque_1" data-name="Calque 1" xmlns="http://www.w3.org/2000/svg" viewBox="0 0 196 196"><path d="M135,92H61a3,3,0,1,0,0,6h74a3,3,0,0,0,0-6Z" fill="#000"/><path d="M135,124H61a3,3,0,0,0,0,6h74a3,3,0,0,0,0-6Z" fill="#000"/><path d="M135,156H61a3,3,0,0,0,0,6h74a3,3,0,0,0,0-6Z" fill="#000"/><path d="M168.8,49.21l-47-47A7.83,7.83,0,0,0,116,0H29a4,4,0,0,0-4,4V192a4,4,0,0,0,4,4H167a4,4,0,0,0,4-4V55A7.83,7.83,0,0,0,168.8,49.21ZM122,49V13.61L157.4,49Zm-4,8h45V188H33V8h81V53A4,4,0,0,0,118,57Z" fill="#000"/></svg>