<svg id="Calque_1" data-name="Calque 1" xmlns="http://www.w3.org/2000/svg" viewBox="0 0 196 196"><path d="M173.3,36H22.7C14.6,36,8,43.2,8,52v91c0,8.8,6.6,16,14.7,16H173.3c8.1,0,14.7-7.2,14.7-16V52C188,43.2,181.4,36,173.3,36Zm0,115H22.7c-4.1,0-7.3-3.6-7.3-8V52c0-4.4,3.3-8,7.3-8H173.3c4.1,0,7.3,3.6,7.3,8v91A7.58,7.58,0,0,1,173.3,151Z" fill="#000"/><path d="M44,98H69A11,11,0,0,0,80,87V78A11,11,0,0,0,69,67H44A11,11,0,0,0,33,78v9A11,11,0,0,0,44,98Zm0-25H69a5,5,0,0,1,5,5v9a5,5,0,0,1-5,5H44a5,5,0,0,1-5-5V78A5,5,0,0,1,44,73Z" fill="#000"/><path d="M47,131H36a3,3,0,0,0,0,6H47a3,3,0,0,0,0-6Z" fill="#000"/><path d="M124,131H60a3,3,0,0,0,0,6h64a3,3,0,0,0,0-6Z" fill="#000"/><path d="M36,122H63a3,3,0,0,0,0-6H36a3,3,0,0,0,0,6Z" fill="#000"/><path d="M73,119a3,3,0,0,0,3,3h27a3,3,0,0,0,0-6H76A3,3,0,0,0,73,119Z" fill="#000"/><path d="M143,116H116a3,3,0,0,0,0,6h27a3,3,0,0,0,0-6Z" fill="#000"/></svg>