<svg id="Calque_1" data-name="Calque 1" xmlns="http://www.w3.org/2000/svg" viewBox="0 0 200 200"><defs><style>.cls-1{fill:#1b3f88;}</style></defs><path class="cls-1" d="M78.58,84c2.59,0,4.91,0,7.22,0s2.23,0,2.27-2.33c.07-4.18,0-8.36.29-12.53.5-8.21,5.1-13.64,13.18-14.65,6.12-.77,12.37-.56,18.57-.79,1,0,1.31.46,1.3,1.39,0,4.59,0,9.18,0,13.77,0,1.19-.54,1.48-1.59,1.47-3,0-5.93,0-8.89,0-2.64,0-3.76,1.07-3.81,3.66-.07,2.85,0,5.7,0,8.54,0,1.18.48,1.49,1.57,1.48,3.54,0,7.09,0,10.63,0,.62,0,1.25,0,2.1.09-.12,1.44-.22,2.75-.34,4-.28,3.34-.59,6.69-.85,10-.1,1.28-.7,1.77-2,1.74-3.08-.07-6.16,0-9.24,0-1.45,0-1.88.47-1.87,1.91,0,14.06,0,28.12,0,42.18,0,2.37,0,2.37-2.4,2.37-4.83,0-9.65-.06-14.47,0-1.7,0-2.19-.56-2.18-2.21,0-13.94,0-27.88,0-41.83,0-2.35,0-2.35-2.41-2.35-1.91,0-3.84,0-5.75,0-.45,0-1.26-.57-1.27-.89C78.56,94.09,78.58,89.16,78.58,84Z"/><path class="cls-1" d="M100,197.26A97.26,97.26,0,1,1,197.26,100,97.37,97.37,0,0,1,100,197.26ZM100,6.74A93.26,93.26,0,1,0,193.26,100,93.37,93.37,0,0,0,100,6.74Z"/></svg>