<svg id="Calque_1" data-name="Calque 1" xmlns="http://www.w3.org/2000/svg" viewBox="0 0 200 200"><defs><style>.cls-1{fill:#1b3f88;}</style></defs><path class="cls-1" d="M54.94,123.13V76.87l.09-.54c.28-1.52.44-3.07.86-4.55A23.37,23.37,0,0,1,73.52,55.45c1.11-.23,2.23-.34,3.35-.51h46.26a3.39,3.39,0,0,0,.44.08,21.62,21.62,0,0,1,5.17,1,23.46,23.46,0,0,1,15.94,18.13c.16.93.25,1.87.38,2.81v46c0,.18-.07.36-.09.54-.19,1.23-.28,2.48-.58,3.69a23,23,0,0,1-9.17,13.55,22.07,22.07,0,0,1-9.38,3.95c-1,.17-1.94.27-2.91.4H77a2.26,2.26,0,0,0-.44-.08,21.18,21.18,0,0,1-5.41-1.06,23.43,23.43,0,0,1-15.68-17.49C55.22,125.34,55.1,124.23,54.94,123.13Zm82.47-23.59c0-7,0-14.05,0-21.07a17.09,17.09,0,0,0-.42-3.71,15.64,15.64,0,0,0-15.32-12.1H85c-2.68,0-5.38-.07-8,.1a14.66,14.66,0,0,0-9.69,4.55,15.45,15.45,0,0,0-4.57,11.27q0,6.75,0,13.51,0,14.26,0,28.53a20.27,20.27,0,0,0,.21,3.49A15.4,15.4,0,0,0,73,136.44a15,15,0,0,0,5.63,1h42.8a16.11,16.11,0,0,0,4.68-.63,15.74,15.74,0,0,0,11.34-15.36Z"/><path class="cls-1" d="M100,77.59a22.44,22.44,0,1,1-22.37,24.1A22.46,22.46,0,0,1,100,77.59ZM84.47,100.05A15.58,15.58,0,1,0,99.23,84.48,15.57,15.57,0,0,0,84.47,100.05Z"/><path class="cls-1" d="M124.87,69.92a5.18,5.18,0,1,1-5.12,5.28A5.16,5.16,0,0,1,124.87,69.92Z"/><path class="cls-1" d="M100,197.26A97.26,97.26,0,1,1,197.26,100,97.37,97.37,0,0,1,100,197.26ZM100,6.74A93.26,93.26,0,1,0,193.26,100,93.37,93.37,0,0,0,100,6.74Z"/></svg>