<svg id="Calque_1" data-name="Calque 1" xmlns="http://www.w3.org/2000/svg" viewBox="0 0 200 200"><defs><style>.cls-1{fill:#1b3f88;}</style></defs><g id="wvjZQl.tif"><path class="cls-1" d="M105.47,92.39l.46-.64a21.41,21.41,0,0,1,15.92-9.1,25.38,25.38,0,0,1,11.36,1.45,19,19,0,0,1,10.83,10,25.67,25.67,0,0,1,2.33,8.49c.17,1.79.27,3.6.28,5.4q0,18.69,0,37.37c0,1.32,0,1.32-1.34,1.32h-16.6c-1.22,0-1.22,0-1.22-1.2q0-15.51,0-31a24.39,24.39,0,0,0-.58-6,17.87,17.87,0,0,0-1.14-3.3,8.55,8.55,0,0,0-6.79-5,13.73,13.73,0,0,0-5.23.21,9.88,9.88,0,0,0-7.11,6,17.32,17.32,0,0,0-1.34,6.1c0,.73,0,1.47,0,2.2v30.57c0,1.51.12,1.45-1.49,1.45H87.9c-1.13,0-1.15,0-1.15-1.14v-60c0-1.17,0-1.17,1.19-1.17H104.1c1.16,0,1.16,0,1.16,1.19,0,2,0,3.95,0,5.92v.79Z"/><path class="cls-1" d="M74.44,115.56v29.83c0,1.24.16,1.32-1.33,1.32H56.44c-1.27,0-1.28,0-1.28-1.23V85.66c0-1.23,0-1.23,1.2-1.23H73.25c1.19,0,1.19,0,1.19,1.22v29.91Z"/><path class="cls-1" d="M64.71,76.27a11.49,11.49,0,0,1,0-23,11.49,11.49,0,0,1,0,23Z"/></g><path class="cls-1" d="M100,197.26A97.26,97.26,0,1,1,197.26,100,97.37,97.37,0,0,1,100,197.26ZM100,6.74A93.26,93.26,0,1,0,193.26,100,93.37,93.37,0,0,0,100,6.74Z"/></svg>