<svg id="Calque_1" data-name="Calque 1" xmlns="http://www.w3.org/2000/svg" viewBox="0 0 200 200"><defs><style>.cls-1{fill:#1b3f88;}</style></defs><path class="cls-1" d="M40.72,110l-.07,0h-.06V78.74h.13a1.1,1.1,0,0,1,.22.89q0,14.73,0,29.44A1.13,1.13,0,0,1,40.72,110Z"/><path class="cls-1" d="M40.73,121.24h-.14v-1.64l.14,0A1.58,1.58,0,0,1,40.73,121.24Z"/><path class="cls-1" d="M53.83,127.81v.12H53v-.13A.56.56,0,0,1,53.83,127.81Z"/><path class="cls-1" d="M65.67,109.22a16.43,16.43,0,0,0-3.61-9.88c-.19-.23-.18-.33,0-.53a7.65,7.65,0,0,0,1.82-2.26,15.07,15.07,0,0,0,.43-12.85,7.89,7.89,0,0,0-7.54-5.21c-5.13-.13-10.27-.06-15.4-.07-.27,0-.56,0-.7.31V110a.57.57,0,0,0,.59.36h7.43c.49,0,.73-.25.73-.77,0-1.18,0-2.36,0-3.54v-4.36l.66.1a6.39,6.39,0,0,1,5.45,4.3,12.08,12.08,0,0,1,.66,3.32c.08.89.17,1,1,1h7.36C65.5,110.32,65.72,110.08,65.67,109.22ZM55.5,92.67a3.09,3.09,0,0,1-2.22.87c-1.07,0-2.14,0-3.2,0-.48,0-.64-.18-.63-.65,0-1,0-2,0-3s0-2,0-3c0-.39.12-.57.55-.56,1.18,0,2.37,0,3.55,0a3.19,3.19,0,0,1,3,3.13A3.75,3.75,0,0,1,55.5,92.67Z"/><path class="cls-1" d="M158.79,72.61c-.75.59-1.51,1.15-2.27,1.71s-1.41,1.7-2.36,2.35a7.58,7.58,0,0,0,2.29-.6c.14-.08.26-.18.41-.25s.5-.39.64-.14-.25.38-.45.52a7.73,7.73,0,0,1-1.24.88l-.11.08c.55.79-.38,1-.6,1.44l-.52.37c.2-.15.37-.25.51-.38.31,0,.59-.26,1-.07-.44.92-1.58,1-2.07,1.83.54,0,.41.22.14.59a19.27,19.27,0,0,1-3,2.81c-.69.62-1.71.79-2.18,1.65l.53.11c0,.31-.23.45-.37.56-.74.54-.91,1.64-1.7,2s-1.39,1.29-2.3,1.6c0,.7-.63.54-1,.68s-.94,0-1.17.53c-.08.2-.54.17-.34.55a1.08,1.08,0,0,1-.95,1c-.39.07-.27.59-.64.72s-.85.67-1.47.68c-.35,0-1.15,1.82-.95,2.13.34.5.45,1.09.74,1.6.21.35,0,.8.39,1.12.19.18.26.48.6.47.06,0,.17.06.17.09,0,.67.44,1.15.62,1.74.07.23-.23.26-.26.49a.55.55,0,0,1,.67.5c.11.68.55,1.22.71,1.86,0,.17.08.32.23.39.4.18.44.52.44.9,0,.1,0,.3.06.31.86.15.49,1.11,1,1.49.05,0,.11.14.09.17-.27.6.36.81.52,1.22s.42,1,.62,1.56a1.1,1.1,0,0,0,.38.45c.25.19.46.49.21.8s-.13.66.2.88a.79.79,0,0,1,.39.46.51.51,0,0,1-.15.41c-.12.1-.26,0-.32-.14a3.11,3.11,0,0,0-1.25-1.19,5.46,5.46,0,0,1-1.57-1.74,2.87,2.87,0,0,0-.81-1c.38,1.27.33,2.6,1,3.85a10.92,10.92,0,0,0,1.13,2.61.22.22,0,0,1,0,.31c-.15.12-.24,0-.33-.12a4.08,4.08,0,0,1-1.28-1.6A3,3,0,0,0,142,113a1.29,1.29,0,0,1-.52-.75c.06.33.35.57.42.89a1.56,1.56,0,0,0,.5,1.14c.53.44,0,1.09.25,1.63a12.25,12.25,0,0,0,1.87,3c.21.26.59.65.37.82s-.43-.31-.64-.51a21.92,21.92,0,0,0-2.26-2.26,5.53,5.53,0,0,1-.77-.92,45.15,45.15,0,0,1-2.77-4.09c-.51-.77-.78-1.7-1.35-2.46a23.83,23.83,0,0,1-2.17-3.61A21.28,21.28,0,0,1,133,102c-.06-.24-.26-.39-.33-.64s-.31-.08-.48.06a2.06,2.06,0,0,1-1,.64l-.06-.06a1.29,1.29,0,0,0-.45-.58c-.2-.21-.33-.43-.14-.73-.35.27-.92.34-.79,1,0,.21-.26.28-.4.42-.32.32-.55.68-.18,1.12,0,.31-.22.57-.28.87a6.55,6.55,0,0,1-2.27,2.29c-.15.12-.13.3-.23.39-.26.22-.45.74-.91.3-.15-.13-.19,0-.26.06s-.2.11-.1.26c.5.66-.32.59-.49.88l-1,.41c-.35.55-1,.79-1.26,1.46-.06.19-.31.14-.49.13s-.09-.19-.11-.31a1.43,1.43,0,0,1,.2-1.35c.23-.27-.06-.55-.31-.71s-.28-.32-.67-.16c-.74.31-1.11,1.08-1.9,1.31a2.16,2.16,0,0,1,1.11-1.86c-.28-.16-.45-.15-.61,0a26.45,26.45,0,0,1-2.78,2,4.75,4.75,0,0,1-1.22.82c-.31.1-.33.51-.48.77s-.3.41-.58.22-.37-.32-.16-.61c.49-.66.66-1.5,1.31-2.1-.39-.12-.55.09-.74.3s-.26.3-.45.1a.32.32,0,0,1,0-.44,18.91,18.91,0,0,0,1.38-2.21,7.39,7.39,0,0,1,1.49-1.73,2.52,2.52,0,0,0,.77-1,3.79,3.79,0,0,1,1.32-1.49c.57-.42.87-1.19,1.65-1.34.12,0,.32,0,.29-.22-.08-.58.43-.82.74-1a18.37,18.37,0,0,0,2.28-2,13.1,13.1,0,0,0,2.17-2.46,3.81,3.81,0,0,1,1.27-1c.48-.28.7-.8,1.16-1.09.07,0,.09-.28,0-.38a25.43,25.43,0,0,1-1.19-4.26c-.12-.47-.31-1-.45-1.45a1,1,0,0,1,.12-1.09.27.27,0,0,0,.06-.18c-.52-.2-.06-.47-.08-.71a4.5,4.5,0,0,0-.38-1.14,7,7,0,0,1-.05-3.34c.08-.85.91-.77,1.52-.81.13,0,.2,0,.31-.08.88-.72,1.41-.6,1.81.42a.93.93,0,0,0,.17.21c.22-.69-.06-1.38.22-2.13.29.78.54,1.44.8,2.11.17.45.17.44.54.34A1.47,1.47,0,0,1,134,81.37c.11,1.37.73,2.6.94,3.93a12.81,12.81,0,0,0,.53,1.73c0,.13.16.47.34.22.31-.43.86-.5,1.18-.82.63-.6,1.41-1,2.06-1.52a21.74,21.74,0,0,1,3.37-2.21,12.46,12.46,0,0,0,1.64-1.36,25.72,25.72,0,0,1,4.24-2.84,18.69,18.69,0,0,0,2.49-1.94,13.53,13.53,0,0,1,3.43-2,6,6,0,0,0,1.11-.77,3,3,0,0,1,2-.84c.47,0,.7-.48,1.14-.55C158.64,72.4,158.79,72.36,158.79,72.61Z"/><path class="cls-1" d="M77.61,94.33V79.55c0-1,.11-1.13,1.13-1.13H97.09c.94,0,1.08.14,1.08,1,0,1.86,0,3.73,0,5.59,0,.86-.18,1-1,1H87.65c-.85,0-1,.17-1,1s0,1.59,0,2.38.17,1,1,1h8c1,0,1,.06,1,1v5.65c0,.83-.11,1-.93,1h-8c-1,0-1.14.12-1.14,1.12v10c0,.93-.13,1.06-1.06,1.06h-7c-.81,0-1-.19-1-1C77.6,104.32,77.61,99.33,77.61,94.33Z"/><path class="cls-1" d="M99.69,94.34V79.49c0-1,.09-1.07,1-1.07h18.42c1,0,1.06.11,1.06,1.06v5.58c0,.9-.13,1-1,1H109.7c-.83,0-1,.17-1,1v2.52c0,.78.17,1,1,1h8c1,0,1.08.1,1.08,1.1,0,1.86,0,3.73,0,5.59,0,.75-.2,1-1,1h-8.12c-.88,0-1,.12-1,1v10.15c0,.81-.18,1-1,1h-7.09c-.75,0-.92-.18-.92-.92C99.68,104.38,99.69,99.36,99.69,94.34Z"/><path class="cls-1" d="M67.1,94.33V79.49c0-.94.12-1.07,1.05-1.07h7c.9,0,1,.12,1,1v29.75c0,1-.12,1.11-1.08,1.11H68.15c-.89,0-1.05-.17-1.05-1.08Z"/><path class="cls-1" d="M116.57,118.3A6.78,6.78,0,0,0,116,120a11.73,11.73,0,0,0-.48,1.76.87.87,0,0,1-1.1.82c-.39,0-.59-.1-.7-.52a31.64,31.64,0,0,0-1.21-3.68v3.46a.76.76,0,0,1-1.16.71c-.16-.07-.16-.19-.16-.33v-6c0-.09,0-.24,0-.25a5.28,5.28,0,0,1,1.73-.1c.33,0,.32.27.38.47.39,1.29.77,2.59,1.15,3.9.29-.16.25-.46.33-.7.25-.74.45-1.51.67-2.26.46-1.55.46-1.54,2.05-1.43.31,0,.38.13.38.41,0,1.95,0,3.9,0,5.85,0,.66-.46.39-.76.44s-.59,0-.58-.48C116.59,120.85,116.57,119.6,116.57,118.3Z"/><path class="cls-1" d="M102.26,118.13a1.56,1.56,0,0,0,2.35,1.56c.84-.57,0-1.5.34-2.25.11-.26-.56-.53-1-.59a7.31,7.31,0,0,0-1.13.18c.43-.75.84-1.44,1.23-2.15a.47.47,0,0,1,.49-.28.57.57,0,0,0,.13,0c1.77,0,1.78,0,2.65,1.48l.6,1.06c-.38-.06-.65-.28-1-.28a1.58,1.58,0,0,0-1.63,1.5c0,.36,0,.71.56.75a1.14,1.14,0,0,1,.82.45c.42.58.81.32,1.2,0a1.86,1.86,0,0,0,.58-1.48c.48.82.89,1.54,1.32,2.25a.46.46,0,0,1,0,.55l0,.06c-.87,1.64-.87,1.64-2.76,1.64H105.8c.78-.53,1.22-1.07,1-1.93a1.51,1.51,0,0,0-.65-.91c-.34-.23-.65-.38-1,.08a1.57,1.57,0,0,1-.67.44.94.94,0,0,0-.56,1.53,3.21,3.21,0,0,0,.86.79h-2.7c-.22,0-.3-.13-.41-.29-1-1.55-1-1.55-.1-3.19A3.12,3.12,0,0,1,102.26,118.13Z"/><path class="cls-1" d="M76.34,119.18c0,1.53.7,2.39,1.91,2.35a1.3,1.3,0,0,0,1.25-.77,1.54,1.54,0,0,1,1.48-.33c.25.18,0,.39,0,.54a3.13,3.13,0,0,1-5.15.74,4.07,4.07,0,0,1-.19-5,3.1,3.1,0,0,1,5.18.35c.12.23.41.65.08.74s-1,.31-1.24-.13a1.57,1.57,0,0,0-2-.91,2.1,2.1,0,0,0-1.28,2.11Z"/><path class="cls-1" d="M94.47,122.14v-5.85c0-.16,0-.31-.18-.39-.67-.26-1.16,0-1.16.75v1.22a2.19,2.19,0,0,0-3.49,1.68,2.71,2.71,0,0,0,.9,2.7,1.87,1.87,0,0,0,2.34.07c.21-.13.18,0,.29.12.3.31.72.12,1.09.12S94.47,122.31,94.47,122.14Zm-1.31-2a1.49,1.49,0,0,1-.31,1,1,1,0,0,1-1.64-.11,2,2,0,0,1,0-1.94,1,1,0,0,1,.87-.57,1,1,0,0,1,.94.56A1.75,1.75,0,0,1,93.16,120.17Z"/><path class="cls-1" d="M53.83,127.81H53c-.21-.18-.16-.42-.16-.64q0-6.69,0-13.4c0-.45.06-.72.63-.7s.62.17.62.64c0,2.24,0,4.49,0,6.73s0,4.4,0,6.6C54.07,127.31,54.18,127.63,53.83,127.81Z"/><path class="cls-1" d="M133.6,120.47c.46,0,.91,0,1.37,0s.95,0,1.43,0c.22,0,.37,0,.38-.33a2.64,2.64,0,0,0-1.84-2.57,2.48,2.48,0,0,0-2.68,1,2.81,2.81,0,0,0,.11,3.17,2.51,2.51,0,0,0,4.17-.28c.18-.37.13-.48-.28-.46s-.89,0-1.29.38a1.09,1.09,0,0,1-1.66-.41C133.17,120.67,133.15,120.45,133.6,120.47Zm0-1.65a1.13,1.13,0,0,1,1.58.12c.12.14.26.3.18.48s-.28.08-.42.09h-.61a3.84,3.84,0,0,1-.48,0c-.19,0-.46.12-.54-.12S133.41,119,133.57,118.82Z"/><path class="cls-1" d="M87.67,121.19c-.86.75-1.69.49-2-.71,1.07,0,2.09,0,3.11,0,.36,0,.49-.08.46-.45a2.68,2.68,0,0,0-.9-2,2.44,2.44,0,0,0-3.37.23,2.71,2.71,0,0,0,.06,3.64,2.45,2.45,0,0,0,2.61.67,2.1,2.1,0,0,0,1.54-1.6C88.62,121.1,88.11,120.81,87.67,121.19Zm-1.51-2.45a1,1,0,0,1,.9-.14c.4.13.79.35.72.76s-.5.09-.76.15a1.22,1.22,0,0,1-.27,0,2.8,2.8,0,0,1-.41,0c-.2,0-.52.15-.59-.13S85.93,118.88,86.16,118.74Z"/><path class="cls-1" d="M54.62,120.4c0-1.91,0-3.81,0-5.72,0-.41,0-.74.57-.75s.63.33.63.79q0,5.72,0,11.43c0,.41.08.81-.58.82s-.61-.35-.61-.78C54.63,124.26,54.62,122.33,54.62,120.4Z"/><path class="cls-1" d="M123.15,120.16c0,.57,0,1.14,0,1.7,0,.23.14.6-.13.67s-.81.21-1.09-.07-.27-.13-.46,0a1.7,1.7,0,0,1-2.64-1.45,24.84,24.84,0,0,1,0-3c0-.6.55-.25.84-.32s.52,0,.51.4c0,.84,0,1.67,0,2.51,0,.67.28,1,.86,1s.8-.4.79-.94c0-.84,0-1.68,0-2.52,0-.57.37-.42.64-.39s.73-.26.72.38S123.15,119.46,123.15,120.16Z"/><path class="cls-1" d="M131.26,120.11c0,.59,0,1.18,0,1.77,0,.23.14.59-.14.67s-.79.18-1-.07-.21-.19-.42-.08a1.7,1.7,0,0,1-2.67-1.57c0-.86,0-1.73,0-2.59,0-.48.12-.63.6-.59s.73-.06.7.57a14.84,14.84,0,0,0,0,2.58.72.72,0,0,0,.79.74.73.73,0,0,0,.83-.7,16.49,16.49,0,0,0,0-2.72c0-.59.34-.45.65-.45s.7-.12.65.47S131.26,119.45,131.26,120.11Z"/><path class="cls-1" d="M52.33,120.43c0,1.47,0,2.94,0,4.41,0,.46-.12.65-.61.65s-.63-.17-.63-.64c0-2.94,0-5.89,0-8.83,0-.5.2-.62.65-.62s.6.17.59.61C52.31,117.48,52.33,119,52.33,120.43Z"/><path class="cls-1" d="M72.25,120.79c0,.8,0,1.59,0,2.38a1.07,1.07,0,0,1-1,1.06,1.09,1.09,0,0,1-1.27-.68c-.1-.21-.26-.53,0-.66a.58.58,0,0,1,.79.15c.08.13.11.32.33.22s.13-.27.15-.42-.12-.23-.29-.27c-.9-.21-1.12-.5-1.13-1.4s0-1.68,0-2.52c0-.34,0-.65.46-.64s.52.25.51.62q0,1.26,0,2.52c0,.19,0,.47.25.45s.2-.26.2-.45c0-.86,0-1.72,0-2.58,0-.36.07-.56.48-.57s.49.19.48.55C72.24,119.29,72.25,120,72.25,120.79Z"/><path class="cls-1" d="M124.25,120.18c0-.38,0-.77,0-1.15s0-.58-.45-.52-.29-.21-.28-.41-.08-.47.25-.43c.51.06.5-.24.47-.58V117c0-1,.06-1,1-.89.23,0,.33.08.32.32s0,.59,0,.88.09.43.39.39.49,0,.48.42-.14.49-.47.44-.41.13-.4.43c0,.66,0,1.31,0,2,0,.4.08.68.56.63s.38.31.4.59-.07.48-.41.44a6.53,6.53,0,0,1-1.08-.07,1,1,0,0,1-.79-1c0-.45,0-.9,0-1.36Z"/><path class="cls-1" d="M97.65,120.17c0-.36,0-.72,0-1.08s.06-.67-.46-.58c-.23,0-.26-.14-.23-.3s-.13-.53.13-.52c.83,0,.56-.55.54-.92,0-.54.09-.74.69-.72s.72.13.66.67-.15,1.07.71,1c.3,0,.14.32.17.5s0,.37-.3.32c-.64-.12-.61.28-.59.71s0,1,0,1.5,0,.87.64.85c.43,0,.21.41.25.64s0,.37-.33.38c-1.09,0-2,0-1.89-1.67C97.66,120.67,97.65,120.42,97.65,120.17Z"/><path class="cls-1" d="M50.57,120.47c0,1.16,0,2.31,0,3.47,0,.44-.1.67-.6.67s-.65-.17-.64-.64c0-2.34,0-4.67,0-7,0-.45.11-.65.61-.65s.64.14.63.62C50.56,118.11,50.57,119.29,50.57,120.47Z"/><path class="cls-1" d="M57.53,120.45c0,1.2,0,2.4,0,3.6,0,.43-.16.55-.55.55s-.65-.07-.65-.55q0-3.6,0-7.2c0-.5.26-.53.64-.54s.57.11.56.54C57.52,118.05,57.53,119.25,57.53,120.45Z"/><path class="cls-1" d="M69.29,119.39A1.21,1.21,0,0,0,68.17,118c-.19,0-.34,0-.32-.3,0-.46-.3-.42-.6-.41s-.32.3-.32.54c0,.7,0,1.4,0,2.1s0,1.41,0,2.11c0,.17-.06.36.14.48a1.61,1.61,0,0,0,2.18-1C69.31,120.8,69.3,120.09,69.29,119.39Zm-1,1.86c0,.17,0,.34-.23.34s-.22-.13-.22-.29v-2c0-.16.09-.27.24-.26s.21.13.21.28v1h0Z"/><path class="cls-1" d="M137.35,119.2c0-1,0-1.9,0-2.85,0-.58.33-.46.65-.46s.72-.14.71.49q0,2.85,0,5.7c0,.68-.43.46-.77.5s-.61,0-.59-.53C137.38,121.11,137.35,120.15,137.35,119.2Z"/><path class="cls-1" d="M84.36,117.55c.09.66.18,1.19-.72,1.28-.54,0-.69.62-.72,1.1a17.63,17.63,0,0,0,0,2.18c0,.59-.32.47-.65.47s-.66.08-.65-.48c0-1.25,0-2.49,0-3.74,0-.23-.16-.59.14-.66s.81-.2,1.08.1.2.15.33,0A1.79,1.79,0,0,1,84.36,117.55Z"/><path class="cls-1" d="M61.06,120.48c0,.79,0,1.58,0,2.37,0,.47-.21.57-.62.57s-.63-.11-.62-.57c0-1.61,0-3.22,0-4.82,0-.46.21-.58.62-.58s.63.12.62.59C61,118.85,61.06,119.66,61.06,120.48Z"/><path class="cls-1" d="M96.54,120.09c0,.68,0,1.37,0,2s-.37.44-.68.45-.68.11-.67-.47c0-1.33,0-2.67,0-4,0-.66.46-.39.76-.43s.62-.06.59.45S96.54,119.44,96.54,120.09Z"/><path class="cls-1" d="M48.8,120.48c0,.7,0,1.4,0,2.1,0,.42-.16.56-.56.56s-.65-.1-.65-.56c0-1.43,0-2.85,0-4.27,0-.49.26-.55.65-.55s.57.13.56.55C48.78,119,48.8,119.76,48.8,120.48Z"/><path class="cls-1" d="M59.31,120.46c0,.52,0,1,0,1.56s-.27.48-.62.48-.62,0-.61-.49c0-1,0-2.08,0-3.12,0-.5.29-.52.67-.53s.59.12.57.54S59.31,119.94,59.31,120.46Z"/><path class="cls-1" d="M42.37,120.37c0-.33-.17-.84.59-.85s.64.48.63.92.16.93-.6.94S42.36,120.91,42.37,120.37Z"/><path class="cls-1" d="M44.12,120.52c0-.53-.14-1,.62-1s.6.51.6,1,.12.92-.63.91S44.15,120.85,44.12,120.52Z"/><path class="cls-1" d="M62.81,120.48c0,.41.14.91-.58.9-.45,0-.69-.13-.63-.63a2.46,2.46,0,0,0,0-.47c0-.4,0-.76.56-.76s.71.27.66.76A1.27,1.27,0,0,0,62.81,120.48Z"/><path class="cls-1" d="M45.88,120.46c0-.43-.18-.95.6-.94s.59.51.6.93.13.93-.62.93S45.94,120.84,45.88,120.46Z"/><path class="cls-1" d="M63.36,120.39c.11-.25-.25-.72.32-.84s.86,0,.87.7c0,.16,0,.32,0,.48,0,.44-.13.65-.61.65s-.63-.25-.58-.68C63.37,120.62,63.36,120.52,63.36,120.39Z"/><path class="cls-1" d="M40.73,121.24v-1.6c.37-.14.85-.27,1,.1a1.63,1.63,0,0,1,0,1.43C41.56,121.51,41.09,121.45,40.73,121.24Z"/><path class="cls-1" d="M88.24,115.75l-.81,1.15c-.31.43-.74.2-1.12.2-.16,0-.08-.16-.06-.26.18-1,.33-1.09,1.3-1.09Z"/><path class="cls-1" d="M131.2,102a2.37,2.37,0,0,1-1.5,1.23.47.47,0,0,1-.4,0c-.4-.26-.19-.56,0-.78a2.71,2.71,0,0,1,1.36-.94c.38,0,.36.35.55.52Z"/><path class="cls-1" d="M95.9,117c-.42,0-.72.06-.71-.54s.24-.61.68-.6.7,0,.7.58S96.33,117.1,95.9,117Z"/><path class="cls-1" d="M129.41,103.14l.29.12a1.06,1.06,0,0,1-.8.84c-.26-.38,0-.59.26-.79C129.19,103.17,129.37,103.26,129.41,103.14Z"/><path class="cls-1" d="M142.81,90.87c.1-.63.5-.81,1.23-.54l-.38.4c-.11.07,0-.24-.17-.1a1.61,1.61,0,0,1-.59.28Z"/><path class="cls-1" d="M141.85,113.09c-.51-.32-.52-.85-.51-1.4L142,113Z"/><path class="cls-1" d="M142.53,91.41c-.13,0-.33.07-.37,0s.09-.26.18-.35a.55.55,0,0,1,.47-.21h0c.06,0,.15.07.15.18Z"/><path class="cls-1" d="M143,91l-.15-.18c.28-.06.49-.58.85-.13A1.15,1.15,0,0,1,143,91Z"/><path class="cls-1" d="M158.79,72.61c-.06-.13-.19-.13-.31-.16.29-.13.52-.4.93-.38C159.33,72.46,159.05,72.53,158.79,72.61Z"/><path class="cls-1" d="M129.41,103.14c.06.27-.08.24-.25.17s-.5-.07-.39-.36.08-.85.54-1c.31-.11.54-.18.2-.52-.11-.11-.07-.25.07-.34a2.92,2.92,0,0,1,1.44-.67c-.2.33-.8.55-.21.95.08.15-.05.2-.14.26a10.37,10.37,0,0,0-1.14.83C129.39,102.58,128.9,102.82,129.41,103.14Z"/><path class="cls-1" d="M140.49,92.62c-.1-.2-.56-.14-.4-.49a.39.39,0,0,1,.58-.22c.18.08.24,0,.16-.21s.06-.3.16-.39.24-.36.42-.25-.11.28-.09.39c.08.49-.1.75-.6.79a.83.83,0,0,1-.11.53C140.48,92.79,140.44,92.75,140.49,92.62Z"/><path class="cls-1" d="M125.78,105.89c-.23.25-.41.45-.6.64s-.16.18-.27,0-.07-.17,0-.22S125.34,105.84,125.78,105.89Z"/><path class="cls-1" d="M138.43,93.9a.46.46,0,0,1-.5.24c-.11,0-.17-.07-.14-.17s.2-.35.45-.27C138.34,93.73,138.46,93.75,138.43,93.9Z"/><path class="cls-1" d="M155.09,78.59a1.46,1.46,0,0,1-.93.73c.16-.54.59-.57.94-.72Z"/><path class="cls-1" d="M130.67,101.61l.14-.26a.52.52,0,0,1,.41.69C130.85,102.14,131,101.56,130.67,101.61Z"/><path class="cls-1" d="M127.69,103.8c-.07.46-.14.68-.56.7A1.23,1.23,0,0,1,127.69,103.8Z"/><path class="cls-1" d="M131.71,100.58c-.14.2-.13.57-.62.5C131.27,100.82,131.39,100.61,131.71,100.58Z"/><path class="cls-1" d="M128.67,102.36a.16.16,0,0,1-.22.16c-.07,0-.13-.1-.19-.15s.11-.21.19-.23S128.63,102.24,128.67,102.36Z"/><path class="cls-1" d="M140.49,92.62l.12.15c-.11.22-.32.33-.62.56A.89.89,0,0,1,140.49,92.62Z"/><path class="cls-1" d="M124.14,107.31c0-.25.07-.42.27-.51.19.1.1.22,0,.33S124.34,107.33,124.14,107.31Z"/><path class="cls-1" d="M145.22,88.67a.24.24,0,0,1-.08-.11c0-.11.07-.15.16-.15s.19,0,.16.15S145.35,88.68,145.22,88.67Z"/><path class="cls-1" d="M120.69,106.27c0,.13,0,.21-.14.24s-.14-.08-.13-.16,0-.2.15-.18S120.66,106.25,120.69,106.27Z"/><path class="cls-1" d="M137.62,104l-.08.11a.65.65,0,0,1-.13-.23s.07-.12.09-.12S137.62,103.86,137.62,104Z"/><path class="cls-1" d="M100,197.26A97.26,97.26,0,1,1,197.26,100,97.37,97.37,0,0,1,100,197.26ZM100,6.74A93.26,93.26,0,1,0,193.26,100,93.37,93.37,0,0,0,100,6.74Z"/></svg>