<svg id="Calque_1" data-name="Calque 1" xmlns="http://www.w3.org/2000/svg" viewBox="0 0 200 200"><defs><style>.cls-1{fill:#1b3f88;}</style></defs><g id="GPDZYw.tif"><path class="cls-1" d="M118.7,58.73h1.7l1,.1a20.71,20.71,0,0,1,12.92,6.08,1,1,0,0,0,1.08.31,42.41,42.41,0,0,0,12-4.62l.37-.19.08.09A21.22,21.22,0,0,1,139,71.73a42.49,42.49,0,0,0,11.52-3,1.12,1.12,0,0,1-.2.44A41.5,41.5,0,0,1,141,78.81a1.37,1.37,0,0,0-.63,1.28,54.16,54.16,0,0,1-.93,12.32,60.85,60.85,0,0,1-19,34.26A54.25,54.25,0,0,1,106.25,136,58.49,58.49,0,0,1,86,141.09a62.27,62.27,0,0,1-12.36-.29,58.93,58.93,0,0,1-23.8-8.48l-.35-.24a42.25,42.25,0,0,0,30.41-8.72,21.32,21.32,0,0,1-11.9-4.2,20.25,20.25,0,0,1-7.31-10.23,21.3,21.3,0,0,0,9.06-.46,21.66,21.66,0,0,1-8.5-4.06,20.54,20.54,0,0,1-5.9-7.34,20.11,20.11,0,0,1-2-9.26,20,20,0,0,0,9.21,2.51A20.94,20.94,0,0,1,54,77.72a20.69,20.69,0,0,1,2.25-15.11c.2.2.32.32.43.45a59.47,59.47,0,0,0,12.23,11.1,59,59,0,0,0,17.65,8.16,60.16,60.16,0,0,0,12,2c.66,0,.68,0,.55-.64a21.31,21.31,0,0,1-.2-6.9A20.85,20.85,0,0,1,116,59.05C116.92,58.91,117.81,58.84,118.7,58.73Z"/></g><path class="cls-1" d="M100,197.26A97.26,97.26,0,1,1,197.26,100,97.37,97.37,0,0,1,100,197.26ZM100,6.74A93.26,93.26,0,1,0,193.26,100,93.37,93.37,0,0,0,100,6.74Z"/></svg>