<svg id="Calque_1" data-name="Calque 1" xmlns="http://www.w3.org/2000/svg" viewBox="0 0 200 200"><defs><style>.cls-1{fill:#1b3f88;}</style></defs><g id="Qs2d1q.tif"><path class="cls-1" d="M53.29,100.36v-.79a.8.8,0,0,0,.05-.21c0-1.24.06-2.48.12-3.72q.12-2.88.28-5.76c.15-2.81.4-5.62.8-8.41a24.19,24.19,0,0,1,1.4-5.6,10.28,10.28,0,0,1,5.82-6,19.1,19.1,0,0,1,5.66-1.35c2.43-.24,4.86-.41,7.29-.56,2.05-.13,4.1-.21,6.15-.28,2.25-.07,4.5-.12,6.75-.17s4.53-.08,6.8-.11c1.69,0,3.38-.07,5.07-.07,2.16,0,4.33.06,6.5.09l3.72.06c2.66.05,5.32.1,8,.17,2,.05,4,.11,6,.23q4.44.27,8.88.63a19.84,19.84,0,0,1,4.86,1,10.45,10.45,0,0,1,5.5,4,14.84,14.84,0,0,1,1.88,4.32A42.57,42.57,0,0,1,146,85.63q.3,3.44.46,6.89c.13,2.57.22,5.15.26,7.72,0,1.51-.07,3-.14,4.53-.08,1.88-.17,3.75-.28,5.62-.16,2.76-.4,5.51-.8,8.24a24.19,24.19,0,0,1-1.34,5.36,10.32,10.32,0,0,1-5.25,5.85,17.48,17.48,0,0,1-5.61,1.54c-1.85.21-3.72.38-5.58.5-2.49.16-5,.28-7.49.39-2,.08-3.93.12-5.9.17s-4.13.08-6.19.11l-6.33.08c-.4,0-.79,0-1.19.06H99.48a1,1,0,0,0-.24-.05l-3.95-.06c-2.37,0-4.74-.06-7.11-.11s-4.71-.1-7.06-.17c-1.67-.05-3.35-.09-5-.2-2.79-.17-5.59-.37-8.37-.6a20.63,20.63,0,0,1-5.27-1.11,10.5,10.5,0,0,1-4.73-3.22,13.65,13.65,0,0,1-2.46-5.1,39.86,39.86,0,0,1-1.16-7.28c-.23-2.74-.4-5.49-.55-8.23-.11-1.84-.13-3.68-.2-5.51C53.34,100.82,53.31,100.59,53.29,100.36ZM115,100l-24.26-14v28Z"/></g><path class="cls-1" d="M100,197.26A97.26,97.26,0,1,1,197.26,100,97.37,97.37,0,0,1,100,197.26ZM100,6.74A93.26,93.26,0,1,0,193.26,100,93.37,93.37,0,0,0,100,6.74Z"/></svg>