<svg id="Слой_1" xmlns="http://www.w3.org/2000/svg" xmlns:xlink="http://www.w3.org/1999/xlink" viewBox="0 0 143.9 15.1"><style>.st0,.st1{clip-path:url(#SVGID_2_);fill:#1f5da5}.st1{fill:#c20d19}</style><defs><path id="SVGID_1_" d="M0 0h143.9v15.1H0z"/></defs><clipPath id="SVGID_2_"><use xlink:href="#SVGID_1_" overflow="visible"/></clipPath><path class="st0" d="M103.3 13.7c-.5-.5-.6-1.4-.6-2.4V6.8h-1.2V5.1h1.2V2.2h2.5V5h1.6v1.7h-1.6v4.4c0 1.4.7 1.1 1.8 1.1v1.9c-3.1.5-3.4-.1-3.7-.4M119 10.6c.2 2.5 3.6 2.3 4 .8h2.4c-.3 1.5-1.2 2.1-2.1 2.6-1.2.7-2.8.7-4.1.1-1.3-.6-2.1-1.7-2.5-3.1-.6-2.2.3-4.5 2.3-5.7 1.3-.8 2.6-.6 3.4-.3 1.9.6 3.6 3.2 3.1 5.6H119zm1.1-1.7h3s0-.7-.4-1.1c-.3-.4-.6-.5-1-.6-1.4-.4-2.4.4-2.7 1.3-.1.2-.1.4-.1.4h1.2M113.2 13.4s-.3.2-.4.3c-1.9 1.4-4.2 1.1-4.8-.8-.2-.5-.3-1.4-.3-2.2V5.2h2.3v5.2c0 1.9.9 2.3 1.8 2.1.6-.1 1.1-.5 1.2-1.9V5.2h2.5v9.2h-2.3c-.1 0 0-1 0-1M50 2h2.5v2.3H50z"/><path class="st0" d="M42.3 8.7c.5-1.6 2-2.3 3-1.5 1.5 1.2 1.1 4.4-.4 5.4-.7.4-1.6.1-2.2-.7-.6-.9-.7-2.3-.4-3.2m4.1 5.6H49V2h-2.6v4.1c-.9-1.1-2.6-1.3-3.8-.8-2.6 1.1-3.1 4.4-2.2 6.8.4 1 1.2 2 2.3 2.3 1.2.4 2.6.4 3.6-1v.9M17.9 12.2c1.7.4 3.2-.6 3.7-1.7h2.2c-.3 1.7-1.4 2.9-2.9 3.5-2.5 1-5.3.3-7-2.1-1.5-2.1-1.6-4.7-.8-7 1.1-3 4.6-4.6 7.5-3.4 1.6.6 2.6 1.6 3.2 3.5h-2.2c-.5-1.1-1.7-1.9-3.1-1.8-.9 0-1.7.4-2.5 1.4-1.8 2.4-1.4 6.9 1.9 7.6M27.2 5.1v1.1c.6-.9 1.9-1.4 2.9-1.2v1.9c-.9-.1-2.7.4-2.7 2.2v5.4h-2.5V5.2l2.3-.1M55 13.8c-.5-.5-.6-1.4-.6-2.4V6.9h-1.2V5.2h1.2V2.3h2.5v2.9h1.6v1.7h-1.6v4.5c0 1.4.7 1.1 1.8 1.1v1.9c-3.1.3-3.4-.3-3.7-.6M50 5.2h2.5v9.2H50zM81.4 14.3H79V2h3.6l2.4 8.3L87.5 2H91v12.3l-2.4.1V5.9l-2.3 8.4h-2.5l-2.4-8.2zM98.4 13.3s-.3.2-.4.3c-1.9 1.4-4.2 1.1-4.8-.8-.2-.5-.3-1.4-.3-2.2V5.1h2.3v5.2c0 1.9.9 2.3 1.8 2.1.6-.1 1.1-.5 1.2-1.9V5.1h2.5v9.2h-2.3s.1-1 0-1M126.5 2h2.3v12.3h-2.3zM32.4 10.5c.2 2.5 3.6 2.3 4 .8h2.4c-.3 1.5-1.2 2.1-2.1 2.6-1.2.7-2.8.7-4.1.1-1.3-.6-2.1-1.7-2.5-3.1-.6-2.2.3-4.5 2.3-5.7 1.4-.7 2.6-.5 3.4-.2 1.9.6 3.6 3.2 3.1 5.6l-6.5-.1zm1.2-1.7h3s0-.7-.4-1.1c-.3-.4-.6-.5-1-.6-1.4-.4-2.4.4-2.7 1.3-.1.2-.1.4-.1.4h1.2M34.3 1.8h2.5L35.5 4h-1.9z"/><path class="st1" d="M74.2 5.8c.2.4.3.8.3 1.2 0 1.5-1 2.7-2.4 3-.9-2-2.6-2.2-3.4-2.2v-.1c-.2-.5-.5-1.3 0-2.3.5-.9 1.5-1.6 2.7-1.6 1 0 1.8.5 2.4 1.1l-3-5h-4.3l-3 5c.6-.7 1.4-1.1 2.4-1.1s1.9.5 2.5 1.3c-.6 1.3-.3 2.2-.1 2.8 0 .1.1.2.1.2v.1c-.6 1.4-2.2 2-3.4 1.7-1.3-.4-2.3-1.6-2.3-3 0-.4.1-.8.3-1.2l-3 4.9 2.2 3.6h6c-1.5-.2-2.7-1.5-2.7-3.1 0-.2 0-.4.1-.7 1.3 0 2.7-.8 3.3-2.2.7 0 1.9.3 2.7 1.8.1.3.2.7.2 1.1 0 1.6-1.2 2.9-2.7 3.1H75l2.2-3.6-3-4.8z"/></svg>
